<svg width="63" height="63" viewBox="0 0 63 63" fill="none" xmlns="http://www.w3.org/2000/svg">
<g clip-path="url(#clip0_1128_14028)">
<path d="M24.0811 24.0831C26.4007 21.7634 26.4007 17.9946 24.0811 15.6749C21.7614 13.3552 17.9977 13.3501 15.6729 15.6749C13.3481 17.9997 13.348 21.7583 15.6729 24.0831C17.9977 26.4079 21.7563 26.4079 24.0811 24.0831Z" fill="white"/>
<path d="M47.0742 24.0998C49.3939 21.7801 49.3939 18.0113 47.0742 15.6916C44.7545 13.3719 40.9908 13.3668 38.666 15.6916C36.3412 18.0164 36.3412 21.775 38.666 24.0998C40.9908 26.4246 44.7494 26.4246 47.0742 24.0998Z" fill="white"/>
<path d="M47.0742 47.076C49.3939 44.7564 49.3939 40.9875 47.0742 38.6678C44.7545 36.3482 40.9908 36.343 38.666 38.6678C36.3412 40.9926 36.3412 44.7512 38.666 47.076C40.9908 49.4008 44.7494 49.4008 47.0742 47.076Z" fill="white"/>
<path d="M24.0879 38.6714C21.7682 36.3517 17.9994 36.3517 15.6797 38.6714C13.36 40.9911 13.3549 44.7548 15.6797 47.0796C18.0045 49.4044 21.7631 49.4044 24.0879 47.0796C26.4127 44.7548 26.4127 40.9962 24.0879 38.6714Z" fill="white"/>
<path d="M27.1777 35.5882C29.4974 33.2685 29.4974 29.4997 27.1777 27.18C24.8581 24.8603 21.0943 24.8552 18.7695 27.18C16.4447 29.5048 16.4447 33.2634 18.7695 35.5882C21.0943 37.913 24.8529 37.913 27.1777 35.5882Z" fill="white"/>
<path d="M35.585 43.9952C37.9046 41.6756 37.9046 37.9067 35.585 35.587C33.2653 33.2674 29.5016 33.2622 27.1768 35.587C24.852 37.9118 24.852 41.6704 27.1768 43.9952C29.5016 46.32 33.2602 46.32 35.585 43.9952Z" fill="white"/>
<path d="M35.585 18.7707C33.2653 16.451 29.4964 16.451 27.1768 18.7707C24.8571 21.0904 24.852 24.8541 27.1768 27.1789C29.5016 29.5037 33.2602 29.5037 35.585 27.1789C37.9098 24.8541 37.9098 21.0955 35.585 18.7707Z" fill="white"/>
<path d="M43.9912 27.1766C41.6715 24.8569 37.9027 24.8569 35.583 27.1766C33.2633 29.4963 33.2582 33.26 35.583 35.5848C37.9078 37.9096 41.6664 37.9096 43.9912 35.5848C46.316 33.26 46.316 29.5014 43.9912 27.1766Z" fill="white"/>
</g>
<defs>
<clipPath id="clip0_1128_14028">
<rect width="44.3831" height="44.3831" fill="white" transform="translate(31.3828) rotate(45)"/>
</clipPath>
</defs>
</svg>