<svg width="612" height="792" viewBox="0 0 612 792" fill="none" xmlns="http://www.w3.org/2000/svg">
<path d="M306 286.9C246 286.9 197.3 335.6 197.3 395.6C197.3 455.6 246 504.3 306 504.3C366 504.3 414.7 455.6 414.7 395.6C414.7 335.6 366 286.9 306 286.9ZM306 501.3C247.6 501.3 200.3 454 200.3 395.6C200.3 337.2 247.6 289.9 306 289.9C364.4 289.9 411.7 337.2 411.7 395.6C411.7 454 364.4 501.3 306 501.3Z" fill="black"/>
<path d="M306 210.4C204.4 210.4 122 293.5 122 396C122 498.5 204.4 581.6 306 581.6C407.6 581.6 490 498.5 490 396C490 293.5 407.6 210.4 306 210.4ZM306 578.6C206 578.6 125 496.8 125 396C125 295.2 206 213.4 306 213.4C406 213.4 487 295.2 487 396C487 496.8 406 578.6 306 578.6Z" fill="black"/>
</svg>
