<svg width="612" height="792" viewBox="0 0 612 792" fill="none" xmlns="http://www.w3.org/2000/svg">
<path d="M369.6 396C334.5 396 306 424.6 306 459.8C306 495 334.5 523.6 369.6 523.6C404.7 523.6 433.2 495 433.2 459.8C433.2 424.6 404.6 396 369.6 396ZM369.6 520.5C336.2 520.5 309 493.2 309 459.7C309 426.2 336.2 398.9 369.6 398.9C403 398.9 430.2 426.2 430.2 459.7C430.2 493.2 403 520.5 369.6 520.5Z" fill="black"/>
<path d="M242.4 396C207.3 396 178.8 424.6 178.8 459.8C178.8 495 207.3 523.6 242.4 523.6C277.5 523.6 306 495 306 459.8C306 424.6 277.5 396 242.4 396ZM242.4 520.5C209 520.5 181.8 493.2 181.8 459.7C181.8 426.2 209 399 242.4 399C275.8 399 303 426.3 303 459.8C303 493.3 275.8 520.5 242.4 520.5Z" fill="black"/>
<path d="M369.6 396C404.7 396 433.2 367.4 433.2 332.2C433.2 297 404.7 268.4 369.6 268.4C334.5 268.4 306 297.1 306 332.2C306 367.3 334.5 396 369.6 396ZM369.6 271.5C403 271.5 430.2 298.8 430.2 332.3C430.2 365.8 403 393 369.6 393C336.2 393 309 365.7 309 332.2C309 298.7 336.2 271.5 369.6 271.5Z" fill="black"/>
<path d="M306 332.2C306 297 277.5 268.4 242.4 268.4C207.3 268.4 178.8 297 178.8 332.2C178.8 367.4 207.3 396 242.4 396C277.5 396 306 367.4 306 332.2ZM242.4 393C209 393 181.8 365.7 181.8 332.2C181.8 298.7 209 271.4 242.4 271.4C275.8 271.4 303 298.7 303 332.2C303 365.7 275.8 393 242.4 393Z" fill="black"/>
<path d="M306 210.4C204.4 210.4 122 293.5 122 396C122 498.5 204.4 581.6 306 581.6C407.6 581.6 490 498.5 490 396C490 293.5 407.6 210.4 306 210.4ZM306 578.6C206 578.6 125 496.8 125 396C125 295.2 206 213.4 306 213.4C406 213.4 487 295.2 487 396C487 496.8 406 578.6 306 578.6Z" fill="black"/>
</svg>
