<svg width="612" height="792" viewBox="0 0 612 792" fill="none" xmlns="http://www.w3.org/2000/svg">
<path d="M460 354.5C460 314.7 427.7 282.4 388 282.4C383.3 282.4 378.5 282.9 373.9 283.8C363.7 255.2 336.6 236 306.2 236C275.7 236 248.7 255.2 238.5 283.9C233.7 282.9 228.9 282.4 224.1 282.4C184.4 282.4 152.1 314.8 152.1 354.5C152.1 383.7 169.2 409.5 195.9 420.9C182 434.4 174 453.2 174 472.7C174 512.5 206.3 544.8 246 544.8C270.5 544.8 292.9 532.6 306.2 512.1C319.6 532.6 341.9 544.8 366.4 544.8C406.1 544.8 438.4 512.4 438.4 472.7C438.4 453.2 430.4 434.4 416.5 420.9C442.9 409.4 460 383.6 460 354.5ZM388 285.3C426 285.3 457 316.3 457 354.4C457 383.1 439.8 408.3 413.2 418.8C405.2 422 396.7 423.5 388.1 423.5C370.9 423.5 354.5 417.1 341.8 405.6C333.5 398.1 327.2 388.6 323.3 378.1C323.5 378 323.7 378 324 377.9C324.5 377.8 324.9 377.7 325.4 377.5C325.9 377.4 326.4 377.2 326.9 377.1C327.3 377 327.8 376.8 328.2 376.7C328.7 376.5 329.2 376.4 329.7 376.2C330.1 376 330.6 375.9 331 375.7C331.5 375.5 332 375.3 332.5 375.1C332.9 374.9 333.4 374.8 333.8 374.6C334.3 374.4 334.8 374.2 335.3 374C335.7 373.8 336.1 373.6 336.6 373.4C337.1 373.2 337.6 372.9 338 372.7C338.4 372.5 338.8 372.3 339.2 372.1C339.7 371.9 340.1 371.6 340.6 371.3C341 371.1 341.4 370.9 341.8 370.6C342.3 370.3 342.7 370.1 343.2 369.8C343.6 369.6 344 369.3 344.4 369.1C344.9 368.8 345.3 368.5 345.7 368.2C346.1 368 346.5 367.7 346.8 367.4C347.2 367.1 347.7 366.8 348.1 366.5C348.5 366.2 348.8 366 349.2 365.7C349.6 365.4 350.1 365 350.5 364.7C350.9 364.4 351.2 364.2 351.6 363.9C352 363.6 352.4 363.2 352.9 362.8C353.2 362.5 353.6 362.2 353.9 361.9C354.3 361.5 354.7 361.1 355.1 360.8C355.4 360.5 355.7 360.2 356 359.9C356.4 359.5 356.8 359.1 357.2 358.7C357.5 358.4 357.8 358.1 358.1 357.8C358.6 357.3 359 356.8 359.4 356.4C359.6 356.1 359.9 355.9 360.1 355.6C360.8 354.9 361.4 354.1 362 353.3C372.4 340.5 378.1 324.3 378.1 307.8C378.1 306.9 378.1 305.9 378 305C378 304.7 378 304.4 377.9 304.1C377.9 303.5 377.8 302.8 377.8 302.2C377.8 301.8 377.7 301.4 377.7 301.1C377.6 300.5 377.6 300 377.5 299.4C377.5 299 377.4 298.6 377.3 298.2C377.2 297.7 377.2 297.1 377.1 296.6C377 296.2 377 295.8 376.9 295.4C376.8 294.9 376.7 294.4 376.6 293.8C376.5 293.4 376.4 293 376.3 292.6C376.2 292.1 376.1 291.6 375.9 291.1C375.8 290.7 375.7 290.3 375.6 289.9C375.5 289.4 375.3 288.9 375.2 288.4C375.1 288 375 287.6 374.9 287.2C374.8 287 374.8 286.8 374.7 286.5C379.2 285.8 383.6 285.3 388 285.3ZM338 406.3C325 411.9 313.9 421.3 306.1 433.1C298.3 421.2 287.1 411.8 274.1 406.2C282 398.5 288 389.1 291.7 378.7C296.5 379.7 301.3 380.2 306.1 380.2C310.8 380.2 315.6 379.7 320.2 378.8C324 389.2 330.1 398.6 338 406.3ZM306.2 239C335.8 239 362 257.9 371.5 286C373.9 293.2 375.1 300.6 375.1 308.2C375.1 340.4 352.3 368.8 320.9 375.7C311.6 377.7 302 377.8 292.6 376C292.7 375.8 292.7 375.6 292.8 375.3C292.9 374.9 293 374.5 293.1 374.1C293.2 373.6 293.4 373.1 293.5 372.5C293.6 372.1 293.7 371.7 293.8 371.3C293.9 370.8 294 370.3 294.2 369.7C294.3 369.3 294.4 368.9 294.5 368.5C294.6 368 294.7 367.4 294.8 366.9C294.9 366.5 294.9 366.1 295 365.7C295.1 365.2 295.2 364.6 295.2 364.1C295.3 363.7 295.3 363.3 295.4 362.9C295.5 362.3 295.5 361.8 295.6 361.2C295.6 360.8 295.7 360.5 295.7 360.1C295.7 359.5 295.8 358.8 295.8 358.2C295.8 357.9 295.8 357.6 295.9 357.3C295.9 356.4 296 355.4 296 354.5C296 338 290.3 321.9 280 309.1C279.4 308.3 278.7 307.6 278.1 306.8C277.9 306.5 277.6 306.3 277.4 306C277 305.5 276.5 305 276.1 304.6C275.8 304.3 275.5 304 275.2 303.7C274.8 303.3 274.4 302.9 274 302.5C273.7 302.2 273.4 301.9 273 301.6C272.6 301.2 272.2 300.8 271.8 300.5C271.5 300.2 271.1 299.9 270.8 299.6C270.4 299.3 270 298.9 269.6 298.6C269.2 298.3 268.9 298 268.5 297.8C268.1 297.5 267.7 297.1 267.2 296.8C266.8 296.5 266.5 296.3 266.1 296C265.7 295.7 265.3 295.4 264.8 295.1C264.4 294.8 264 294.6 263.6 294.3C263.2 294 262.7 293.7 262.3 293.4C261.9 293.2 261.5 292.9 261.1 292.7C260.7 292.4 260.2 292.2 259.8 291.9C259.4 291.7 259 291.4 258.6 291.2C258.1 291 257.7 290.7 257.2 290.5C256.8 290.3 256.4 290.1 255.9 289.9C255.4 289.7 255 289.4 254.5 289.2C254.1 289 253.6 288.8 253.2 288.6C252.7 288.4 252.3 288.2 251.8 288C251.4 287.8 250.9 287.6 250.5 287.5C250 287.3 249.5 287.1 249.1 286.9C248.7 286.7 248.2 286.6 247.8 286.4C247.3 286.2 246.8 286.1 246.3 285.9C245.9 285.8 245.4 285.6 244.9 285.5C244.4 285.4 243.9 285.2 243.4 285.1C242.9 285 242.5 284.8 242 284.7C241.8 284.6 241.6 284.6 241.3 284.5C251.3 257.2 277.1 239 306.2 239ZM155 354.5C155 316.4 185.9 285.4 224 285.4C229 285.4 234.1 286 239.1 287.1C254.1 290.5 267.8 299 277.6 311.1C287.5 323.3 293 338.8 293 354.6C293 362.1 291.8 369.5 289.4 376.7C285.8 387.5 279.4 397.4 271.1 405.2C270.7 405 270.3 404.9 269.9 404.8C269.4 404.6 269 404.5 268.5 404.3C267.9 404.1 267.4 403.9 266.8 403.8C266.3 403.7 265.9 403.5 265.4 403.4C264.8 403.2 264.2 403.1 263.6 402.9C263.1 402.8 262.7 402.7 262.2 402.6C261.6 402.5 261 402.3 260.4 402.2C259.9 402.1 259.5 402 259 401.9C258.4 401.8 257.7 401.7 257.1 401.6C256.7 401.5 256.2 401.5 255.8 401.4C255.1 401.3 254.5 401.2 253.8 401.2C253.4 401.2 253 401.1 252.5 401.1C251.8 401 251 401 250.3 400.9C249.9 400.9 249.6 400.8 249.2 400.8C248.1 400.8 247 400.7 245.9 400.7C244.8 400.7 243.7 400.7 242.6 400.8C242.2 400.8 241.9 400.9 241.5 400.9C240.8 400.9 240 401 239.3 401.1C238.9 401.1 238.4 401.2 238 401.2C237.3 401.3 236.7 401.3 236 401.4C235.5 401.5 235.1 401.5 234.6 401.6C234 401.7 233.3 401.8 232.7 401.9C232.2 402 231.8 402.1 231.3 402.2C230.7 402.3 230.1 402.4 229.5 402.6C229 402.7 228.6 402.8 228.1 403C227.5 403.1 226.9 403.3 226.3 403.5C225.8 403.6 225.4 403.8 224.9 403.9C224.3 404.1 223.8 404.2 223.2 404.4C222.7 404.6 222.3 404.7 221.8 404.9C221.2 405.1 220.7 405.3 220.1 405.5C219.6 405.7 219.2 405.9 218.7 406.1C218.2 406.3 217.6 406.5 217.1 406.8C216.6 407 216.2 407.2 215.7 407.4C215.2 407.6 214.7 407.9 214.1 408.1C213.6 408.3 213.2 408.6 212.7 408.8C212.2 409.1 211.7 409.3 211.2 409.6C210.7 409.9 210.3 410.1 209.8 410.4C209.3 410.7 208.8 411 208.3 411.3C207.8 411.6 207.4 411.9 207 412.2C206.5 412.5 206 412.8 205.6 413.1C205.2 413.4 204.7 413.7 204.3 414C203.8 414.3 203.4 414.6 202.9 415C202.5 415.3 202 415.7 201.6 416C201.2 416.3 200.7 416.7 200.3 417C199.9 417.3 199.5 417.7 199 418.1C198.7 418.4 198.4 418.6 198.1 418.9C171.9 408 155 382.9 155 354.5ZM245.9 541.7C207.9 541.7 176.9 510.7 176.9 472.6C176.9 453.2 185.1 434.5 199.5 421.4C212.2 409.8 228.7 403.4 245.9 403.4C254.5 403.4 262.9 405 270.9 408.1C284.7 413.5 296.6 423.3 304.4 435.9C304.3 436.1 304.1 436.4 304 436.6C303.8 436.9 303.6 437.3 303.4 437.6C303.2 438 303 438.3 302.8 438.7C302.6 439 302.4 439.4 302.3 439.7C302.1 440.1 301.9 440.4 301.7 440.8C301.5 441.2 301.4 441.5 301.2 441.9C301 442.3 300.9 442.7 300.7 443C300.5 443.4 300.4 443.7 300.2 444.1C300 444.5 299.9 444.9 299.7 445.3C299.6 445.7 299.4 446 299.3 446.4C299.1 446.8 299 447.2 298.9 447.6C298.8 448 298.6 448.3 298.5 448.7C298.4 449.1 298.2 449.5 298.1 449.9C298 450.3 297.9 450.6 297.7 451C297.6 451.4 297.5 451.8 297.3 452.2C297.2 452.6 297.1 452.9 297 453.3C296.9 453.7 296.8 454.1 296.7 454.5C296.6 454.9 296.5 455.2 296.4 455.6C296.3 456 296.2 456.4 296.1 456.9C296 457.3 295.9 457.6 295.9 458C295.8 458.4 295.7 458.9 295.7 459.3C295.6 459.7 295.6 460 295.5 460.4C295.4 460.8 295.4 461.3 295.3 461.7C295.2 462.1 295.2 462.4 295.1 462.8C295 463.3 295 463.7 294.9 464.2C294.9 464.5 294.8 464.9 294.8 465.2C294.8 465.7 294.7 466.2 294.7 466.6C294.7 466.9 294.6 467.3 294.6 467.6C294.6 468.1 294.5 468.7 294.5 469.2C294.5 469.5 294.5 469.7 294.5 470C294.5 470.8 294.5 471.6 294.5 472.4C294.5 473.2 294.5 474 294.5 474.8C294.5 475.1 294.5 475.3 294.5 475.6C294.5 476.1 294.5 476.7 294.6 477.2C294.6 477.5 294.7 477.8 294.7 478.2C294.7 478.7 294.8 479.2 294.8 479.7C294.8 480 294.9 480.4 294.9 480.7C295 481.2 295 481.6 295.1 482.1C295.1 482.4 295.2 482.8 295.3 483.1C295.4 483.6 295.4 484 295.5 484.5C295.6 484.9 295.6 485.2 295.7 485.6C295.8 486 295.9 486.5 296 486.9C296.1 487.3 296.2 487.6 296.2 488C296.3 488.4 296.4 488.9 296.5 489.3C296.6 489.7 296.7 490 296.8 490.4C296.9 490.8 297 491.3 297.1 491.7C297.2 492.1 297.3 492.4 297.4 492.8C297.5 493.2 297.6 493.6 297.8 494.1C297.9 494.5 298 494.8 298.1 495.2C298.2 495.6 298.4 496 298.5 496.4C298.6 496.8 298.8 497.1 298.9 497.5C299 497.9 299.2 498.3 299.4 498.7C299.5 499.1 299.7 499.4 299.8 499.8C300 500.2 300.1 500.6 300.3 501C300.4 501.3 300.6 501.7 300.8 502C301 502.4 301.1 502.8 301.3 503.2C301.5 503.5 301.6 503.9 301.8 504.2C302 504.6 302.2 505 302.4 505.3C302.6 505.6 302.8 506 302.9 506.3C303.1 506.7 303.3 507 303.5 507.4C303.7 507.7 303.9 508.1 304.1 508.4C304.2 508.6 304.4 508.9 304.5 509.1C291.6 529.6 269.9 541.7 245.9 541.7ZM435.3 472.6C435.3 510.7 404.4 541.7 366.3 541.7C342 541.7 320 529.3 307.4 508.5C300.9 497.7 297.4 485.3 297.4 472.6C297.4 459.9 300.9 447.5 307.4 436.7C315.1 424.1 326.7 414.1 340.4 408.5C340.7 408.8 341 409 341.4 409.3C341.8 409.6 342.2 410 342.6 410.3C343.1 410.7 343.5 411 344 411.4C344.4 411.7 344.8 412 345.2 412.4C345.7 412.7 346.1 413.1 346.6 413.4C347 413.7 347.4 414 347.9 414.3C348.4 414.6 348.9 414.9 349.4 415.3C349.8 415.6 350.3 415.9 350.7 416.1C351.2 416.4 351.7 416.7 352.2 417C352.6 417.3 353.1 417.5 353.5 417.8C354 418.1 354.5 418.4 355.1 418.6C355.5 418.8 356 419.1 356.4 419.3C356.9 419.6 357.5 419.8 358 420.1C358.5 420.3 358.9 420.5 359.4 420.7C359.9 420.9 360.5 421.2 361 421.4C361.5 421.6 361.9 421.8 362.4 422C363 422.2 363.5 422.4 364.1 422.6C364.6 422.8 365 422.9 365.5 423.1C366.1 423.3 366.7 423.5 367.2 423.6C367.7 423.7 368.1 423.9 368.6 424C369.2 424.2 369.8 424.3 370.4 424.5C370.9 424.6 371.3 424.7 371.8 424.9C372.4 425 373 425.2 373.6 425.3C374.1 425.4 374.5 425.5 375 425.6C375.6 425.7 376.3 425.8 376.9 425.9C377.4 426 377.8 426.1 378.2 426.1C378.9 426.2 379.5 426.3 380.2 426.3C380.6 426.3 381.1 426.4 381.5 426.4C382.2 426.5 383 426.5 383.7 426.6C384.1 426.6 384.4 426.7 384.8 426.7C385.9 426.8 387 426.8 388.1 426.8C389.2 426.8 390.3 426.8 391.4 426.7C391.8 426.7 392.1 426.6 392.5 426.6C393.2 426.6 394 426.5 394.7 426.4C395.1 426.4 395.5 426.3 396 426.3C396.7 426.2 397.3 426.2 398 426.1C398.5 426 398.9 426 399.3 425.9C399.9 425.8 400.6 425.7 401.2 425.6C401.7 425.5 402.1 425.4 402.6 425.3C403.2 425.2 403.8 425.1 404.4 424.9C404.9 424.8 405.3 424.7 405.8 424.5C406.4 424.3 407 424.2 407.6 424C408.1 423.9 408.6 423.7 409 423.6C409.6 423.4 410.1 423.3 410.7 423.1C411.2 422.9 411.7 422.8 412.2 422.6C412.6 422.5 413 422.3 413.4 422.2C427.3 435.1 435.3 453.4 435.3 472.6Z" fill="black"/>
<path d="M306 210.4C204.4 210.4 122 293.5 122 396C122 498.5 204.4 581.6 306 581.6C407.6 581.6 490 498.5 490 396C490 293.5 407.6 210.4 306 210.4ZM306 578.6C206 578.6 125 496.8 125 396C125 295.2 206 213.4 306 213.4C406 213.4 487 295.2 487 396C487 496.8 406 578.6 306 578.6Z" fill="black"/>
</svg>
