<svg width="612" height="792" viewBox="0 0 612 792" fill="none" xmlns="http://www.w3.org/2000/svg">
<path d="M306 342.4C276.6 342.4 252.8 366.2 252.8 395.6C252.8 425 276.6 448.8 306 448.8C335.4 448.8 359.2 425 359.2 395.6C359.2 366.2 335.4 342.4 306 342.4ZM306 445.8C278.3 445.8 255.8 423.3 255.8 395.6C255.8 367.9 278.3 345.4 306 345.4C333.7 345.4 356.2 367.9 356.2 395.6C356.2 423.3 333.7 445.8 306 445.8Z" fill="black"/>
<path d="M306 300.4C253.4 300.4 210.8 343 210.8 395.6C210.8 448.2 253.4 490.8 306 490.8C358.6 490.8 401.2 448.2 401.2 395.6C401.2 343 358.6 300.4 306 300.4ZM306 487.8C255.1 487.8 213.8 446.5 213.8 395.6C213.8 344.7 255.1 303.4 306 303.4C356.9 303.4 398.2 344.7 398.2 395.6C398.2 446.5 356.9 487.8 306 487.8Z" fill="black"/>
<path d="M306 251.6C226.5 251.6 162 316.1 162 395.6C162 475.1 226.5 539.6 306 539.6C385.5 539.6 450 475.1 450 395.6C450 316.1 385.5 251.6 306 251.6ZM306 536.6C228.1 536.6 165 473.5 165 395.6C165 317.7 228.1 254.6 306 254.6C383.9 254.6 447 317.7 447 395.6C447 473.5 383.9 536.6 306 536.6Z" fill="black"/>
<path d="M306 210.4C204.4 210.4 122 293.5 122 396C122 498.5 204.4 581.6 306 581.6C407.6 581.6 490 498.5 490 396C490 293.5 407.6 210.4 306 210.4ZM306 578.6C206 578.6 125 496.8 125 396C125 295.2 206 213.4 306 213.4C406 213.4 487 295.2 487 396C487 496.8 406 578.6 306 578.6Z" fill="black"/>
</svg>
