<svg width="612" height="792" viewBox="0 0 612 792" fill="none" xmlns="http://www.w3.org/2000/svg">
<path d="M459.7 396C459.7 378.6 452.5 361.9 439.8 349.9C444.6 340.8 447.2 330.5 447.2 320.2C447.2 285.1 418.6 256.6 383.4 256.6C373 256.6 362.8 259.1 353.6 264C341.5 250.2 324.2 242.3 305.9 242.3C288.2 242.3 271.3 249.8 259.2 262.8C250.6 258.7 241.5 256.7 231.9 256.7C196.7 256.7 168.1 285.2 168.1 320.3C168.1 329.9 170.2 339.2 174.4 347.8C160.2 359.9 152.1 377.4 152.1 396.1C152.1 414.8 160.2 432.3 174.4 444.4C170.2 453 168.1 462.3 168.1 471.9C168.1 507 196.7 535.5 231.9 535.5C241.5 535.5 250.6 533.4 259.2 529.3C271.2 542.3 288.1 549.8 305.8 549.8C324.1 549.8 341.4 541.9 353.5 528.1C362.6 532.9 372.9 535.5 383.3 535.5C418.5 535.5 447.1 507 447.1 471.9C447.1 461.5 444.5 451.3 439.7 442.2C452.5 430.1 459.7 413.4 459.7 396ZM456.7 396C456.7 412.9 449.5 429.2 437 440.7C425.8 451 411.2 456.6 396 456.6C395 456.6 394 456.6 393 456.5C392.7 456.5 392.3 456.5 392 456.4C391.3 456.4 390.7 456.3 390 456.3C389.6 456.3 389.2 456.2 388.8 456.2C388.2 456.1 387.6 456.1 387 456C386.6 455.9 386.2 455.9 385.7 455.8C385.1 455.7 384.6 455.6 384 455.5C383.6 455.4 383.1 455.3 382.7 455.2C382.2 455.1 381.6 455 381.1 454.8C380.7 454.7 380.2 454.6 379.8 454.5C379.3 454.4 378.8 454.2 378.2 454.1C377.8 454 377.3 453.8 376.9 453.7C376.4 453.5 375.9 453.4 375.4 453.2C375 453 374.5 452.9 374.1 452.7C373.6 452.5 373.1 452.3 372.6 452.1C372.2 451.9 371.8 451.7 371.3 451.6C370.8 451.4 370.3 451.2 369.9 451C369.5 450.8 369.1 450.6 368.7 450.4C368.2 450.2 367.8 449.9 367.3 449.7C366.9 449.5 366.5 449.3 366.1 449C365.6 448.7 365.2 448.5 364.7 448.2C364.3 448 363.9 447.7 363.5 447.5C363.1 447.2 362.6 446.9 362.2 446.7C361.8 446.4 361.4 446.2 361 445.9C360.6 445.6 360.1 445.3 359.7 445C359.3 444.7 358.9 444.4 358.6 444.1C358.2 443.8 357.8 443.5 357.4 443.1C357 442.8 356.7 442.5 356.3 442.2C355.9 441.9 355.5 441.5 355.1 441.2C354.7 440.9 354.4 440.5 354 440.2C353.8 440 353.6 439.8 353.4 439.6C360.2 431.9 365.1 422.7 367.5 412.8C368.8 407.7 369.4 402.5 369.4 397.2C369.4 391.2 368.6 385.3 366.9 379.5C364.2 370 359.2 361.1 352.4 353.8C352.6 353.6 352.8 353.4 353 353.2C353.4 352.8 353.7 352.5 354.1 352.2C354.5 351.8 354.9 351.5 355.3 351.1C355.7 350.8 356 350.4 356.4 350.1C356.8 349.7 357.2 349.4 357.7 349.1C358.1 348.8 358.5 348.5 358.8 348.2C359.2 347.9 359.7 347.5 360.1 347.2C360.5 346.9 360.9 346.6 361.3 346.4C361.7 346.1 362.2 345.8 362.7 345.5C363.1 345.2 363.5 345 363.9 344.7C364.4 344.4 364.8 344.1 365.3 343.9C365.7 343.7 366.1 343.4 366.5 343.2C367 342.9 367.5 342.7 368 342.4C368.4 342.2 368.8 342 369.2 341.8C369.7 341.6 370.2 341.3 370.7 341.1C371.1 340.9 371.5 340.7 372 340.5C372.5 340.3 373 340.1 373.5 339.9C373.9 339.7 374.3 339.6 374.8 339.4C375.3 339.2 375.9 339 376.4 338.9C376.8 338.8 377.3 338.6 377.7 338.5C378.2 338.3 378.8 338.2 379.3 338C379.7 337.9 380.2 337.8 380.6 337.6C381.2 337.5 381.7 337.3 382.3 337.2C382.7 337.1 383.2 337 383.6 336.9C384.2 336.8 384.8 336.7 385.3 336.6C385.7 336.5 386.1 336.4 386.6 336.4C387.2 336.3 387.8 336.2 388.5 336.2C388.9 336.2 389.3 336.1 389.7 336.1C390.4 336 391.1 336 391.8 335.9C392.1 335.9 392.5 335.8 392.8 335.8C393.8 335.7 394.9 335.7 395.9 335.7C411.1 335.7 425.7 341.3 436.9 351.6C449.5 362.8 456.7 379.1 456.7 396ZM350.3 438.4C349.6 439.1 349 439.8 348.3 440.4C341.1 447.4 332.2 452.6 322.6 455.4C313 458.2 302.8 458.5 292.9 456.3C281.8 453.9 271.7 448.4 263.6 440.4C262.9 439.8 262.3 439.1 261.6 438.4C254.4 430.7 249.4 421.2 247 410.9C245.9 406.3 245.4 401.6 245.4 397C245.4 391.6 246.1 386.3 247.5 381.1C250.2 371.2 255.4 362.1 262.5 354.7C263.2 354 263.9 353.3 264.6 352.7C272.4 345.4 282.1 340.2 292.4 337.9C302.6 335.6 313.2 335.9 323.1 338.9C332 341.6 340.4 346.3 347.2 352.8C347.9 353.5 348.6 354.1 349.3 354.8C356.2 361.9 361.3 370.7 364.1 380.3C365.7 385.8 366.5 391.5 366.5 397.2C366.5 402.2 365.9 407.2 364.7 412C362.3 421.7 357.3 430.9 350.3 438.4ZM383.5 259.6C417 259.6 444.3 286.8 444.3 320.2C444.3 329.8 442 339.3 437.6 347.8C437.5 347.7 437.3 347.6 437.2 347.5C436.9 347.2 436.5 346.9 436.1 346.6C435.7 346.3 435.3 345.9 434.9 345.6C434.5 345.3 434.2 345.1 433.8 344.8C433.4 344.5 433 344.2 432.5 343.9C432.1 343.6 431.8 343.4 431.4 343.1C431 342.8 430.5 342.5 430.1 342.2C429.7 342 429.3 341.7 429 341.5C428.6 341.2 428.1 341 427.7 340.7C427.3 340.5 426.9 340.3 426.5 340.1C426 339.9 425.6 339.6 425.1 339.4C424.7 339.2 424.3 339 423.9 338.8C423.4 338.6 423 338.4 422.5 338.1C422.1 337.9 421.7 337.7 421.3 337.6C420.8 337.4 420.3 337.2 419.8 337C419.4 336.8 419 336.7 418.6 336.5C418.1 336.3 417.6 336.1 417.1 336C416.7 335.9 416.3 335.7 415.9 335.6C415.4 335.4 414.9 335.3 414.4 335.1C414 335 413.6 334.9 413.2 334.7C412.7 334.6 412.2 334.4 411.6 334.3C411.2 334.2 410.8 334.1 410.4 334C409.9 333.9 409.3 333.8 408.8 333.7C408.4 333.6 408 333.5 407.6 333.5C407 333.4 406.5 333.3 405.9 333.2C405.5 333.1 405.1 333.1 404.7 333C404.1 332.9 403.5 332.9 402.9 332.8C402.5 332.8 402.1 332.7 401.8 332.7C401.1 332.6 400.5 332.6 399.8 332.6C399.5 332.6 399.2 332.6 398.9 332.5C397.9 332.5 396.9 332.4 396 332.4C394.9 332.4 393.9 332.4 392.8 332.5C392.4 332.5 392.1 332.6 391.8 332.6C391.1 332.6 390.4 332.7 389.7 332.8C389.3 332.8 388.9 332.9 388.5 332.9C387.9 333 387.2 333.1 386.6 333.1C386.2 333.2 385.7 333.2 385.3 333.3C384.7 333.4 384.1 333.5 383.5 333.6C383.1 333.7 382.6 333.8 382.2 333.9C381.6 334 381 334.2 380.5 334.3C380.1 334.4 379.6 334.5 379.2 334.7C378.6 334.9 378.1 335 377.5 335.2C377.1 335.3 376.6 335.5 376.2 335.6C375.6 335.8 375.1 336 374.5 336.2C374.1 336.4 373.6 336.5 373.2 336.7C372.6 336.9 372.1 337.1 371.6 337.4C371.2 337.6 370.8 337.7 370.4 337.9C369.8 338.1 369.3 338.4 368.8 338.7C368.4 338.9 368 339.1 367.6 339.3C367 339.6 366.5 339.9 365.9 340.2C365.5 340.4 365.2 340.6 364.8 340.8C364.1 341.2 363.5 341.6 362.8 342C362.6 342.1 362.3 342.3 362.1 342.4C361.2 343 360.4 343.5 359.5 344.1C359.3 344.3 359.1 344.4 358.9 344.6C358.3 345.1 357.6 345.5 357 346C356.7 346.2 356.4 346.5 356.1 346.7C355.6 347.1 355.1 347.5 354.6 348C354.3 348.3 354 348.6 353.6 348.9C353.3 349.2 352.9 349.5 352.6 349.8C352.9 349.5 353.2 349.1 353.5 348.8C353.8 348.5 354.1 348.2 354.4 347.8C354.8 347.3 355.2 346.8 355.6 346.3C355.8 346 356.1 345.7 356.3 345.4C356.8 344.8 357.2 344.2 357.7 343.5C357.9 343.3 358 343.1 358.2 342.8C358.8 341.9 359.4 341.1 359.9 340.2C360 340 360.1 339.8 360.3 339.6C360.7 338.9 361.1 338.2 361.5 337.5C361.7 337.2 361.9 336.8 362 336.5C362.3 335.9 362.6 335.3 362.9 334.7C363.1 334.3 363.3 333.9 363.4 333.6C363.7 333 363.9 332.5 364.2 331.9C364.4 331.5 364.5 331.1 364.7 330.7C364.9 330.1 365.2 329.6 365.4 329C365.6 328.6 365.7 328.2 365.9 327.7C366.1 327.1 366.3 326.6 366.5 326C366.6 325.6 366.8 325.1 366.9 324.7C367.1 324.1 367.2 323.6 367.4 323C367.5 322.6 367.6 322.1 367.8 321.7C367.9 321.1 368.1 320.5 368.2 320C368.3 319.6 368.4 319.1 368.5 318.7C368.6 318.1 368.7 317.5 368.8 316.9C368.9 316.5 369 316 369 315.6C369.1 315 369.2 314.3 369.2 313.7C369.2 313.3 369.3 312.9 369.3 312.5C369.4 311.8 369.4 311.1 369.5 310.4C369.5 310.1 369.6 309.7 369.6 309.4C369.7 308.3 369.7 307.3 369.7 306.2C369.7 305.3 369.7 304.4 369.6 303.4C369.6 303.1 369.6 302.8 369.5 302.5C369.5 301.9 369.4 301.3 369.4 300.7C369.4 300.3 369.3 300 369.3 299.6C369.2 299.1 369.2 298.5 369.1 298C369 297.6 369 297.2 368.9 296.8C368.8 296.3 368.7 295.8 368.7 295.2C368.6 294.8 368.5 294.4 368.5 294C368.4 293.5 368.3 293 368.2 292.5C368.1 292.1 368 291.7 367.9 291.3C367.8 290.8 367.7 290.3 367.5 289.8C367.4 289.4 367.3 289 367.2 288.6C367.1 288.1 366.9 287.6 366.8 287.2C366.7 286.8 366.5 286.4 366.4 286C366.2 285.5 366.1 285.1 365.9 284.6C365.8 284.2 365.6 283.8 365.5 283.4C365.3 282.9 365.2 282.5 365 282C364.8 281.6 364.7 281.2 364.5 280.8C364.3 280.4 364.1 279.9 363.9 279.5C363.7 279.1 363.5 278.7 363.4 278.3C363.2 277.9 363 277.4 362.8 277C362.6 276.6 362.4 276.2 362.2 275.9C362 275.5 361.7 275 361.5 274.6C361.3 274.2 361.1 273.9 360.9 273.5C360.7 273.1 360.4 272.7 360.1 272.3C359.9 271.9 359.6 271.6 359.4 271.2C359.1 270.8 358.9 270.4 358.6 270C358.4 269.6 358.1 269.3 357.9 268.9C357.6 268.5 357.3 268.1 357 267.7C356.7 267.4 356.5 267 356.2 266.7C356.1 266.6 356 266.4 355.9 266.3C364.3 261.9 373.8 259.6 383.5 259.6ZM260.8 265.6C272.3 252.7 288.8 245.3 306 245.3C323.8 245.3 340.7 253.2 352.3 266.8C361.5 277.7 366.6 291.7 366.6 306C366.6 307 366.6 308.1 366.5 309.1C366.5 309.4 366.4 309.8 366.4 310.1C366.4 310.8 366.3 311.5 366.2 312.2C366.2 312.6 366.1 313 366 313.4C365.9 314 365.9 314.6 365.8 315.2C365.7 315.6 365.6 316.1 365.6 316.5C365.5 317.1 365.4 317.7 365.3 318.2C365.2 318.6 365.1 319.1 365 319.5C364.9 320.1 364.8 320.6 364.6 321.2C364.5 321.6 364.4 322.1 364.2 322.5C364.1 323 363.9 323.6 363.7 324.1C363.6 324.5 363.4 325 363.3 325.4C363.1 325.9 363 326.4 362.8 326.9C362.6 327.3 362.5 327.8 362.3 328.2C362.1 328.7 361.9 329.2 361.7 329.7C361.5 330.1 361.3 330.6 361.1 331C360.9 331.5 360.7 332 360.4 332.5C360.2 332.9 360 333.4 359.7 333.8C359.5 334.3 359.2 334.7 359 335.2C358.8 335.6 358.5 336 358.3 336.5C358 337 357.8 337.4 357.5 337.9C357.2 338.3 357 338.7 356.7 339.1C356.4 339.5 356.1 340 355.8 340.4C355.5 340.8 355.2 341.2 354.9 341.6C354.6 342 354.3 342.5 353.9 342.9C353.6 343.3 353.3 343.7 353 344.1C352.7 344.5 352.3 344.9 352 345.3C351.7 345.7 351.3 346 351 346.4C350.6 346.8 350.3 347.2 349.9 347.6C349.6 348 349.2 348.3 348.9 348.7C348.7 348.9 348.5 349.1 348.2 349.3C341.2 343.1 332.9 338.4 323.9 335.7C313.5 332.6 302.4 332.2 291.6 334.7C281.2 337.1 271.4 342.1 263.4 349.3C263.2 349.1 263 348.9 262.7 348.7C262.3 348.3 262 348 261.7 347.6C261.3 347.2 261 346.8 260.6 346.4C260.3 346 259.9 345.7 259.6 345.3C259.2 344.9 258.9 344.5 258.6 344.1C258.3 343.7 258 343.3 257.7 343C257.4 342.6 257.1 342.1 256.7 341.7C256.4 341.3 256.1 340.9 255.9 340.5C255.6 340.1 255.3 339.6 255 339.2C254.7 338.8 254.5 338.4 254.2 338C253.9 337.5 253.6 337.1 253.4 336.6C253.2 336.2 252.9 335.8 252.7 335.4C252.4 334.9 252.2 334.4 251.9 334C251.7 333.6 251.5 333.2 251.3 332.7C251.1 332.2 250.8 331.7 250.6 331.2C250.4 330.8 250.2 330.4 250 329.9C249.8 329.4 249.6 328.9 249.4 328.4C249.2 328 249.1 327.5 248.9 327.1C248.7 326.6 248.5 326 248.4 325.5C248.3 325.1 248.1 324.6 248 324.2C247.8 323.7 247.7 323.1 247.5 322.6C247.4 322.2 247.2 321.7 247.1 321.3C247 320.7 246.8 320.2 246.7 319.6C246.6 319.2 246.5 318.7 246.4 318.3C246.3 317.7 246.2 317.1 246.1 316.5C246 316.1 245.9 315.7 245.9 315.2C245.8 314.6 245.7 314 245.7 313.3C245.7 312.9 245.6 312.5 245.6 312.1C245.5 311.4 245.5 310.7 245.4 310C245.4 309.7 245.3 309.3 245.3 309C245.2 308 245.2 306.9 245.2 305.9C245.4 291.1 250.9 276.7 260.8 265.6ZM171.3 320.2C171.3 286.8 198.6 259.6 232.1 259.6C240.9 259.6 249.4 261.4 257.3 265.1C257.2 265.2 257.1 265.4 257 265.5C256.7 265.8 256.4 266.2 256.2 266.5C255.9 266.9 255.6 267.3 255.3 267.7C255 268.1 254.8 268.4 254.5 268.8C254.2 269.2 253.9 269.6 253.6 270C253.3 270.4 253.1 270.7 252.9 271.1C252.6 271.5 252.4 271.9 252.1 272.4C251.9 272.8 251.6 273.2 251.4 273.5C251.1 273.9 250.9 274.4 250.6 274.8C250.4 275.2 250.2 275.6 250 276C249.8 276.4 249.5 276.9 249.3 277.3C249.1 277.7 248.9 278.1 248.7 278.5C248.5 279 248.3 279.4 248.1 279.9C247.9 280.3 247.7 280.7 247.6 281.1C247.4 281.6 247.2 282 247 282.5C246.8 282.9 246.7 283.3 246.5 283.7C246.3 284.2 246.2 284.7 246 285.1C245.9 285.5 245.7 285.9 245.6 286.3C245.4 286.8 245.3 287.3 245.2 287.8C245.1 288.2 245 288.6 244.8 289C244.7 289.5 244.5 290 244.4 290.5C244.3 290.9 244.2 291.3 244.1 291.7C244 292.2 243.9 292.7 243.8 293.3C243.7 293.7 243.6 294.1 243.6 294.5C243.5 295 243.4 295.6 243.3 296.1C243.2 296.5 243.2 296.9 243.1 297.3C243 297.9 243 298.4 242.9 299C242.9 299.4 242.8 299.8 242.8 300.1C242.7 300.7 242.7 301.4 242.7 302C242.7 302.3 242.7 302.6 242.6 303C242.6 304 242.5 304.9 242.5 305.9C242.5 307 242.5 308 242.6 309.1C242.6 309.4 242.7 309.8 242.7 310.1C242.7 310.8 242.8 311.5 242.9 312.2C242.9 312.6 243 313 243 313.4C243.1 314 243.2 314.7 243.2 315.3C243.3 315.7 243.3 316.2 243.4 316.6C243.5 317.2 243.6 317.8 243.7 318.4C243.8 318.8 243.9 319.3 244 319.7C244.1 320.3 244.3 320.9 244.4 321.4C244.5 321.8 244.6 322.3 244.8 322.7C245 323.3 245.1 323.8 245.3 324.4C245.4 324.8 245.6 325.3 245.7 325.7C245.9 326.3 246.1 326.8 246.3 327.4C246.5 327.8 246.6 328.3 246.8 328.7C247 329.3 247.2 329.8 247.5 330.4C247.7 330.8 247.8 331.2 248 331.6C248.2 332.2 248.5 332.7 248.8 333.3C249 333.7 249.2 334.1 249.4 334.5C249.7 335.1 250 335.7 250.3 336.2C250.5 336.5 250.7 336.9 250.9 337.2C251.3 337.9 251.7 338.5 252.1 339.2C252.2 339.4 252.4 339.7 252.5 339.9C253.1 340.8 253.6 341.6 254.2 342.5C254.4 342.7 254.5 343 254.7 343.2C255.1 343.8 255.6 344.4 256 345C256.2 345.3 256.5 345.6 256.8 345.9C257.2 346.4 257.6 346.9 258 347.4C258.3 347.7 258.6 348.1 258.9 348.4C259.2 348.7 259.5 349.1 259.8 349.4C259.5 349.1 259.1 348.8 258.8 348.5C258.5 348.2 258.2 347.9 257.8 347.6C257.3 347.2 256.8 346.8 256.3 346.3C256 346.1 255.7 345.8 255.4 345.6C254.8 345.1 254.2 344.7 253.5 344.2C253.3 344 253.1 343.9 252.8 343.7C251.9 343.1 251.1 342.5 250.2 342C250 341.8 249.7 341.7 249.5 341.6C248.9 341.2 248.2 340.8 247.5 340.4C247.2 340.2 246.8 340 246.4 339.8C245.8 339.5 245.3 339.2 244.7 338.9C244.3 338.7 243.9 338.5 243.5 338.3C243 338 242.4 337.8 241.9 337.5C241.5 337.3 241.1 337.1 240.6 337C240.1 336.8 239.5 336.6 239 336.3C238.6 336.1 238.1 336 237.7 335.8C237.2 335.6 236.6 335.4 236.1 335.2C235.7 335.1 235.2 334.9 234.8 334.8C234.2 334.6 233.7 334.5 233.1 334.3C232.7 334.2 232.2 334.1 231.8 333.9C231.2 333.8 230.7 333.6 230.1 333.5C229.7 333.4 229.2 333.3 228.8 333.2C228.2 333.1 227.6 333 227 332.9C226.6 332.8 226.1 332.7 225.7 332.7C225.1 332.6 224.5 332.5 223.8 332.5C223.4 332.5 223 332.4 222.6 332.4C221.9 332.3 221.2 332.3 220.5 332.2C220.1 332.2 219.8 332.1 219.4 332.1C218.3 332 217.3 332 216.2 332C215.3 332 214.4 332 213.5 332.1C213.2 332.1 212.9 332.1 212.6 332.2C212 332.2 211.4 332.3 210.8 332.3C210.4 332.3 210.1 332.4 209.7 332.4C209.2 332.5 208.6 332.5 208.1 332.6C207.7 332.6 207.4 332.7 207 332.8C206.5 332.9 206 332.9 205.5 333C205.1 333.1 204.7 333.1 204.4 333.2C203.9 333.3 203.4 333.4 202.9 333.5C202.5 333.6 202.1 333.7 201.7 333.8C201.2 333.9 200.7 334 200.2 334.2C199.8 334.3 199.4 334.4 199 334.5C198.5 334.6 198 334.8 197.6 334.9C197.2 335 196.8 335.1 196.5 335.3C196 335.5 195.6 335.6 195.1 335.8C194.7 335.9 194.3 336.1 194 336.2C193.5 336.4 193.1 336.5 192.6 336.7C192.2 336.8 191.9 337 191.5 337.2C191 337.4 190.6 337.6 190.1 337.8C189.7 338 189.4 338.1 189 338.3C188.6 338.5 188.1 338.7 187.7 338.9C187.3 339.1 187 339.3 186.6 339.4C186.2 339.6 185.7 339.9 185.3 340.1C184.9 340.3 184.6 340.5 184.3 340.7C183.9 340.9 183.4 341.2 183 341.5C182.7 341.7 182.3 341.9 182 342.1C181.6 342.4 181.2 342.6 180.8 342.9C180.5 343.1 180.1 343.3 179.8 343.6C179.4 343.9 179 344.2 178.6 344.5C178.3 344.7 178 345 177.6 345.2C177.5 345.3 177.4 345.4 177.2 345.5C173.2 337.7 171.3 329.1 171.3 320.2ZM155.3 396C155.3 377.9 163.4 360.8 177.4 349.3C188.2 340.4 202 335.5 216.1 335.5C217.1 335.5 218.2 335.5 219.2 335.6C219.5 335.6 219.9 335.7 220.2 335.7C220.9 335.7 221.6 335.8 222.3 335.9C222.7 335.9 223.1 336 223.5 336C224.1 336.1 224.7 336.1 225.4 336.2C225.8 336.3 226.2 336.3 226.7 336.4C227.3 336.5 227.9 336.6 228.5 336.7C228.9 336.8 229.4 336.9 229.8 337C230.4 337.1 230.9 337.2 231.5 337.4C231.9 337.5 232.4 337.6 232.8 337.8C233.3 338 233.9 338.1 234.4 338.3C234.8 338.4 235.3 338.6 235.7 338.7C236.2 338.9 236.8 339.1 237.3 339.2C237.7 339.4 238.1 339.5 238.6 339.7C239.1 339.9 239.6 340.1 240.2 340.3C240.6 340.5 241 340.7 241.4 340.9C241.9 341.1 242.4 341.4 242.9 341.6C243.3 341.8 243.7 342 244.1 342.2C244.6 342.5 245.1 342.7 245.6 343C246 343.2 246.4 343.5 246.8 343.7C247.3 344 247.8 344.3 248.2 344.6C248.6 344.8 249 345.1 249.4 345.4C249.9 345.7 250.3 346 250.8 346.3C251.2 346.6 251.6 346.8 251.9 347.1C252.3 347.4 252.8 347.8 253.2 348.1C253.6 348.4 253.9 348.7 254.3 349C254.7 349.3 255.2 349.7 255.6 350.1C256 350.4 256.3 350.7 256.7 351C257.1 351.4 257.5 351.7 257.9 352.1C258.3 352.4 258.6 352.8 258.9 353.1C259.1 353.3 259.3 353.5 259.6 353.8C252.6 361.4 247.5 370.6 244.8 380.5C243.3 385.9 242.6 391.6 242.6 397.2C242.6 402.1 243.2 407 244.3 411.8C246.7 422.1 251.7 431.6 258.7 439.6C258.5 439.8 258.3 440 258.1 440.2C257.7 440.5 257.4 440.9 257 441.2C256.6 441.6 256.2 441.9 255.8 442.2C255.4 442.5 255.1 442.8 254.7 443.1C254.3 443.4 253.9 443.8 253.5 444.1C253.1 444.4 252.7 444.7 252.4 445C252 445.3 251.6 445.6 251.1 445.9C250.7 446.2 250.3 446.4 249.9 446.7C249.5 447 249 447.3 248.6 447.5C248.2 447.7 247.8 448 247.4 448.2C247 448.5 246.5 448.7 246 449C245.6 449.2 245.2 449.5 244.8 449.7C244.3 449.9 243.9 450.2 243.4 450.4C243 450.6 242.6 450.8 242.2 451C241.7 451.2 241.2 451.4 240.8 451.6C240.4 451.8 240 452 239.5 452.1C239 452.3 238.5 452.5 238 452.7C237.6 452.9 237.2 453 236.7 453.2C236.2 453.4 235.7 453.5 235.2 453.7C234.8 453.8 234.3 454 233.9 454.1C233.4 454.3 232.9 454.4 232.3 454.5C231.9 454.6 231.4 454.7 231 454.8C230.5 454.9 229.9 455 229.4 455.2C229 455.3 228.5 455.4 228.1 455.5C227.5 455.6 227 455.7 226.4 455.8C226 455.9 225.6 456 225.1 456C224.5 456.1 223.9 456.2 223.3 456.2C222.9 456.2 222.5 456.3 222.1 456.3C221.4 456.4 220.8 456.4 220.1 456.4C219.8 456.4 219.4 456.5 219.1 456.5C218.1 456.5 217.1 456.6 216.1 456.6C202 456.6 188.3 451.7 177.5 442.8C163.3 431.2 155.3 414.1 155.3 396ZM232 532.4C198.5 532.4 171.2 505.2 171.2 471.8C171.2 462.9 173.1 454.3 176.9 446.2C177 446.3 177.1 446.4 177.3 446.5C177.6 446.8 178 447 178.3 447.2C178.7 447.5 179.1 447.8 179.5 448C179.8 448.2 180.2 448.5 180.5 448.7C180.9 449 181.3 449.2 181.7 449.5C182.1 449.7 182.4 449.9 182.8 450.2C183.2 450.4 183.6 450.7 184 450.9C184.4 451.1 184.7 451.3 185.1 451.5C185.5 451.7 185.9 452 186.4 452.2C186.8 452.4 187.1 452.6 187.5 452.8C187.9 453 188.4 453.2 188.8 453.4C189.2 453.6 189.5 453.7 189.9 453.9C190.3 454.1 190.8 454.3 191.2 454.5C191.6 454.7 192 454.8 192.3 455C192.7 455.2 193.2 455.3 193.7 455.5C194.1 455.6 194.5 455.8 194.9 455.9C195.4 456.1 195.8 456.2 196.3 456.4C196.7 456.5 197.1 456.7 197.5 456.8C198 456.9 198.4 457.1 198.9 457.2C199.3 457.3 199.7 457.4 200.1 457.5C200.6 457.6 201.1 457.7 201.5 457.8C201.9 457.9 202.3 458 202.7 458.1C203.2 458.2 203.7 458.3 204.2 458.4C204.6 458.5 205 458.6 205.4 458.6C205.9 458.7 206.4 458.8 206.9 458.8C207.3 458.9 207.7 458.9 208 459C208.5 459.1 209.1 459.1 209.6 459.2C210 459.2 210.3 459.3 210.7 459.3C211.3 459.4 211.9 459.4 212.5 459.4C212.8 459.4 213.1 459.4 213.4 459.5C214.3 459.5 215.2 459.6 216.1 459.6C217.2 459.6 218.2 459.6 219.2 459.5C219.5 459.5 219.9 459.4 220.2 459.4C220.9 459.4 221.6 459.3 222.3 459.2C222.7 459.2 223.1 459.1 223.5 459.1C224.1 459 224.7 459 225.4 458.9C225.8 458.8 226.3 458.8 226.7 458.7C227.3 458.6 227.9 458.5 228.4 458.4C228.8 458.3 229.3 458.2 229.7 458.1C230.3 458 230.8 457.9 231.4 457.7C231.8 457.6 232.3 457.5 232.7 457.3C233.2 457.2 233.8 457 234.3 456.8C234.7 456.7 235.2 456.5 235.6 456.4C236.1 456.2 236.7 456.1 237.2 455.9C237.6 455.7 238.1 455.6 238.5 455.4C239 455.2 239.5 455 240 454.8C240.4 454.6 240.9 454.4 241.3 454.3C241.8 454.1 242.3 453.9 242.8 453.6C243.2 453.4 243.7 453.2 244.1 453C244.6 452.8 245.1 452.5 245.6 452.2C246 452 246.4 451.8 246.8 451.5C247.3 451.2 247.8 451 248.2 450.7C248.6 450.5 249 450.2 249.4 450C249.9 449.7 250.3 449.4 250.8 449.1C251.2 448.8 251.6 448.6 252 448.3C252.5 448 252.9 447.6 253.4 447.3C253.8 447 254.1 446.8 254.5 446.5C255 446.1 255.4 445.8 255.9 445.4C256.2 445.1 256.6 444.9 256.9 444.6C257.4 444.2 257.9 443.7 258.4 443.3C258.7 443 259 442.8 259.2 442.6C258.9 442.9 258.6 443.2 258.3 443.6C257.9 444.1 257.5 444.5 257.1 445C256.8 445.3 256.5 445.7 256.2 446.1C255.8 446.6 255.5 447 255.1 447.5C254.8 447.9 254.6 448.2 254.3 448.6C254 449.1 253.6 449.5 253.3 450C253 450.4 252.8 450.8 252.5 451.2C252.2 451.7 251.9 452.1 251.6 452.6C251.4 453 251.1 453.4 250.9 453.8C250.6 454.3 250.3 454.8 250.1 455.3C249.9 455.7 249.7 456.1 249.4 456.5C249.1 457 248.9 457.5 248.6 458C248.4 458.4 248.2 458.8 248 459.3C247.8 459.8 247.5 460.3 247.3 460.8C247.1 461.2 246.9 461.6 246.8 462.1C246.6 462.6 246.4 463.1 246.2 463.7C246 464.1 245.9 464.6 245.7 465C245.5 465.5 245.3 466.1 245.2 466.6C245.1 467 244.9 467.5 244.8 467.9C244.6 468.4 244.5 469 244.3 469.5C244.2 469.9 244.1 470.4 244 470.8C243.9 471.4 243.7 471.9 243.6 472.5C243.5 472.9 243.4 473.4 243.3 473.8C243.2 474.4 243.1 475 243 475.6C242.9 476 242.9 476.5 242.8 476.9C242.7 477.5 242.6 478.1 242.6 478.8C242.6 479.2 242.5 479.6 242.5 480C242.4 480.7 242.4 481.4 242.3 482.1C242.3 482.4 242.2 482.8 242.2 483.1C242.1 484.1 242.1 485.2 242.1 486.2C242.1 487.2 242.1 488.1 242.2 489.1C242.2 489.4 242.2 489.7 242.3 490.1C242.3 490.7 242.4 491.4 242.4 492C242.4 492.4 242.5 492.8 242.5 493.2C242.6 493.8 242.6 494.3 242.7 494.9C242.8 495.3 242.8 495.7 242.9 496.1C243 496.6 243.1 497.2 243.2 497.7C243.3 498.1 243.4 498.5 243.5 499C243.6 499.5 243.7 500 243.8 500.5C243.9 500.9 244 501.3 244.1 501.8C244.2 502.3 244.3 502.8 244.5 503.3C244.6 503.7 244.7 504.2 244.9 504.6C245 505.1 245.2 505.6 245.3 506C245.4 506.4 245.6 506.8 245.7 507.3C245.9 507.8 246 508.2 246.2 508.7C246.4 509.1 246.5 509.5 246.7 510C246.9 510.5 247.1 510.9 247.3 511.4C247.5 511.8 247.7 512.2 247.8 512.6C248 513 248.2 513.5 248.4 513.9C248.6 514.3 248.8 514.7 249 515.1C249.2 515.5 249.4 516 249.7 516.4C249.9 516.8 250.1 517.2 250.4 517.6C250.6 518 250.9 518.5 251.1 518.9C251.3 519.3 251.6 519.7 251.8 520.1C252.1 520.5 252.3 520.9 252.6 521.4C252.8 521.8 253.1 522.1 253.3 522.5C253.6 522.9 253.9 523.3 254.2 523.7C254.5 524.1 254.7 524.4 255 524.8C255.3 525.2 255.6 525.6 256 526C256.3 526.3 256.5 526.7 256.8 527C256.9 527.1 257 527.3 257.1 527.4C249.3 530.6 240.9 532.4 232 532.4ZM352.2 525.2C340.6 538.9 323.8 546.7 306 546.7C288.8 546.7 272.3 539.3 260.8 526.4C250.9 515.3 245.4 500.9 245.4 485.9C245.4 484.9 245.4 483.9 245.5 482.9C245.5 482.6 245.6 482.2 245.6 481.9C245.6 481.2 245.7 480.6 245.7 479.9C245.7 479.5 245.8 479.1 245.8 478.7C245.9 478.1 245.9 477.5 246 476.9C246.1 476.5 246.1 476.1 246.2 475.6C246.3 475 246.4 474.5 246.5 473.9C246.6 473.5 246.7 473 246.8 472.6C246.9 472.1 247 471.5 247.2 471C247.3 470.6 247.4 470.1 247.6 469.7C247.7 469.2 247.9 468.7 248 468.1C248.1 467.7 248.3 467.2 248.4 466.8C248.6 466.3 248.7 465.8 248.9 465.3C249.1 464.9 249.2 464.4 249.4 464C249.6 463.5 249.8 463 250 462.5C250.2 462.1 250.4 461.7 250.5 461.2C250.7 460.7 250.9 460.2 251.1 459.8C251.3 459.4 251.5 459 251.7 458.6C251.9 458.1 252.2 457.7 252.4 457.2C252.6 456.8 252.8 456.4 253.1 456C253.4 455.5 253.6 455.1 253.9 454.6C254.1 454.2 254.4 453.8 254.6 453.4C254.9 453 255.2 452.5 255.5 452.1C255.8 451.7 256 451.3 256.3 451C256.6 450.6 256.9 450.1 257.2 449.7C257.5 449.3 257.8 449 258 448.6C258.3 448.2 258.7 447.8 259 447.4C259.3 447 259.6 446.7 259.9 446.3C260.2 445.9 260.6 445.5 261 445.1C261.3 444.8 261.6 444.4 262 444.1C262.2 443.9 262.4 443.7 262.6 443.5C270.9 451.3 281.2 456.7 292.3 459.2C296.8 460.2 301.4 460.7 306 460.7C311.9 460.7 317.8 459.9 323.5 458.2C333.1 455.4 342 450.4 349.4 443.5C349.6 443.7 349.8 443.9 350 444.1C350.3 444.4 350.6 444.8 351 445.1C351.4 445.5 351.7 445.9 352.1 446.3C352.4 446.7 352.7 447 353 447.4C353.3 447.8 353.7 448.2 354 448.6C354.3 449 354.6 449.3 354.8 449.7C355.1 450.1 355.4 450.6 355.7 451C356 451.4 356.2 451.8 356.5 452.1C356.8 452.5 357.1 453 357.4 453.4C357.6 453.8 357.9 454.2 358.1 454.6C358.4 455.1 358.6 455.5 358.9 456C359.1 456.4 359.4 456.8 359.6 457.2C359.8 457.7 360.1 458.1 360.3 458.6C360.5 459 360.7 459.4 360.9 459.8C361.1 460.3 361.3 460.8 361.5 461.2C361.7 461.6 361.9 462 362 462.5C362.2 463 362.4 463.5 362.6 464C362.8 464.4 362.9 464.8 363.1 465.3C363.3 465.8 363.4 466.3 363.6 466.8C363.7 467.2 363.9 467.7 364 468.1C364.2 468.6 364.3 469.1 364.4 469.7C364.5 470.1 364.6 470.6 364.8 471C364.9 471.5 365 472.1 365.2 472.6C365.3 473 365.4 473.5 365.5 473.9C365.6 474.5 365.7 475 365.8 475.6C365.9 476 366 476.4 366 476.9C366.1 477.5 366.2 478.1 366.2 478.7C366.2 479.1 366.3 479.5 366.3 479.9C366.4 480.6 366.4 481.2 366.4 481.9C366.4 482.2 366.5 482.6 366.5 482.9C366.5 483.9 366.6 484.9 366.6 485.9C366.6 500.3 361.5 514.2 352.2 525.2ZM444.3 471.8C444.3 505.2 417 532.4 383.5 532.4C373.8 532.4 364.3 530.1 355.7 525.7C355.8 525.6 355.9 525.4 356 525.3C356.3 524.9 356.5 524.6 356.8 524.2C357.1 523.8 357.4 523.4 357.6 523.1C357.9 522.7 358.1 522.4 358.4 522C358.7 521.6 358.9 521.2 359.2 520.8C359.4 520.4 359.7 520.1 359.9 519.7C360.2 519.3 360.4 518.9 360.6 518.5C360.8 518.1 361 517.7 361.3 517.4C361.5 517 361.8 516.6 362 516.1C362.2 515.7 362.4 515.3 362.6 514.9C362.8 514.5 363 514 363.2 513.6C363.4 513.2 363.6 512.8 363.8 512.4C364 512 364.2 511.5 364.4 511.1C364.6 510.7 364.7 510.3 364.9 509.9C365.1 509.5 365.3 509 365.4 508.6C365.6 508.2 365.7 507.8 365.8 507.4C366 506.9 366.1 506.5 366.3 506C366.4 505.6 366.6 505.2 366.7 504.8C366.8 504.3 367 503.9 367.1 503.4C367.2 503 367.3 502.6 367.4 502.2C367.5 501.7 367.6 501.2 367.8 500.8C367.9 500.4 368 500 368.1 499.6C368.2 499.1 368.3 498.6 368.4 498.1C368.5 497.7 368.6 497.3 368.6 496.9C368.7 496.4 368.8 495.9 368.8 495.4C368.9 495 368.9 494.6 369 494.2C369.1 493.7 369.1 493.1 369.2 492.6C369.2 492.2 369.3 491.9 369.3 491.5C369.4 490.9 369.4 490.3 369.4 489.7C369.4 489.4 369.4 489.1 369.5 488.8C369.5 487.9 369.6 487 369.6 486C369.6 484.9 369.6 483.9 369.5 482.9C369.5 482.6 369.4 482.2 369.4 481.9C369.4 481.2 369.3 480.5 369.2 479.8C369.2 479.4 369.1 479 369.1 478.6C369 478 369 477.4 368.9 476.8C368.8 476.4 368.8 475.9 368.7 475.5C368.6 474.9 368.5 474.3 368.4 473.8C368.3 473.3 368.2 472.9 368.1 472.5C368 471.9 367.9 471.4 367.7 470.8C367.6 470.3 367.5 469.9 367.3 469.4C367.2 468.9 367 468.3 366.9 467.8C366.8 467.3 366.6 466.9 366.5 466.4C366.3 465.9 366.2 465.4 366 464.8C365.8 464.4 365.7 463.9 365.5 463.5C365.3 463 365.1 462.5 364.9 462C364.7 461.6 364.5 461.1 364.3 460.7C364.1 460.2 363.9 459.7 363.6 459.2C363.4 458.8 363.2 458.3 363 457.9C362.8 457.4 362.5 456.9 362.3 456.5C362.1 456.1 361.9 455.6 361.6 455.2C361.3 454.7 361.1 454.3 360.8 453.8C360.6 453.4 360.3 453 360.1 452.6C359.8 452.1 359.5 451.7 359.2 451.2C358.9 450.8 358.7 450.4 358.4 450C358.1 449.5 357.8 449.1 357.4 448.7C357.1 448.3 356.8 447.9 356.6 447.5C356.3 447.1 355.9 446.6 355.5 446.2C355.2 445.8 354.9 445.5 354.6 445.1C354.2 444.6 353.8 444.2 353.4 443.8C353.1 443.5 352.8 443.1 352.5 442.8C352.8 443 353 443.3 353.3 443.5C353.8 444 354.3 444.4 354.8 444.9C355.1 445.2 355.4 445.4 355.8 445.7C356.3 446.1 356.8 446.5 357.3 446.9C357.6 447.2 358 447.4 358.3 447.7C358.8 448.1 359.3 448.4 359.8 448.7C360.2 449 360.5 449.2 360.9 449.4C361.4 449.7 361.9 450 362.4 450.3C362.8 450.5 363.2 450.8 363.6 451C364.1 451.3 364.6 451.6 365.1 451.9C365.5 452.1 365.9 452.3 366.3 452.5C366.8 452.8 367.3 453 367.8 453.3C368.2 453.5 368.6 453.7 369 453.9C369.5 454.1 370 454.4 370.5 454.6C370.9 454.8 371.3 455 371.8 455.1C372.3 455.3 372.8 455.5 373.4 455.7C373.8 455.9 374.3 456 374.7 456.2C375.2 456.4 375.8 456.6 376.3 456.7C376.7 456.8 377.2 457 377.6 457.1C378.1 457.3 378.7 457.4 379.2 457.6C379.6 457.7 380.1 457.8 380.5 457.9C381.1 458 381.6 458.2 382.2 458.3C382.6 458.4 383.1 458.5 383.5 458.6C384.1 458.7 384.7 458.8 385.3 458.9C385.7 459 386.2 459 386.6 459.1C387.2 459.2 387.8 459.3 388.5 459.3C388.9 459.3 389.3 459.4 389.7 459.4C390.4 459.5 391.1 459.5 391.8 459.6C392.1 459.6 392.5 459.7 392.8 459.7C393.8 459.7 394.9 459.8 395.9 459.8C396.9 459.8 397.9 459.8 398.8 459.7C399.1 459.7 399.5 459.7 399.8 459.6C400.4 459.6 401.1 459.5 401.7 459.5C402.1 459.5 402.5 459.4 402.9 459.4C403.5 459.3 404.1 459.3 404.6 459.2C405 459.1 405.4 459.1 405.8 459C406.3 458.9 406.9 458.8 407.4 458.7C407.8 458.6 408.2 458.5 408.7 458.4C409.2 458.3 409.7 458.2 410.3 458.1C410.7 458 411.1 457.9 411.6 457.8C412.1 457.7 412.6 457.5 413.1 457.4C413.5 457.3 413.9 457.2 414.4 457C414.9 456.9 415.4 456.7 415.9 456.5C416.3 456.4 416.7 456.2 417.2 456.1C417.7 455.9 418.2 455.8 418.6 455.6C419 455.4 419.4 455.3 419.9 455.1C420.4 454.9 420.8 454.7 421.3 454.5C421.7 454.3 422.1 454.1 422.5 453.9C423 453.7 423.4 453.5 423.9 453.3C424.3 453.1 424.7 452.9 425.1 452.7C425.6 452.5 426 452.2 426.4 452C426.8 451.8 427.2 451.6 427.6 451.3C428 451 428.5 450.8 428.9 450.5C429.3 450.3 429.7 450 430.1 449.8C430.5 449.5 431 449.2 431.4 449C431.8 448.7 432.2 448.5 432.5 448.2C432.9 447.9 433.3 447.6 433.8 447.3C434.2 447 434.5 446.8 434.9 446.5C435.3 446.2 435.7 445.9 436.1 445.5C436.4 445.2 436.8 444.9 437.1 444.6C437.2 444.5 437.4 444.4 437.5 444.2C441.9 452.7 444.3 462.2 444.3 471.8Z" fill="black"/>
<path d="M306 210.4C204.4 210.4 122 293.5 122 396C122 498.5 204.4 581.6 306 581.6C407.6 581.6 490 498.5 490 396C490 293.5 407.6 210.4 306 210.4ZM306 578.6C206 578.6 125 496.8 125 396C125 295.2 206 213.4 306 213.4C406 213.4 487 295.2 487 396C487 496.8 406 578.6 306 578.6Z" fill="black"/>
</svg>
