<svg width="612" height="792" viewBox="0 0 612 792" fill="none" xmlns="http://www.w3.org/2000/svg">
<path d="M484.6 396C484.6 370.6 469.7 348 446.5 337.8C455.7 314.2 450.2 287.6 432.3 269.7C414.4 251.8 387.8 246.3 364.2 255.5C354 232.3 331.4 217.4 306 217.4C280.6 217.4 258 232.3 247.8 255.5C224.2 246.3 197.6 251.8 179.7 269.7C161.8 287.6 156.3 314.2 165.5 337.8C142.3 348 127.4 370.6 127.4 396C127.4 421.4 142.3 444 165.5 454.2C156.3 477.8 161.8 504.4 179.7 522.3C191.9 534.5 208 540.9 224.5 540.9C232.3 540.9 240.2 539.4 247.8 536.5C258 559.7 280.6 574.6 306 574.6C331.4 574.6 354.1 559.7 364.2 536.5C371.8 539.5 379.7 540.9 387.5 540.9C404 540.9 420.2 534.5 432.3 522.3C450.2 504.4 455.7 477.8 446.5 454.2C469.7 444 484.6 421.4 484.6 396ZM430.2 271.8C447.3 288.9 452.5 314.2 443.8 336.6C443.5 336.5 443.3 336.4 443 336.3C442.6 336.1 442.1 336 441.7 335.8C441.2 335.6 440.7 335.5 440.1 335.3C439.7 335.2 439.2 335 438.8 334.9C438.3 334.7 437.7 334.6 437.2 334.5C436.8 334.4 436.3 334.3 435.9 334.2C435.4 334.1 434.8 334 434.3 333.8C433.9 333.7 433.4 333.6 433 333.5C432.4 333.4 431.9 333.3 431.3 333.2C430.9 333.1 430.5 333.1 430 333C429.4 332.9 428.8 332.8 428.2 332.8C427.8 332.8 427.4 332.7 427 332.7C426.3 332.6 425.7 332.6 425 332.6C424.7 332.6 424.3 332.5 424 332.5C423 332.5 422 332.4 421 332.4C420.2 332.4 419.4 332.4 418.6 332.4C418.3 332.4 418.1 332.4 417.8 332.4C417.3 332.4 416.7 332.4 416.2 332.5C415.9 332.5 415.6 332.6 415.3 332.6C414.8 332.6 414.4 332.7 413.9 332.7C413.6 332.7 413.2 332.8 412.9 332.8C412.5 332.9 412 332.9 411.6 333C411.3 333.1 410.9 333.1 410.6 333.2C410.2 333.3 409.8 333.3 409.3 333.4C409 333.5 408.6 333.5 408.3 333.6C407.9 333.7 407.5 333.8 407.1 333.9C406.8 334 406.4 334.1 406.1 334.1C405.7 334.2 405.3 334.3 404.9 334.4C404.6 334.5 404.2 334.6 403.9 334.7C403.5 334.8 403.1 334.9 402.7 335C402.4 335.1 402 335.2 401.7 335.3C401.3 335.4 400.9 335.5 400.6 335.7C400.3 335.8 399.9 335.9 399.6 336.1C399.2 336.2 398.9 336.4 398.5 336.5C398.2 336.6 397.8 336.8 397.5 336.9C397.1 337 396.8 337.2 396.4 337.3C396.1 337.4 395.7 337.6 395.4 337.7C395 337.9 394.7 338 394.3 338.2C394 338.4 393.6 338.5 393.3 338.7C392.9 338.9 392.6 339 392.2 339.2C391.9 339.4 391.6 339.5 391.2 339.7C390.9 339.9 390.5 340.1 390.2 340.3C389.9 340.5 389.6 340.6 389.3 340.8C389 341 388.6 341.2 388.3 341.4C388 341.6 387.7 341.8 387.4 342C387.1 342.2 386.7 342.4 386.4 342.6C386.1 342.8 385.8 343 385.5 343.2C385.2 343.4 384.8 343.6 384.5 343.9C384.2 344.1 383.9 344.3 383.6 344.5C383.3 344.7 383 345 382.6 345.2C382.3 345.4 382 345.6 381.8 345.8C381.5 346.1 381.2 346.3 380.8 346.6C380.5 346.8 380.3 347 380 347.3C379.7 347.6 379.4 347.9 379 348.1C378.8 348.3 378.5 348.5 378.3 348.7C377.9 349 377.6 349.3 377.3 349.7C377.1 349.9 376.9 350.1 376.7 350.3C376.2 350.8 375.6 351.4 375.1 351.9C374.9 352.1 374.8 352.2 374.6 352.4C374.2 352.8 373.9 353.2 373.5 353.6C373.3 353.8 373.1 354.1 372.9 354.3C372.6 354.6 372.3 355 372 355.3C371.8 355.6 371.6 355.8 371.4 356.1C371.1 356.4 370.9 356.8 370.6 357.1C370.4 357.4 370.2 357.7 370 357.9C369.8 358.2 369.5 358.6 369.3 358.9C369.1 359.2 368.9 359.5 368.7 359.8C368.5 360.1 368.2 360.5 368 360.8C367.8 361.1 367.6 361.4 367.4 361.7C367.2 362 367 362.4 366.7 362.7C366.5 363 366.3 363.3 366.1 363.6C365.9 364 365.7 364.3 365.5 364.7C365.3 365 365.1 365.3 365 365.7C364.8 366.1 364.6 366.4 364.4 366.8C364.2 367.1 364.1 367.5 363.9 367.8C363.8 368 363.7 368.2 363.6 368.5C363.3 367.8 362.9 367.1 362.5 366.3C362.4 366.2 362.4 366 362.3 365.9C361.8 365 361.3 364.1 360.8 363.3C360.7 363.1 360.5 362.9 360.4 362.6C360 362 359.6 361.3 359.2 360.7C359 360.4 358.8 360.1 358.6 359.8C358.2 359.3 357.9 358.7 357.5 358.2C357.3 357.9 357 357.6 356.8 357.3C356.4 356.8 356.1 356.3 355.7 355.9C355.4 355.6 355.2 355.3 354.9 354.9C354.5 354.5 354.1 354 353.8 353.6C353.5 353.3 353.2 353 352.9 352.7C352.5 352.3 352.1 351.9 351.7 351.4C351.4 351.1 351.1 350.8 350.8 350.5C350.4 350.1 350 349.7 349.6 349.3C349.3 349 349 348.7 348.6 348.4C348.2 348 347.7 347.6 347.3 347.3C347 347 346.6 346.7 346.3 346.5C345.9 346.1 345.4 345.8 345 345.4C344.7 345.1 344.3 344.9 344 344.6C343.5 344.3 343.1 343.9 342.6 343.6C342.2 343.4 341.9 343.1 341.5 342.9C341 342.6 340.5 342.3 340 341.9C339.6 341.7 339.3 341.5 338.9 341.2C338.4 340.9 337.8 340.6 337.3 340.3C337 340.1 336.6 339.9 336.3 339.7C335.7 339.4 335.1 339.1 334.5 338.8C334.2 338.7 333.9 338.5 333.6 338.4C332.8 338 332 337.7 331.2 337.3C322.2 314.7 327.5 289.1 344.7 271.9C350.4 266.2 356.9 261.8 364.3 258.8C386.8 249.3 412.8 254.4 430.2 271.8ZM329.1 339.8L329.5 340C343.2 345.8 354.4 356.6 360.8 370.1C361.2 371 361.6 371.9 362 372.8V372.9C365 380.3 366.6 388.1 366.6 396.1C366.6 403.9 365.1 411.5 362.2 418.7L362 419.3C355.9 434 344.1 445.9 329.5 452.1L329.1 452.3C321.8 455.3 314 456.9 306 456.9C298 456.9 290.2 455.4 282.9 452.3L282.5 452.1C267.9 445.9 256.1 434 250 419.4V419.3C247 411.9 245.4 404.1 245.4 396.1C245.4 388.3 246.9 380.7 249.8 373.5L250 372.9C256 358.3 267.8 346.3 282.4 340.2L282.9 340C290.2 337 298 335.4 306 335.4C314 335.2 321.8 336.8 329.1 339.8ZM250 258C259.4 235.2 281.4 220.4 306 220.4C330.1 220.4 351.8 234.6 361.4 256.7C361.1 256.8 360.9 257 360.6 257.1C360.2 257.3 359.8 257.5 359.4 257.7C358.9 257.9 358.4 258.2 357.9 258.5C357.5 258.7 357.1 258.9 356.7 259.1C356.2 259.4 355.7 259.6 355.2 259.9C354.8 260.1 354.4 260.4 354 260.6C353.5 260.9 353.1 261.2 352.6 261.5C352.2 261.7 351.8 262 351.5 262.2C351 262.5 350.6 262.9 350.1 263.2C349.7 263.5 349.4 263.7 349 264C348.5 264.4 348.1 264.7 347.6 265.1C347.3 265.4 346.9 265.6 346.6 265.9C346.1 266.3 345.6 266.8 345.1 267.2C344.8 267.4 344.6 267.7 344.3 267.9C343.6 268.6 342.8 269.3 342.1 270C341.5 270.6 341 271.1 340.5 271.7C340.3 271.9 340.2 272.1 340 272.3C339.6 272.7 339.3 273.1 338.9 273.5C338.7 273.7 338.5 274 338.3 274.2C338 274.6 337.7 274.9 337.4 275.3C337.2 275.5 337 275.8 336.8 276.1C336.5 276.5 336.2 276.8 336 277.2C335.8 277.5 335.6 277.7 335.4 278C335.1 278.4 334.9 278.7 334.6 279.1C334.4 279.4 334.2 279.7 334 279.9C333.8 280.3 333.5 280.6 333.3 281C333.1 281.3 332.9 281.6 332.8 281.9C332.6 282.3 332.3 282.6 332.1 283C331.9 283.3 331.8 283.6 331.6 283.9C331.4 284.3 331.2 284.6 331 285C330.8 285.3 330.7 285.6 330.5 285.9C330.3 286.3 330.1 286.7 329.9 287C329.7 287.3 329.6 287.6 329.5 287.9C329.3 288.3 329.1 288.7 329 289C328.9 289.3 328.7 289.6 328.6 289.9C328.4 290.3 328.3 290.7 328.1 291.1C328 291.4 327.8 291.7 327.7 292C327.5 292.4 327.4 292.8 327.3 293.2C327.2 293.5 327.1 293.8 327 294.1C326.9 294.5 326.7 294.9 326.6 295.3C326.5 295.6 326.4 295.9 326.3 296.2C326.2 296.6 326.1 297 325.9 297.4C325.8 297.7 325.7 298 325.6 298.4C325.5 298.8 325.4 299.2 325.3 299.6C325.2 299.9 325.1 300.2 325.1 300.6C325 301 324.9 301.4 324.8 301.9C324.7 302.2 324.7 302.5 324.6 302.8C324.5 303.2 324.4 303.7 324.4 304.1C324.3 304.4 324.3 304.7 324.2 305C324.1 305.4 324.1 305.9 324 306.3C324 306.6 323.9 306.9 323.9 307.2C323.8 307.7 323.8 308.1 323.7 308.6C323.7 308.9 323.6 309.2 323.6 309.5C323.6 310 323.5 310.5 323.5 311C323.5 311.3 323.5 311.5 323.4 311.8C323.4 312.4 323.4 312.9 323.3 313.5C323.3 313.7 323.3 313.9 323.3 314.1C323.3 314.9 323.3 315.6 323.3 316.4C323.3 316.5 323.3 316.6 323.3 316.7C323.3 317.3 323.3 318 323.4 318.6C323.4 318.9 323.4 319.1 323.5 319.4C323.5 319.9 323.6 320.4 323.6 320.9C323.6 321.2 323.7 321.5 323.7 321.8C323.7 322.2 323.8 322.7 323.8 323.1C323.8 323.4 323.9 323.8 323.9 324.1C324 324.5 324 324.9 324.1 325.4C324.2 325.7 324.2 326.1 324.3 326.4C324.4 326.8 324.4 327.2 324.5 327.6C324.6 328 324.7 328.3 324.7 328.7C324.8 329.1 324.9 329.5 325 329.9C325.1 330.3 325.2 330.6 325.3 331C325.4 331.4 325.5 331.8 325.6 332.2C325.7 332.6 325.8 332.9 325.9 333.3C326 333.7 326.1 334.1 326.2 334.4C326.3 334.8 326.4 335.1 326.6 335.5C326.7 335.7 326.7 335.9 326.8 336.2C325.9 335.9 325 335.6 324.2 335.3C324 335.2 323.8 335.2 323.6 335.1C322.9 334.9 322.1 334.7 321.4 334.5C321.1 334.4 320.7 334.3 320.4 334.3C319.8 334.2 319.2 334 318.6 333.9C318.2 333.8 317.8 333.8 317.5 333.7C316.9 333.6 316.3 333.5 315.7 333.4C315.3 333.3 314.9 333.3 314.5 333.2C313.9 333.1 313.3 333 312.7 333C312.3 333 312 332.9 311.6 332.9C310.9 332.8 310.3 332.8 309.6 332.8C309.3 332.8 309 332.8 308.6 332.7C307.6 332.7 306.6 332.6 305.7 332.6C297.4 332.6 289.4 334.2 281.8 337.3C259.5 327.7 245.1 305.8 245.1 281.5C245.4 273.1 246.9 265.3 250 258ZM181.8 271.8C198.9 254.7 224.2 249.5 246.6 258.2C246.5 258.5 246.4 258.7 246.3 259C246.1 259.4 246 259.9 245.8 260.3C245.6 260.8 245.5 261.3 245.3 261.9C245.2 262.3 245 262.8 244.9 263.2C244.7 263.7 244.6 264.3 244.5 264.8C244.4 265.2 244.3 265.7 244.2 266.1C244.1 266.6 244 267.2 243.8 267.7C243.7 268.1 243.6 268.6 243.5 269C243.4 269.6 243.3 270.1 243.2 270.7C243.1 271.1 243.1 271.5 243 272C242.9 272.6 242.8 273.2 242.8 273.8C242.8 274.2 242.7 274.6 242.7 275C242.6 275.7 242.6 276.3 242.6 277C242.6 277.3 242.5 277.7 242.5 278C242.5 279 242.4 280 242.4 281C242.4 281.8 242.4 282.6 242.4 283.4C242.4 283.7 242.4 283.9 242.4 284.2C242.4 284.7 242.4 285.2 242.5 285.8C242.5 286.1 242.6 286.4 242.6 286.7C242.6 287.2 242.7 287.6 242.7 288.1C242.7 288.4 242.8 288.7 242.8 289.1C242.9 289.5 242.9 290 243 290.4C243 290.7 243.1 291.1 243.2 291.4C243.3 291.8 243.3 292.3 243.4 292.7C243.5 293 243.5 293.4 243.6 293.7C243.7 294.1 243.8 294.5 243.9 294.9C244 295.2 244.1 295.6 244.1 295.9C244.2 296.3 244.3 296.7 244.4 297.1C244.5 297.4 244.6 297.8 244.7 298.1C244.8 298.5 244.9 298.9 245 299.3C245.1 299.6 245.2 300 245.3 300.3C245.4 300.7 245.5 301.1 245.7 301.5C245.8 301.8 245.9 302.2 246 302.5C246.1 302.9 246.3 303.3 246.4 303.6C246.5 303.9 246.7 304.3 246.8 304.6C246.9 305 247.1 305.3 247.3 305.7C247.4 306 247.6 306.3 247.7 306.7C247.9 307.1 248 307.4 248.2 307.8C248.3 308.1 248.5 308.4 248.6 308.8C248.8 309.2 249 309.5 249.1 309.9C249.3 310.2 249.4 310.5 249.6 310.8C249.8 311.2 250 311.5 250.2 311.9C250.4 312.2 250.5 312.5 250.7 312.8C250.9 313.2 251.1 313.5 251.3 313.9C251.5 314.2 251.7 314.5 251.8 314.8C252 315.1 252.2 315.5 252.5 315.8C252.7 316.1 252.9 316.4 253.1 316.7C253.3 317 253.6 317.4 253.8 317.7C254 318 254.2 318.3 254.4 318.5C254.6 318.8 254.9 319.2 255.2 319.5C255.4 319.8 255.6 320 255.8 320.3C256.1 320.6 256.3 321 256.6 321.3C256.8 321.5 257 321.8 257.2 322C257.5 322.4 257.8 322.7 258.1 323C258.3 323.2 258.5 323.4 258.7 323.7C259.1 324.1 259.4 324.5 259.8 324.9C260 325.1 260.1 325.2 260.3 325.4C260.8 325.9 261.4 326.5 261.9 327L262 327.1C262.5 327.6 263 328.1 263.5 328.5C263.7 328.7 263.9 328.8 264.1 329C264.5 329.3 264.9 329.7 265.2 330C265.4 330.2 265.7 330.4 265.9 330.6C266.3 330.9 266.6 331.2 267 331.5C267.3 331.7 267.5 331.9 267.8 332.1C268.2 332.4 268.5 332.6 268.9 332.9C269.2 333.1 269.4 333.3 269.7 333.5C270.1 333.7 270.4 334 270.8 334.2C271.1 334.4 271.4 334.6 271.6 334.7C272 334.9 272.3 335.2 272.7 335.4C273 335.6 273.3 335.8 273.6 335.9C274 336.1 274.3 336.3 274.7 336.6C275 336.8 275.3 336.9 275.6 337.1C276 337.3 276.4 337.5 276.7 337.7C277 337.9 277.3 338 277.6 338.2C277.8 338.3 278.1 338.4 278.3 338.6C277.5 339 276.7 339.4 276 339.8C275.9 339.8 275.8 339.9 275.7 339.9C274.8 340.4 273.9 340.9 273.1 341.4C272.8 341.6 272.6 341.7 272.3 341.9C271.7 342.3 271.1 342.6 270.6 343C270.3 343.2 269.9 343.5 269.6 343.7C269.1 344 268.6 344.4 268.1 344.7C267.8 345 267.4 345.2 267.1 345.5C266.6 345.9 266.2 346.2 265.8 346.6C265.5 346.9 265.1 347.2 264.8 347.5C264.4 347.9 264 348.2 263.5 348.6C263.2 348.9 262.8 349.2 262.5 349.5C262.1 349.9 261.7 350.3 261.3 350.6C261 350.9 260.7 351.2 260.3 351.6C259.9 352 259.5 352.4 259.2 352.8C258.9 353.1 258.6 353.5 258.3 353.8C257.9 354.2 257.6 354.6 257.2 355C256.9 355.3 256.6 355.7 256.3 356.1C256 356.5 255.6 357 255.3 357.4C255 357.8 254.8 358.1 254.5 358.5C254.2 359 253.8 359.4 253.5 359.9C253.2 360.3 253 360.6 252.8 361C252.5 361.5 252.2 362 251.9 362.5C251.7 362.9 251.4 363.2 251.2 363.6C250.9 364.1 250.6 364.6 250.3 365.2C250.1 365.6 249.9 365.9 249.7 366.3C249.4 366.9 249.1 367.5 248.8 368.1C248.7 368.4 248.5 368.7 248.4 369C248.1 369.7 247.7 370.5 247.4 371.2C224.8 380.3 199.1 375 181.8 357.7C176.1 352 171.7 345.5 168.7 338.1C159.3 315.2 164.4 289.2 181.8 271.8ZM130.4 396C130.4 371.9 144.6 350.3 166.7 340.6C166.8 340.9 167 341.1 167.1 341.4C167.3 341.8 167.5 342.2 167.7 342.6C167.9 343.1 168.2 343.6 168.5 344.1C168.7 344.5 168.9 344.9 169.1 345.3C169.4 345.8 169.7 346.3 169.9 346.8C170.1 347.2 170.3 347.6 170.6 347.9C170.9 348.4 171.2 348.9 171.5 349.3C171.7 349.7 172 350 172.2 350.4C172.5 350.9 172.9 351.3 173.2 351.8C173.4 352.1 173.7 352.5 173.9 352.8C174.3 353.3 174.6 353.8 175 354.2C175.3 354.5 175.5 354.8 175.7 355.1C176.1 355.6 176.6 356.1 177 356.6C177.2 356.9 177.4 357.1 177.7 357.4C178.4 358.1 179.1 358.9 179.8 359.6C180.5 360.3 181.2 360.9 181.9 361.6C182.1 361.8 182.3 362 182.5 362.1C183.1 362.6 183.6 363.1 184.2 363.6C184.4 363.7 184.5 363.9 184.7 364C185.4 364.6 186.2 365.2 186.9 365.7C187.1 365.8 187.3 366 187.5 366.1C188.1 366.5 188.7 367 189.3 367.4C189.5 367.6 189.8 367.7 190 367.9C190.7 368.4 191.5 368.9 192.3 369.3C192.4 369.3 192.5 369.4 192.5 369.4C193.2 369.8 194 370.3 194.8 370.7C195.1 370.8 195.3 371 195.6 371.1C196.2 371.4 196.8 371.7 197.5 372C197.7 372.1 198 372.2 198.2 372.3C199 372.7 199.8 373 200.6 373.4C200.8 373.5 201.1 373.6 201.3 373.7C201.9 373.9 202.5 374.2 203.2 374.4C203.5 374.5 203.8 374.6 204.1 374.7C204.9 375 205.6 375.2 206.4 375.5C206.6 375.6 206.8 375.6 207 375.7C207.8 375.9 208.5 376.1 209.3 376.3C209.6 376.4 209.9 376.5 210.2 376.5C210.8 376.7 211.5 376.8 212.1 376.9C212.4 377 212.6 377 212.9 377.1C213.8 377.3 214.6 377.4 215.5 377.5C215.8 377.5 216.1 377.6 216.3 377.6C216.9 377.7 217.6 377.8 218.2 377.8C218.5 377.8 218.8 377.9 219.1 377.9C219.9 378 220.7 378 221.6 378.1C221.8 378.1 222 378.1 222.2 378.1C223 378.1 223.8 378.2 224.6 378.2C224.7 378.2 224.9 378.2 225 378.2C225.2 378.2 225.4 378.2 225.5 378.2C226.1 378.2 226.8 378.2 227.5 378.2C227.8 378.2 228 378.2 228.3 378.2C229.2 378.2 230.1 378.1 230.9 378C231.1 378 231.4 377.9 231.6 377.9C232.3 377.8 233 377.7 233.6 377.7C233.9 377.7 234.2 377.6 234.5 377.6C235.3 377.5 236.1 377.3 236.8 377.2C236.9 377.2 237.1 377.2 237.2 377.1C238.1 376.9 239 376.7 239.9 376.5C240.2 376.4 240.4 376.4 240.7 376.3C241.4 376.1 242.1 375.9 242.8 375.7C243 375.6 243.3 375.6 243.5 375.5C244.4 375.2 245.2 375 246.1 374.7C245.8 375.6 245.5 376.5 245.2 377.4C245.1 377.6 245.1 377.8 245 378C244.8 378.7 244.6 379.5 244.4 380.3C244.3 380.6 244.2 381 244.2 381.3C244.1 381.9 243.9 382.5 243.8 383.2C243.7 383.6 243.7 383.9 243.6 384.3C243.5 384.9 243.4 385.5 243.3 386.1C243.2 386.5 243.2 386.9 243.1 387.2C243 387.8 242.9 388.4 242.9 389C242.9 389.4 242.8 389.7 242.8 390.1C242.7 390.8 242.7 391.4 242.7 392.1C242.7 392.4 242.7 392.7 242.6 393.1C242.6 394.1 242.5 395.1 242.5 396C242.5 404.2 244 412.2 247.1 419.7C237.5 442.1 215.7 456.5 191.2 456.5C183.2 456.5 175.4 455 168.1 451.9C145.1 442.6 130.4 420.6 130.4 396ZM181.8 520.2C164.7 503.1 159.5 477.8 168.2 455.4C168.5 455.5 168.7 455.6 169 455.7C169.4 455.9 169.9 456 170.3 456.2C170.8 456.4 171.3 456.5 171.8 456.7C172.2 456.8 172.7 457 173.1 457.1C173.6 457.3 174.2 457.4 174.7 457.5C175.1 457.6 175.6 457.7 176 457.8C176.5 457.9 177.1 458 177.6 458.2C178 458.3 178.5 458.4 178.9 458.5C179.5 458.6 180 458.7 180.6 458.8C181 458.9 181.4 458.9 181.9 459C182.5 459.1 183.1 459.2 183.7 459.2C184.1 459.2 184.5 459.3 184.9 459.3C185.6 459.4 186.2 459.4 186.9 459.4C187.2 459.4 187.6 459.5 187.9 459.5C188.9 459.5 189.9 459.6 190.9 459.6C191.7 459.6 192.5 459.6 193.3 459.6C193.6 459.6 193.8 459.6 194.1 459.6C194.6 459.6 195.1 459.6 195.7 459.5C196 459.5 196.3 459.4 196.6 459.4C197.1 459.4 197.5 459.3 198 459.3C198.3 459.3 198.7 459.2 199 459.2C199.4 459.1 199.9 459.1 200.3 459C200.6 458.9 201 458.9 201.3 458.8C201.7 458.7 202.1 458.7 202.6 458.6C202.9 458.5 203.3 458.5 203.6 458.4C204 458.3 204.4 458.2 204.8 458.1C205.2 458 205.5 457.9 205.8 457.9C206.2 457.8 206.6 457.7 207 457.6C207.4 457.5 207.7 457.4 208.1 457.3C208.5 457.2 208.9 457.1 209.3 457C209.7 456.9 210 456.8 210.3 456.7C210.7 456.6 211.1 456.5 211.4 456.3C211.7 456.2 212.1 456.1 212.4 455.9C212.8 455.8 213.1 455.6 213.5 455.5C213.8 455.4 214.2 455.2 214.5 455.1C214.9 455 215.2 454.8 215.6 454.7C215.9 454.6 216.3 454.4 216.6 454.3C217 454.1 217.3 454 217.7 453.8C218 453.6 218.4 453.5 218.7 453.3C219 453.1 219.4 453 219.7 452.8C220 452.6 220.4 452.5 220.7 452.3C221 452.1 221.4 451.9 221.7 451.8C222 451.6 222.4 451.4 222.7 451.3C223 451.1 223.4 450.9 223.7 450.7C224 450.5 224.3 450.3 224.7 450.1C225 449.9 225.3 449.7 225.7 449.5C226 449.3 226.3 449.1 226.6 448.9C226.9 448.7 227.2 448.5 227.5 448.2C227.8 448 228.1 447.8 228.4 447.6C228.7 447.4 229 447.1 229.3 446.9C229.6 446.7 229.9 446.5 230.2 446.2C230.5 446 230.8 445.7 231.1 445.5C231.4 445.3 231.7 445 232 444.8C232.3 444.5 232.6 444.3 232.9 444C233.2 443.8 233.4 443.5 233.7 443.3C234 443 234.3 442.7 234.6 442.4C234.8 442.2 235.1 441.9 235.3 441.7C235.8 441.2 236.4 440.7 236.9 440.1C237.1 439.9 237.3 439.7 237.5 439.4C237.8 439.1 238.1 438.7 238.4 438.4C238.6 438.1 238.8 437.9 239.1 437.6C239.4 437.3 239.6 437 239.9 436.6C240.1 436.3 240.3 436 240.6 435.8C240.9 435.5 241.1 435.2 241.4 434.8C241.6 434.5 241.8 434.2 242 433.9C242.2 433.6 242.5 433.3 242.7 432.9C242.9 432.6 243.1 432.3 243.3 432C243.5 431.7 243.8 431.3 244 431C244.2 430.7 244.4 430.4 244.6 430.1C244.8 429.8 245 429.4 245.2 429.1C245.4 428.8 245.6 428.5 245.8 428.1C246 427.8 246.2 427.4 246.4 427C246.6 426.7 246.8 426.4 246.9 426C247.1 425.6 247.3 425.3 247.5 424.9C247.7 424.6 247.8 424.2 248 423.9C248.1 423.7 248.2 423.5 248.3 423.2C255 437.1 266.6 448.4 280.8 454.4C289.8 477 284.5 502.6 267.3 519.8C261.6 525.5 255.1 529.9 247.7 532.9C225.2 542.7 199.2 537.6 181.8 520.2ZM362 534C352.6 556.8 330.6 571.6 306 571.6C281.9 571.6 260.3 557.4 250.6 535.3C250.9 535.2 251.1 535 251.4 534.9C251.8 534.7 252.2 534.5 252.6 534.3C253.1 534.1 253.6 533.8 254.1 533.5C254.5 533.3 254.9 533.1 255.3 532.9C255.8 532.6 256.3 532.4 256.8 532.1C257.2 531.9 257.6 531.7 257.9 531.4C258.4 531.1 258.9 530.8 259.3 530.5C259.7 530.3 260 530 260.4 529.8C260.9 529.5 261.3 529.1 261.8 528.8C262.1 528.6 262.5 528.3 262.8 528.1C263.3 527.7 263.8 527.4 264.2 527C264.5 526.7 264.8 526.5 265.1 526.2C265.6 525.8 266.1 525.3 266.6 524.9C266.9 524.7 267.1 524.5 267.4 524.2C268.1 523.5 268.9 522.8 269.6 522.1C270.2 521.5 270.7 521 271.2 520.4C271.4 520.2 271.5 520 271.7 519.8C272.1 519.4 272.4 519 272.8 518.6C273 518.4 273.2 518.1 273.4 517.9C273.7 517.5 274 517.2 274.3 516.8C274.5 516.5 274.7 516.3 274.9 516C275.2 515.6 275.4 515.3 275.7 514.9C275.9 514.6 276.1 514.3 276.3 514.1C276.6 513.8 276.8 513.4 277 513.1C277.2 512.8 277.4 512.5 277.6 512.2C277.8 511.8 278.1 511.5 278.3 511.1C278.5 510.8 278.7 510.5 278.9 510.2C279.1 509.8 279.3 509.5 279.5 509.1C279.7 508.8 279.9 508.5 280 508.2C280.2 507.8 280.4 507.5 280.6 507.1C280.8 506.8 280.9 506.5 281.1 506.2C281.3 505.8 281.5 505.5 281.7 505.1C281.9 504.8 282 504.5 282.2 504.1C282.4 503.7 282.5 503.4 282.7 503C282.8 502.7 283 502.4 283.1 502C283.3 501.6 283.4 501.3 283.6 500.9C283.7 500.6 283.9 500.3 284 499.9C284.1 499.5 284.3 499.1 284.4 498.8C284.5 498.5 284.6 498.1 284.8 497.8C284.9 497.4 285.1 497 285.2 496.6C285.3 496.3 285.4 495.9 285.5 495.6C285.6 495.2 285.7 494.8 285.8 494.4C285.9 494.1 286 493.7 286.1 493.4C286.2 493 286.3 492.6 286.4 492.2C286.5 491.9 286.6 491.5 286.6 491.2C286.7 490.8 286.8 490.4 286.9 490C287 489.7 287 489.3 287.1 489C287.2 488.6 287.3 488.2 287.3 487.8C287.4 487.5 287.4 487.1 287.5 486.8C287.6 486.4 287.6 486 287.7 485.5C287.7 485.2 287.8 484.9 287.8 484.5C287.9 484.1 287.9 483.6 287.9 483.2C287.9 482.9 288 482.6 288 482.3C288 481.8 288.1 481.4 288.1 480.9C288.1 480.6 288.1 480.3 288.2 480C288.2 479.5 288.2 478.9 288.3 478.4C288.3 478.2 288.3 478 288.3 477.7C288.3 476.9 288.3 476.2 288.3 475.4C288.3 475.2 288.3 475.1 288.3 474.9C288.3 474.3 288.3 473.7 288.2 473.1C288.2 472.8 288.2 472.5 288.1 472.3C288.1 471.8 288 471.4 288 470.9C288 470.6 287.9 470.3 287.9 469.9C287.9 469.5 287.8 469 287.8 468.6C287.8 468.3 287.7 467.9 287.7 467.6C287.6 467.2 287.6 466.8 287.5 466.4C287.4 466.1 287.4 465.7 287.3 465.4C287.2 465 287.2 464.6 287.1 464.2C287 463.8 286.9 463.5 286.9 463.1C286.8 462.7 286.7 462.3 286.6 461.9C286.5 461.5 286.4 461.2 286.3 460.8C286.2 460.4 286.1 460 286 459.6C285.9 459.2 285.8 458.9 285.7 458.5C285.6 458.1 285.5 457.7 285.4 457.4C285.3 457 285.2 456.7 285 456.3C284.9 456.1 284.9 455.9 284.8 455.6C291.6 458 298.7 459.2 305.9 459.2C314.2 459.2 322.2 457.6 329.8 454.5C352.1 464.1 366.5 486 366.5 510.3C366.6 518.9 365.1 526.7 362 534ZM430.2 520.2C413.1 537.3 387.8 542.5 365.4 533.8C365.5 533.5 365.6 533.3 365.7 533C365.9 532.6 366 532.1 366.2 531.7C366.4 531.2 366.5 530.7 366.7 530.1C366.8 529.7 367 529.2 367.1 528.8C367.3 528.3 367.4 527.7 367.5 527.2C367.6 526.8 367.7 526.3 367.8 525.9C367.9 525.4 368 524.8 368.2 524.3C368.3 523.9 368.4 523.4 368.5 523C368.6 522.4 368.7 521.9 368.8 521.3C368.9 520.9 368.9 520.5 369 520C369.1 519.4 369.2 518.8 369.2 518.2C369.2 517.8 369.3 517.4 369.3 517C369.4 516.3 369.4 515.7 369.4 515C369.4 514.7 369.5 514.3 369.5 514C369.5 513 369.6 512 369.6 511C369.6 510.2 369.6 509.4 369.6 508.6C369.6 508.3 369.6 508.1 369.6 507.8C369.6 507.3 369.6 506.8 369.5 506.2C369.5 505.9 369.4 505.6 369.4 505.3C369.4 504.8 369.3 504.4 369.3 503.9C369.3 503.6 369.2 503.2 369.2 502.9C369.1 502.5 369.1 502 369 501.6C368.9 501.3 368.9 500.9 368.8 500.6C368.7 500.2 368.7 499.8 368.6 499.3C368.5 499 368.5 498.6 368.4 498.3C368.3 497.9 368.2 497.5 368.1 497.1C368 496.8 367.9 496.4 367.9 496.1C367.8 495.7 367.7 495.3 367.6 494.9C367.5 494.6 367.4 494.2 367.3 493.9C367.2 493.5 367.1 493.1 367 492.7C366.9 492.4 366.8 492 366.7 491.7C366.6 491.3 366.5 490.9 366.3 490.6C366.2 490.3 366.1 489.9 365.9 489.6C365.8 489.2 365.6 488.9 365.5 488.5C365.4 488.2 365.2 487.8 365.1 487.5C365 487.1 364.8 486.8 364.7 486.4C364.6 486.1 364.4 485.7 364.3 485.4C364.1 485 364 484.7 363.8 484.3C363.6 484 363.5 483.6 363.3 483.3C363.1 483 363 482.6 362.8 482.3C362.6 482 362.5 481.6 362.3 481.3C362.1 481 361.9 480.6 361.7 480.3C361.5 480 361.3 479.7 361.2 479.3C361 479 360.8 478.6 360.6 478.3C360.4 478 360.2 477.7 360 477.4C359.8 477.1 359.6 476.7 359.4 476.4C359.2 476.1 359 475.8 358.8 475.5C358.6 475.2 358.4 474.9 358.1 474.5C357.9 474.2 357.7 473.9 357.5 473.6C357.3 473.3 357 473 356.8 472.7C356.6 472.4 356.4 472.1 356.1 471.8C355.9 471.5 355.6 471.2 355.3 470.9C355.1 470.6 354.9 470.3 354.6 470.1C354.3 469.8 354.1 469.5 353.8 469.2C353.6 468.9 353.4 468.7 353.1 468.4C352.8 468.1 352.5 467.7 352.2 467.4C352 467.2 351.8 466.9 351.6 466.7C351.1 466.2 350.7 465.8 350.2 465.3C350 465.1 349.8 464.9 349.6 464.7C349.2 464.3 348.8 464 348.4 463.6C348.2 463.4 347.9 463.2 347.7 463C347.4 462.7 347 462.4 346.7 462.1C346.4 461.9 346.2 461.7 345.9 461.5C345.6 461.2 345.2 461 344.9 460.7C344.6 460.5 344.4 460.3 344.1 460.1C343.8 459.8 343.4 459.6 343.1 459.3C342.8 459.1 342.5 458.9 342.3 458.7C342 458.5 341.6 458.2 341.3 458C341 457.8 340.7 457.6 340.4 457.4C340 457.2 339.7 456.9 339.3 456.7C339 456.5 338.7 456.3 338.4 456.2C338 456 337.7 455.8 337.3 455.6C337 455.4 336.7 455.3 336.4 455.1C336 454.9 335.7 454.7 335.3 454.5C335 454.3 334.7 454.2 334.4 454C334.2 453.9 333.9 453.8 333.7 453.6C334.5 453.2 335.3 452.8 336.1 452.4C336.2 452.4 336.2 452.3 336.3 452.3C337.2 451.8 338.1 451.3 338.9 450.8C339.2 450.6 339.4 450.5 339.7 450.3C340.3 449.9 340.9 449.6 341.4 449.2C341.7 449 342 448.7 342.4 448.5C342.9 448.2 343.4 447.8 343.9 447.4C344.2 447.1 344.6 446.9 344.9 446.6C345.4 446.2 345.8 445.9 346.3 445.5C346.6 445.2 347 444.9 347.3 444.6C347.7 444.2 348.1 443.9 348.6 443.5C348.9 443.2 349.3 442.9 349.6 442.6C350 442.2 350.4 441.8 350.8 441.5C351.1 441.2 351.4 440.9 351.8 440.5C352.2 440.1 352.6 439.7 352.9 439.3C353.2 439 353.5 438.6 353.8 438.3C354.2 437.9 354.5 437.5 354.9 437.1C355.2 436.8 355.5 436.4 355.8 436C356.1 435.6 356.5 435.1 356.8 434.7C357.1 434.3 357.3 434 357.6 433.6C357.9 433.1 358.3 432.7 358.6 432.2C358.9 431.8 359.1 431.5 359.4 431.1C359.7 430.6 360 430.1 360.3 429.6C360.5 429.2 360.8 428.9 361 428.5C361.3 428 361.6 427.5 361.9 426.9C362.1 426.5 362.3 426.2 362.5 425.8C362.8 425.2 363.1 424.6 363.4 424C363.5 423.7 363.7 423.4 363.8 423.1C364.1 422.4 364.5 421.6 364.8 420.9C387.4 411.8 413.1 417.1 430.4 434.4C436.1 440.1 440.5 446.6 443.5 454C452.7 476.8 447.6 502.8 430.2 520.2ZM445.4 451.4C445.3 451.1 445.1 450.9 445 450.6C444.8 450.2 444.6 449.8 444.4 449.4C444.2 448.9 443.9 448.4 443.6 447.9C443.4 447.5 443.2 447.1 443 446.7C442.7 446.2 442.5 445.7 442.2 445.2C442 444.8 441.7 444.4 441.5 444C441.2 443.5 440.9 443.1 440.6 442.6C440.4 442.2 440.1 441.9 439.9 441.5C439.6 441 439.2 440.6 438.9 440.1C438.6 439.7 438.4 439.4 438.1 439C437.7 438.5 437.4 438.1 437 437.6C436.7 437.3 436.5 436.9 436.2 436.6C435.8 436.1 435.3 435.6 434.9 435.1C434.7 434.8 434.4 434.6 434.2 434.3C433.5 433.6 432.8 432.8 432.1 432.1C431.5 431.5 431 431 430.4 430.5C430.2 430.3 430 430.2 429.8 430C429.4 429.6 429 429.3 428.6 429C428.4 428.8 428.1 428.6 427.9 428.4C427.5 428.1 427.2 427.8 426.8 427.5C426.5 427.3 426.3 427.1 426 426.9C425.7 426.6 425.3 426.4 424.9 426.1C424.6 425.9 424.3 425.7 424.1 425.5C423.8 425.2 423.4 425 423.1 424.8C422.8 424.6 422.5 424.4 422.2 424.2C421.9 424 421.5 423.7 421.2 423.5C420.9 423.3 420.6 423.1 420.3 422.9C420 422.7 419.6 422.5 419.2 422.3C418.9 422.1 418.6 421.9 418.3 421.8C417.9 421.6 417.6 421.4 417.2 421.2C416.9 421 416.6 420.9 416.2 420.7C415.8 420.5 415.5 420.3 415.1 420.2C414.8 420 414.4 419.9 414.1 419.7C413.7 419.5 413.4 419.4 413 419.2C412.7 419 412.3 418.9 412 418.8C411.6 418.6 411.3 418.5 410.9 418.3C410.6 418.2 410.2 418 409.9 417.9C409.5 417.8 409.2 417.6 408.8 417.5C408.5 417.4 408.1 417.2 407.8 417.1C407.4 417 407.1 416.9 406.7 416.7C406.3 416.6 406 416.5 405.6 416.4C405.2 416.3 404.9 416.2 404.5 416.1C404.1 416 403.8 415.9 403.4 415.8C403 415.7 402.7 415.6 402.3 415.5C401.9 415.4 401.6 415.3 401.2 415.2C400.8 415.1 400.4 415 400.1 415C399.7 414.9 399.4 414.8 399 414.8C398.6 414.7 398.2 414.7 397.9 414.6C397.5 414.5 397.2 414.5 396.8 414.4C396.4 414.3 396 414.3 395.6 414.2C395.2 414.1 394.9 414.1 394.5 414.1C394.1 414.1 393.7 414 393.3 414C392.9 414 392.6 413.9 392.2 413.9C391.8 413.9 391.4 413.8 391 413.8C390.6 413.8 390.3 413.7 389.9 413.7C389.5 413.7 389.1 413.7 388.6 413.7C388.3 413.7 387.9 413.7 387.6 413.7C386.9 413.7 386.2 413.7 385.6 413.7C385.3 413.7 384.9 413.7 384.6 413.7C384.1 413.7 383.6 413.7 383.2 413.8C382.9 413.8 382.5 413.8 382.2 413.9C381.8 413.9 381.3 414 380.9 414C380.6 414 380.2 414.1 379.9 414.1C379.5 414.1 379.1 414.2 378.7 414.2C378.4 414.2 378 414.3 377.7 414.4C377.3 414.5 376.9 414.5 376.5 414.6C376.2 414.7 375.8 414.7 375.5 414.8C375.1 414.9 374.7 414.9 374.3 415C374 415.1 373.6 415.1 373.3 415.2C372.9 415.3 372.5 415.4 372.1 415.5C371.8 415.6 371.4 415.7 371.1 415.8C370.7 415.9 370.3 416 369.9 416.1C369.6 416.2 369.2 416.3 368.9 416.4C368.5 416.5 368.1 416.6 367.7 416.8C367.4 416.9 367 417 366.7 417.1C366.5 417.2 366.2 417.3 366 417.3C366.3 416.4 366.6 415.5 366.9 414.7C367 414.5 367 414.3 367.1 414.1C367.3 413.4 367.5 412.7 367.7 411.9C367.8 411.6 367.9 411.2 367.9 410.9C368 410.3 368.2 409.7 368.3 409.1C368.4 408.7 368.4 408.3 368.5 408C368.6 407.4 368.7 406.8 368.8 406.2C368.9 405.8 368.9 405.4 369 405C369.1 404.4 369.2 403.8 369.2 403.2C369.2 402.8 369.3 402.5 369.3 402.1C369.4 401.4 369.4 400.8 369.4 400.1C369.4 399.8 369.4 399.5 369.5 399.1C369.5 398.1 369.6 397.1 369.6 396.2C369.6 388 368.1 380 365 372.5C374.6 350.1 396.4 335.7 420.9 335.7C428.9 335.7 436.7 337.2 444 340.3C466.8 349.7 481.6 371.7 481.6 396.3C481.6 420.1 467.5 441.7 445.4 451.4Z" fill="black"/>
<path d="M306 210.4C204.4 210.4 122 293.5 122 396C122 498.5 204.4 581.6 306 581.6C407.6 581.6 490 498.5 490 396C490 293.5 407.6 210.4 306 210.4ZM306 578.6C206 578.6 125 496.8 125 396C125 295.2 206 213.4 306 213.4C406 213.4 487 295.2 487 396C487 496.8 406 578.6 306 578.6Z" fill="black"/>
</svg>
