<svg width="320" height="190" viewBox="0 0 320 190" fill="none" xmlns="http://www.w3.org/2000/svg">
<path d="M44.0394 1.18625V0.695552H43.5487V1.18625H44.0394ZM44.0394 1.67695H73.3753V0.695552H44.0394V1.67695ZM44.5301 30.5222V1.18625H43.5487V30.5222H44.5301Z" fill="white" fill-opacity="0.3" mask="url(#path-1-inside-1_1134_10574)"/>
<path d="M73.3753 1.18625V0.695552H72.8846V1.18625H73.3753ZM73.3753 1.67695H102.711V0.695552H73.3753V1.67695ZM73.866 30.5222V1.18625H72.8846V30.5222H73.866Z" fill="white" fill-opacity="0.3" mask="url(#path-3-inside-2_1134_10574)"/>
<path d="M102.711 1.18625V0.695552H102.221V1.18625H102.711ZM102.711 1.67695H132.047V0.695552H102.711V1.67695ZM103.202 30.5222V1.18625H102.221V30.5222H103.202Z" fill="white" fill-opacity="0.3" mask="url(#path-5-inside-3_1134_10574)"/>
<path d="M132.047 1.18625V0.695552H131.557V1.18625H132.047ZM132.047 1.67695H162.198V0.695552H132.047V1.67695ZM132.538 30.5222V1.18625H131.557V30.5222H132.538Z" fill="white" fill-opacity="0.3" mask="url(#path-7-inside-4_1134_10574)"/>
<path d="M162.198 1.18625V0.695552H161.707V1.18625H162.198ZM162.198 1.67695H191.534V0.695552H162.198V1.67695ZM162.689 30.5222V1.18625H161.707V30.5222H162.689Z" fill="white" fill-opacity="0.3" mask="url(#path-9-inside-5_1134_10574)"/>
<path d="M191.534 1.18625V0.695552H191.043V1.18625H191.534ZM191.534 1.67695H220.87V0.695552H191.534V1.67695ZM192.025 30.5222V1.18625H191.043V30.5222H192.025Z" fill="white" fill-opacity="0.3" mask="url(#path-11-inside-6_1134_10574)"/>
<path d="M220.87 1.18625V0.695552H220.379V1.18625H220.87ZM220.87 1.67695H250.206V0.695552H220.87V1.67695ZM221.361 30.5222V1.18625H220.379V30.5222H221.361Z" fill="white" fill-opacity="0.3" mask="url(#path-13-inside-7_1134_10574)"/>
<path d="M250.206 1.18625V0.695552H249.715V1.18625H250.206ZM250.206 1.67695H279.542V0.695552H250.206V1.67695ZM250.697 30.5222V1.18625H249.715V30.5222H250.697Z" fill="white" fill-opacity="0.3" mask="url(#path-15-inside-8_1134_10574)"/>
<path d="M279.542 1.18625V0.695552H279.051V1.18625H279.542ZM308.878 1.18625H309.369V0.695552H308.878V1.18625ZM279.542 1.67695H308.878V0.695552H279.542V1.67695ZM308.387 1.18625V30.5222H309.369V1.18625H308.387ZM280.033 30.5222V1.18625H279.051V30.5222H280.033Z" fill="white" fill-opacity="0.3" mask="url(#path-17-inside-9_1134_10574)"/>
<path d="M44.0394 30.5222V30.0315H43.5487V30.5222H44.0394ZM44.0394 31.0129H73.3753V30.0315H44.0394V31.0129ZM44.5301 59.8582V30.5222H43.5487V59.8582H44.5301Z" fill="white" fill-opacity="0.3" mask="url(#path-19-inside-10_1134_10574)"/>
<path d="M73.3753 30.5222V30.0315H72.8846V30.5222H73.3753ZM73.3753 31.0129H102.711V30.0315H73.3753V31.0129ZM73.866 59.8582V30.5222H72.8846V59.8582H73.866Z" fill="white" fill-opacity="0.3" mask="url(#path-21-inside-11_1134_10574)"/>
<path d="M102.711 30.5222V30.0315H102.221V30.5222H102.711ZM102.711 31.0129H132.047V30.0315H102.711V31.0129ZM103.202 59.8582V30.5222H102.221V59.8582H103.202Z" fill="white" fill-opacity="0.3" mask="url(#path-23-inside-12_1134_10574)"/>
<path d="M132.047 30.5222V30.0315H131.557V30.5222H132.047ZM132.047 31.0129H162.198V30.0315H132.047V31.0129ZM132.538 59.8582V30.5222H131.557V59.8582H132.538Z" fill="white" fill-opacity="0.3" mask="url(#path-25-inside-13_1134_10574)"/>
<path d="M162.198 30.5222V30.0315H161.707V30.5222H162.198ZM162.198 31.0129H191.534V30.0315H162.198V31.0129ZM162.689 59.8582V30.5222H161.707V59.8582H162.689Z" fill="white" fill-opacity="0.3" mask="url(#path-27-inside-14_1134_10574)"/>
<path d="M191.534 30.5222V30.0315H191.043V30.5222H191.534ZM191.534 31.0129H220.87V30.0315H191.534V31.0129ZM192.025 59.8582V30.5222H191.043V59.8582H192.025Z" fill="white" fill-opacity="0.3" mask="url(#path-29-inside-15_1134_10574)"/>
<path d="M220.87 30.5222V30.0315H220.379V30.5222H220.87ZM220.87 31.0129H250.206V30.0315H220.87V31.0129ZM221.361 59.8582V30.5222H220.379V59.8582H221.361Z" fill="white" fill-opacity="0.3" mask="url(#path-31-inside-16_1134_10574)"/>
<path d="M250.206 30.5222V30.0315H249.715V30.5222H250.206ZM250.206 31.0129H279.542V30.0315H250.206V31.0129ZM250.697 59.8582V30.5222H249.715V59.8582H250.697Z" fill="white" fill-opacity="0.3" mask="url(#path-33-inside-17_1134_10574)"/>
<path d="M279.542 30.5222V30.0315H279.051V30.5222H279.542ZM308.878 30.5222H309.369V30.0315H308.878V30.5222ZM279.542 31.0129H308.878V30.0315H279.542V31.0129ZM308.387 30.5222V59.8582H309.369V30.5222H308.387ZM280.033 59.8582V30.5222H279.051V59.8582H280.033Z" fill="white" fill-opacity="0.3" mask="url(#path-35-inside-18_1134_10574)"/>
<path d="M44.0394 59.8582V59.3675H43.5487V59.8582H44.0394ZM44.0394 60.3489H73.3753V59.3675H44.0394V60.3489ZM44.5301 89.1941V59.8582H43.5487V89.1941H44.5301Z" fill="white" fill-opacity="0.3" mask="url(#path-37-inside-19_1134_10574)"/>
<path d="M73.3753 59.8582V59.3675H72.8846V59.8582H73.3753ZM73.3753 60.3489H102.711V59.3675H73.3753V60.3489ZM73.866 89.1941V59.8582H72.8846V89.1941H73.866Z" fill="white" fill-opacity="0.3" mask="url(#path-39-inside-20_1134_10574)"/>
<path d="M102.711 59.8582V59.3675H102.221V59.8582H102.711ZM102.711 60.3489H132.047V59.3675H102.711V60.3489ZM103.202 89.1941V59.8582H102.221V89.1941H103.202Z" fill="white" fill-opacity="0.3" mask="url(#path-41-inside-21_1134_10574)"/>
<path d="M132.047 59.8582V59.3675H131.557V59.8582H132.047ZM132.047 60.3489H162.198V59.3675H132.047V60.3489ZM132.538 89.1941V59.8582H131.557V89.1941H132.538Z" fill="white" fill-opacity="0.3" mask="url(#path-43-inside-22_1134_10574)"/>
<path d="M162.198 59.8582V59.3675H161.707V59.8582H162.198ZM162.198 60.3489H191.534V59.3675H162.198V60.3489ZM162.689 89.1941V59.8582H161.707V89.1941H162.689Z" fill="white" fill-opacity="0.3" mask="url(#path-45-inside-23_1134_10574)"/>
<path d="M191.534 59.8582V59.3675H191.043V59.8582H191.534ZM191.534 60.3489H220.87V59.3675H191.534V60.3489ZM192.025 89.1941V59.8582H191.043V89.1941H192.025Z" fill="white" fill-opacity="0.3" mask="url(#path-47-inside-24_1134_10574)"/>
<path d="M220.87 59.8582V59.3675H220.379V59.8582H220.87ZM220.87 60.3489H250.206V59.3675H220.87V60.3489ZM221.361 89.1941V59.8582H220.379V89.1941H221.361Z" fill="white" fill-opacity="0.3" mask="url(#path-49-inside-25_1134_10574)"/>
<path d="M250.206 59.8582V59.3675H249.715V59.8582H250.206ZM250.206 60.3489H279.542V59.3675H250.206V60.3489ZM250.697 89.1941V59.8582H249.715V89.1941H250.697Z" fill="white" fill-opacity="0.3" mask="url(#path-51-inside-26_1134_10574)"/>
<path d="M279.542 59.8582V59.3675H279.051V59.8582H279.542ZM308.878 59.8582H309.369V59.3675H308.878V59.8582ZM279.542 60.3489H308.878V59.3675H279.542V60.3489ZM308.387 59.8582V89.1941H309.369V59.8582H308.387ZM280.033 89.1941V59.8582H279.051V89.1941H280.033Z" fill="white" fill-opacity="0.3" mask="url(#path-53-inside-27_1134_10574)"/>
<path d="M44.0394 89.1941V88.7034H43.5487V89.1941H44.0394ZM44.0394 89.6848H73.3753V88.7034H44.0394V89.6848ZM44.5301 118.53V89.1941H43.5487V118.53H44.5301Z" fill="white" fill-opacity="0.3" mask="url(#path-55-inside-28_1134_10574)"/>
<path d="M73.3753 89.1941V88.7034H72.8846V89.1941H73.3753ZM73.3753 89.6848H102.711V88.7034H73.3753V89.6848ZM73.866 118.53V89.1941H72.8846V118.53H73.866Z" fill="white" fill-opacity="0.3" mask="url(#path-57-inside-29_1134_10574)"/>
<path d="M102.711 89.1941V88.7034H102.221V89.1941H102.711ZM102.711 89.6848H132.047V88.7034H102.711V89.6848ZM103.202 118.53V89.1941H102.221V118.53H103.202Z" fill="white" fill-opacity="0.3" mask="url(#path-59-inside-30_1134_10574)"/>
<path d="M132.047 89.1941V88.7034H131.557V89.1941H132.047ZM132.047 89.6848H162.198V88.7034H132.047V89.6848ZM132.538 118.53V89.1941H131.557V118.53H132.538Z" fill="white" fill-opacity="0.3" mask="url(#path-61-inside-31_1134_10574)"/>
<path d="M162.198 89.1941V88.7034H161.707V89.1941H162.198ZM162.198 89.6848H191.534V88.7034H162.198V89.6848ZM162.689 118.53V89.1941H161.707V118.53H162.689Z" fill="white" fill-opacity="0.3" mask="url(#path-63-inside-32_1134_10574)"/>
<path d="M191.534 89.1941V88.7034H191.043V89.1941H191.534ZM191.534 89.6848H220.87V88.7034H191.534V89.6848ZM192.025 118.53V89.1941H191.043V118.53H192.025Z" fill="white" fill-opacity="0.3" mask="url(#path-65-inside-33_1134_10574)"/>
<path d="M220.87 89.1941V88.7034H220.379V89.1941H220.87ZM220.87 89.6848H250.206V88.7034H220.87V89.6848ZM221.361 118.53V89.1941H220.379V118.53H221.361Z" fill="white" fill-opacity="0.3" mask="url(#path-67-inside-34_1134_10574)"/>
<path d="M250.206 89.1941V88.7034H249.715V89.1941H250.206ZM250.206 89.6848H279.542V88.7034H250.206V89.6848ZM250.697 118.53V89.1941H249.715V118.53H250.697Z" fill="white" fill-opacity="0.3" mask="url(#path-69-inside-35_1134_10574)"/>
<path d="M279.542 89.1941V88.7034H279.051V89.1941H279.542ZM308.878 89.1941H309.369V88.7034H308.878V89.1941ZM279.542 89.6848H308.878V88.7034H279.542V89.6848ZM308.387 89.1941V118.53H309.369V89.1941H308.387ZM280.033 118.53V89.1941H279.051V118.53H280.033Z" fill="white" fill-opacity="0.3" mask="url(#path-71-inside-36_1134_10574)"/>
<path d="M44.0394 118.53V118.039H43.5487V118.53H44.0394ZM44.0394 147.866H43.5487V148.357H44.0394V147.866ZM44.0394 119.021H73.4812V118.039H44.0394V119.021ZM73.4812 147.375H44.0394V148.357H73.4812V147.375ZM44.5301 147.866V118.53H43.5487V147.866H44.5301Z" fill="white" fill-opacity="0.3" mask="url(#path-73-inside-37_1134_10574)"/>
<path d="M73.4812 118.53V118.039H72.9905V118.53H73.4812ZM73.4812 147.866H72.9905V148.357H73.4812V147.866ZM73.4812 119.021H102.923V118.039H73.4812V119.021ZM102.923 147.375H73.4812V148.357H102.923V147.375ZM73.9719 147.866V118.53H72.9905V147.866H73.9719Z" fill="white" fill-opacity="0.3" mask="url(#path-75-inside-38_1134_10574)"/>
<path d="M102.923 118.53V118.039H102.432V118.53H102.923ZM102.923 147.866H102.432V148.357H102.923V147.866ZM102.923 119.021H132.365V118.039H102.923V119.021ZM132.365 147.375H102.923V148.357H132.365V147.375ZM103.414 147.866V118.53H102.432V147.866H103.414Z" fill="white" fill-opacity="0.3" mask="url(#path-77-inside-39_1134_10574)"/>
<path d="M132.365 118.53V118.039H131.874V118.53H132.365ZM132.365 147.866H131.874V148.357H132.365V147.866ZM132.365 119.021H161.807V118.039H132.365V119.021ZM161.807 147.375H132.365V148.357H161.807V147.375ZM132.856 147.866V118.53H131.874V147.866H132.856Z" fill="white" fill-opacity="0.3" mask="url(#path-79-inside-40_1134_10574)"/>
<path d="M161.807 118.53V118.039H161.316V118.53H161.807ZM161.807 147.866H161.316V148.357H161.807V147.866ZM161.807 119.021H191.248V118.039H161.807V119.021ZM191.248 147.375H161.807V148.357H191.248V147.375ZM162.297 147.866V118.53H161.316V147.866H162.297Z" fill="white" fill-opacity="0.3" mask="url(#path-81-inside-41_1134_10574)"/>
<path d="M191.248 118.53V118.039H190.758V118.53H191.248ZM191.248 147.866H190.758V148.357H191.248V147.866ZM191.248 119.021H220.69V118.039H191.248V119.021ZM220.69 147.375H191.248V148.357H220.69V147.375ZM191.739 147.866V118.53H190.758V147.866H191.739Z" fill="white" fill-opacity="0.3" mask="url(#path-83-inside-42_1134_10574)"/>
<path d="M220.69 118.53V118.039H220.2V118.53H220.69ZM220.69 147.866H220.2V148.357H220.69V147.866ZM220.69 119.021H250.132V118.039H220.69V119.021ZM250.132 147.375H220.69V148.357H250.132V147.375ZM221.181 147.866V118.53H220.2V147.866H221.181Z" fill="white" fill-opacity="0.3" mask="url(#path-85-inside-43_1134_10574)"/>
<path d="M250.132 118.53V118.039H249.641V118.53H250.132ZM250.132 147.866H249.641V148.357H250.132V147.866ZM250.132 119.021H279.574V118.039H250.132V119.021ZM279.574 147.375H250.132V148.357H279.574V147.375ZM250.623 147.866V118.53H249.641V147.866H250.623Z" fill="white" fill-opacity="0.3" mask="url(#path-87-inside-44_1134_10574)"/>
<path d="M279.574 118.53V118.039H279.083V118.53H279.574ZM309.016 118.53H309.506V118.039H309.016V118.53ZM309.016 147.866V148.357H309.506V147.866H309.016ZM279.574 147.866H279.083V148.357H279.574V147.866ZM279.574 119.021H309.016V118.039H279.574V119.021ZM308.525 118.53V147.866H309.506V118.53H308.525ZM309.016 147.375H279.574V148.357H309.016V147.375ZM280.065 147.866V118.53H279.083V147.866H280.065Z" fill="white" fill-opacity="0.3" mask="url(#path-89-inside-45_1134_10574)"/>
<path d="M31.8443 149.577C30.9683 149.577 30.2303 148.983 30.2303 147.381C30.2303 145.809 30.9803 145.221 31.8443 145.221C32.7203 145.221 33.4583 145.809 33.4583 147.381C33.4583 148.983 32.7203 149.577 31.8443 149.577ZM31.8443 145.875C31.2203 145.875 31.0403 146.595 31.0403 147.381C31.0403 148.191 31.2203 148.929 31.8443 148.929C32.4683 148.929 32.6363 148.197 32.6363 147.381C32.6363 146.595 32.4683 145.875 31.8443 145.875Z" fill="white"/>
<path d="M27.5592 117.877H26.7912C26.7912 116.917 27.3792 116.359 28.2612 116.359C29.1192 116.359 29.6652 116.863 29.6652 117.655C29.6652 118.321 29.3112 118.735 28.8072 119.101L28.5252 119.305C28.1952 119.545 27.8472 119.767 27.7752 119.971H29.7312V120.637H26.7432C26.8032 119.713 27.4212 119.239 28.1232 118.717L28.2372 118.627C28.6332 118.327 28.8732 118.081 28.8732 117.673C28.8732 117.277 28.6212 117.043 28.2372 117.043C27.7512 117.043 27.5592 117.427 27.5592 117.877ZM31.8443 120.715C30.9683 120.715 30.2303 120.121 30.2303 118.519C30.2303 116.947 30.9803 116.359 31.8443 116.359C32.7203 116.359 33.4583 116.947 33.4583 118.519C33.4583 120.121 32.7203 120.715 31.8443 120.715ZM31.8443 117.013C31.2203 117.013 31.0403 117.733 31.0403 118.519C31.0403 119.329 31.2203 120.067 31.8443 120.067C32.4683 120.067 32.6363 119.335 32.6363 118.519C32.6363 117.733 32.4683 117.013 31.8443 117.013Z" fill="white"/>
<path d="M28.4568 91.774V90.868H26.5248V90.064L28.3908 87.574H29.2068V90.232H29.8128V90.868H29.2068V91.774H28.4568ZM28.4568 90.232V89.218C28.4568 88.876 28.4628 88.654 28.4688 88.462H28.4568C28.3608 88.63 28.2288 88.828 28.0308 89.098L27.5508 89.746L27.1668 90.238V90.244L27.6888 90.232H28.4568ZM31.8443 91.852C30.9683 91.852 30.2303 91.258 30.2303 89.656C30.2303 88.084 30.9803 87.496 31.8443 87.496C32.7203 87.496 33.4583 88.084 33.4583 89.656C33.4583 91.258 32.7203 91.852 31.8443 91.852ZM31.8443 88.15C31.2203 88.15 31.0403 88.87 31.0403 89.656C31.0403 90.466 31.2203 91.204 31.8443 91.204C32.4683 91.204 32.6363 90.472 32.6363 89.656C32.6363 88.87 32.4683 88.15 31.8443 88.15Z" fill="white"/>
<path d="M29.6458 60.2717L28.9018 60.2897C28.8418 60.1217 28.6498 59.8637 28.2418 59.8637C27.7198 59.8637 27.3898 60.3497 27.3718 61.0517L27.3778 61.0577C27.4678 60.9137 27.8098 60.6137 28.3438 60.6137C29.2078 60.6137 29.7298 61.2677 29.7298 62.0177C29.7298 62.8577 29.1418 63.5537 28.1938 63.5537C27.6778 63.5537 27.2878 63.3497 27.0178 63.0017C26.7298 62.6297 26.6158 62.0897 26.6158 61.4837C26.6158 60.1697 27.0898 59.2037 28.2238 59.2037C29.0638 59.2037 29.5498 59.6897 29.6458 60.2717ZM27.4138 62.0837C27.4138 62.5817 27.7558 62.9117 28.1998 62.9117C28.6498 62.9117 28.9918 62.5817 28.9918 62.0837C28.9918 61.5857 28.6498 61.2497 28.1998 61.2497C27.7558 61.2497 27.4138 61.5857 27.4138 62.0837ZM31.8443 63.5537C30.9683 63.5537 30.2303 62.9597 30.2303 61.3577C30.2303 59.7857 30.9803 59.1977 31.8443 59.1977C32.7203 59.1977 33.4583 59.7857 33.4583 61.3577C33.4583 62.9597 32.7203 63.5537 31.8443 63.5537ZM31.8443 59.8517C31.2203 59.8517 31.0403 60.5717 31.0403 61.3577C31.0403 62.1677 31.2203 62.9057 31.8443 62.9057C32.4683 62.9057 32.6363 62.1737 32.6363 61.3577C32.6363 60.5717 32.4683 59.8517 31.8443 59.8517Z" fill="white"/>
<path d="M28.1065 35.2059C27.2185 35.2059 26.4865 34.7559 26.4865 33.9099C26.4865 33.3399 26.7985 32.9799 27.2305 32.8359V32.8239C26.8825 32.6979 26.6485 32.4039 26.6485 31.9299C26.6485 31.2339 27.3205 30.8439 28.1065 30.8439C28.9045 30.8439 29.5645 31.2399 29.5645 31.9299C29.5645 32.4039 29.3185 32.6979 28.9765 32.8239V32.8359C29.4145 32.9799 29.7265 33.3339 29.7265 33.9099C29.7265 34.7559 28.9885 35.2059 28.1065 35.2059ZM28.1065 31.4679C27.6505 31.4679 27.3865 31.6959 27.3865 32.0439C27.3865 32.4099 27.7105 32.6199 28.1065 32.6199C28.5025 32.6199 28.8265 32.4099 28.8265 32.0439C28.8265 31.6959 28.5625 31.4679 28.1065 31.4679ZM28.1065 33.1719C27.6145 33.1719 27.2545 33.4299 27.2545 33.8619C27.2545 34.2939 27.5845 34.5639 28.1065 34.5639C28.6345 34.5639 28.9585 34.2939 28.9585 33.8619C28.9585 33.4299 28.5985 33.1719 28.1065 33.1719ZM31.8443 35.1999C30.9683 35.1999 30.2303 34.6059 30.2303 33.0039C30.2303 31.4319 30.9803 30.8439 31.8443 30.8439C32.7203 30.8439 33.4583 31.4319 33.4583 33.0039C33.4583 34.6059 32.7203 35.1999 31.8443 35.1999ZM31.8443 31.4979C31.2203 31.4979 31.0403 32.2179 31.0403 33.0039C31.0403 33.8139 31.2203 34.5519 31.8443 34.5519C32.4683 34.5519 32.6363 33.8199 32.6363 33.0039C32.6363 32.2179 32.4683 31.4979 31.8443 31.4979Z" fill="white"/>
<path d="M25.7777 0.986248V5.18625H24.9737V2.28225H23.8997V1.75425C24.5957 1.73625 25.0097 1.47825 25.0757 0.986248H25.7777ZM28.095 5.26425C27.219 5.26425 26.481 4.67025 26.481 3.06825C26.481 1.49625 27.231 0.908248 28.095 0.908248C28.971 0.908248 29.709 1.49625 29.709 3.06825C29.709 4.67025 28.971 5.26425 28.095 5.26425ZM28.095 1.56225C27.471 1.56225 27.291 2.28225 27.291 3.06825C27.291 3.87825 27.471 4.61625 28.095 4.61625C28.719 4.61625 28.887 3.88425 28.887 3.06825C28.887 2.28225 28.719 1.56225 28.095 1.56225ZM31.8443 5.26425C30.9683 5.26425 30.2303 4.67025 30.2303 3.06825C30.2303 1.49625 30.9803 0.908248 31.8443 0.908248C32.7203 0.908248 33.4583 1.49625 33.4583 3.06825C33.4583 4.67025 32.7203 5.26425 31.8443 5.26425ZM31.8443 1.56225C31.2203 1.56225 31.0403 2.28225 31.0403 3.06825C31.0403 3.87825 31.2203 4.61625 31.8443 4.61625C32.4683 4.61625 32.6363 3.88425 32.6363 3.06825C32.6363 2.28225 32.4683 1.56225 31.8443 1.56225Z" fill="white"/>
<path d="M5.18805 118.751L5.18805 117.679C6.32405 117.943 7.06005 118.831 7.06005 120.079C7.06005 121.719 5.82005 122.663 4.18005 122.663C2.52405 122.663 1.25205 121.711 1.25205 120.039C1.25205 118.831 1.98005 117.887 3.18005 117.703L3.18005 118.751C2.61205 118.839 2.14005 119.343 2.14005 120.039C2.14005 121.023 2.97205 121.543 4.18005 121.543C5.38005 121.543 6.17205 121.007 6.17205 120.055C6.17205 119.383 5.77205 118.935 5.18805 118.751ZM6.18805 115.172C6.18805 114.732 5.88405 114.38 5.17205 114.38L2.83605 114.38L2.83605 113.316L6.95605 113.316L6.95605 114.34L6.50005 114.34L6.50005 114.348C6.80405 114.54 7.06005 114.94 7.06005 115.54C7.06005 116.188 6.75605 116.732 6.02005 116.94C5.82805 116.996 5.56405 117.028 5.10805 117.028L2.83605 117.028L2.83605 115.964L5.10805 115.964C5.30805 115.964 5.47605 115.948 5.59605 115.916C6.03605 115.804 6.18805 115.516 6.18805 115.172ZM6.95605 107.085L4.74005 107.085C4.49205 107.085 4.32405 107.101 4.18005 107.141C3.81205 107.237 3.60405 107.461 3.60405 107.861C3.60405 108.277 3.90805 108.629 4.62005 108.629L6.95605 108.629L6.95605 109.693L4.74005 109.693C4.49205 109.693 4.32405 109.709 4.18005 109.749C3.81205 109.845 3.60405 110.069 3.60405 110.469C3.60405 110.885 3.90805 111.237 4.62005 111.237L6.95605 111.237L6.95605 112.301L2.83605 112.301L2.83605 111.277L3.29205 111.277L3.29205 111.269C2.98805 111.077 2.70805 110.685 2.70805 110.101C2.70805 109.573 2.92405 109.149 3.33205 108.893C3.02005 108.653 2.70805 108.197 2.70805 107.533C2.70805 106.829 3.01205 106.317 3.74805 106.109C3.94005 106.053 4.20405 106.021 4.66005 106.021L6.95605 106.021L6.95605 107.085ZM6.18805 103.244C6.18805 102.804 5.88405 102.452 5.17205 102.452L2.83605 102.452L2.83605 101.388L6.95605 101.388L6.95605 102.412L6.50005 102.412L6.50005 102.42C6.80405 102.612 7.06005 103.012 7.06005 103.612C7.06005 104.26 6.75605 104.804 6.02005 105.012C5.82805 105.068 5.56405 105.1 5.10805 105.1L2.83605 105.1L2.83605 104.036L5.10805 104.036C5.30805 104.036 5.47605 104.02 5.59605 103.988C6.03605 103.876 6.18805 103.588 6.18805 103.244ZM6.95605 100.373L1.35605 100.373L1.35605 99.309L6.95605 99.309L6.95605 100.373ZM4.08405 97.3838L4.06805 98.3598C3.12405 98.3038 2.71605 97.5598 2.71605 96.5598C2.71605 95.8558 2.94805 95.1358 3.62805 94.9198C3.82805 94.8558 4.07605 94.8238 4.46805 94.8238L6.38805 94.8238C6.66005 94.8238 6.80405 94.7998 6.93205 94.7278L6.95605 94.7278L6.95605 95.7198L6.60405 95.7438L6.60405 95.7518C6.78805 95.9438 7.06805 96.2718 7.06805 96.9918C7.06805 97.8558 6.57205 98.5598 5.77205 98.5598C4.68405 98.5598 4.51605 97.3358 4.38805 96.4558L4.36405 96.2798C4.32405 95.9838 4.22005 95.8798 3.99605 95.8798C3.69205 95.8798 3.47605 96.1358 3.47605 96.5998C3.47605 96.8398 3.53205 97.0398 3.64405 97.1758C3.74805 97.2958 3.89205 97.3678 4.08405 97.3838ZM6.27605 96.7678C6.27605 96.3998 6.13205 96.0078 5.76405 95.8798C5.69205 95.8558 5.62005 95.8398 5.42005 95.8398L4.90005 95.8398C4.94005 95.9358 5.00405 96.1518 5.07605 96.4398L5.14005 96.6958C5.22005 97.0078 5.29205 97.2238 5.41205 97.3438C5.49205 97.4238 5.60405 97.4718 5.73205 97.4718C6.08405 97.4718 6.27605 97.1998 6.27605 96.7678ZM3.57205 94.2179L2.83605 94.2179L2.83605 93.6979L1.56405 93.6979L1.56405 92.6339L2.83605 92.6339L2.83605 91.8979L3.57205 91.8979L3.57205 92.6339L5.65205 92.6339C6.12405 92.6339 6.17205 92.5139 6.17205 92.1059L6.17205 91.8819L6.95605 91.8819L6.95605 92.3859C6.95605 92.8179 6.94805 92.9859 6.91605 93.1219C6.84405 93.4419 6.66005 93.6179 6.26805 93.6739C6.16405 93.6899 6.02805 93.6979 5.85205 93.6979L3.57205 93.6979L3.57205 94.2179ZM2.27605 91.1492L1.35605 91.1492L1.35605 90.0852L2.27605 90.0852L2.27605 91.1492ZM6.95605 91.1492L2.83605 91.1492L2.83605 90.0852L6.95605 90.0852L6.95605 91.1492ZM2.83605 89.5361L2.83605 88.4401L5.10005 87.7761L5.75605 87.5921L5.75605 87.5761L5.10005 87.3921L2.83605 86.7121L2.83605 85.6401L6.95605 87.0801L6.95605 88.1601L2.83605 89.5361ZM5.75605 82.51L5.75605 81.406C6.54005 81.694 7.06005 82.358 7.06005 83.342C7.06005 84.662 6.12405 85.454 4.88405 85.454C3.64405 85.454 2.70805 84.654 2.70805 83.398C2.70805 82.366 3.33205 81.71 4.21205 81.462C4.46805 81.39 4.75605 81.358 5.07605 81.358L5.18005 81.358L5.18005 84.366C5.91605 84.31 6.22005 83.862 6.22005 83.342C6.22005 82.886 5.98805 82.63 5.75605 82.51ZM3.49205 83.398C3.49205 83.95 3.90005 84.318 4.44405 84.366L4.44405 82.446C3.90005 82.462 3.49205 82.822 3.49205 83.398ZM1.35605 77.6805L6.06805 77.6805L6.06805 74.9125L6.95605 74.9125L6.95605 78.7845L1.35605 78.7845L1.35605 77.6805ZM2.27605 74.3024L1.35605 74.3024L1.35605 73.2384L2.27605 73.2384L2.27605 74.3024ZM6.95605 74.3024L2.83605 74.3024L2.83605 73.2384L6.95605 73.2384L6.95605 74.3024ZM2.83605 72.6892L2.83605 71.5932L5.10005 70.9292L5.75605 70.7452L5.75605 70.7292L5.10005 70.5452L2.83605 69.8652L2.83605 68.7932L6.95605 70.2332L6.95605 71.3132L2.83605 72.6892ZM5.75605 65.6631L5.75605 64.5591C6.54005 64.8471 7.06005 65.5111 7.06005 66.4951C7.06005 67.8151 6.12405 68.6071 4.88405 68.6071C3.64405 68.6071 2.70805 67.8071 2.70805 66.5511C2.70805 65.5191 3.33205 64.8631 4.21205 64.6151C4.46805 64.5431 4.75605 64.5111 5.07605 64.5111L5.18005 64.5111L5.18005 67.5191C5.91605 67.4631 6.22005 67.0151 6.22005 66.4951C6.22005 66.0391 5.98805 65.7831 5.75605 65.6631ZM3.49205 66.5511C3.49205 67.1031 3.90005 67.4711 4.44405 67.5191L4.44405 65.5991C3.90005 65.6151 3.49205 65.9751 3.49205 66.5511ZM6.95605 61.9376L1.35605 61.9376L1.35605 59.5216C1.35605 59.2496 1.37205 59.0576 1.40405 58.8736C1.53205 58.1696 1.95605 57.7216 2.69205 57.7216C3.39605 57.7216 3.74805 58.1136 3.91605 58.4816L3.93205 58.4816C4.08405 58.0096 4.51605 57.4576 5.32405 57.4576C6.10805 57.4576 6.62805 57.9136 6.83605 58.5616C6.91605 58.8096 6.95605 59.0416 6.95605 59.4736L6.95605 61.9376ZM2.21205 60.8336L3.59605 60.8336L3.59605 59.6816C3.59605 59.4656 3.57205 59.3296 3.53205 59.2176C3.42005 58.8976 3.16405 58.8096 2.86805 58.8096C2.57205 58.8096 2.36405 58.9296 2.26805 59.2656C2.23605 59.3856 2.21205 59.5616 2.21205 59.7776L2.21205 60.8336ZM4.40405 60.8336L6.08405 60.8336L6.08405 59.6176C6.08405 59.3296 6.06005 59.1776 6.01205 59.0416C5.87605 58.6576 5.56405 58.5456 5.21205 58.5456C4.88405 58.5456 4.59605 58.6816 4.47605 59.0496C4.42805 59.1936 4.40405 59.3536 4.40405 59.6176L4.40405 60.8336ZM2.27605 56.6821L1.35605 56.6821L1.35605 55.6181L2.27605 55.6181L2.27605 56.6821ZM6.95605 56.6821L2.83605 56.6821L2.83605 55.6181L6.95605 55.6181L6.95605 56.6821ZM3.32405 53.5809L3.32405 53.5649C3.00405 53.4289 2.70805 53.0769 2.70805 52.4529L2.70805 52.3809L3.69205 52.3809C3.68405 52.4609 3.67605 52.5329 3.67605 52.6049C3.67605 53.2449 4.04405 53.5409 4.78005 53.5409L6.95605 53.5409L6.95605 54.6049L2.83605 54.6049L2.83605 53.5809L3.32405 53.5809ZM3.57205 52.0739L2.83605 52.0739L2.83605 51.5539L1.56405 51.5539L1.56405 50.4899L2.83605 50.4899L2.83605 49.7539L3.57205 49.7539L3.57205 50.4899L5.65205 50.4899C6.12405 50.4899 6.17205 50.3699 6.17205 49.9619L6.17205 49.7379L6.95605 49.7379L6.95605 50.2419C6.95605 50.6739 6.94805 50.8419 6.91605 50.9779C6.84405 51.2979 6.66005 51.4739 6.26805 51.5299C6.16405 51.5459 6.02805 51.5539 5.85205 51.5539L3.57205 51.5539L3.57205 52.0739ZM3.58005 47.1332C3.58005 47.4692 3.75605 47.7172 4.03605 47.8452C4.18005 47.9092 4.34805 47.9412 4.70805 47.9412L6.95605 47.9412L6.95605 49.0052L1.35605 49.0052L1.35605 47.9412L3.24405 47.9412L3.24405 47.9332C2.98005 47.7412 2.70805 47.3732 2.70805 46.7652C2.70805 46.1172 3.01205 45.5572 3.74805 45.3492C3.94005 45.2932 4.20405 45.2612 4.66005 45.2612L6.95605 45.2612L6.95605 46.3252L4.74005 46.3252C4.34005 46.3252 4.18005 46.3492 4.01205 46.4212C3.73205 46.5492 3.58005 46.7972 3.58005 47.1332ZM6.95605 42.4823L1.35605 42.4823L1.35605 40.0583C1.35605 39.6823 1.38805 39.4423 1.44405 39.2503C1.64405 38.5543 2.19605 38.1303 2.90005 38.1303C3.80405 38.1303 4.16405 38.6663 4.30005 39.2263L4.31605 39.2263C4.34805 38.9703 4.44405 38.7303 4.65205 38.5543C4.83605 38.3943 5.06005 38.2983 5.52405 38.2663L5.76405 38.2503C6.15605 38.2263 6.75605 38.2023 6.93205 38.1143L6.95605 38.1143L6.95605 39.2183C6.62005 39.3383 6.09205 39.3223 5.64405 39.3783C5.22005 39.4263 4.94805 39.5783 4.82005 39.9063C4.76405 40.0423 4.74005 40.1943 4.74005 40.4503L4.74005 41.3783L6.95605 41.3783L6.95605 42.4823ZM2.23605 41.3783L3.90005 41.3783L3.90005 40.3063C3.90005 40.1063 3.88405 39.9463 3.85205 39.8263C3.74805 39.4503 3.48405 39.2103 3.04405 39.2103C2.63605 39.2103 2.38005 39.4423 2.28405 39.8343C2.25205 39.9543 2.23605 40.1143 2.23605 40.3143L2.23605 41.3783ZM4.08405 36.3616L4.06805 37.3376C3.12405 37.2816 2.71605 36.5376 2.71605 35.5376C2.71605 34.8336 2.94805 34.1136 3.62805 33.8976C3.82805 33.8336 4.07605 33.8016 4.46805 33.8016L6.38805 33.8016C6.66005 33.8016 6.80405 33.7776 6.93205 33.7056L6.95605 33.7056L6.95605 34.6976L6.60405 34.7216L6.60405 34.7296C6.78805 34.9216 7.06805 35.2496 7.06805 35.9696C7.06805 36.8336 6.57205 37.5376 5.77205 37.5376C4.68405 37.5376 4.51605 36.3136 4.38805 35.4336L4.36405 35.2576C4.32405 34.9616 4.22005 34.8576 3.99605 34.8576C3.69205 34.8576 3.47605 35.1136 3.47605 35.5776C3.47605 35.8176 3.53205 36.0176 3.64405 36.1536C3.74805 36.2736 3.89205 36.3456 4.08405 36.3616ZM6.27605 35.7456C6.27605 35.3776 6.13205 34.9856 5.76405 34.8576C5.69205 34.8336 5.62005 34.8176 5.42005 34.8176L4.90005 34.8176C4.94005 34.9136 5.00405 35.1296 5.07605 35.4176L5.14005 35.6736C5.22005 35.9856 5.29205 36.2016 5.41205 36.3216C5.49205 36.4016 5.60405 36.4496 5.73205 36.4496C6.08405 36.4496 6.27605 36.1776 6.27605 35.7456ZM3.57205 33.1957L2.83605 33.1957L2.83605 32.6757L1.56405 32.6757L1.56405 31.6117L2.83605 31.6117L2.83605 30.8757L3.57205 30.8757L3.57205 31.6117L5.65205 31.6117C6.12405 31.6117 6.17205 31.4917 6.17205 31.0837L6.17205 30.8597L6.95605 30.8597L6.95605 31.3637C6.95605 31.7957 6.94805 31.9637 6.91605 32.0997C6.84405 32.4197 6.66005 32.5957 6.26805 32.6517C6.16405 32.6677 6.02805 32.6757 5.85205 32.6757L3.57205 32.6757L3.57205 33.1957ZM5.75605 27.5016L5.75605 26.3976C6.54005 26.6856 7.06005 27.3496 7.06005 28.3336C7.06005 29.6536 6.12405 30.4456 4.88405 30.4456C3.64405 30.4456 2.70805 29.6456 2.70805 28.3896C2.70805 27.3576 3.33205 26.7016 4.21205 26.4536C4.46805 26.3816 4.75605 26.3496 5.07605 26.3496L5.18005 26.3496L5.18005 29.3576C5.91605 29.3016 6.22005 28.8536 6.22005 28.3336C6.22005 27.8776 5.98805 27.6216 5.75605 27.5016ZM3.49205 28.3896C3.49205 28.9416 3.90005 29.3096 4.44405 29.3576L4.44405 27.4376C3.90005 27.4536 3.49205 27.8136 3.49205 28.3896Z" fill="white"/>
<path d="M161.589 168.747H162.661C162.397 169.883 161.509 170.619 160.261 170.619C158.621 170.619 157.677 169.379 157.677 167.739C157.677 166.083 158.629 164.811 160.301 164.811C161.509 164.811 162.453 165.539 162.637 166.739H161.589C161.501 166.171 160.997 165.699 160.301 165.699C159.317 165.699 158.797 166.531 158.797 167.739C158.797 168.939 159.333 169.731 160.285 169.731C160.957 169.731 161.405 169.331 161.589 168.747ZM162.897 166.395H163.993L164.689 168.667L164.873 169.347H164.889L165.073 168.667L165.793 166.395H166.865L165.193 170.987C164.905 171.779 164.553 171.891 163.769 171.891H163.209V171.083H163.489C164.105 171.083 164.305 170.891 164.305 170.571C164.305 170.355 164.161 170.067 164.089 169.851L162.897 166.395ZM169.922 167.779C169.858 167.451 169.578 167.099 169.09 167.099C168.506 167.099 168.122 167.571 168.122 168.467C168.122 169.395 168.53 169.795 169.122 169.795C169.634 169.795 169.866 169.459 169.962 169.123H170.97C170.81 170.019 170.138 170.627 169.09 170.627C167.762 170.627 167.034 169.715 167.034 168.451C167.034 167.203 167.818 166.275 169.098 166.275C170.106 166.275 170.818 166.875 170.93 167.779H169.922ZM171.664 170.515V164.915H172.728V170.515H171.664ZM176.429 169.315H177.533C177.245 170.099 176.581 170.619 175.597 170.619C174.277 170.619 173.485 169.683 173.485 168.443C173.485 167.203 174.285 166.267 175.541 166.267C176.573 166.267 177.229 166.891 177.477 167.771C177.549 168.027 177.581 168.315 177.581 168.635V168.739H174.573C174.629 169.475 175.077 169.779 175.597 169.779C176.053 169.779 176.309 169.547 176.429 169.315ZM175.541 167.051C174.989 167.051 174.621 167.459 174.573 168.003H176.493C176.477 167.459 176.117 167.051 175.541 167.051ZM178.037 169.163H179.053C179.061 169.659 179.501 169.867 179.965 169.867C180.301 169.867 180.741 169.731 180.741 169.331C180.741 169.035 180.421 168.947 179.813 168.787L179.453 168.691C178.797 168.515 178.165 168.283 178.165 167.507C178.165 166.627 179.029 166.275 179.909 166.275C180.829 166.275 181.597 166.611 181.685 167.627H180.693C180.661 167.171 180.341 167.019 179.877 167.019C179.501 167.019 179.197 167.139 179.197 167.411C179.197 167.699 179.509 167.779 179.957 167.891L180.397 168.003C181.085 168.179 181.813 168.451 181.813 169.243C181.813 170.179 181.005 170.619 179.957 170.619C179.013 170.619 178.085 170.259 178.037 169.163Z" fill="white"/>
<path d="M74.2455 153.311V157.511H73.4415V154.607H72.3675V154.079C73.0635 154.061 73.4775 153.803 73.5435 153.311H74.2455Z" fill="white"/>
<path d="M190.006 156.305H190.75C190.828 156.683 191.128 156.935 191.518 156.935C191.968 156.935 192.292 156.587 192.292 156.083C192.292 155.615 191.98 155.267 191.524 155.267C191.248 155.267 191.038 155.387 190.894 155.579H190.114L190.474 153.311H192.862V153.959H191.05L190.888 154.913L190.9 154.925C191.044 154.793 191.314 154.661 191.698 154.661C192.514 154.661 193.03 155.267 193.03 156.059C193.03 156.905 192.442 157.583 191.506 157.583C190.618 157.583 190.042 157.019 190.006 156.305Z" fill="white"/>
<path d="M131.514 156.101C131.544 156.629 131.82 156.953 132.33 156.953C132.858 156.953 133.116 156.629 133.116 156.245C133.116 155.795 132.744 155.591 132.204 155.591H132.03V154.997H132.168C132.66 154.997 132.984 154.799 132.984 154.391C132.984 154.121 132.798 153.851 132.33 153.851C131.826 153.851 131.616 154.229 131.616 154.565H130.884C130.92 153.773 131.472 153.233 132.366 153.233C133.23 153.233 133.752 153.671 133.752 154.301C133.752 154.829 133.482 155.069 133.194 155.219V155.225C133.566 155.351 133.908 155.687 133.908 156.257C133.908 157.079 133.254 157.589 132.336 157.589C131.358 157.589 130.794 157.031 130.77 156.101H131.514Z" fill="white"/>
<path d="M251.589 153.311V154.049C250.737 154.811 250.119 156.335 250.119 157.511H249.279C249.345 156.269 249.939 154.883 250.791 154.001L250.785 153.989H248.679V153.311H251.589Z" fill="white"/>
<path d="M279.542 157.595C278.654 157.595 277.922 157.145 277.922 156.299C277.922 155.729 278.234 155.369 278.666 155.225V155.213C278.318 155.087 278.084 154.793 278.084 154.319C278.084 153.623 278.756 153.233 279.542 153.233C280.34 153.233 281 153.629 281 154.319C281 154.793 280.754 155.087 280.412 155.213V155.225C280.85 155.369 281.162 155.723 281.162 156.299C281.162 157.145 280.424 157.595 279.542 157.595ZM279.542 153.857C279.086 153.857 278.822 154.085 278.822 154.433C278.822 154.799 279.146 155.009 279.542 155.009C279.938 155.009 280.262 154.799 280.262 154.433C280.262 154.085 279.998 153.857 279.542 153.857ZM279.542 155.561C279.05 155.561 278.69 155.819 278.69 156.251C278.69 156.683 279.02 156.953 279.542 156.953C280.07 156.953 280.394 156.683 280.394 156.251C280.394 155.819 280.034 155.561 279.542 155.561Z" fill="white"/>
<path d="M307.392 156.515L308.136 156.497C308.196 156.665 308.388 156.929 308.796 156.929C309.318 156.929 309.648 156.431 309.666 155.729L309.66 155.723C309.57 155.867 309.228 156.167 308.694 156.167C307.83 156.167 307.308 155.513 307.308 154.763C307.308 153.923 307.896 153.227 308.844 153.227C309.36 153.227 309.75 153.431 310.02 153.779C310.308 154.151 310.422 154.691 310.422 155.297C310.422 156.611 309.948 157.589 308.814 157.589C307.974 157.589 307.488 157.097 307.392 156.515ZM309.624 154.697C309.624 154.199 309.282 153.869 308.838 153.869C308.388 153.869 308.046 154.199 308.046 154.697C308.046 155.195 308.388 155.531 308.838 155.531C309.282 155.531 309.624 155.195 309.624 154.697Z" fill="white"/>
<path d="M102.223 154.751H101.455C101.455 153.791 102.043 153.233 102.925 153.233C103.783 153.233 104.329 153.737 104.329 154.529C104.329 155.195 103.975 155.609 103.471 155.975L103.189 156.179C102.859 156.419 102.511 156.641 102.439 156.845H104.395V157.511H101.407C101.467 156.587 102.085 156.113 102.787 155.591L102.901 155.501C103.297 155.201 103.537 154.955 103.537 154.547C103.537 154.151 103.285 153.917 102.901 153.917C102.415 153.917 102.223 154.301 102.223 154.751Z" fill="white"/>
<path d="M222.354 154.307L221.61 154.325C221.55 154.157 221.358 153.899 220.95 153.899C220.428 153.899 220.098 154.385 220.08 155.087L220.086 155.093C220.176 154.949 220.518 154.649 221.052 154.649C221.916 154.649 222.438 155.303 222.438 156.053C222.438 156.893 221.85 157.589 220.902 157.589C220.386 157.589 219.996 157.385 219.726 157.037C219.438 156.665 219.324 156.125 219.324 155.519C219.324 154.205 219.798 153.239 220.932 153.239C221.772 153.239 222.258 153.725 222.354 154.307ZM220.122 156.119C220.122 156.617 220.464 156.947 220.908 156.947C221.358 156.947 221.7 156.617 221.7 156.119C221.7 155.621 221.358 155.285 220.908 155.285C220.464 155.285 220.122 155.621 220.122 156.119Z" fill="white"/>
<path d="M162.472 157.511V156.605H160.54V155.801L162.406 153.311H163.222V155.969H163.828V156.605H163.222V157.511H162.472ZM162.472 155.969V154.955C162.472 154.613 162.478 154.391 162.484 154.199H162.472C162.376 154.367 162.244 154.565 162.046 154.835L161.566 155.483L161.182 155.975V155.981L161.704 155.969H162.472Z" fill="white"/>
<path d="M44.5011 138.198C45.8818 138.198 47.0011 137.079 47.0011 135.698C47.0011 134.317 45.8818 133.198 44.5011 133.198C43.1204 133.198 42.0011 134.317 42.0011 135.698C42.0011 137.079 43.1204 138.198 44.5011 138.198Z" fill="white"/>
<path d="M44.5011 97.071C45.8818 97.071 47.0011 95.9517 47.0011 94.571C47.0011 93.1903 45.8818 92.071 44.5011 92.071C43.1204 92.071 42.0011 93.1903 42.0011 94.571C42.0011 95.9517 43.1204 97.071 44.5011 97.071Z" fill="#E4D6B2"/>
<path d="M73.4812 66.6242C74.8619 66.6242 75.9812 65.5049 75.9812 64.1242C75.9812 62.7435 74.8619 61.6242 73.4812 61.6242C72.1005 61.6242 70.9812 62.7435 70.9812 64.1242C70.9812 65.5049 72.1005 66.6242 73.4812 66.6242Z" fill="#E4D6B2"/>
<path d="M102.923 45.1902C104.304 45.1902 105.423 44.0709 105.423 42.6902C105.423 41.3095 104.304 40.1902 102.923 40.1902C101.542 40.1902 100.423 41.3095 100.423 42.6902C100.423 44.0709 101.542 45.1902 102.923 45.1902Z" fill="#E4D6B2"/>
<path d="M132.365 33.6219C133.746 33.6219 134.865 32.5027 134.865 31.1219C134.865 29.7412 133.746 28.6219 132.365 28.6219C130.984 28.6219 129.865 29.7412 129.865 31.1219C129.865 32.5027 130.984 33.6219 132.365 33.6219Z" fill="#E4D6B2"/>
<path d="M162.198 28.6219C163.579 28.6219 164.698 27.5027 164.698 26.1219C164.698 24.7412 163.579 23.6219 162.198 23.6219C160.817 23.6219 159.698 24.7412 159.698 26.1219C159.698 27.5027 160.817 28.6219 162.198 28.6219Z" fill="#E4D6B2"/>
<path d="M191.248 23.6219C192.629 23.6219 193.748 22.5027 193.748 21.1219C193.748 19.7412 192.629 18.6219 191.248 18.6219C189.868 18.6219 188.748 19.7412 188.748 21.1219C188.748 22.5027 189.868 23.6219 191.248 23.6219Z" fill="#E4D6B2"/>
<path d="M220.87 20.8542C222.251 20.8542 223.37 19.735 223.37 18.3542C223.37 16.9735 222.251 15.8542 220.87 15.8542C219.489 15.8542 218.37 16.9735 218.37 18.3542C218.37 19.735 219.489 20.8542 220.87 20.8542Z" fill="#E4D6B2"/>
<path d="M250.132 23.3542C251.513 23.3542 252.632 22.235 252.632 20.8542C252.632 19.4735 251.513 18.3542 250.132 18.3542C248.751 18.3542 247.632 19.4735 247.632 20.8542C247.632 22.235 248.751 23.3542 250.132 23.3542Z" fill="#E4D6B2"/>
<path d="M279.394 21.1219C280.775 21.1219 281.894 20.0027 281.894 18.6219C281.894 17.2412 280.775 16.1219 279.394 16.1219C278.013 16.1219 276.894 17.2412 276.894 18.6219C276.894 20.0027 278.013 21.1219 279.394 21.1219Z" fill="#E4D6B2"/>
<path d="M309.016 18.6219C310.396 18.6219 311.516 17.5027 311.516 16.1219C311.516 14.7412 310.396 13.6219 309.016 13.6219C307.635 13.6219 306.516 14.7412 306.516 16.1219C306.516 17.5027 307.635 18.6219 309.016 18.6219Z" fill="#E4D6B2"/>
<path d="M73.4812 135.698C74.8619 135.698 75.9812 134.579 75.9812 133.198C75.9812 131.817 74.8619 130.698 73.4812 130.698C72.1005 130.698 70.9812 131.817 70.9812 133.198C70.9812 134.579 72.1005 135.698 73.4812 135.698Z" fill="white"/>
<path d="M102.923 130.698C104.304 130.698 105.423 129.579 105.423 128.198C105.423 126.817 104.304 125.698 102.923 125.698C101.542 125.698 100.423 126.817 100.423 128.198C100.423 129.579 101.542 130.698 102.923 130.698Z" fill="white"/>
<path d="M132.047 130.698C133.428 130.698 134.547 129.579 134.547 128.198C134.547 126.817 133.428 125.698 132.047 125.698C130.667 125.698 129.547 126.817 129.547 128.198C129.547 129.579 130.667 130.698 132.047 130.698Z" fill="white"/>
<path d="M162.198 128.198C163.579 128.198 164.698 127.079 164.698 125.698C164.698 124.317 163.579 123.198 162.198 123.198C160.817 123.198 159.698 124.317 159.698 125.698C159.698 127.079 160.817 128.198 162.198 128.198Z" fill="white"/>
<path d="M191.534 133.198C192.915 133.198 194.034 132.079 194.034 130.698C194.034 129.317 192.915 128.198 191.534 128.198C190.153 128.198 189.034 129.317 189.034 130.698C189.034 132.079 190.153 133.198 191.534 133.198Z" fill="white"/>
<path d="M220.658 130.698C222.039 130.698 223.158 129.579 223.158 128.198C223.158 126.817 222.039 125.698 220.658 125.698C219.277 125.698 218.158 126.817 218.158 128.198C218.158 129.579 219.277 130.698 220.658 130.698Z" fill="white"/>
<path d="M250.206 125.934C251.587 125.934 252.706 124.814 252.706 123.434C252.706 122.053 251.587 120.934 250.206 120.934C248.825 120.934 247.706 122.053 247.706 123.434C247.706 124.814 248.825 125.934 250.206 125.934Z" fill="white"/>
<path d="M279.574 130.934C280.955 130.934 282.074 129.814 282.074 128.434C282.074 127.053 280.955 125.934 279.574 125.934C278.193 125.934 277.074 127.053 277.074 128.434C277.074 129.814 278.193 130.934 279.574 130.934Z" fill="white"/>
<path d="M308.698 133.198C310.079 133.198 311.198 132.079 311.198 130.698C311.198 129.317 310.079 128.198 308.698 128.198C307.317 128.198 306.198 129.317 306.198 130.698C306.198 132.079 307.317 133.198 308.698 133.198Z" fill="white"/>
<path d="M45.5 95L74 64.5L103 43.5L133 31.5L163 26.5L192 22L221.5 18.5L250.5 21L280 18.5L309 16" stroke="#E4D6B2"/>
<path d="M45 135.5L74 133L103 128L132.5 128.5L161.5 125.5L191.5 131L221 128L250.5 123.5L279.5 128.5L309 131" stroke="white"/>
<circle cx="84.5303" cy="185.515" r="5" fill="#ECC069"/>
<path d="M95.1143 188.515V182.915H97.2743C97.9223 182.915 98.2423 182.995 98.5943 183.155C99.4183 183.539 99.9623 184.379 99.9623 185.683C99.9623 186.811 99.5623 187.739 98.7383 188.203C98.3783 188.403 97.9783 188.515 97.3303 188.515H95.1143ZM96.2183 183.795V187.627H97.2343C97.5863 187.627 97.7863 187.579 97.9943 187.483C98.4743 187.259 98.8343 186.739 98.8343 185.803C98.8343 184.811 98.5543 184.107 97.7463 183.875C97.5543 183.819 97.2743 183.795 97.0263 183.795H96.2183ZM102.592 188.627C101.288 188.627 100.52 187.699 100.52 186.451C100.52 185.203 101.336 184.275 102.592 184.275C103.848 184.275 104.664 185.203 104.664 186.451C104.664 187.699 103.88 188.627 102.592 188.627ZM102.592 185.099C102 185.099 101.608 185.603 101.608 186.467C101.608 187.339 101.992 187.795 102.592 187.795C103.192 187.795 103.576 187.339 103.576 186.467C103.576 185.603 103.184 185.099 102.592 185.099ZM107.296 185.139C106.96 185.139 106.712 185.315 106.584 185.595C106.52 185.739 106.488 185.907 106.488 186.267V188.515H105.424V184.395H106.448V184.851H106.456C106.648 184.547 107.064 184.267 107.664 184.267C108.312 184.267 108.872 184.571 109.08 185.307C109.136 185.499 109.168 185.763 109.168 186.219V188.515H108.104V186.299C108.104 185.899 108.08 185.739 108.008 185.571C107.88 185.291 107.632 185.139 107.296 185.139ZM111.95 188.627C110.646 188.627 109.878 187.699 109.878 186.451C109.878 185.203 110.694 184.275 111.95 184.275C113.206 184.275 114.022 185.203 114.022 186.451C114.022 187.699 113.238 188.627 111.95 188.627ZM111.95 185.099C111.358 185.099 110.966 185.603 110.966 186.467C110.966 187.339 111.35 187.795 111.95 187.795C112.55 187.795 112.934 187.339 112.934 186.467C112.934 185.603 112.542 185.099 111.95 185.099ZM115.805 184.883H115.821C115.957 184.563 116.309 184.267 116.933 184.267H117.005V185.251C116.925 185.243 116.853 185.235 116.781 185.235C116.141 185.235 115.845 185.603 115.845 186.339V188.515H114.781V184.395H115.805V184.883ZM123.025 185.123V186.011H120.345V187.627H123.433V188.515H119.241V182.915H123.385V183.795H120.345V185.123H123.025ZM126.858 187.723H126.85C126.674 187.971 126.266 188.219 125.682 188.219C124.698 188.219 123.882 187.499 123.882 186.235C123.882 184.995 124.746 184.267 125.666 184.267C126.306 184.267 126.666 184.539 126.858 184.723H126.866V184.395H127.898V188.211C127.898 188.571 127.842 188.811 127.746 189.019C127.442 189.659 126.762 189.971 125.89 189.971C124.77 189.971 124.09 189.347 124.042 188.667H125.122C125.186 188.971 125.49 189.171 125.954 189.171C126.394 189.171 126.682 189.003 126.802 188.595C126.834 188.483 126.85 188.339 126.85 188.131V188.083C126.85 187.979 126.85 187.851 126.858 187.723ZM126.898 186.235C126.898 185.507 126.45 185.091 125.922 185.091C125.386 185.091 124.938 185.523 124.938 186.243C124.938 186.955 125.378 187.395 125.922 187.395C126.45 187.395 126.898 186.971 126.898 186.235ZM131.646 187.723H131.638C131.462 187.971 131.054 188.219 130.47 188.219C129.486 188.219 128.67 187.499 128.67 186.235C128.67 184.995 129.534 184.267 130.454 184.267C131.094 184.267 131.454 184.539 131.646 184.723H131.654V184.395H132.686V188.211C132.686 188.571 132.63 188.811 132.534 189.019C132.23 189.659 131.55 189.971 130.678 189.971C129.558 189.971 128.878 189.347 128.83 188.667H129.91C129.974 188.971 130.278 189.171 130.742 189.171C131.182 189.171 131.47 189.003 131.59 188.595C131.622 188.483 131.638 188.339 131.638 188.131V188.083C131.638 187.979 131.638 187.851 131.646 187.723ZM131.686 186.235C131.686 185.507 131.238 185.091 130.71 185.091C130.174 185.091 129.726 185.523 129.726 186.243C129.726 186.955 130.166 187.395 130.71 187.395C131.238 187.395 131.686 186.971 131.686 186.235ZM133.394 187.163H134.41C134.418 187.659 134.858 187.867 135.322 187.867C135.658 187.867 136.098 187.731 136.098 187.331C136.098 187.035 135.778 186.947 135.17 186.787L134.81 186.691C134.154 186.515 133.522 186.283 133.522 185.507C133.522 184.627 134.386 184.275 135.266 184.275C136.186 184.275 136.954 184.611 137.042 185.627H136.05C136.018 185.171 135.698 185.019 135.234 185.019C134.858 185.019 134.554 185.139 134.554 185.411C134.554 185.699 134.866 185.779 135.314 185.891L135.754 186.003C136.442 186.179 137.17 186.451 137.17 187.243C137.17 188.179 136.362 188.619 135.314 188.619C134.37 188.619 133.442 188.259 133.394 187.163Z" fill="white"/>
<circle cx="152.53" cy="185.515" r="5" fill="white"/>
<path d="M162.546 188.515L164.562 182.915H165.682L167.65 188.515H166.514L166.09 187.235H164.074L163.642 188.515H162.546ZM164.786 185.059L164.378 186.355H165.802L165.378 185.051L165.09 184.059H165.074L164.786 185.059ZM170.809 187.723H170.801C170.625 187.971 170.217 188.219 169.633 188.219C168.649 188.219 167.833 187.499 167.833 186.235C167.833 184.995 168.697 184.267 169.617 184.267C170.257 184.267 170.617 184.539 170.809 184.723H170.817V184.395H171.849V188.211C171.849 188.571 171.793 188.811 171.697 189.019C171.393 189.659 170.713 189.971 169.841 189.971C168.721 189.971 168.041 189.347 167.993 188.667H169.073C169.137 188.971 169.441 189.171 169.905 189.171C170.345 189.171 170.633 189.003 170.753 188.595C170.785 188.483 170.801 188.339 170.801 188.131V188.083C170.801 187.979 170.801 187.851 170.809 187.723ZM170.849 186.235C170.849 185.507 170.401 185.091 169.873 185.091C169.337 185.091 168.889 185.523 168.889 186.243C168.889 186.955 169.329 187.395 169.873 187.395C170.401 187.395 170.849 186.971 170.849 186.235ZM175.549 187.315H176.653C176.365 188.099 175.701 188.619 174.717 188.619C173.397 188.619 172.605 187.683 172.605 186.443C172.605 185.203 173.405 184.267 174.661 184.267C175.693 184.267 176.349 184.891 176.597 185.771C176.669 186.027 176.701 186.315 176.701 186.635V186.739H173.693C173.749 187.475 174.197 187.779 174.717 187.779C175.173 187.779 175.429 187.547 175.549 187.315ZM174.661 185.051C174.109 185.051 173.741 185.459 173.693 186.003H175.613C175.597 185.459 175.237 185.051 174.661 185.051ZM181.459 188.515V187.307H178.883V186.235L181.371 182.915H182.459V186.459H183.267V187.307H182.459V188.515H181.459ZM181.459 186.459V185.107C181.459 184.651 181.467 184.355 181.475 184.099H181.459C181.331 184.323 181.155 184.587 180.891 184.947L180.251 185.811L179.739 186.467V186.475L180.435 186.459H181.459ZM184.823 184.835H183.799C183.799 183.555 184.583 182.811 185.759 182.811C186.903 182.811 187.631 183.483 187.631 184.539C187.631 185.427 187.159 185.979 186.487 186.467L186.111 186.739C185.671 187.059 185.207 187.355 185.111 187.627H187.719V188.515H183.735C183.815 187.283 184.639 186.651 185.575 185.955L185.727 185.835C186.255 185.435 186.575 185.107 186.575 184.563C186.575 184.035 186.239 183.723 185.727 183.723C185.079 183.723 184.823 184.235 184.823 184.835ZM192.526 187.739C193.166 187.739 193.446 187.451 193.558 187.059C193.606 186.883 193.622 186.683 193.622 186.435V182.915H194.742V186.435C194.742 186.843 194.71 187.123 194.63 187.379C194.35 188.259 193.574 188.619 192.526 188.619C191.478 188.619 190.702 188.259 190.422 187.379C190.342 187.123 190.31 186.843 190.31 186.435V182.915H191.43V186.435C191.43 186.683 191.446 186.883 191.494 187.059C191.606 187.451 191.886 187.739 192.526 187.739ZM195.466 187.163H196.482C196.49 187.659 196.93 187.867 197.394 187.867C197.73 187.867 198.17 187.731 198.17 187.331C198.17 187.035 197.85 186.947 197.242 186.787L196.882 186.691C196.226 186.515 195.594 186.283 195.594 185.507C195.594 184.627 196.458 184.275 197.338 184.275C198.258 184.275 199.026 184.611 199.114 185.627H198.122C198.09 185.171 197.77 185.019 197.306 185.019C196.93 185.019 196.626 185.139 196.626 185.411C196.626 185.699 196.938 185.779 197.386 185.891L197.826 186.003C198.514 186.179 199.242 186.451 199.242 187.243C199.242 188.179 198.434 188.619 197.386 188.619C196.442 188.619 195.514 188.259 195.466 187.163ZM199.972 183.835V182.915H201.036V183.835H199.972ZM199.972 188.515V184.395H201.036V188.515H199.972ZM203.921 185.139C203.585 185.139 203.337 185.315 203.209 185.595C203.145 185.739 203.113 185.907 203.113 186.267V188.515H202.049V184.395H203.073V184.851H203.081C203.273 184.547 203.689 184.267 204.289 184.267C204.937 184.267 205.497 184.571 205.705 185.307C205.761 185.499 205.793 185.763 205.793 186.219V188.515H204.729V186.299C204.729 185.899 204.705 185.739 204.633 185.571C204.505 185.291 204.257 185.139 203.921 185.139ZM209.495 187.723H209.487C209.311 187.971 208.903 188.219 208.319 188.219C207.335 188.219 206.519 187.499 206.519 186.235C206.519 184.995 207.383 184.267 208.303 184.267C208.943 184.267 209.303 184.539 209.495 184.723H209.503V184.395H210.535V188.211C210.535 188.571 210.479 188.811 210.383 189.019C210.079 189.659 209.399 189.971 208.527 189.971C207.407 189.971 206.727 189.347 206.679 188.667H207.759C207.823 188.971 208.127 189.171 208.591 189.171C209.031 189.171 209.319 189.003 209.439 188.595C209.471 188.483 209.487 188.339 209.487 188.131V188.083C209.487 187.979 209.487 187.851 209.495 187.723ZM209.535 186.235C209.535 185.507 209.087 185.091 208.559 185.091C208.023 185.091 207.575 185.523 207.575 186.243C207.575 186.955 208.015 187.395 208.559 187.395C209.087 187.395 209.535 186.971 209.535 186.235ZM215.688 188.619C214.056 188.619 213.096 187.451 213.096 185.715C213.096 184.019 214.12 182.811 215.688 182.811C217.264 182.811 218.288 184.019 218.288 185.715C218.288 187.451 217.32 188.619 215.688 188.619ZM215.688 183.691C214.712 183.691 214.216 184.619 214.216 185.715C214.216 186.851 214.704 187.739 215.688 187.739C216.68 187.739 217.168 186.851 217.168 185.715C217.168 184.619 216.672 183.691 215.688 183.691ZM218.628 184.395H219.724L220.284 186.659L220.46 187.315H220.476L220.644 186.627L221.22 184.395H222.292L222.844 186.659L223.012 187.315H223.028L223.196 186.627L223.764 184.395H224.836L223.532 188.515H222.444L221.924 186.483L221.756 185.731H221.74L221.548 186.491L221.012 188.515H219.884L218.628 184.395ZM227.237 185.139C226.901 185.139 226.653 185.315 226.525 185.595C226.461 185.739 226.429 185.907 226.429 186.267V188.515H225.365V184.395H226.389V184.851H226.397C226.589 184.547 227.005 184.267 227.605 184.267C228.253 184.267 228.813 184.571 229.021 185.307C229.077 185.499 229.109 185.763 229.109 186.219V188.515H228.045V186.299C228.045 185.899 228.021 185.739 227.949 185.571C227.821 185.291 227.573 185.139 227.237 185.139ZM235.671 185.123V186.011H232.991V187.627H236.079V188.515H231.887V182.915H236.031V183.795H232.991V185.123H235.671ZM239.504 187.723H239.496C239.32 187.971 238.912 188.219 238.328 188.219C237.344 188.219 236.528 187.499 236.528 186.235C236.528 184.995 237.392 184.267 238.312 184.267C238.952 184.267 239.312 184.539 239.504 184.723H239.512V184.395H240.544V188.211C240.544 188.571 240.488 188.811 240.392 189.019C240.088 189.659 239.408 189.971 238.536 189.971C237.416 189.971 236.736 189.347 236.688 188.667H237.768C237.832 188.971 238.136 189.171 238.6 189.171C239.04 189.171 239.328 189.003 239.448 188.595C239.48 188.483 239.496 188.339 239.496 188.131V188.083C239.496 187.979 239.496 187.851 239.504 187.723ZM239.544 186.235C239.544 185.507 239.096 185.091 238.568 185.091C238.032 185.091 237.584 185.523 237.584 186.243C237.584 186.955 238.024 187.395 238.568 187.395C239.096 187.395 239.544 186.971 239.544 186.235ZM244.292 187.723H244.284C244.108 187.971 243.7 188.219 243.116 188.219C242.132 188.219 241.316 187.499 241.316 186.235C241.316 184.995 242.18 184.267 243.1 184.267C243.74 184.267 244.1 184.539 244.292 184.723H244.3V184.395H245.332V188.211C245.332 188.571 245.276 188.811 245.18 189.019C244.876 189.659 244.196 189.971 243.324 189.971C242.204 189.971 241.524 189.347 241.476 188.667H242.556C242.62 188.971 242.924 189.171 243.388 189.171C243.828 189.171 244.116 189.003 244.236 188.595C244.268 188.483 244.284 188.339 244.284 188.131V188.083C244.284 187.979 244.284 187.851 244.292 187.723ZM244.332 186.235C244.332 185.507 243.884 185.091 243.356 185.091C242.82 185.091 242.372 185.523 242.372 186.243C242.372 186.955 242.812 187.395 243.356 187.395C243.884 187.395 244.332 186.971 244.332 186.235ZM246.04 187.163H247.056C247.064 187.659 247.504 187.867 247.968 187.867C248.304 187.867 248.744 187.731 248.744 187.331C248.744 187.035 248.424 186.947 247.816 186.787L247.456 186.691C246.8 186.515 246.168 186.283 246.168 185.507C246.168 184.627 247.032 184.275 247.912 184.275C248.832 184.275 249.6 184.611 249.688 185.627H248.696C248.664 185.171 248.344 185.019 247.88 185.019C247.504 185.019 247.2 185.139 247.2 185.411C247.2 185.699 247.512 185.779 247.96 185.891L248.4 186.003C249.088 186.179 249.816 186.451 249.816 187.243C249.816 188.179 249.008 188.619 247.96 188.619C247.016 188.619 246.088 188.259 246.04 187.163Z" fill="white"/>
<path d="M44.5011 98.2455L41.6143 103.246H47.3879L44.5011 98.2455ZM44.5011 132.023L47.3879 127.023H41.6143L44.5011 132.023ZM44.0011 101.412V103.523H45.0011V101.412H44.0011ZM44.0011 105.634V107.746H45.0011V105.634H44.0011ZM44.0011 109.857V111.968H45.0011V109.857H44.0011ZM44.0011 114.079V116.19H45.0011V114.079H44.0011ZM44.0011 118.301V120.412H45.0011V118.301H44.0011ZM44.0011 122.523V124.635H45.0011V122.523H44.0011ZM44.0011 126.746V128.857H45.0011V126.746H44.0011Z" fill="white"/>
<path d="M162.53 28.6219L159.644 33.6219L165.417 33.6219L162.53 28.6219ZM162.53 123.198L165.417 118.198L159.644 118.198L162.53 123.198ZM162.03 31.5775L162.03 33.5478L163.03 33.5478L163.03 31.5775L162.03 31.5775ZM162.03 35.5181L162.03 37.4885L163.03 37.4885L163.03 35.5181L162.03 35.5181ZM162.03 39.4588L162.03 41.4291L163.03 41.4291L163.03 39.4588L162.03 39.4588ZM162.03 43.3995L162.03 45.3698L163.03 45.3698L163.03 43.3995L162.03 43.3995ZM162.03 47.3401L162.03 49.3105L163.03 49.3105L163.03 47.3401L162.03 47.3401ZM162.03 51.2808L162.03 53.2511L163.03 53.2511L163.03 51.2808L162.03 51.2808ZM162.03 55.2215L162.03 57.1918L163.03 57.1918L163.03 55.2215L162.03 55.2215ZM162.03 59.1621L162.03 61.1325L163.03 61.1325L163.03 59.1621L162.03 59.1621ZM162.03 63.1028L162.03 65.0732L163.03 65.0732L163.03 63.1028L162.03 63.1028ZM162.03 67.0435L162.03 69.0138L163.03 69.0138L163.03 67.0435L162.03 67.0435ZM162.03 70.9842L162.03 72.9545L163.03 72.9545L163.03 70.9842L162.03 70.9842ZM162.03 74.9248L162.03 76.8952L163.03 76.8952L163.03 74.9248L162.03 74.9248ZM162.03 78.8655L162.03 80.8359L163.03 80.8359L163.03 78.8655L162.03 78.8655ZM162.03 82.8062L162.03 84.7765L163.03 84.7765L163.03 82.8062L162.03 82.8062ZM162.03 86.7469L162.03 88.7172L163.03 88.7172L163.03 86.7469L162.03 86.7469ZM162.03 90.6875L162.03 92.6579L163.03 92.6579L163.03 90.6875L162.03 90.6875ZM162.03 94.6282L162.03 96.5985L163.03 96.5985L163.03 94.6282L162.03 94.6282ZM162.03 98.5689L162.03 100.539L163.03 100.539L163.03 98.5689L162.03 98.5689ZM162.03 102.51L162.03 104.48L163.03 104.48L163.03 102.51L162.03 102.51ZM162.03 106.45L162.03 108.421L163.03 108.421L163.03 106.45L162.03 106.45ZM162.03 110.391L162.03 112.361L163.03 112.361L163.03 110.391L162.03 110.391ZM162.03 114.332L162.03 116.302L163.03 116.302L163.03 114.332L162.03 114.332ZM162.03 118.272L162.03 120.243L163.03 120.243L163.03 118.272L162.03 118.272Z" fill="white"/>
<path d="M53.1292 112.534V118.134H52.0572V114.262H50.6252V113.558C51.5532 113.534 52.1052 113.19 52.1932 112.534H53.1292ZM55.355 116.974V118.134H54.155V116.974H55.355ZM56.0324 116.526H57.0244C57.1284 117.03 57.5284 117.366 58.0484 117.366C58.6484 117.366 59.0804 116.902 59.0804 116.23C59.0804 115.606 58.6644 115.142 58.0564 115.142C57.6884 115.142 57.4084 115.302 57.2164 115.558H56.1764L56.6564 112.534H59.8404V113.398H57.4244L57.2084 114.67L57.2244 114.686C57.4164 114.51 57.7764 114.334 58.2884 114.334C59.3764 114.334 60.0644 115.142 60.0644 116.198C60.0644 117.326 59.2804 118.23 58.0324 118.23C56.8484 118.23 56.0804 117.478 56.0324 116.526ZM64.362 114.014L62.986 115.942L64.506 118.134H63.306L62.41 116.766L61.506 118.134H60.314L61.834 115.974L60.442 114.014H61.642L62.418 115.174L63.186 114.014H64.362ZM71.3873 112.534V118.134H70.2673V115.63H67.8993V118.134H66.7793V112.534H67.8993V114.734H70.2673V112.534H71.3873ZM72.4176 113.454V112.534H73.4816V113.454H72.4176ZM72.4176 118.134V114.014H73.4816V118.134H72.4176ZM77.2308 117.342H77.2228C77.0468 117.59 76.6388 117.838 76.0548 117.838C75.0708 117.838 74.2548 117.118 74.2548 115.854C74.2548 114.614 75.1188 113.886 76.0388 113.886C76.6788 113.886 77.0388 114.158 77.2308 114.342H77.2388V114.014H78.2708V117.83C78.2708 118.19 78.2148 118.43 78.1188 118.638C77.8148 119.278 77.1348 119.59 76.2628 119.59C75.1428 119.59 74.4628 118.966 74.4148 118.286H75.4948C75.5588 118.59 75.8628 118.79 76.3268 118.79C76.7668 118.79 77.0548 118.622 77.1748 118.214C77.2068 118.102 77.2228 117.958 77.2228 117.75V117.702C77.2228 117.598 77.2228 117.47 77.2308 117.342ZM77.2708 115.854C77.2708 115.126 76.8228 114.71 76.2948 114.71C75.7588 114.71 75.3108 115.142 75.3108 115.862C75.3108 116.574 75.7508 117.014 76.2948 117.014C76.8228 117.014 77.2708 116.59 77.2708 115.854ZM81.155 114.758C80.819 114.758 80.571 114.934 80.443 115.214C80.379 115.358 80.347 115.526 80.347 115.886V118.134H79.283V112.534H80.347V114.422H80.355C80.547 114.158 80.915 113.886 81.523 113.886C82.171 113.886 82.731 114.19 82.939 114.926C82.995 115.118 83.027 115.382 83.027 115.838V118.134H81.963V115.918C81.963 115.518 81.939 115.358 81.867 115.19C81.739 114.91 81.491 114.758 81.155 114.758ZM86.681 116.934H87.785C87.497 117.718 86.833 118.238 85.849 118.238C84.529 118.238 83.737 117.302 83.737 116.062C83.737 114.822 84.537 113.886 85.793 113.886C86.825 113.886 87.481 114.51 87.729 115.39C87.801 115.646 87.833 115.934 87.833 116.254V116.358H84.825C84.881 117.094 85.329 117.398 85.849 117.398C86.305 117.398 86.561 117.166 86.681 116.934ZM85.793 114.67C85.241 114.67 84.873 115.078 84.825 115.622H86.745C86.729 115.078 86.369 114.67 85.793 114.67ZM89.6176 114.502H89.6336C89.7696 114.182 90.1216 113.886 90.7456 113.886H90.8176V114.87C90.7376 114.862 90.6656 114.854 90.5936 114.854C89.9536 114.854 89.6576 115.222 89.6576 115.958V118.134H88.5936V114.014H89.6176V114.502Z" fill="white"/>
<path d="M171.158 77.5821V83.1821H170.086V79.3101H168.654V78.6061C169.582 78.5821 170.134 78.2381 170.222 77.5821H171.158ZM173.384 82.0221V83.1821H172.184V82.0221H173.384ZM174.062 81.5741H175.054C175.158 82.0781 175.558 82.4141 176.078 82.4141C176.678 82.4141 177.11 81.9501 177.11 81.2781C177.11 80.6541 176.694 80.1901 176.086 80.1901C175.718 80.1901 175.438 80.3501 175.246 80.6061H174.206L174.686 77.5821H177.87V78.4461H175.454L175.238 79.7181L175.254 79.7341C175.446 79.5581 175.806 79.3821 176.318 79.3821C177.406 79.3821 178.094 80.1901 178.094 81.2461C178.094 82.3741 177.31 83.2781 176.062 83.2781C174.878 83.2781 174.11 82.5261 174.062 81.5741ZM182.391 79.0621L181.015 80.9901L182.535 83.1821H181.335L180.439 81.8141L179.535 83.1821H178.343L179.863 81.0221L178.471 79.0621H179.671L180.447 80.2221L181.215 79.0621H182.391ZM189.416 77.5821V83.1821H188.296V80.6781H185.928V83.1821H184.808V77.5821H185.928V79.7821H188.296V77.5821H189.416ZM190.447 78.5021V77.5821H191.511V78.5021H190.447ZM190.447 83.1821V79.0621H191.511V83.1821H190.447ZM195.26 82.3901H195.252C195.076 82.6381 194.668 82.8861 194.084 82.8861C193.1 82.8861 192.284 82.1661 192.284 80.9021C192.284 79.6621 193.148 78.9341 194.068 78.9341C194.708 78.9341 195.068 79.2061 195.26 79.3901H195.268V79.0621H196.3V82.8781C196.3 83.2381 196.244 83.4781 196.148 83.6861C195.844 84.3261 195.164 84.6381 194.292 84.6381C193.172 84.6381 192.492 84.0141 192.444 83.3341H193.524C193.588 83.6381 193.892 83.8381 194.356 83.8381C194.796 83.8381 195.084 83.6701 195.204 83.2621C195.236 83.1501 195.252 83.0061 195.252 82.7981V82.7501C195.252 82.6461 195.252 82.5181 195.26 82.3901ZM195.3 80.9021C195.3 80.1741 194.852 79.7581 194.324 79.7581C193.788 79.7581 193.34 80.1901 193.34 80.9101C193.34 81.6221 193.78 82.0621 194.324 82.0621C194.852 82.0621 195.3 81.6381 195.3 80.9021ZM199.184 79.8061C198.848 79.8061 198.6 79.9821 198.472 80.2621C198.408 80.4061 198.376 80.5741 198.376 80.9341V83.1821H197.312V77.5821H198.376V79.4701H198.384C198.576 79.2061 198.944 78.9341 199.552 78.9341C200.2 78.9341 200.76 79.2381 200.968 79.9741C201.024 80.1661 201.056 80.4301 201.056 80.8861V83.1821H199.992V80.9661C199.992 80.5661 199.968 80.4061 199.896 80.2381C199.768 79.9581 199.52 79.8061 199.184 79.8061ZM204.71 81.9821H205.814C205.526 82.7661 204.862 83.2861 203.878 83.2861C202.558 83.2861 201.766 82.3501 201.766 81.1101C201.766 79.8701 202.566 78.9341 203.822 78.9341C204.854 78.9341 205.51 79.5581 205.758 80.4381C205.83 80.6941 205.862 80.9821 205.862 81.3021V81.4061H202.854C202.91 82.1421 203.358 82.4461 203.878 82.4461C204.334 82.4461 204.59 82.2141 204.71 81.9821ZM203.822 79.7181C203.27 79.7181 202.902 80.1261 202.854 80.6701H204.774C204.758 80.1261 204.398 79.7181 203.822 79.7181ZM207.647 79.5501H207.663C207.799 79.2301 208.151 78.9341 208.775 78.9341H208.847V79.9181C208.767 79.9101 208.695 79.9021 208.623 79.9021C207.983 79.9021 207.687 80.2701 207.687 81.0061V83.1821H206.623V79.0621H207.647V79.5501Z" fill="white"/>
</svg>
