<svg width="350" height="329" viewBox="0 0 350 329" fill="none" xmlns="http://www.w3.org/2000/svg">
<g clip-path="url(#clip0_1128_14509)">
<path d="M41.5592 249.356H40.7912C40.7912 248.396 41.3792 247.838 42.2612 247.838C43.1192 247.838 43.6652 248.342 43.6652 249.134C43.6652 249.8 43.3112 250.214 42.8072 250.58L42.5252 250.784C42.1952 251.024 41.8472 251.246 41.7752 251.45H43.7312V252.116H40.7432C40.8032 251.192 41.4212 250.718 42.1232 250.196L42.2372 250.106C42.6332 249.806 42.8732 249.56 42.8732 249.152C42.8732 248.756 42.6212 248.522 42.2372 248.522C41.7512 248.522 41.5592 248.906 41.5592 249.356ZM45.8443 252.194C44.9683 252.194 44.2303 251.6 44.2303 249.998C44.2303 248.426 44.9803 247.838 45.8443 247.838C46.7203 247.838 47.4583 248.426 47.4583 249.998C47.4583 251.6 46.7203 252.194 45.8443 252.194ZM45.8443 248.492C45.2203 248.492 45.0403 249.212 45.0403 249.998C45.0403 250.808 45.2203 251.546 45.8443 251.546C46.4683 251.546 46.6363 250.814 46.6363 249.998C46.6363 249.212 46.4683 248.492 45.8443 248.492Z" fill="white"/>
<path d="M43.6458 129.479L42.9018 129.497C42.8418 129.329 42.6498 129.071 42.2418 129.071C41.7198 129.071 41.3898 129.557 41.3718 130.259L41.3778 130.265C41.4678 130.121 41.8098 129.821 42.3438 129.821C43.2078 129.821 43.7298 130.475 43.7298 131.225C43.7298 132.065 43.1418 132.761 42.1938 132.761C41.6778 132.761 41.2878 132.557 41.0178 132.209C40.7298 131.837 40.6158 131.297 40.6158 130.691C40.6158 129.377 41.0898 128.411 42.2238 128.411C43.0638 128.411 43.5498 128.897 43.6458 129.479ZM41.4138 131.291C41.4138 131.789 41.7558 132.119 42.1998 132.119C42.6498 132.119 42.9918 131.789 42.9918 131.291C42.9918 130.793 42.6498 130.457 42.1998 130.457C41.7558 130.457 41.4138 130.793 41.4138 131.291ZM45.8443 132.761C44.9683 132.761 44.2303 132.167 44.2303 130.565C44.2303 128.993 44.9803 128.405 45.8443 128.405C46.7203 128.405 47.4583 128.993 47.4583 130.565C47.4583 132.167 46.7203 132.761 45.8443 132.761ZM45.8443 129.059C45.2203 129.059 45.0403 129.779 45.0403 130.565C45.0403 131.375 45.2203 132.113 45.8443 132.113C46.4683 132.113 46.6363 131.381 46.6363 130.565C46.6363 129.779 46.4683 129.059 45.8443 129.059Z" fill="white"/>
<path d="M42.4568 192.9V191.994H40.5248V191.19L42.3908 188.7H43.2068V191.358H43.8128V191.994H43.2068V192.9H42.4568ZM42.4568 191.358V190.344C42.4568 190.002 42.4628 189.78 42.4688 189.588H42.4568C42.3608 189.756 42.2288 189.954 42.0308 190.224L41.5508 190.872L41.1668 191.364V191.37L41.6888 191.358H42.4568ZM45.8443 192.978C44.9683 192.978 44.2303 192.384 44.2303 190.782C44.2303 189.21 44.9803 188.622 45.8443 188.622C46.7203 188.622 47.4583 189.21 47.4583 190.782C47.4583 192.384 46.7203 192.978 45.8443 192.978ZM45.8443 189.276C45.2203 189.276 45.0403 189.996 45.0403 190.782C45.0403 191.592 45.2203 192.33 45.8443 192.33C46.4683 192.33 46.6363 191.598 46.6363 190.782C46.6363 189.996 46.4683 189.276 45.8443 189.276Z" fill="white"/>
<path d="M42.1065 72.5509C41.2185 72.5509 40.4865 72.1009 40.4865 71.2549C40.4865 70.6849 40.7985 70.3249 41.2305 70.1809V70.1689C40.8825 70.0429 40.6485 69.7489 40.6485 69.2749C40.6485 68.5789 41.3205 68.1889 42.1065 68.1889C42.9045 68.1889 43.5645 68.5849 43.5645 69.2749C43.5645 69.7489 43.3185 70.0429 42.9765 70.1689V70.1809C43.4145 70.3249 43.7265 70.6789 43.7265 71.2549C43.7265 72.1009 42.9885 72.5509 42.1065 72.5509ZM42.1065 68.8129C41.6505 68.8129 41.3865 69.0409 41.3865 69.3889C41.3865 69.7549 41.7105 69.9649 42.1065 69.9649C42.5025 69.9649 42.8265 69.7549 42.8265 69.3889C42.8265 69.0409 42.5625 68.8129 42.1065 68.8129ZM42.1065 70.5169C41.6145 70.5169 41.2545 70.7749 41.2545 71.2069C41.2545 71.6389 41.5845 71.9089 42.1065 71.9089C42.6345 71.9089 42.9585 71.6389 42.9585 71.2069C42.9585 70.7749 42.5985 70.5169 42.1065 70.5169ZM45.8443 72.5449C44.9683 72.5449 44.2303 71.9509 44.2303 70.3489C44.2303 68.7769 44.9803 68.1889 45.8443 68.1889C46.7203 68.1889 47.4583 68.7769 47.4583 70.3489C47.4583 71.9509 46.7203 72.5449 45.8443 72.5449ZM45.8443 68.8429C45.2203 68.8429 45.0403 69.5629 45.0403 70.3489C45.0403 71.1589 45.2203 71.8969 45.8443 71.8969C46.4683 71.8969 46.6363 71.1649 46.6363 70.3489C46.6363 69.5629 46.4683 68.8429 45.8443 68.8429Z" fill="white"/>
<path d="M19.1881 206.472L19.1881 205.4C20.3241 205.664 21.0601 206.552 21.0601 207.8C21.0601 209.44 19.8201 210.384 18.1801 210.384C16.5241 210.384 15.2521 209.432 15.2521 207.76C15.2521 206.552 15.9801 205.608 17.1801 205.424L17.1801 206.472C16.6121 206.56 16.1401 207.064 16.1401 207.76C16.1401 208.744 16.9721 209.264 18.1801 209.264C19.3801 209.264 20.1721 208.728 20.1721 207.776C20.1721 207.104 19.7721 206.656 19.1881 206.472ZM20.1881 202.892C20.1881 202.452 19.8841 202.1 19.1721 202.1L16.8361 202.1L16.8361 201.036L20.9561 201.036L20.9561 202.06L20.5001 202.06L20.5001 202.068C20.8041 202.26 21.0601 202.66 21.0601 203.26C21.0601 203.908 20.7561 204.452 20.0201 204.66C19.8281 204.716 19.5641 204.748 19.1081 204.748L16.8361 204.748L16.8361 203.684L19.1081 203.684C19.3081 203.684 19.4761 203.668 19.5961 203.636C20.0361 203.524 20.1881 203.236 20.1881 202.892ZM20.9561 194.806L18.7401 194.806C18.4921 194.806 18.3241 194.822 18.1801 194.862C17.8121 194.958 17.6041 195.182 17.6041 195.582C17.6041 195.998 17.9081 196.35 18.6201 196.35L20.9561 196.35L20.9561 197.414L18.7401 197.414C18.4921 197.414 18.3241 197.43 18.1801 197.47C17.8121 197.566 17.6041 197.79 17.6041 198.19C17.6041 198.606 17.9081 198.958 18.6201 198.958L20.9561 198.958L20.9561 200.022L16.8361 200.022L16.8361 198.998L17.2921 198.998L17.2921 198.99C16.9881 198.798 16.7081 198.406 16.7081 197.822C16.7081 197.294 16.9241 196.87 17.3321 196.614C17.0201 196.374 16.7081 195.918 16.7081 195.254C16.7081 194.55 17.0121 194.038 17.7481 193.83C17.9401 193.774 18.2041 193.742 18.6601 193.742L20.9561 193.742L20.9561 194.806ZM20.1881 190.964C20.1881 190.524 19.8841 190.172 19.1721 190.172L16.8361 190.172L16.8361 189.108L20.9561 189.108L20.9561 190.132L20.5001 190.132L20.5001 190.14C20.8041 190.332 21.0601 190.732 21.0601 191.332C21.0601 191.98 20.7561 192.524 20.0201 192.732C19.8281 192.788 19.5641 192.82 19.1081 192.82L16.8361 192.82L16.8361 191.756L19.1081 191.756C19.3081 191.756 19.4761 191.74 19.5961 191.708C20.0361 191.596 20.1881 191.308 20.1881 190.964ZM20.9561 188.094L15.3561 188.094L15.3561 187.03L20.9561 187.03L20.9561 188.094ZM18.0841 185.105L18.0681 186.081C17.1241 186.025 16.7161 185.281 16.7161 184.281C16.7161 183.577 16.9481 182.857 17.6281 182.641C17.8281 182.577 18.0761 182.545 18.4681 182.545L20.3881 182.545C20.6601 182.545 20.8041 182.521 20.9321 182.449L20.9561 182.449L20.9561 183.441L20.6041 183.465L20.6041 183.473C20.7881 183.665 21.0681 183.993 21.0681 184.713C21.0681 185.577 20.5721 186.281 19.7721 186.281C18.6841 186.281 18.5161 185.057 18.3881 184.177L18.3641 184.001C18.3241 183.705 18.2201 183.601 17.9961 183.601C17.6921 183.601 17.4761 183.857 17.4761 184.321C17.4761 184.561 17.5321 184.761 17.6441 184.897C17.7481 185.017 17.8921 185.089 18.0841 185.105ZM20.2761 184.489C20.2761 184.121 20.1321 183.729 19.7641 183.601C19.6921 183.577 19.6201 183.561 19.4201 183.561L18.9001 183.561C18.9401 183.657 19.0041 183.873 19.0761 184.161L19.1401 184.417C19.2201 184.729 19.2921 184.945 19.4121 185.065C19.4921 185.145 19.6041 185.193 19.7321 185.193C20.0841 185.193 20.2761 184.921 20.2761 184.489ZM17.5721 181.939L16.8361 181.939L16.8361 181.419L15.5641 181.419L15.5641 180.355L16.8361 180.355L16.8361 179.619L17.5721 179.619L17.5721 180.355L19.6521 180.355C20.1241 180.355 20.1721 180.235 20.1721 179.827L20.1721 179.603L20.9561 179.603L20.9561 180.107C20.9561 180.539 20.9481 180.707 20.9161 180.843C20.8441 181.163 20.6601 181.339 20.2681 181.395C20.1641 181.411 20.0281 181.419 19.8521 181.419L17.5721 181.419L17.5721 181.939ZM16.2761 178.87L15.3561 178.87L15.3561 177.806L16.2761 177.806L16.2761 178.87ZM20.9561 178.87L16.8361 178.87L16.8361 177.806L20.9561 177.806L20.9561 178.87ZM16.8361 177.257L16.8361 176.161L19.1001 175.497L19.7561 175.313L19.7561 175.297L19.1001 175.113L16.8361 174.433L16.8361 173.361L20.9561 174.801L20.9561 175.881L16.8361 177.257ZM19.7561 170.231L19.7561 169.127C20.5401 169.415 21.0601 170.079 21.0601 171.063C21.0601 172.383 20.1241 173.175 18.8841 173.175C17.6441 173.175 16.7081 172.375 16.7081 171.119C16.7081 170.087 17.3321 169.431 18.2121 169.183C18.4681 169.111 18.7561 169.079 19.0761 169.079L19.1801 169.079L19.1801 172.087C19.9161 172.031 20.2201 171.583 20.2201 171.063C20.2201 170.607 19.9881 170.351 19.7561 170.231ZM17.4921 171.119C17.4921 171.671 17.9001 172.039 18.4441 172.087L18.4441 170.167C17.9001 170.183 17.4921 170.543 17.4921 171.119ZM15.3561 165.401L20.0681 165.401L20.0681 162.633L20.9561 162.633L20.9561 166.505L15.3561 166.505L15.3561 165.401ZM16.2761 162.023L15.3561 162.023L15.3561 160.959L16.2761 160.959L16.2761 162.023ZM20.9561 162.023L16.8361 162.023L16.8361 160.959L20.9561 160.959L20.9561 162.023ZM16.8361 160.41L16.8361 159.314L19.1001 158.65L19.7561 158.466L19.7561 158.45L19.1001 158.266L16.8361 157.586L16.8361 156.514L20.9561 157.954L20.9561 159.034L16.8361 160.41ZM19.7561 153.384L19.7561 152.28C20.5401 152.568 21.0601 153.232 21.0601 154.216C21.0601 155.536 20.1241 156.328 18.8841 156.328C17.6441 156.328 16.7081 155.528 16.7081 154.272C16.7081 153.24 17.3321 152.584 18.2121 152.336C18.4681 152.264 18.7561 152.232 19.0761 152.232L19.1801 152.232L19.1801 155.24C19.9161 155.184 20.2201 154.736 20.2201 154.216C20.2201 153.76 19.9881 153.504 19.7561 153.384ZM17.4921 154.272C17.4921 154.824 17.9001 155.192 18.4441 155.24L18.4441 153.32C17.9001 153.336 17.4921 153.696 17.4921 154.272ZM20.9561 149.658L15.356 149.658L15.356 147.242C15.356 146.97 15.372 146.778 15.4041 146.594C15.532 145.89 15.9561 145.442 16.692 145.442C17.396 145.442 17.748 145.834 17.916 146.202L17.932 146.202C18.084 145.73 18.516 145.178 19.324 145.178C20.108 145.178 20.6281 145.634 20.8361 146.282C20.9161 146.53 20.9561 146.762 20.9561 147.194L20.9561 149.658ZM16.212 148.554L17.5961 148.554L17.596 147.402C17.596 147.186 17.5721 147.05 17.532 146.938C17.42 146.618 17.164 146.53 16.868 146.53C16.572 146.53 16.3641 146.65 16.268 146.986C16.236 147.106 16.212 147.282 16.212 147.498L16.212 148.554ZM18.4041 148.554L20.0841 148.554L20.0841 147.338C20.0841 147.05 20.0601 146.898 20.0121 146.762C19.8761 146.378 19.5641 146.266 19.2121 146.266C18.8841 146.266 18.596 146.402 18.4761 146.77C18.428 146.914 18.4041 147.074 18.4041 147.338L18.4041 148.554ZM16.276 144.403L15.356 144.403L15.356 143.339L16.276 143.339L16.276 144.403ZM20.956 144.403L16.836 144.403L16.836 143.339L20.956 143.339L20.956 144.403ZM17.324 141.302L17.324 141.286C17.004 141.15 16.708 140.798 16.708 140.174L16.708 140.102L17.692 140.102C17.684 140.182 17.676 140.254 17.676 140.326C17.676 140.966 18.044 141.262 18.78 141.262L20.956 141.262L20.956 142.326L16.836 142.326L16.836 141.302L17.324 141.302ZM17.572 139.795L16.836 139.795L16.836 139.275L15.564 139.275L15.564 138.211L16.836 138.211L16.836 137.475L17.572 137.475L17.572 138.211L19.652 138.211C20.124 138.211 20.172 138.091 20.172 137.683L20.172 137.459L20.956 137.459L20.956 137.963C20.956 138.395 20.948 138.563 20.916 138.699C20.844 139.019 20.66 139.195 20.268 139.251C20.164 139.267 20.028 139.275 19.852 139.275L17.572 139.275L17.572 139.795ZM17.58 134.854C17.58 135.19 17.756 135.438 18.036 135.566C18.18 135.63 18.348 135.662 18.708 135.662L20.956 135.662L20.956 136.726L15.356 136.726L15.356 135.662L17.244 135.662L17.244 135.654C16.98 135.462 16.708 135.094 16.708 134.486C16.708 133.838 17.012 133.278 17.748 133.07C17.94 133.014 18.204 132.982 18.66 132.982L20.956 132.982L20.956 134.046L18.74 134.046C18.34 134.046 18.18 134.07 18.012 134.142C17.732 134.27 17.58 134.518 17.58 134.854ZM20.956 130.203L15.356 130.203L15.356 127.779C15.356 127.403 15.388 127.163 15.444 126.971C15.644 126.275 16.196 125.851 16.9 125.851C17.804 125.851 18.164 126.387 18.3 126.947L18.316 126.947C18.348 126.691 18.444 126.451 18.652 126.275C18.836 126.115 19.06 126.019 19.524 125.987L19.764 125.971C20.156 125.947 20.756 125.923 20.932 125.835L20.956 125.835L20.956 126.939C20.62 127.059 20.092 127.043 19.644 127.099C19.22 127.147 18.948 127.299 18.82 127.627C18.764 127.763 18.74 127.915 18.74 128.171L18.74 129.099L20.956 129.099L20.956 130.203ZM16.236 129.099L17.9 129.099L17.9 128.027C17.9 127.827 17.884 127.667 17.852 127.547C17.748 127.171 17.484 126.931 17.044 126.931C16.636 126.931 16.38 127.163 16.284 127.555C16.252 127.675 16.236 127.835 16.236 128.035L16.236 129.099ZM18.084 124.082L18.068 125.058C17.124 125.002 16.716 124.258 16.716 123.258C16.716 122.554 16.948 121.834 17.628 121.618C17.828 121.554 18.076 121.522 18.468 121.522L20.388 121.522C20.66 121.522 20.804 121.498 20.932 121.426L20.956 121.426L20.956 122.418L20.604 122.442L20.604 122.45C20.788 122.642 21.068 122.97 21.068 123.69C21.068 124.554 20.572 125.258 19.772 125.258C18.684 125.258 18.516 124.034 18.388 123.154L18.364 122.978C18.324 122.682 18.22 122.578 17.996 122.578C17.692 122.578 17.476 122.834 17.476 123.298C17.476 123.538 17.532 123.738 17.644 123.874C17.748 123.994 17.892 124.066 18.084 124.082ZM20.276 123.466C20.276 123.098 20.132 122.706 19.764 122.578C19.692 122.554 19.62 122.538 19.42 122.538L18.9 122.538C18.94 122.634 19.004 122.85 19.076 123.138L19.14 123.394C19.22 123.706 19.292 123.922 19.412 124.042C19.492 124.122 19.604 124.17 19.732 124.17C20.084 124.17 20.276 123.898 20.276 123.466ZM17.572 120.916L16.836 120.916L16.836 120.396L15.564 120.396L15.564 119.332L16.836 119.332L16.836 118.596L17.572 118.596L17.572 119.332L19.652 119.332C20.124 119.332 20.172 119.212 20.172 118.804L20.172 118.58L20.956 118.58L20.956 119.084C20.956 119.516 20.948 119.684 20.916 119.82C20.844 120.14 20.66 120.316 20.268 120.372C20.164 120.388 20.028 120.396 19.852 120.396L17.572 120.396L17.572 120.916ZM19.756 115.222L19.756 114.118C20.54 114.406 21.06 115.07 21.06 116.054C21.06 117.374 20.124 118.166 18.884 118.166C17.644 118.166 16.708 117.366 16.708 116.11C16.708 115.078 17.332 114.422 18.212 114.174C18.468 114.102 18.756 114.07 19.076 114.07L19.18 114.07L19.18 117.078C19.916 117.022 20.22 116.574 20.22 116.054C20.22 115.598 19.988 115.342 19.756 115.222ZM17.492 116.11C17.492 116.662 17.9 117.03 18.444 117.078L18.444 115.158C17.9 115.174 17.492 115.534 17.492 116.11Z" fill="white"/>
<path d="M175.589 273.747H176.661C176.397 274.883 175.509 275.619 174.261 275.619C172.621 275.619 171.677 274.379 171.677 272.739C171.677 271.083 172.629 269.811 174.301 269.811C175.509 269.811 176.453 270.539 176.637 271.739H175.589C175.501 271.171 174.997 270.699 174.301 270.699C173.317 270.699 172.797 271.531 172.797 272.739C172.797 273.939 173.333 274.731 174.285 274.731C174.957 274.731 175.405 274.331 175.589 273.747ZM176.897 271.395H177.993L178.689 273.667L178.873 274.347H178.889L179.073 273.667L179.793 271.395H180.865L179.193 275.987C178.905 276.779 178.553 276.891 177.769 276.891H177.209V276.083H177.489C178.105 276.083 178.305 275.891 178.305 275.571C178.305 275.355 178.161 275.067 178.089 274.851L176.897 271.395ZM183.922 272.779C183.858 272.451 183.578 272.099 183.09 272.099C182.506 272.099 182.122 272.571 182.122 273.467C182.122 274.395 182.53 274.795 183.122 274.795C183.634 274.795 183.866 274.459 183.962 274.123H184.97C184.81 275.019 184.138 275.627 183.09 275.627C181.762 275.627 181.034 274.715 181.034 273.451C181.034 272.203 181.818 271.275 183.098 271.275C184.106 271.275 184.818 271.875 184.93 272.779H183.922ZM185.664 275.515V269.915H186.728V275.515H185.664ZM190.429 274.315H191.533C191.245 275.099 190.581 275.619 189.597 275.619C188.277 275.619 187.485 274.683 187.485 273.443C187.485 272.203 188.285 271.267 189.541 271.267C190.573 271.267 191.229 271.891 191.477 272.771C191.549 273.027 191.581 273.315 191.581 273.635V273.739H188.573C188.629 274.475 189.077 274.779 189.597 274.779C190.053 274.779 190.309 274.547 190.429 274.315ZM189.541 272.051C188.989 272.051 188.621 272.459 188.573 273.003H190.493C190.477 272.459 190.117 272.051 189.541 272.051ZM192.037 274.163H193.053C193.061 274.659 193.501 274.867 193.965 274.867C194.301 274.867 194.741 274.731 194.741 274.331C194.741 274.035 194.421 273.947 193.813 273.787L193.453 273.691C192.797 273.515 192.165 273.283 192.165 272.507C192.165 271.627 193.029 271.275 193.909 271.275C194.829 271.275 195.597 271.611 195.685 272.627H194.693C194.661 272.171 194.341 272.019 193.877 272.019C193.501 272.019 193.197 272.139 193.197 272.411C193.197 272.699 193.509 272.779 193.957 272.891L194.397 273.003C195.085 273.179 195.813 273.451 195.813 274.243C195.813 275.179 195.005 275.619 193.957 275.619C193.013 275.619 192.085 275.259 192.037 274.163Z" fill="white"/>
<path d="M58.6415 72.2165V59.2165H57.4372V72.2165H58.6415Z" fill="white" fill-opacity="0.3" mask="url(#path-7-inside-1_1128_14509)"/>
<path d="M94.6415 72.2165V59.2165H93.4372V72.2165H94.6415Z" fill="white" fill-opacity="0.3" mask="url(#path-9-inside-2_1128_14509)"/>
<path d="M130.642 72.2165V59.2165H129.437V72.2165H130.642Z" fill="white" fill-opacity="0.3" mask="url(#path-11-inside-3_1128_14509)"/>
<path d="M166.642 72.2165V59.2165H165.437V72.2165H166.642Z" fill="white" fill-opacity="0.3" mask="url(#path-13-inside-4_1128_14509)"/>
<path d="M203.642 72.2165V59.2165H202.437V72.2165H203.642Z" fill="white" fill-opacity="0.3" mask="url(#path-15-inside-5_1128_14509)"/>
<path d="M239.642 72.2165V59.2165H238.437V72.2165H239.642Z" fill="white" fill-opacity="0.3" mask="url(#path-17-inside-6_1128_14509)"/>
<path d="M310.437 59.2165V72.2165H311.642V59.2165H310.437ZM275.642 72.2165V59.2165H274.437V72.2165H275.642Z" fill="white" fill-opacity="0.3" mask="url(#path-19-inside-7_1128_14509)"/>
<path d="M58.0394 72.2165V71.6143H57.4372V72.2165H58.0394ZM58.0394 72.8187H94.1693V71.6143H58.0394V72.8187ZM58.6415 132.433V72.2165H57.4372V132.433H58.6415Z" fill="white" fill-opacity="0.3" mask="url(#path-21-inside-8_1128_14509)"/>
<path d="M94.1693 72.2165V71.6143H93.5671V72.2165H94.1693ZM94.1693 72.8187H130.299V71.6143H94.1693V72.8187ZM94.7714 132.433V72.2165H93.5671V132.433H94.7714Z" fill="white" fill-opacity="0.3" mask="url(#path-23-inside-9_1128_14509)"/>
<path d="M130.299 72.2165V71.6143H129.697V72.2165H130.299ZM130.299 72.8187H166.429V71.6143H130.299V72.8187ZM130.901 132.433V72.2165H129.697V132.433H130.901Z" fill="white" fill-opacity="0.3" mask="url(#path-25-inside-10_1128_14509)"/>
<path d="M166.429 72.2165V71.6143H165.827V72.2165H166.429ZM166.429 72.8187H202.559V71.6143H166.429V72.8187ZM167.031 132.433V72.2165H165.827V132.433H167.031Z" fill="white" fill-opacity="0.3" mask="url(#path-27-inside-11_1128_14509)"/>
<path d="M202.559 72.2165V71.6143H201.957V72.2165H202.559ZM202.559 72.8187H238.689V71.6143H202.559V72.8187ZM203.161 132.433V72.2165H201.957V132.433H203.161Z" fill="white" fill-opacity="0.3" mask="url(#path-29-inside-12_1128_14509)"/>
<path d="M238.689 72.2165V71.6143H238.087V72.2165H238.689ZM238.689 72.8187H274.819V71.6143H238.689V72.8187ZM239.291 132.433V72.2165H238.087V132.433H239.291Z" fill="white" fill-opacity="0.3" mask="url(#path-31-inside-13_1128_14509)"/>
<path d="M274.819 72.2165V71.6143H274.217V72.2165H274.819ZM310.949 72.2165H311.551V71.6143H310.949V72.2165ZM274.819 72.8187H310.949V71.6143H274.819V72.8187ZM310.347 72.2165V132.433H311.551V72.2165H310.347ZM275.421 132.433V72.2165H274.217V132.433H275.421Z" fill="white" fill-opacity="0.3" mask="url(#path-33-inside-14_1128_14509)"/>
<path d="M58.0394 132.433V131.831H57.4372V132.433H58.0394ZM58.0394 133.035H94.1693V131.831H58.0394V133.035ZM58.6415 192.649V132.433H57.4372V192.649H58.6415Z" fill="white" fill-opacity="0.3" mask="url(#path-35-inside-15_1128_14509)"/>
<path d="M94.1693 132.433V131.831H93.5671V132.433H94.1693ZM94.1693 133.035H130.299V131.831H94.1693V133.035ZM94.7714 192.649V132.433H93.5671V192.649H94.7714Z" fill="white" fill-opacity="0.3" mask="url(#path-37-inside-16_1128_14509)"/>
<path d="M130.299 132.433V131.831H129.697V132.433H130.299ZM130.299 133.035H166.429V131.831H130.299V133.035ZM130.901 192.649V132.433H129.697V192.649H130.901Z" fill="white" fill-opacity="0.3" mask="url(#path-39-inside-17_1128_14509)"/>
<path d="M166.429 132.433V131.831H165.827V132.433H166.429ZM166.429 133.035H202.559V131.831H166.429V133.035ZM167.031 192.649V132.433H165.827V192.649H167.031Z" fill="white" fill-opacity="0.3" mask="url(#path-41-inside-18_1128_14509)"/>
<path d="M202.559 132.433V131.831H201.957V132.433H202.559ZM202.559 133.035H238.689V131.831H202.559V133.035ZM203.161 192.649V132.433H201.957V192.649H203.161Z" fill="white" fill-opacity="0.3" mask="url(#path-43-inside-19_1128_14509)"/>
<path d="M238.689 132.433V131.831H238.087V132.433H238.689ZM238.689 133.035H274.819V131.831H238.689V133.035ZM239.291 192.649V132.433H238.087V192.649H239.291Z" fill="white" fill-opacity="0.3" mask="url(#path-45-inside-20_1128_14509)"/>
<path d="M274.819 132.433V131.831H274.217V132.433H274.819ZM310.949 132.433H311.551V131.831H310.949V132.433ZM274.819 133.035H310.949V131.831H274.819V133.035ZM310.347 132.433V192.649H311.551V132.433H310.347ZM275.421 192.649V132.433H274.217V192.649H275.421Z" fill="white" fill-opacity="0.3" mask="url(#path-47-inside-21_1128_14509)"/>
<path d="M58.0394 192.65V192.047H57.4372V192.65H58.0394ZM58.0394 252.866H57.4372V253.468H58.0394V252.866ZM58.0394 193.252H94.1693V192.047H58.0394V193.252ZM94.1693 252.264H58.0394V253.468H94.1693V252.264ZM58.6415 252.866V192.65H57.4372V252.866H58.6415Z" fill="white" fill-opacity="0.3" mask="url(#path-49-inside-22_1128_14509)"/>
<path d="M94.1693 192.65V192.047H93.5671V192.65H94.1693ZM94.1693 252.866H93.5671V253.468H94.1693V252.866ZM94.1693 193.252H130.299V192.047H94.1693V193.252ZM130.299 252.264H94.1693V253.468H130.299V252.264ZM94.7714 252.866V192.65H93.5671V252.866H94.7714Z" fill="white" fill-opacity="0.3" mask="url(#path-51-inside-23_1128_14509)"/>
<path d="M130.299 192.65V192.047H129.697V192.65H130.299ZM130.299 252.866H129.697V253.468H130.299V252.866ZM130.299 193.252H166.429V192.047H130.299V193.252ZM166.429 252.264H130.299V253.468H166.429V252.264ZM130.901 252.866V192.65H129.697V252.866H130.901Z" fill="white" fill-opacity="0.3" mask="url(#path-53-inside-24_1128_14509)"/>
<path d="M166.429 192.65V192.047H165.827V192.65H166.429ZM166.429 252.866H165.827V253.468H166.429V252.866ZM166.429 193.252H202.559V192.047H166.429V193.252ZM202.559 252.264H166.429V253.468H202.559V252.264ZM167.031 252.866V192.65H165.827V252.866H167.031Z" fill="white" fill-opacity="0.3" mask="url(#path-55-inside-25_1128_14509)"/>
<path d="M202.559 192.65V192.047H201.957V192.65H202.559ZM202.559 252.866H201.957V253.468H202.559V252.866ZM202.559 193.252H238.689V192.047H202.559V193.252ZM238.689 252.264H202.559V253.468H238.689V252.264ZM203.161 252.866V192.65H201.957V252.866H203.161Z" fill="white" fill-opacity="0.3" mask="url(#path-57-inside-26_1128_14509)"/>
<path d="M238.689 192.65V192.047H238.087V192.65H238.689ZM238.689 252.866H238.087V253.468H238.689V252.866ZM238.689 193.252H274.819V192.047H238.689V193.252ZM274.819 252.264H238.689V253.468H274.819V252.264ZM239.291 252.866V192.65H238.087V252.866H239.291Z" fill="white" fill-opacity="0.3" mask="url(#path-59-inside-27_1128_14509)"/>
<path d="M274.819 192.65V192.047H274.217V192.65H274.819ZM310.949 192.65H311.551V192.047H310.949V192.65ZM310.949 252.866V253.468H311.551V252.866H310.949ZM274.819 252.866H274.217V253.468H274.819V252.866ZM274.819 193.252H310.949V192.047H274.819V193.252ZM310.347 192.65V252.866H311.551V192.65H310.347ZM310.949 252.264H274.819V253.468H310.949V252.264ZM275.421 252.866V192.65H274.217V252.866H275.421Z" fill="white" fill-opacity="0.3" mask="url(#path-61-inside-28_1128_14509)"/>
<path d="M92.8503 258.311V262.511H92.0463V259.607H90.9723V259.079C91.6683 259.061 92.0823 258.803 92.1483 258.311H92.8503Z" fill="white"/>
<path d="M235.706 261.305H236.45C236.528 261.683 236.828 261.935 237.218 261.935C237.668 261.935 237.992 261.587 237.992 261.083C237.992 260.615 237.68 260.267 237.224 260.267C236.948 260.267 236.738 260.387 236.594 260.579H235.814L236.174 258.311H238.562V258.959H236.75L236.588 259.913L236.6 259.925C236.744 259.793 237.014 259.661 237.398 259.661C238.214 259.661 238.73 260.267 238.73 261.059C238.73 261.905 238.142 262.583 237.206 262.583C236.318 262.583 235.742 262.019 235.706 261.305Z" fill="white"/>
<path d="M163.383 261.101C163.413 261.629 163.689 261.953 164.199 261.953C164.727 261.953 164.985 261.629 164.985 261.245C164.985 260.795 164.613 260.591 164.073 260.591H163.899V259.997H164.037C164.529 259.997 164.853 259.799 164.853 259.391C164.853 259.121 164.667 258.851 164.199 258.851C163.695 258.851 163.485 259.229 163.485 259.565H162.753C162.789 258.773 163.341 258.233 164.235 258.233C165.099 258.233 165.621 258.671 165.621 259.301C165.621 259.829 165.351 260.069 165.063 260.219V260.225C165.435 260.351 165.777 260.687 165.777 261.257C165.777 262.079 165.123 262.589 164.205 262.589C163.227 262.589 162.663 262.031 162.639 261.101H163.383Z" fill="white"/>
<path d="M310.838 258.311V259.049C309.986 259.811 309.368 261.335 309.368 262.511H308.528C308.594 261.269 309.188 259.883 310.04 259.001L310.034 258.989H307.928V258.311H310.838Z" fill="white"/>
<path d="M127.534 259.751H126.766C126.766 258.791 127.354 258.233 128.236 258.233C129.094 258.233 129.64 258.737 129.64 259.529C129.64 260.195 129.286 260.609 128.782 260.975L128.5 261.179C128.17 261.419 127.822 261.641 127.75 261.845H129.706V262.511H126.718C126.778 261.587 127.396 261.113 128.098 260.591L128.212 260.501C128.608 260.201 128.848 259.955 128.848 259.547C128.848 259.151 128.596 258.917 128.212 258.917C127.726 258.917 127.534 259.301 127.534 259.751Z" fill="white"/>
<path d="M274.865 259.307L274.121 259.325C274.061 259.157 273.869 258.899 273.461 258.899C272.939 258.899 272.609 259.385 272.591 260.087L272.597 260.093C272.687 259.949 273.029 259.649 273.563 259.649C274.427 259.649 274.949 260.303 274.949 261.053C274.949 261.893 274.361 262.589 273.413 262.589C272.897 262.589 272.507 262.385 272.237 262.037C271.949 261.665 271.835 261.125 271.835 260.519C271.835 259.205 272.309 258.239 273.443 258.239C274.283 258.239 274.769 258.725 274.865 259.307ZM272.633 261.119C272.633 261.617 272.975 261.947 273.419 261.947C273.869 261.947 274.211 261.617 274.211 261.119C274.211 260.621 273.869 260.285 273.419 260.285C272.975 260.285 272.633 260.621 272.633 261.119Z" fill="white"/>
<path d="M200.656 262.511V261.605H198.724V260.801L200.59 258.311H201.406V260.969H202.012V261.605H201.406V262.511H200.656ZM200.656 260.969V259.955C200.656 259.613 200.662 259.391 200.668 259.199H200.656C200.56 259.367 200.428 259.565 200.23 259.835L199.75 260.483L199.366 260.975V260.981L199.888 260.969H200.656Z" fill="white"/>
<path d="M58.972 195.76C60.3527 195.76 61.472 194.64 61.472 193.26C61.472 191.879 60.3527 190.76 58.972 190.76C57.5913 190.76 56.472 191.879 56.472 193.26C56.472 194.64 57.5913 195.76 58.972 195.76Z" fill="#ECC069"/>
<path d="M58.972 227.758C60.3527 227.758 61.472 226.638 61.472 225.258C61.472 223.877 60.3527 222.758 58.972 222.758C57.5913 222.758 56.472 223.877 56.472 225.258C56.472 226.638 57.5913 227.758 58.972 227.758Z" fill="white"/>
<path d="M94.586 187.9C95.9667 187.9 97.086 186.781 97.086 185.4C97.086 184.019 95.9667 182.9 94.586 182.9C93.2053 182.9 92.086 184.019 92.086 185.4C92.086 186.781 93.2053 187.9 94.586 187.9Z" fill="white"/>
<path d="M130.734 156.041C132.114 156.041 133.234 154.922 133.234 153.541C133.234 152.161 132.114 151.041 130.734 151.041C129.353 151.041 128.234 152.161 128.234 153.541C128.234 154.922 129.353 156.041 130.734 156.041Z" fill="white"/>
<path d="M166.734 141.255C168.114 141.255 169.234 140.136 169.234 138.755C169.234 137.375 168.114 136.255 166.734 136.255C165.353 136.255 164.234 137.375 164.234 138.755C164.234 140.136 165.353 141.255 166.734 141.255Z" fill="white"/>
<path d="M202.881 130.363C204.262 130.363 205.381 129.244 205.381 127.863C205.381 126.483 204.262 125.363 202.881 125.363C201.501 125.363 200.381 126.483 200.381 127.863C200.381 129.244 201.501 130.363 202.881 130.363Z" fill="white"/>
<path d="M239.734 120.091C241.114 120.091 242.234 118.971 242.234 117.591C242.234 116.21 241.114 115.091 239.734 115.091C238.353 115.091 237.234 116.21 237.234 117.591C237.234 118.971 238.353 120.091 239.734 120.091Z" fill="white"/>
<path d="M274.819 107.325C276.2 107.325 277.319 106.205 277.319 104.825C277.319 103.444 276.2 102.325 274.819 102.325C273.438 102.325 272.319 103.444 272.319 104.825C272.319 106.205 273.438 107.325 274.819 107.325Z" fill="white"/>
<path d="M310.043 98.2542C311.423 98.2542 312.543 97.135 312.543 95.7542C312.543 94.3735 311.423 93.2542 310.043 93.2542C308.662 93.2542 307.543 94.3735 307.543 95.7542C307.543 97.135 308.662 98.2542 310.043 98.2542Z" fill="white"/>
<path d="M94.586 143.755C95.9667 143.755 97.086 142.636 97.086 141.255C97.086 139.875 95.9667 138.755 94.586 138.755C93.2053 138.755 92.086 139.875 92.086 141.255C92.086 142.636 93.2053 143.755 94.586 143.755Z" fill="#ECC069"/>
<path d="M130.734 122.591C132.114 122.591 133.234 121.471 133.234 120.091C133.234 118.71 132.114 117.591 130.734 117.591C129.353 117.591 128.234 118.71 128.234 120.091C128.234 121.471 129.353 122.591 130.734 122.591Z" fill="#ECC069"/>
<path d="M166.734 84.2165C168.114 84.2165 169.234 83.0972 169.234 81.7165C169.234 80.3358 168.114 79.2165 166.734 79.2165C165.353 79.2165 164.234 80.3358 164.234 81.7165C164.234 83.0972 165.353 84.2165 166.734 84.2165Z" fill="#ECC069"/>
<path d="M202.881 74.7165C204.262 74.7165 205.381 73.5972 205.381 72.2165C205.381 70.8358 204.262 69.7165 202.881 69.7165C201.501 69.7165 200.381 70.8358 200.381 72.2165C200.381 73.5972 201.501 74.7165 202.881 74.7165Z" fill="#ECC069"/>
<path d="M238.689 69.2165C240.07 69.2165 241.189 68.0972 241.189 66.7165C241.189 65.3358 240.07 64.2165 238.689 64.2165C237.308 64.2165 236.189 65.3358 236.189 66.7165C236.189 68.0972 237.308 69.2165 238.689 69.2165Z" fill="#ECC069"/>
<path d="M274.819 65.7165C276.2 65.7165 277.319 64.5972 277.319 63.2165C277.319 61.8358 276.2 60.7165 274.819 60.7165C273.438 60.7165 272.319 61.8358 272.319 63.2165C272.319 64.5972 273.438 65.7165 274.819 65.7165Z" fill="#ECC069"/>
<path d="M310.043 61.7165C311.423 61.7165 312.543 60.5972 312.543 59.2165C312.543 57.8358 311.423 56.7165 310.043 56.7165C308.662 56.7165 307.543 57.8358 307.543 59.2165C307.543 60.5972 308.662 61.7165 310.043 61.7165Z" fill="#ECC069"/>
<path d="M88.0318 207.035V212.635H86.9598V208.763H85.5278V208.059C86.4558 208.035 87.0078 207.691 87.0958 207.035H88.0318ZM90.2576 211.475V212.635H89.0576V211.475H90.2576ZM91.935 210.755C91.975 211.459 92.343 211.891 93.023 211.891C93.727 211.891 94.071 211.459 94.071 210.947C94.071 210.347 93.575 210.075 92.855 210.075H92.623V209.283H92.807C93.463 209.283 93.895 209.019 93.895 208.475C93.895 208.115 93.647 207.755 93.023 207.755C92.351 207.755 92.071 208.259 92.071 208.707H91.095C91.143 207.651 91.879 206.931 93.071 206.931C94.223 206.931 94.919 207.515 94.919 208.355C94.919 209.059 94.559 209.379 94.175 209.579V209.587C94.671 209.755 95.127 210.203 95.127 210.963C95.127 212.059 94.255 212.739 93.031 212.739C91.727 212.739 90.975 211.995 90.943 210.755H91.935ZM99.4599 208.515L98.0839 210.443L99.6039 212.635H98.4039L97.5079 211.267L96.6039 212.635H95.4119L96.9319 210.475L95.5399 208.515H96.7399L97.5159 209.675L98.2839 208.515H99.4599ZM106.485 207.035V212.635H105.365V210.131H102.997V212.635H101.877V207.035H102.997V209.235H105.365V207.035H106.485ZM107.516 207.955V207.035H108.58V207.955H107.516ZM107.516 212.635V208.515H108.58V212.635H107.516ZM112.329 211.843H112.321C112.145 212.091 111.737 212.339 111.153 212.339C110.169 212.339 109.353 211.619 109.353 210.355C109.353 209.115 110.217 208.387 111.137 208.387C111.777 208.387 112.137 208.659 112.329 208.843H112.337V208.515H113.369V212.331C113.369 212.691 113.313 212.931 113.217 213.139C112.913 213.779 112.233 214.091 111.361 214.091C110.241 214.091 109.561 213.467 109.513 212.787H110.593C110.657 213.091 110.961 213.291 111.425 213.291C111.865 213.291 112.153 213.123 112.273 212.715C112.305 212.603 112.321 212.459 112.321 212.251V212.203C112.321 212.099 112.321 211.971 112.329 211.843ZM112.369 210.355C112.369 209.627 111.921 209.211 111.393 209.211C110.857 209.211 110.409 209.643 110.409 210.363C110.409 211.075 110.849 211.515 111.393 211.515C111.921 211.515 112.369 211.091 112.369 210.355ZM116.253 209.259C115.917 209.259 115.669 209.435 115.541 209.715C115.477 209.859 115.445 210.027 115.445 210.387V212.635H114.381V207.035H115.445V208.923H115.453C115.645 208.659 116.013 208.387 116.621 208.387C117.269 208.387 117.829 208.691 118.037 209.427C118.093 209.619 118.125 209.883 118.125 210.339V212.635H117.061V210.419C117.061 210.019 117.037 209.859 116.965 209.691C116.837 209.411 116.589 209.259 116.253 209.259ZM121.779 211.435H122.883C122.595 212.219 121.931 212.739 120.947 212.739C119.627 212.739 118.835 211.803 118.835 210.563C118.835 209.323 119.635 208.387 120.891 208.387C121.923 208.387 122.579 209.011 122.827 209.891C122.899 210.147 122.931 210.435 122.931 210.755V210.859H119.923C119.979 211.595 120.427 211.899 120.947 211.899C121.403 211.899 121.659 211.667 121.779 211.435ZM120.891 209.171C120.339 209.171 119.971 209.579 119.923 210.123H121.843C121.827 209.579 121.467 209.171 120.891 209.171ZM124.715 209.003H124.731C124.867 208.683 125.219 208.387 125.843 208.387H125.915V209.371C125.835 209.363 125.763 209.355 125.691 209.355C125.051 209.355 124.755 209.723 124.755 210.459V212.635H123.691V208.515H124.715V209.003Z" fill="white"/>
<path d="M172.652 104.725V110.325H171.58V106.453H170.148V105.749C171.076 105.725 171.628 105.381 171.716 104.725H172.652ZM174.878 109.165V110.325H173.678V109.165H174.878ZM176.555 108.445C176.595 109.149 176.963 109.581 177.643 109.581C178.347 109.581 178.691 109.149 178.691 108.637C178.691 108.037 178.195 107.765 177.475 107.765H177.243V106.973H177.427C178.083 106.973 178.515 106.709 178.515 106.165C178.515 105.805 178.267 105.445 177.643 105.445C176.971 105.445 176.691 105.949 176.691 106.397H175.715C175.763 105.341 176.499 104.621 177.691 104.621C178.843 104.621 179.539 105.205 179.539 106.045C179.539 106.749 179.179 107.069 178.795 107.269V107.277C179.291 107.445 179.747 107.893 179.747 108.653C179.747 109.749 178.875 110.429 177.651 110.429C176.347 110.429 175.595 109.685 175.563 108.445H176.555ZM184.08 106.205L182.704 108.133L184.224 110.325H183.024L182.128 108.957L181.224 110.325H180.032L181.552 108.165L180.16 106.205H181.36L182.136 107.365L182.904 106.205H184.08ZM191.106 104.725V110.325H189.986V107.821H187.618V110.325H186.498V104.725H187.618V106.925H189.986V104.725H191.106ZM192.136 105.645V104.725H193.2V105.645H192.136ZM192.136 110.325V106.205H193.2V110.325H192.136ZM196.949 109.533H196.941C196.765 109.781 196.357 110.029 195.773 110.029C194.789 110.029 193.973 109.309 193.973 108.045C193.973 106.805 194.837 106.077 195.757 106.077C196.397 106.077 196.757 106.349 196.949 106.533H196.957V106.205H197.989V110.021C197.989 110.381 197.933 110.621 197.837 110.829C197.533 111.469 196.853 111.781 195.981 111.781C194.861 111.781 194.181 111.157 194.133 110.477H195.213C195.277 110.781 195.581 110.981 196.045 110.981C196.485 110.981 196.773 110.813 196.893 110.405C196.925 110.293 196.941 110.149 196.941 109.941V109.893C196.941 109.789 196.941 109.661 196.949 109.533ZM196.989 108.045C196.989 107.317 196.541 106.901 196.013 106.901C195.477 106.901 195.029 107.333 195.029 108.053C195.029 108.765 195.469 109.205 196.013 109.205C196.541 109.205 196.989 108.781 196.989 108.045ZM200.873 106.949C200.537 106.949 200.289 107.125 200.161 107.405C200.097 107.549 200.065 107.717 200.065 108.077V110.325H199.001V104.725H200.065V106.613H200.073C200.265 106.349 200.633 106.077 201.241 106.077C201.889 106.077 202.449 106.381 202.657 107.117C202.713 107.309 202.745 107.573 202.745 108.029V110.325H201.681V108.109C201.681 107.709 201.657 107.549 201.585 107.381C201.457 107.101 201.209 106.949 200.873 106.949ZM206.399 109.125H207.503C207.215 109.909 206.551 110.429 205.567 110.429C204.247 110.429 203.455 109.493 203.455 108.253C203.455 107.013 204.255 106.077 205.511 106.077C206.543 106.077 207.199 106.701 207.447 107.581C207.519 107.837 207.551 108.125 207.551 108.445V108.549H204.543C204.599 109.285 205.047 109.589 205.567 109.589C206.023 109.589 206.279 109.357 206.399 109.125ZM205.511 106.861C204.959 106.861 204.591 107.269 204.543 107.813H206.463C206.447 107.269 206.087 106.861 205.511 106.861ZM209.336 106.693H209.352C209.488 106.373 209.84 106.077 210.464 106.077H210.536V107.061C210.456 107.053 210.384 107.045 210.312 107.045C209.672 107.045 209.376 107.413 209.376 108.149V110.325H208.312V106.205H209.336V106.693Z" fill="white"/>
<path d="M59 193.5L95 141.5L131 120.5L167 81.5L203 72.5L239 67L275 63.5L310 59.5" stroke="#ECC069"/>
<path d="M59 225L95 185.5L131 153.5L167 138.5L203 128L239 117.5L275 105L310 96" stroke="white"/>
<circle cx="91.8838" cy="290.515" r="5" fill="#ECC069"/>
<path d="M102.468 293.515V287.915H104.628C105.276 287.915 105.596 287.995 105.948 288.155C106.772 288.539 107.316 289.379 107.316 290.683C107.316 291.811 106.916 292.739 106.092 293.203C105.732 293.403 105.332 293.515 104.684 293.515H102.468ZM103.572 288.795V292.627H104.588C104.94 292.627 105.14 292.579 105.348 292.483C105.828 292.259 106.188 291.739 106.188 290.803C106.188 289.811 105.908 289.107 105.1 288.875C104.908 288.819 104.628 288.795 104.38 288.795H103.572ZM109.946 293.627C108.642 293.627 107.874 292.699 107.874 291.451C107.874 290.203 108.69 289.275 109.946 289.275C111.202 289.275 112.018 290.203 112.018 291.451C112.018 292.699 111.234 293.627 109.946 293.627ZM109.946 290.099C109.354 290.099 108.962 290.603 108.962 291.467C108.962 292.339 109.346 292.795 109.946 292.795C110.546 292.795 110.93 292.339 110.93 291.467C110.93 290.603 110.538 290.099 109.946 290.099ZM114.649 290.139C114.313 290.139 114.065 290.315 113.937 290.595C113.873 290.739 113.841 290.907 113.841 291.267V293.515H112.777V289.395H113.801V289.851H113.809C114.001 289.547 114.417 289.267 115.017 289.267C115.665 289.267 116.225 289.571 116.433 290.307C116.489 290.499 116.521 290.763 116.521 291.219V293.515H115.457V291.299C115.457 290.899 115.433 290.739 115.361 290.571C115.233 290.291 114.985 290.139 114.649 290.139ZM119.303 293.627C117.999 293.627 117.231 292.699 117.231 291.451C117.231 290.203 118.047 289.275 119.303 289.275C120.559 289.275 121.375 290.203 121.375 291.451C121.375 292.699 120.591 293.627 119.303 293.627ZM119.303 290.099C118.711 290.099 118.319 290.603 118.319 291.467C118.319 292.339 118.703 292.795 119.303 292.795C119.903 292.795 120.287 292.339 120.287 291.467C120.287 290.603 119.895 290.099 119.303 290.099ZM123.159 289.883H123.175C123.311 289.563 123.663 289.267 124.287 289.267H124.359V290.251C124.279 290.243 124.207 290.235 124.135 290.235C123.495 290.235 123.199 290.603 123.199 291.339V293.515H122.135V289.395H123.159V289.883ZM126.275 291.787H127.347C127.419 292.491 127.939 292.739 128.595 292.739C129.251 292.739 129.723 292.499 129.723 291.995C129.723 291.491 129.139 291.347 128.515 291.187L128.011 291.059C127.019 290.803 126.403 290.427 126.403 289.459C126.403 288.387 127.371 287.811 128.523 287.811C129.651 287.811 130.611 288.291 130.675 289.523H129.627C129.555 288.931 129.147 288.683 128.507 288.683C127.883 288.683 127.499 288.955 127.499 289.347C127.499 289.755 127.747 289.915 128.627 290.131L129.243 290.283C129.715 290.403 130.843 290.667 130.843 291.859C130.843 292.907 130.011 293.619 128.563 293.619C127.235 293.619 126.355 293.067 126.275 291.787ZM131.593 294.891V289.395H132.633V289.763H132.641C132.825 289.563 133.201 289.267 133.841 289.267C134.841 289.267 135.697 290.067 135.697 291.427C135.697 292.803 134.865 293.619 133.833 293.619C133.225 293.619 132.833 293.347 132.657 293.075V294.891H131.593ZM133.577 290.091C133.001 290.091 132.609 290.579 132.609 291.459C132.609 292.339 133.025 292.787 133.577 292.787C134.177 292.787 134.577 292.339 134.577 291.459C134.577 290.571 134.169 290.091 133.577 290.091ZM139.155 292.315H140.259C139.971 293.099 139.307 293.619 138.323 293.619C137.003 293.619 136.211 292.683 136.211 291.443C136.211 290.203 137.011 289.267 138.267 289.267C139.299 289.267 139.955 289.891 140.203 290.771C140.275 291.027 140.307 291.315 140.307 291.635V291.739H137.299C137.355 292.475 137.803 292.779 138.323 292.779C138.779 292.779 139.035 292.547 139.155 292.315ZM138.267 290.051C137.715 290.051 137.347 290.459 137.299 291.003H139.219C139.203 290.459 138.843 290.051 138.267 290.051ZM142.091 289.883H142.107C142.243 289.563 142.595 289.267 143.219 289.267H143.291V290.251C143.211 290.243 143.139 290.235 143.067 290.235C142.427 290.235 142.131 290.603 142.131 291.339V293.515H141.067V289.395H142.091V289.883ZM149.118 293.515V291.299C149.118 291.051 149.102 290.883 149.062 290.739C148.966 290.371 148.742 290.163 148.342 290.163C147.926 290.163 147.574 290.467 147.574 291.179V293.515H146.51V291.299C146.51 291.051 146.494 290.883 146.454 290.739C146.358 290.371 146.134 290.163 145.734 290.163C145.318 290.163 144.966 290.467 144.966 291.179V293.515H143.902V289.395H144.926V289.851H144.934C145.126 289.547 145.518 289.267 146.102 289.267C146.63 289.267 147.054 289.483 147.31 289.891C147.55 289.579 148.006 289.267 148.67 289.267C149.374 289.267 149.886 289.571 150.094 290.307C150.15 290.499 150.182 290.763 150.182 291.219V293.515H149.118Z" fill="white"/>
<circle cx="165.884" cy="290.515" r="5" fill="white"/>
<path d="M178.796 293.619C177.164 293.619 176.204 292.451 176.204 290.715C176.204 289.019 177.228 287.811 178.796 287.811C180.372 287.811 181.396 289.019 181.396 290.715C181.396 292.451 180.428 293.619 178.796 293.619ZM178.796 288.691C177.82 288.691 177.324 289.619 177.324 290.715C177.324 291.851 177.812 292.739 178.796 292.739C179.788 292.739 180.276 291.851 180.276 290.715C180.276 289.619 179.78 288.691 178.796 288.691ZM181.736 289.395H182.832L183.392 291.659L183.568 292.315H183.584L183.752 291.627L184.328 289.395H185.4L185.952 291.659L186.12 292.315H186.136L186.304 291.627L186.872 289.395H187.944L186.64 293.515H185.552L185.032 291.483L184.864 290.731H184.848L184.656 291.491L184.12 293.515H182.992L181.736 289.395ZM190.344 290.139C190.008 290.139 189.76 290.315 189.632 290.595C189.568 290.739 189.536 290.907 189.536 291.267V293.515H188.472V289.395H189.496V289.851H189.504C189.696 289.547 190.112 289.267 190.712 289.267C191.36 289.267 191.92 289.571 192.128 290.307C192.184 290.499 192.216 290.763 192.216 291.219V293.515H191.152V291.299C191.152 290.899 191.128 290.739 191.056 290.571C190.928 290.291 190.68 290.139 190.344 290.139ZM194.675 291.787H195.747C195.819 292.491 196.339 292.739 196.995 292.739C197.651 292.739 198.123 292.499 198.123 291.995C198.123 291.491 197.539 291.347 196.915 291.187L196.411 291.059C195.419 290.803 194.803 290.427 194.803 289.459C194.803 288.387 195.771 287.811 196.923 287.811C198.051 287.811 199.011 288.291 199.075 289.523H198.027C197.955 288.931 197.547 288.683 196.907 288.683C196.283 288.683 195.899 288.955 195.899 289.347C195.899 289.755 196.147 289.915 197.027 290.131L197.643 290.283C198.115 290.403 199.243 290.667 199.243 291.859C199.243 292.907 198.411 293.619 196.963 293.619C195.635 293.619 194.755 293.067 194.675 291.787ZM199.993 294.891V289.395H201.033V289.763H201.041C201.225 289.563 201.601 289.267 202.241 289.267C203.241 289.267 204.097 290.067 204.097 291.427C204.097 292.803 203.265 293.619 202.233 293.619C201.625 293.619 201.233 293.347 201.057 293.075V294.891H199.993ZM201.977 290.091C201.401 290.091 201.009 290.579 201.009 291.459C201.009 292.339 201.425 292.787 201.977 292.787C202.577 292.787 202.977 292.339 202.977 291.459C202.977 290.571 202.569 290.091 201.977 290.091ZM207.555 292.315H208.659C208.371 293.099 207.707 293.619 206.723 293.619C205.403 293.619 204.611 292.683 204.611 291.443C204.611 290.203 205.411 289.267 206.667 289.267C207.699 289.267 208.355 289.891 208.603 290.771C208.675 291.027 208.707 291.315 208.707 291.635V291.739H205.699C205.755 292.475 206.203 292.779 206.723 292.779C207.179 292.779 207.435 292.547 207.555 292.315ZM206.667 290.051C206.115 290.051 205.747 290.459 205.699 291.003H207.619C207.603 290.459 207.243 290.051 206.667 290.051ZM210.492 289.883H210.508C210.644 289.563 210.996 289.267 211.62 289.267H211.692V290.251C211.612 290.243 211.54 290.235 211.468 290.235C210.828 290.235 210.532 290.603 210.532 291.339V293.515H209.468V289.395H210.492V289.883ZM217.519 293.515V291.299C217.519 291.051 217.503 290.883 217.463 290.739C217.367 290.371 217.143 290.163 216.743 290.163C216.327 290.163 215.975 290.467 215.975 291.179V293.515H214.911V291.299C214.911 291.051 214.895 290.883 214.855 290.739C214.759 290.371 214.535 290.163 214.135 290.163C213.719 290.163 213.367 290.467 213.367 291.179V293.515H212.303V289.395H213.327V289.851H213.335C213.527 289.547 213.919 289.267 214.503 289.267C215.031 289.267 215.455 289.483 215.711 289.891C215.951 289.579 216.407 289.267 217.071 289.267C217.775 289.267 218.287 289.571 218.495 290.307C218.551 290.499 218.583 290.763 218.583 291.219V293.515H217.519ZM225.24 293.515L224.6 290.699C224.528 290.403 224.4 289.827 224.352 289.467H224.336C224.272 289.827 224.16 290.435 224.096 290.707L223.472 293.515H222.312L220.696 287.915H221.88L222.648 290.859C222.72 291.131 222.84 291.603 222.912 291.963H222.928C222.984 291.643 223.072 291.147 223.136 290.851L223.76 287.915H224.944L225.568 290.851C225.648 291.227 225.72 291.635 225.776 291.955H225.792C225.864 291.595 225.96 291.275 226.072 290.859L226.84 287.915H228L226.352 293.515H225.24ZM228.534 288.835V287.915H229.598V288.835H228.534ZM228.534 293.515V289.395H229.598V293.515H228.534ZM230.307 290.131V289.395H230.827V288.123H231.891V289.395H232.627V290.131H231.891V292.211C231.891 292.683 232.011 292.731 232.419 292.731H232.643V293.515H232.139C231.707 293.515 231.539 293.507 231.403 293.475C231.083 293.403 230.907 293.219 230.851 292.827C230.835 292.723 230.827 292.587 230.827 292.411V290.131H230.307ZM235.248 290.139C234.912 290.139 234.664 290.315 234.536 290.595C234.472 290.739 234.44 290.907 234.44 291.267V293.515H233.376V287.915H234.44V289.803H234.448C234.64 289.539 235.008 289.267 235.616 289.267C236.264 289.267 236.824 289.571 237.032 290.307C237.088 290.499 237.12 290.763 237.12 291.219V293.515H236.056V291.299C236.056 290.899 236.032 290.739 235.96 290.571C235.832 290.291 235.584 290.139 235.248 290.139ZM243.243 293.515H242.187L241.235 290.355C241.107 289.931 241.003 289.475 240.939 289.171H240.923C240.931 289.483 240.963 289.947 240.963 290.587V293.515H239.899V287.915H241.523L242.443 291.019C242.595 291.523 242.659 291.867 242.723 292.155H242.739C242.803 291.867 242.883 291.515 243.019 291.019L243.875 287.915H245.523V293.515H244.459V290.571C244.459 290.003 244.499 289.483 244.507 289.171H244.491C244.419 289.475 244.315 289.947 244.187 290.371L243.243 293.515ZM247.465 290.643L246.489 290.627C246.545 289.683 247.289 289.275 248.289 289.275C248.993 289.275 249.713 289.507 249.929 290.187C249.993 290.387 250.025 290.635 250.025 291.027V292.947C250.025 293.219 250.049 293.363 250.121 293.491V293.515H249.129L249.105 293.163H249.097C248.905 293.347 248.577 293.627 247.857 293.627C246.993 293.627 246.289 293.131 246.289 292.331C246.289 291.243 247.513 291.075 248.393 290.947L248.569 290.923C248.865 290.883 248.969 290.779 248.969 290.555C248.969 290.251 248.713 290.035 248.249 290.035C248.009 290.035 247.809 290.091 247.673 290.203C247.553 290.307 247.481 290.451 247.465 290.643ZM248.081 292.835C248.449 292.835 248.841 292.691 248.969 292.323C248.993 292.251 249.009 292.179 249.009 291.979V291.459C248.913 291.499 248.697 291.563 248.409 291.635L248.153 291.699C247.841 291.779 247.625 291.851 247.505 291.971C247.425 292.051 247.377 292.163 247.377 292.291C247.377 292.643 247.649 292.835 248.081 292.835ZM250.99 293.515V287.915H252.054V293.515H250.99ZM255.755 292.315H256.859C256.571 293.099 255.907 293.619 254.923 293.619C253.603 293.619 252.811 292.683 252.811 291.443C252.811 290.203 253.611 289.267 254.867 289.267C255.899 289.267 256.555 289.891 256.803 290.771C256.875 291.027 256.907 291.315 256.907 291.635V291.739H253.899C253.955 292.475 254.403 292.779 254.923 292.779C255.379 292.779 255.635 292.547 255.755 292.315ZM254.867 290.051C254.315 290.051 253.947 290.459 253.899 291.003H255.819C255.803 290.459 255.443 290.051 254.867 290.051ZM260.584 293.515H259.48V287.915H263.496V288.795H260.584V290.123H263.136V291.011H260.584V293.515ZM264.788 290.643L263.812 290.627C263.868 289.683 264.612 289.275 265.612 289.275C266.316 289.275 267.036 289.507 267.252 290.187C267.316 290.387 267.348 290.635 267.348 291.027V292.947C267.348 293.219 267.372 293.363 267.444 293.491V293.515H266.452L266.428 293.163H266.42C266.228 293.347 265.9 293.627 265.18 293.627C264.316 293.627 263.612 293.131 263.612 292.331C263.612 291.243 264.836 291.075 265.716 290.947L265.892 290.923C266.188 290.883 266.292 290.779 266.292 290.555C266.292 290.251 266.036 290.035 265.572 290.035C265.332 290.035 265.132 290.091 264.996 290.203C264.876 290.307 264.804 290.451 264.788 290.643ZM265.404 292.835C265.772 292.835 266.164 292.691 266.292 292.323C266.316 292.251 266.332 292.179 266.332 291.979V291.459C266.236 291.499 266.02 291.563 265.732 291.635L265.476 291.699C265.164 291.779 264.948 291.851 264.828 291.971C264.748 292.051 264.7 292.163 264.7 292.291C264.7 292.643 264.972 292.835 265.404 292.835ZM270.953 290.779C270.889 290.451 270.609 290.099 270.121 290.099C269.537 290.099 269.153 290.571 269.153 291.467C269.153 292.395 269.561 292.795 270.153 292.795C270.665 292.795 270.897 292.459 270.993 292.123H272.001C271.841 293.019 271.169 293.627 270.121 293.627C268.793 293.627 268.065 292.715 268.065 291.451C268.065 290.203 268.849 289.275 270.129 289.275C271.137 289.275 271.849 289.875 271.961 290.779H270.953ZM272.391 290.131V289.395H272.911V288.123H273.975V289.395H274.711V290.131H273.975V292.211C273.975 292.683 274.095 292.731 274.503 292.731H274.727V293.515H274.223C273.791 293.515 273.623 293.507 273.487 293.475C273.167 293.403 272.991 293.219 272.935 292.827C272.919 292.723 272.911 292.587 272.911 292.411V290.131H272.391ZM277.213 293.627C275.909 293.627 275.141 292.699 275.141 291.451C275.141 290.203 275.957 289.275 277.213 289.275C278.469 289.275 279.285 290.203 279.285 291.451C279.285 292.699 278.501 293.627 277.213 293.627ZM277.213 290.099C276.621 290.099 276.229 290.603 276.229 291.467C276.229 292.339 276.613 292.795 277.213 292.795C277.813 292.795 278.197 292.339 278.197 291.467C278.197 290.603 277.805 290.099 277.213 290.099ZM281.069 289.883H281.085C281.221 289.563 281.573 289.267 282.197 289.267H282.269V290.251C282.189 290.243 282.117 290.235 282.045 290.235C281.405 290.235 281.109 290.603 281.109 291.339V293.515H280.045V289.395H281.069V289.883Z" fill="white"/>
<path d="M166.734 85.7377L163.847 90.7377H169.62L166.734 85.7377ZM166.734 135.318L169.62 130.318H163.847L166.734 135.318ZM166.234 88.8364V90.9023H167.234V88.8364H166.234ZM166.234 92.9681V95.034H167.234V92.9681H166.234ZM166.234 97.0998V99.1657H167.234V97.0998H166.234ZM166.234 101.232V103.297H167.234V101.232H166.234ZM166.234 105.363V107.429H167.234V105.363H166.234ZM166.234 109.495V111.561H167.234V109.495H166.234ZM166.234 113.627V115.692H167.234V113.627H166.234ZM166.234 117.758V119.824H167.234V117.758H166.234ZM166.234 121.89V123.956H167.234V121.89H166.234ZM166.234 126.022V128.088H167.234V126.022H166.234ZM166.234 130.153V132.219H167.234V130.153H166.234Z" fill="white"/>
<path d="M29.437 24.9V34H27.617V29.931H23.769V34H21.949V24.9H23.769V28.475H27.617V24.9H29.437ZM34.1274 34.182C32.0084 34.182 30.7604 32.674 30.7604 30.646C30.7604 28.618 32.0864 27.11 34.1274 27.11C36.1684 27.11 37.4944 28.618 37.4944 30.646C37.4944 32.674 36.2204 34.182 34.1274 34.182ZM34.1274 28.449C33.1654 28.449 32.5284 29.268 32.5284 30.672C32.5284 32.089 33.1524 32.83 34.1274 32.83C35.1024 32.83 35.7264 32.089 35.7264 30.672C35.7264 29.268 35.0894 28.449 34.1274 28.449ZM37.9507 27.305H39.7317L40.6417 30.984L40.9277 32.05H40.9537L41.2267 30.932L42.1627 27.305H43.9047L44.8017 30.984L45.0747 32.05H45.1007L45.3737 30.932L46.2967 27.305H48.0387L45.9197 34H44.1517L43.3067 30.698L43.0337 29.476H43.0077L42.6957 30.711L41.8247 34H39.9917L37.9507 27.305ZM55.4964 32.739C56.5364 32.739 56.9914 32.271 57.1734 31.634C57.2514 31.348 57.2774 31.023 57.2774 30.62V24.9H59.0974V30.62C59.0974 31.283 59.0454 31.738 58.9154 32.154C58.4604 33.584 57.1994 34.169 55.4964 34.169C53.7934 34.169 52.5324 33.584 52.0774 32.154C51.9474 31.738 51.8954 31.283 51.8954 30.62V24.9H53.7154V30.62C53.7154 31.023 53.7414 31.348 53.8194 31.634C54.0014 32.271 54.4564 32.739 55.4964 32.739ZM60.3386 31.803H61.9896C62.0026 32.609 62.7176 32.947 63.4716 32.947C64.0176 32.947 64.7326 32.726 64.7326 32.076C64.7326 31.595 64.2126 31.452 63.2246 31.192L62.6396 31.036C61.5736 30.75 60.5466 30.373 60.5466 29.112C60.5466 27.682 61.9506 27.11 63.3806 27.11C64.8756 27.11 66.1236 27.656 66.2666 29.307H64.6546C64.6026 28.566 64.0826 28.319 63.3286 28.319C62.7176 28.319 62.2236 28.514 62.2236 28.956C62.2236 29.424 62.7306 29.554 63.4586 29.736L64.1736 29.918C65.2916 30.204 66.4746 30.646 66.4746 31.933C66.4746 33.454 65.1616 34.169 63.4586 34.169C61.9246 34.169 60.4166 33.584 60.3386 31.803ZM67.7262 26.395V24.9H69.4552V26.395H67.7262ZM67.7262 34V27.305H69.4552V34H67.7262ZM74.2086 28.514C73.6626 28.514 73.2596 28.8 73.0516 29.255C72.9476 29.489 72.8956 29.762 72.8956 30.347V34H71.1666V27.305H72.8306V28.046H72.8436C73.1556 27.552 73.8316 27.097 74.8066 27.097C75.8596 27.097 76.7696 27.591 77.1076 28.787C77.1986 29.099 77.2506 29.528 77.2506 30.269V34H75.5216V30.399C75.5216 29.749 75.4826 29.489 75.3656 29.216C75.1576 28.761 74.7546 28.514 74.2086 28.514ZM83.3313 32.713H83.3183C83.0323 33.116 82.3693 33.519 81.4203 33.519C79.8213 33.519 78.4953 32.349 78.4953 30.295C78.4953 28.28 79.8993 27.097 81.3943 27.097C82.4343 27.097 83.0193 27.539 83.3313 27.838H83.3443V27.305H85.0213V33.506C85.0213 34.091 84.9303 34.481 84.7743 34.819C84.2803 35.859 83.1753 36.366 81.7583 36.366C79.9383 36.366 78.8333 35.352 78.7553 34.247H80.5103C80.6143 34.741 81.1083 35.066 81.8623 35.066C82.5773 35.066 83.0453 34.793 83.2403 34.13C83.2923 33.948 83.3183 33.714 83.3183 33.376V33.298C83.3183 33.129 83.3183 32.921 83.3313 32.713ZM83.3963 30.295C83.3963 29.112 82.6683 28.436 81.8103 28.436C80.9393 28.436 80.2113 29.138 80.2113 30.308C80.2113 31.465 80.9263 32.18 81.8103 32.18C82.6683 32.18 83.3963 31.491 83.3963 30.295ZM89.742 34V24.9H93.252C94.305 24.9 94.825 25.03 95.397 25.29C96.736 25.914 97.62 27.279 97.62 29.398C97.62 31.231 96.97 32.739 95.631 33.493C95.046 33.818 94.396 34 93.343 34H89.742ZM91.536 26.33V32.557H93.187C93.759 32.557 94.084 32.479 94.422 32.323C95.202 31.959 95.787 31.114 95.787 29.593C95.787 27.981 95.332 26.837 94.019 26.46C93.707 26.369 93.252 26.33 92.849 26.33H91.536ZM101.958 34.182C99.8394 34.182 98.5914 32.674 98.5914 30.646C98.5914 28.618 99.9174 27.11 101.958 27.11C103.999 27.11 105.325 28.618 105.325 30.646C105.325 32.674 104.051 34.182 101.958 34.182ZM101.958 28.449C100.996 28.449 100.359 29.268 100.359 30.672C100.359 32.089 100.983 32.83 101.958 32.83C102.933 32.83 103.557 32.089 103.557 30.672C103.557 29.268 102.92 28.449 101.958 28.449ZM109.667 28.514C109.121 28.514 108.718 28.8 108.51 29.255C108.406 29.489 108.354 29.762 108.354 30.347V34H106.625V27.305H108.289V28.046H108.302C108.614 27.552 109.29 27.097 110.265 27.097C111.318 27.097 112.228 27.591 112.566 28.787C112.657 29.099 112.709 29.528 112.709 30.269V34H110.98V30.399C110.98 29.749 110.941 29.489 110.824 29.216C110.616 28.761 110.213 28.514 109.667 28.514ZM117.294 34.182C115.175 34.182 113.927 32.674 113.927 30.646C113.927 28.618 115.253 27.11 117.294 27.11C119.335 27.11 120.661 28.618 120.661 30.646C120.661 32.674 119.387 34.182 117.294 34.182ZM117.294 28.449C116.332 28.449 115.695 29.268 115.695 30.672C115.695 32.089 116.319 32.83 117.294 32.83C118.269 32.83 118.893 32.089 118.893 30.672C118.893 29.268 118.256 28.449 117.294 28.449ZM123.625 28.098H123.651C123.872 27.578 124.444 27.097 125.458 27.097H125.575V28.696C125.445 28.683 125.328 28.67 125.211 28.67C124.171 28.67 123.69 29.268 123.69 30.464V34H121.961V27.305H123.625V28.098ZM135.488 28.488V29.931H131.133V32.557L136.151 32.557V34H129.339V24.9H136.073V26.33H131.133V28.488H135.488ZM141.781 32.713H141.768C141.482 33.116 140.819 33.519 139.87 33.519C138.271 33.519 136.945 32.349 136.945 30.295C136.945 28.28 138.349 27.097 139.844 27.097C140.884 27.097 141.469 27.539 141.781 27.838H141.794V27.305H143.471V33.506C143.471 34.091 143.38 34.481 143.224 34.819C142.73 35.859 141.625 36.366 140.208 36.366C138.388 36.366 137.283 35.352 137.205 34.247H138.96C139.064 34.741 139.558 35.066 140.312 35.066C141.027 35.066 141.495 34.793 141.69 34.13C141.742 33.948 141.768 33.714 141.768 33.376V33.298C141.768 33.129 141.768 32.921 141.781 32.713ZM141.846 30.295C141.846 29.112 141.118 28.436 140.26 28.436C139.389 28.436 138.661 29.138 138.661 30.308C138.661 31.465 139.376 32.18 140.26 32.18C141.118 32.18 141.846 31.491 141.846 30.295ZM149.626 32.713H149.613C149.327 33.116 148.664 33.519 147.715 33.519C146.116 33.519 144.79 32.349 144.79 30.295C144.79 28.28 146.194 27.097 147.689 27.097C148.729 27.097 149.314 27.539 149.626 27.838H149.639V27.305H151.316V33.506C151.316 34.091 151.225 34.481 151.069 34.819C150.575 35.859 149.47 36.366 148.053 36.366C146.233 36.366 145.128 35.352 145.05 34.247H146.805C146.909 34.741 147.403 35.066 148.157 35.066C148.872 35.066 149.34 34.793 149.535 34.13C149.587 33.948 149.613 33.714 149.613 33.376V33.298C149.613 33.129 149.613 32.921 149.626 32.713ZM149.691 30.295C149.691 29.112 148.963 28.436 148.105 28.436C147.234 28.436 146.506 29.138 146.506 30.308C146.506 31.465 147.221 32.18 148.105 32.18C148.963 32.18 149.691 31.491 149.691 30.295ZM152.532 31.803H154.183C154.196 32.609 154.911 32.947 155.665 32.947C156.211 32.947 156.926 32.726 156.926 32.076C156.926 31.595 156.406 31.452 155.418 31.192L154.833 31.036C153.767 30.75 152.74 30.373 152.74 29.112C152.74 27.682 154.144 27.11 155.574 27.11C157.069 27.11 158.317 27.656 158.46 29.307H156.848C156.796 28.566 156.276 28.319 155.522 28.319C154.911 28.319 154.417 28.514 154.417 28.956C154.417 29.424 154.924 29.554 155.652 29.736L156.367 29.918C157.485 30.204 158.668 30.646 158.668 31.933C158.668 33.454 157.355 34.169 155.652 34.169C154.118 34.169 152.61 33.584 152.532 31.803ZM164.75 24.9V34H162.93V24.9L164.75 24.9ZM174.972 34V30.399C174.972 29.996 174.946 29.723 174.881 29.489C174.725 28.891 174.361 28.553 173.711 28.553C173.035 28.553 172.463 29.047 172.463 30.204V34H170.734V30.399C170.734 29.996 170.708 29.723 170.643 29.489C170.487 28.891 170.123 28.553 169.473 28.553C168.797 28.553 168.225 29.047 168.225 30.204V34H166.496V27.305H168.16V28.046H168.173C168.485 27.552 169.122 27.097 170.071 27.097C170.929 27.097 171.618 27.448 172.034 28.111C172.424 27.604 173.165 27.097 174.244 27.097C175.388 27.097 176.22 27.591 176.558 28.787C176.649 29.099 176.701 29.528 176.701 30.269V34H174.972ZM178.34 36.236V27.305H180.03V27.903H180.043C180.342 27.578 180.953 27.097 181.993 27.097C183.618 27.097 185.009 28.397 185.009 30.607C185.009 32.843 183.657 34.169 181.98 34.169C180.992 34.169 180.355 33.727 180.069 33.285V36.236H178.34ZM181.564 28.436C180.628 28.436 179.991 29.229 179.991 30.659C179.991 32.089 180.667 32.817 181.564 32.817C182.539 32.817 183.189 32.089 183.189 30.659C183.189 29.216 182.526 28.436 181.564 28.436ZM187.808 29.333L186.222 29.307C186.313 27.773 187.522 27.11 189.147 27.11C190.291 27.11 191.461 27.487 191.812 28.592C191.916 28.917 191.968 29.32 191.968 29.957V33.077C191.968 33.519 192.007 33.753 192.124 33.961V34H190.512L190.473 33.428H190.46C190.148 33.727 189.615 34.182 188.445 34.182C187.041 34.182 185.897 33.376 185.897 32.076C185.897 30.308 187.886 30.035 189.316 29.827L189.602 29.788C190.083 29.723 190.252 29.554 190.252 29.19C190.252 28.696 189.836 28.345 189.082 28.345C188.692 28.345 188.367 28.436 188.146 28.618C187.951 28.787 187.834 29.021 187.808 29.333ZM188.809 32.895C189.407 32.895 190.044 32.661 190.252 32.063C190.291 31.946 190.317 31.829 190.317 31.504V30.659C190.161 30.724 189.81 30.828 189.342 30.945L188.926 31.049C188.419 31.179 188.068 31.296 187.873 31.491C187.743 31.621 187.665 31.803 187.665 32.011C187.665 32.583 188.107 32.895 188.809 32.895ZM197.89 29.554C197.786 29.021 197.331 28.449 196.538 28.449C195.589 28.449 194.965 29.216 194.965 30.672C194.965 32.18 195.628 32.83 196.59 32.83C197.422 32.83 197.799 32.284 197.955 31.738H199.593C199.333 33.194 198.241 34.182 196.538 34.182C194.38 34.182 193.197 32.7 193.197 30.646C193.197 28.618 194.471 27.11 196.551 27.11C198.189 27.11 199.346 28.085 199.528 29.554H197.89ZM200.292 28.501V27.305H201.137V25.238H202.866V27.305H204.062V28.501H202.866V31.881C202.866 32.648 203.061 32.726 203.724 32.726H204.088V34H203.269C202.567 34 202.294 33.987 202.073 33.935C201.553 33.818 201.267 33.519 201.176 32.882C201.15 32.713 201.137 32.492 201.137 32.206V28.501H200.292ZM204.849 31.803H206.5C206.513 32.609 207.228 32.947 207.982 32.947C208.528 32.947 209.243 32.726 209.243 32.076C209.243 31.595 208.723 31.452 207.735 31.192L207.15 31.036C206.084 30.75 205.057 30.373 205.057 29.112C205.057 27.682 206.461 27.11 207.891 27.11C209.386 27.11 210.634 27.656 210.777 29.307H209.165C209.113 28.566 208.593 28.319 207.839 28.319C207.228 28.319 206.734 28.514 206.734 28.956C206.734 29.424 207.241 29.554 207.969 29.736L208.684 29.918C209.802 30.204 210.985 30.646 210.985 31.933C210.985 33.454 209.672 34.169 207.969 34.169C206.435 34.169 204.927 33.584 204.849 31.803ZM217.068 24.9V34H215.248V24.9H217.068ZM218.123 24.9H220.047L221.737 30.464C221.919 31.049 222.036 31.53 222.127 31.92H222.153C222.231 31.569 222.374 31.023 222.556 30.425L224.233 24.9H226.118L222.998 34H221.165L218.123 24.9ZM228.925 34H227.131V24.9L233.657 24.9V26.33L228.925 26.33V28.488L233.072 28.488V29.931H228.925V34ZM237.059 31.192H238.801C238.918 32.336 239.763 32.739 240.829 32.739C241.895 32.739 242.662 32.349 242.662 31.53C242.662 30.711 241.713 30.477 240.699 30.217L239.88 30.009C238.268 29.593 237.267 28.982 237.267 27.409C237.267 25.667 238.84 24.731 240.712 24.731C242.545 24.731 244.105 25.511 244.209 27.513H242.506C242.389 26.551 241.726 26.148 240.686 26.148C239.672 26.148 239.048 26.59 239.048 27.227C239.048 27.89 239.451 28.15 240.881 28.501L241.882 28.748C242.649 28.943 244.482 29.372 244.482 31.309C244.482 33.012 243.13 34.169 240.777 34.169C238.619 34.169 237.189 33.272 237.059 31.192ZM248.703 32.752C249.418 32.752 249.99 32.258 249.99 31.101V27.305H251.719V34H250.055V33.259H250.042C249.73 33.753 249.08 34.169 248.105 34.169C247.052 34.169 246.168 33.675 245.83 32.479C245.739 32.167 245.687 31.738 245.687 30.997V27.305H247.416V30.997C247.416 31.322 247.442 31.595 247.494 31.79C247.676 32.505 248.144 32.752 248.703 32.752ZM257.723 29.554C257.619 29.021 257.164 28.449 256.371 28.449C255.422 28.449 254.798 29.216 254.798 30.672C254.798 32.18 255.461 32.83 256.423 32.83C257.255 32.83 257.632 32.284 257.788 31.738H259.426C259.166 33.194 258.074 34.182 256.371 34.182C254.213 34.182 253.03 32.7 253.03 30.646C253.03 28.618 254.304 27.11 256.384 27.11C258.022 27.11 259.179 28.085 259.361 29.554H257.723ZM264.909 29.554C264.805 29.021 264.35 28.449 263.557 28.449C262.608 28.449 261.984 29.216 261.984 30.672C261.984 32.18 262.647 32.83 263.609 32.83C264.441 32.83 264.818 32.284 264.974 31.738H266.612C266.352 33.194 265.26 34.182 263.557 34.182C261.399 34.182 260.216 32.7 260.216 30.646C260.216 28.618 261.49 27.11 263.57 27.11C265.208 27.11 266.365 28.085 266.547 29.554H264.909ZM272.172 32.05H273.966C273.498 33.324 272.419 34.169 270.82 34.169C268.675 34.169 267.388 32.648 267.388 30.633C267.388 28.618 268.688 27.097 270.729 27.097C272.406 27.097 273.472 28.111 273.875 29.541C273.992 29.957 274.044 30.425 274.044 30.945V31.114L269.156 31.114C269.247 32.31 269.975 32.804 270.82 32.804C271.561 32.804 271.977 32.427 272.172 32.05ZM270.729 28.371C269.832 28.371 269.234 29.034 269.156 29.918H272.276C272.25 29.034 271.665 28.371 270.729 28.371ZM274.851 31.803H276.502C276.515 32.609 277.23 32.947 277.984 32.947C278.53 32.947 279.245 32.726 279.245 32.076C279.245 31.595 278.725 31.452 277.737 31.192L277.152 31.036C276.086 30.75 275.059 30.373 275.059 29.112C275.059 27.682 276.463 27.11 277.893 27.11C279.388 27.11 280.636 27.656 280.779 29.307H279.167C279.115 28.566 278.595 28.319 277.841 28.319C277.23 28.319 276.736 28.514 276.736 28.956C276.736 29.424 277.243 29.554 277.971 29.736L278.686 29.918C279.804 30.204 280.987 30.646 280.987 31.933C280.987 33.454 279.674 34.169 277.971 34.169C276.437 34.169 274.929 33.584 274.851 31.803ZM281.745 31.803H283.396C283.409 32.609 284.124 32.947 284.878 32.947C285.424 32.947 286.139 32.726 286.139 32.076C286.139 31.595 285.619 31.452 284.631 31.192L284.046 31.036C282.98 30.75 281.953 30.373 281.953 29.112C281.953 27.682 283.357 27.11 284.787 27.11C286.282 27.11 287.53 27.656 287.673 29.307H286.061C286.009 28.566 285.489 28.319 284.735 28.319C284.124 28.319 283.63 28.514 283.63 28.956C283.63 29.424 284.137 29.554 284.865 29.736L285.58 29.918C286.698 30.204 287.881 30.646 287.881 31.933C287.881 33.454 286.568 34.169 284.865 34.169C283.331 34.169 281.823 33.584 281.745 31.803ZM292.143 34V24.9H296.082C296.693 24.9 297.083 24.952 297.395 25.043C298.526 25.368 299.215 26.265 299.215 27.409C299.215 28.878 298.344 29.463 297.434 29.684V29.71C297.85 29.762 298.24 29.918 298.526 30.256C298.786 30.555 298.942 30.919 298.994 31.673L299.02 32.063C299.059 32.7 299.098 33.675 299.241 33.961V34H297.447C297.252 33.454 297.278 32.596 297.187 31.868C297.109 31.179 296.862 30.737 296.329 30.529C296.108 30.438 295.861 30.399 295.445 30.399H293.937V34H292.143ZM293.937 26.33V29.034H295.679C296.004 29.034 296.264 29.008 296.459 28.956C297.07 28.787 297.46 28.358 297.46 27.643C297.46 26.98 297.083 26.564 296.446 26.408C296.251 26.356 295.991 26.33 295.666 26.33H293.937ZM302.154 29.333L300.568 29.307C300.659 27.773 301.868 27.11 303.493 27.11C304.637 27.11 305.807 27.487 306.158 28.592C306.262 28.917 306.314 29.32 306.314 29.957V33.077C306.314 33.519 306.353 33.753 306.47 33.961V34H304.858L304.819 33.428H304.806C304.494 33.727 303.961 34.182 302.791 34.182C301.387 34.182 300.243 33.376 300.243 32.076C300.243 30.308 302.232 30.035 303.662 29.827L303.948 29.788C304.429 29.723 304.598 29.554 304.598 29.19C304.598 28.696 304.182 28.345 303.428 28.345C303.038 28.345 302.713 28.436 302.492 28.618C302.297 28.787 302.18 29.021 302.154 29.333ZM303.155 32.895C303.753 32.895 304.39 32.661 304.598 32.063C304.637 31.946 304.663 31.829 304.663 31.504V30.659C304.507 30.724 304.156 30.828 303.688 30.945L303.272 31.049C302.765 31.179 302.414 31.296 302.219 31.491C302.089 31.621 302.011 31.803 302.011 32.011C302.011 32.583 302.453 32.895 303.155 32.895ZM307.364 28.501V27.305H308.209V25.238H309.938V27.305H311.134V28.501H309.938V31.881C309.938 32.648 310.133 32.726 310.796 32.726L311.16 32.726V34H310.341C309.639 34 309.366 33.987 309.145 33.935C308.625 33.818 308.339 33.519 308.248 32.882C308.222 32.713 308.209 32.492 308.209 32.206V28.501H307.364ZM316.682 32.05H318.476C318.008 33.324 316.929 34.169 315.33 34.169C313.185 34.169 311.898 32.648 311.898 30.633C311.898 28.618 313.198 27.097 315.239 27.097C316.916 27.097 317.982 28.111 318.385 29.541C318.502 29.957 318.554 30.425 318.554 30.945V31.114L313.666 31.114C313.757 32.31 314.485 32.804 315.33 32.804C316.071 32.804 316.487 32.427 316.682 32.05ZM315.239 28.371C314.342 28.371 313.744 29.034 313.666 29.918L316.786 29.918C316.76 29.034 316.175 28.371 315.239 28.371ZM319.361 31.803H321.012C321.025 32.609 321.74 32.947 322.494 32.947C323.04 32.947 323.755 32.726 323.755 32.076C323.755 31.595 323.235 31.452 322.247 31.192L321.662 31.036C320.596 30.75 319.569 30.373 319.569 29.112C319.569 27.682 320.973 27.11 322.403 27.11C323.898 27.11 325.146 27.656 325.289 29.307H323.677C323.625 28.566 323.105 28.319 322.351 28.319C321.74 28.319 321.246 28.514 321.246 28.956C321.246 29.424 321.753 29.554 322.481 29.736L323.196 29.918C324.314 30.204 325.497 30.646 325.497 31.933C325.497 33.454 324.184 34.169 322.481 34.169C320.947 34.169 319.439 33.584 319.361 31.803Z" fill="white"/>
<path d="M14.256 311.4V312.456L15.264 312.128L15.48 312.792L14.472 313.128L15.096 313.976L14.528 314.384L13.904 313.536L13.288 314.384L12.72 313.976L13.336 313.12L12.336 312.792L12.552 312.128L13.552 312.456V311.4H14.256ZM16.0365 315.272H17.1085C17.1805 315.976 17.7005 316.224 18.3565 316.224C19.0125 316.224 19.4845 315.984 19.4845 315.48C19.4845 314.976 18.9005 314.832 18.2765 314.672L17.7725 314.544C16.7805 314.288 16.1645 313.912 16.1645 312.944C16.1645 311.872 17.1325 311.296 18.2845 311.296C19.4125 311.296 20.3725 311.776 20.4365 313.008H19.3885C19.3165 312.416 18.9085 312.168 18.2685 312.168C17.6445 312.168 17.2605 312.44 17.2605 312.832C17.2605 313.24 17.5085 313.4 18.3885 313.616L19.0045 313.768C19.4765 313.888 20.6045 314.152 20.6045 315.344C20.6045 316.392 19.7725 317.104 18.3245 317.104C16.9965 317.104 16.1165 316.552 16.0365 315.272ZM23.1703 317.112C21.8663 317.112 21.0983 316.184 21.0983 314.936C21.0983 313.688 21.9143 312.76 23.1703 312.76C24.4263 312.76 25.2423 313.688 25.2423 314.936C25.2423 316.184 24.4583 317.112 23.1703 317.112ZM23.1703 313.584C22.5783 313.584 22.1863 314.088 22.1863 314.952C22.1863 315.824 22.5703 316.28 23.1703 316.28C23.7703 316.28 24.1543 315.824 24.1543 314.952C24.1543 314.088 23.7623 313.584 23.1703 313.584ZM27.8098 316.232C28.2498 316.232 28.6018 315.928 28.6018 315.216V312.88H29.6658V317H28.6418V316.544H28.6338C28.4418 316.848 28.0418 317.104 27.4418 317.104C26.7938 317.104 26.2498 316.8 26.0418 316.064C25.9858 315.872 25.9538 315.608 25.9538 315.152V312.88H27.0178V315.152C27.0178 315.352 27.0338 315.52 27.0658 315.64C27.1778 316.08 27.4658 316.232 27.8098 316.232ZM31.7045 313.368H31.7205C31.8565 313.048 32.2085 312.752 32.8325 312.752H32.9045V313.736C32.8245 313.728 32.7525 313.72 32.6805 313.72C32.0405 313.72 31.7445 314.088 31.7445 314.824V317H30.6805V312.88H31.7045V313.368ZM36.0617 314.264C35.9977 313.936 35.7177 313.584 35.2297 313.584C34.6457 313.584 34.2617 314.056 34.2617 314.952C34.2617 315.88 34.6697 316.28 35.2617 316.28C35.7737 316.28 36.0057 315.944 36.1017 315.608H37.1097C36.9497 316.504 36.2777 317.112 35.2297 317.112C33.9017 317.112 33.1737 316.2 33.1737 314.936C33.1737 313.688 33.9577 312.76 35.2377 312.76C36.2457 312.76 36.9577 313.36 37.0697 314.264H36.0617ZM40.4916 315.8H41.5956C41.3076 316.584 40.6436 317.104 39.6596 317.104C38.3396 317.104 37.5476 316.168 37.5476 314.928C37.5476 313.688 38.3476 312.752 39.6036 312.752C40.6356 312.752 41.2916 313.376 41.5396 314.256C41.6116 314.512 41.6436 314.8 41.6436 315.12V315.224H38.6356C38.6916 315.96 39.1396 316.264 39.6596 316.264C40.1156 316.264 40.3716 316.032 40.4916 315.8ZM39.6036 313.536C39.0516 313.536 38.6836 313.944 38.6356 314.488H40.5556C40.5396 313.944 40.1796 313.536 39.6036 313.536ZM43.5402 312.88V314.04H42.3402V312.88H43.5402ZM43.5402 315.84V317H42.3402V315.84H43.5402ZM45.9821 315.272H47.0541C47.1261 315.976 47.6461 316.224 48.3021 316.224C48.9581 316.224 49.4301 315.984 49.4301 315.48C49.4301 314.976 48.8461 314.832 48.2221 314.672L47.7181 314.544C46.7261 314.288 46.1101 313.912 46.1101 312.944C46.1101 311.872 47.0781 311.296 48.2301 311.296C49.3581 311.296 50.3181 311.776 50.3821 313.008H49.3341C49.2621 312.416 48.8541 312.168 48.2141 312.168C47.5901 312.168 47.2061 312.44 47.2061 312.832C47.2061 313.24 47.4541 313.4 48.3341 313.616L48.9501 313.768C49.4221 313.888 50.5501 314.152 50.5501 315.344C50.5501 316.392 49.7181 317.104 48.2701 317.104C46.9421 317.104 46.0621 316.552 45.9821 315.272ZM56.5159 317V314.784C56.5159 314.536 56.4999 314.368 56.4599 314.224C56.3639 313.856 56.1399 313.648 55.7399 313.648C55.3239 313.648 54.9719 313.952 54.9719 314.664V317H53.9079V314.784C53.9079 314.536 53.8919 314.368 53.8519 314.224C53.7559 313.856 53.5319 313.648 53.1319 313.648C52.7159 313.648 52.3639 313.952 52.3639 314.664V317H51.2999V312.88H52.3239V313.336H52.3319C52.5239 313.032 52.9159 312.752 53.4999 312.752C54.0279 312.752 54.4519 312.968 54.7079 313.376C54.9479 313.064 55.4039 312.752 56.0679 312.752C56.7719 312.752 57.2839 313.056 57.4919 313.792C57.5479 313.984 57.5799 314.248 57.5799 314.704V317H56.5159ZM58.5489 312.32V311.4H59.6129V312.32H58.5489ZM58.5489 317V312.88H59.6129V317H58.5489ZM60.3221 313.616V312.88H60.8421V311.608H61.9061V312.88H62.6421V313.616H61.9061V315.696C61.9061 316.168 62.0261 316.216 62.4341 316.216H62.6581V317H62.1541C61.7221 317 61.5541 316.992 61.4181 316.96C61.0981 316.888 60.9221 316.704 60.8661 316.312C60.8501 316.208 60.8421 316.072 60.8421 315.896V313.616H60.3221ZM65.2628 313.624C64.9268 313.624 64.6788 313.8 64.5508 314.08C64.4868 314.224 64.4548 314.392 64.4548 314.752V317H63.3908V311.4H64.4548V313.288H64.4628C64.6548 313.024 65.0228 312.752 65.6308 312.752C66.2788 312.752 66.8388 313.056 67.0468 313.792C67.1028 313.984 67.1348 314.248 67.1348 314.704V317H66.0708V314.784C66.0708 314.384 66.0468 314.224 65.9748 314.056C65.8468 313.776 65.5988 313.624 65.2628 313.624ZM72.5457 315.8H73.6497C73.3617 316.584 72.6977 317.104 71.7137 317.104C70.3937 317.104 69.6017 316.168 69.6017 314.928C69.6017 313.688 70.4017 312.752 71.6577 312.752C72.6897 312.752 73.3457 313.376 73.5937 314.256C73.6657 314.512 73.6977 314.8 73.6977 315.12V315.224H70.6897C70.7457 315.96 71.1937 316.264 71.7137 316.264C72.1697 316.264 72.4257 316.032 72.5457 315.8ZM71.6577 313.536C71.1057 313.536 70.7377 313.944 70.6897 314.488H72.6097C72.5937 313.944 72.2337 313.536 71.6577 313.536ZM74.0762 313.616V312.88H74.5962V311.608H75.6602V312.88H76.3962V313.616H75.6602V315.696C75.6602 316.168 75.7802 316.216 76.1882 316.216H76.4122V317H75.9082C75.4762 317 75.3082 316.992 75.1722 316.96C74.8522 316.888 74.6762 316.704 74.6202 316.312C74.6042 316.208 74.5962 316.072 74.5962 315.896V313.616H74.0762ZM79.8137 314.128L78.8377 314.112C78.8937 313.168 79.6377 312.76 80.6377 312.76C81.3417 312.76 82.0617 312.992 82.2777 313.672C82.3417 313.872 82.3737 314.12 82.3737 314.512V316.432C82.3737 316.704 82.3977 316.848 82.4697 316.976V317H81.4777L81.4537 316.648H81.4457C81.2537 316.832 80.9257 317.112 80.2057 317.112C79.3417 317.112 78.6377 316.616 78.6377 315.816C78.6377 314.728 79.8617 314.56 80.7417 314.432L80.9177 314.408C81.2137 314.368 81.3177 314.264 81.3177 314.04C81.3177 313.736 81.0617 313.52 80.5977 313.52C80.3577 313.52 80.1577 313.576 80.0217 313.688C79.9017 313.792 79.8297 313.936 79.8137 314.128ZM80.4297 316.32C80.7977 316.32 81.1897 316.176 81.3177 315.808C81.3417 315.736 81.3577 315.664 81.3577 315.464V314.944C81.2617 314.984 81.0457 315.048 80.7577 315.12L80.5017 315.184C80.1897 315.264 79.9737 315.336 79.8537 315.456C79.7737 315.536 79.7257 315.648 79.7257 315.776C79.7257 316.128 79.9977 316.32 80.4297 316.32ZM83.3383 317V311.4H84.4023V317H83.3383ZM86.7084 312.88H87.8044L88.4684 315.144L88.6524 315.8H88.6684L88.8524 315.144L89.5324 312.88H90.6044L89.1644 317H88.0844L86.7084 312.88ZM91.1324 312.32V311.4H92.1964V312.32H91.1324ZM91.1324 317V312.88H92.1964V317H91.1324ZM94.1216 314.128L93.1456 314.112C93.2016 313.168 93.9456 312.76 94.9456 312.76C95.6496 312.76 96.3696 312.992 96.5856 313.672C96.6496 313.872 96.6816 314.12 96.6816 314.512V316.432C96.6816 316.704 96.7056 316.848 96.7776 316.976V317H95.7856L95.7616 316.648H95.7536C95.5616 316.832 95.2336 317.112 94.5136 317.112C93.6496 317.112 92.9456 316.616 92.9456 315.816C92.9456 314.728 94.1696 314.56 95.0496 314.432L95.2256 314.408C95.5216 314.368 95.6256 314.264 95.6256 314.04C95.6256 313.736 95.3696 313.52 94.9056 313.52C94.6656 313.52 94.4656 313.576 94.3296 313.688C94.2096 313.792 94.1376 313.936 94.1216 314.128ZM94.7376 316.32C95.1056 316.32 95.4976 316.176 95.6256 315.808C95.6496 315.736 95.6656 315.664 95.6656 315.464V314.944C95.5696 314.984 95.3536 315.048 95.0656 315.12L94.8096 315.184C94.4976 315.264 94.2816 315.336 94.1616 315.456C94.0816 315.536 94.0336 315.648 94.0336 315.776C94.0336 316.128 94.3056 316.32 94.7376 316.32ZM100.563 317H99.459V311.4H103.475V312.28H100.563V313.608H103.115V314.496H100.563V317ZM106.66 315.8H107.764C107.476 316.584 106.812 317.104 105.828 317.104C104.508 317.104 103.716 316.168 103.716 314.928C103.716 313.688 104.516 312.752 105.772 312.752C106.804 312.752 107.46 313.376 107.708 314.256C107.78 314.512 107.812 314.8 107.812 315.12V315.224H104.804C104.86 315.96 105.308 316.264 105.828 316.264C106.284 316.264 106.54 316.032 106.66 315.8ZM105.772 313.536C105.22 313.536 104.852 313.944 104.804 314.488H106.724C106.708 313.944 106.348 313.536 105.772 313.536ZM109.597 313.368H109.613C109.749 313.048 110.101 312.752 110.725 312.752H110.797V313.736C110.717 313.728 110.645 313.72 110.573 313.72C109.933 313.72 109.637 314.088 109.637 314.824V317H108.573V312.88H109.597V313.368ZM111.104 313.616V312.88H111.624V311.608H112.688V312.88H113.424V313.616H112.688V315.696C112.688 316.168 112.808 316.216 113.216 316.216H113.44V317H112.936C112.504 317 112.336 316.992 112.2 316.96C111.88 316.888 111.704 316.704 111.648 316.312C111.632 316.208 111.624 316.072 111.624 315.896V313.616H111.104ZM114.173 312.32V311.4H115.237V312.32H114.173ZM114.173 317V312.88H115.237V317H114.173ZM116.25 317V311.4H117.314V317H116.25ZM118.327 312.32V311.4H119.391V312.32H118.327ZM118.327 317V312.88H119.391V317H118.327ZM120.1 313.616V312.88H120.62V311.608H121.684V312.88H122.42V313.616H121.684V315.696C121.684 316.168 121.804 316.216 122.212 316.216H122.436V317H121.932C121.5 317 121.332 316.992 121.196 316.96C120.876 316.888 120.7 316.704 120.644 316.312C120.628 316.208 120.62 316.072 120.62 315.896V313.616H120.1ZM122.705 312.88H123.801L124.497 315.152L124.681 315.832H124.697L124.881 315.152L125.601 312.88H126.673L125.001 317.472C124.713 318.264 124.361 318.376 123.577 318.376H123.017V317.568H123.297C123.913 317.568 124.113 317.376 124.113 317.056C124.113 316.84 123.969 316.552 123.897 316.336L122.705 312.88ZM129.984 311.4V317H128.864V311.4H129.984ZM133.441 317.104C131.809 317.104 130.849 315.936 130.849 314.2C130.849 312.504 131.873 311.296 133.441 311.296C135.017 311.296 136.041 312.504 136.041 314.2C136.041 315.016 135.825 315.704 135.433 316.208L135.993 316.752L135.433 317.304L134.849 316.736C134.457 316.976 133.985 317.104 133.441 317.104ZM133.665 315.568L134.225 315.008L134.673 315.456C134.841 315.112 134.921 314.672 134.921 314.2C134.921 313.104 134.425 312.176 133.441 312.176C132.465 312.176 131.969 313.104 131.969 314.2C131.969 315.336 132.457 316.224 133.441 316.224C133.713 316.224 133.953 316.168 134.145 316.048L133.665 315.568Z" fill="white"/>
</g>
<defs>
<clipPath id="clip0_1128_14509">
<rect width="350" height="329" fill="white"/>
</clipPath>
</defs>
</svg>
