<svg width="313" height="259" viewBox="0 0 313 259" fill="none" xmlns="http://www.w3.org/2000/svg">
<path d="M5.10156 7.00242L6.84356 6.99812C6.96336 8.14182 7.80936 8.54272 8.87536 8.54002C9.94136 8.53732 10.7075 8.14542 10.7054 7.32642C10.7034 6.50742 9.75376 6.27582 8.73916 6.01832L7.91956 5.81242C6.30656 5.40042 5.30406 4.79192 5.30016 3.21892C5.29576 1.47692 6.86646 0.53702 8.73846 0.53232C10.5715 0.52772 12.1334 1.30392 12.2424 3.30562L10.5394 3.30982C10.42 2.34812 9.75596 1.94682 8.71596 1.94942C7.70196 1.95192 7.07906 2.39552 7.08066 3.03252C7.08236 3.69552 7.48596 3.95442 8.91686 4.30192L9.91846 4.54642C10.686 4.73952 12.52 5.16392 12.5249 7.10092C12.5291 8.80392 11.18 9.96432 8.82696 9.97012C6.66896 9.97552 5.23676 9.08212 5.10156 7.00242ZM15.2853 5.11802L13.6992 5.09602C13.7864 3.56172 14.9937 2.89572 16.6187 2.89172C17.7627 2.88882 18.9337 3.26292 19.2874 4.36702C19.3922 4.69182 19.4452 5.09472 19.4468 5.73172L19.4546 8.85162C19.4557 9.29362 19.4953 9.52752 19.6128 9.73522L19.6129 9.77422L18.0009 9.77832L17.9605 9.20642H17.9475C17.6362 9.50622 17.1043 9.96252 15.9344 9.96542C14.5304 9.96892 13.3844 9.16582 13.3811 7.86582C13.3767 6.09782 15.365 5.81982 16.7945 5.60832L17.0804 5.56852C17.5612 5.50232 17.7298 5.33292 17.7289 4.96892C17.7277 4.47492 17.3108 4.12502 16.5568 4.12682C16.1668 4.12782 15.842 4.21962 15.6215 4.40222C15.4269 4.57172 15.3105 4.80602 15.2853 5.11802ZM16.2951 8.67752C16.8931 8.67602 17.5296 8.44042 17.7361 7.84192C17.7748 7.72482 17.8005 7.60782 17.7997 7.28282L17.7976 6.43782C17.6417 6.50322 17.291 6.60802 16.8233 6.72622L16.4075 6.83122C15.9009 6.96252 15.5502 7.08042 15.3556 7.27582C15.226 7.40622 15.1484 7.58842 15.1489 7.79642C15.1504 8.36842 15.5931 8.67932 16.2951 8.67752ZM29.5653 9.74952L29.5563 6.14852C29.5553 5.74552 29.5286 5.47252 29.463 5.23872C29.3055 4.64112 28.9407 4.30402 28.2907 4.30562C27.6147 4.30732 27.0439 4.80272 27.0468 5.95972L27.0563 9.75572L25.3273 9.76002L25.3183 6.15902C25.3173 5.75602 25.2906 5.48312 25.225 5.24932C25.0676 4.65162 24.7027 4.31462 24.0527 4.31622C23.3767 4.31792 22.8059 4.81332 22.8088 5.97032L22.8183 9.76632L21.0893 9.77062L21.0726 3.07562L22.7366 3.07142L22.7385 3.81242H22.7515C23.0622 3.31762 23.6981 2.86102 24.6471 2.85872C25.5051 2.85652 26.195 3.20582 26.6126 3.86782C27.0013 3.35982 27.7411 2.85102 28.8201 2.84832C29.9641 2.84542 30.7973 3.33742 31.1383 4.53252C31.2301 4.84432 31.2831 5.27322 31.285 6.01422L31.2943 9.74512L29.5653 9.74952ZM32.9396 11.9771L32.9173 3.04612L34.6073 3.04192L34.6088 3.63992L34.6218 3.63982C34.92 3.31412 35.5298 2.83162 36.5698 2.82902C38.1948 2.82492 39.589 4.12152 39.5945 6.33152C39.6001 8.56742 38.2514 9.89682 36.5744 9.90102C35.5864 9.90352 34.9483 9.46302 34.6612 9.02182L34.6686 11.9727L32.9396 11.9771ZM36.1441 4.16902C35.2081 4.17142 34.5731 4.96602 34.5767 6.39602C34.5802 7.82602 35.258 8.55232 36.155 8.55002C37.13 8.54762 37.7782 7.81802 37.7746 6.38802C37.7711 4.94502 37.1061 4.16662 36.1441 4.16902ZM40.9193 9.72122L40.8966 0.62122L42.6256 0.61692L42.6483 9.71692L40.9193 9.72122ZM48.7229 7.75172L50.5169 7.74722C50.052 9.02242 48.9751 9.87012 47.3761 9.87412C45.2311 9.87942 43.9404 8.36162 43.9353 6.34662C43.9303 4.33162 45.2265 2.80742 47.2675 2.80232C48.9445 2.79812 50.013 3.80952 50.4196 5.23852C50.5376 5.65422 50.5908 6.12212 50.5921 6.64212L50.5925 6.81112L45.7045 6.82322C45.7985 8.01902 46.5277 8.51122 47.3727 8.50912C48.1137 8.50722 48.5288 8.12922 48.7229 7.75172ZM47.2707 4.07632C46.3737 4.07862 45.7774 4.74302 45.7016 5.62722L48.8215 5.61952C48.7933 4.73552 48.2067 4.07402 47.2707 4.07632ZM56.7056 9.68182L54.9116 9.68632L54.889 0.586321L61.4149 0.57012L61.4185 2.00012L56.6865 2.01192L56.6919 4.16982L60.8389 4.15952L60.8425 5.60252L56.6955 5.61282L56.7056 9.68182ZM65.2711 8.41252C65.9861 8.41072 66.5569 7.91532 66.554 6.75832L66.5445 2.96232L68.2735 2.95802L68.2902 9.65302L66.6262 9.65712L66.6244 8.91612H66.6114C66.3006 9.41092 65.6516 9.82852 64.6767 9.83102C63.6237 9.83362 62.7384 9.34182 62.3974 8.14662C62.3057 7.83492 62.2526 7.40602 62.2508 6.66502L62.2416 2.97302L63.9706 2.96872L63.9798 6.66072C63.9806 6.98572 64.0072 7.25862 64.0597 7.45352C64.2435 8.16802 64.7121 8.41392 65.2711 8.41252ZM73.0325 4.15512C72.4865 4.15652 72.0842 4.44352 71.8774 4.89902C71.7739 5.13332 71.7226 5.40642 71.7241 5.99142L71.7332 9.64442L70.0042 9.64872L69.9875 2.95372L71.6515 2.94962L71.6533 3.69062L71.6663 3.69052C71.9771 3.19582 72.652 2.73912 73.627 2.73672C74.68 2.73402 75.5912 3.22582 75.9322 4.42092C76.024 4.73272 76.077 5.16162 76.0789 5.90262L76.0882 9.63352L74.3592 9.63782L74.3502 6.03692C74.3486 5.38692 74.3089 5.12702 74.1913 4.85432C73.9821 4.39982 73.5785 4.15382 73.0325 4.15512ZM80.7512 4.13592C80.2052 4.13732 79.8029 4.42432 79.5961 4.87982C79.4927 5.11402 79.4413 5.38722 79.4428 5.97222L79.4519 9.62522L77.7229 9.62952L77.7062 2.93452L79.3702 2.93032L79.3721 3.67132H79.3851C79.6958 3.17652 80.3707 2.71982 81.3457 2.71742C82.3987 2.71482 83.3099 3.20652 83.6509 4.40172C83.7427 4.71352 83.7957 5.14232 83.7976 5.88332L83.8069 9.61432L82.0779 9.61862L82.0689 6.01762C82.0673 5.36762 82.0277 5.10772 81.91 4.83502C81.7008 4.38052 81.2972 4.13452 80.7512 4.13592ZM89.8051 7.64942L91.5991 7.64492C91.1341 8.92012 90.0571 9.76772 88.4581 9.77172C86.3131 9.77712 85.0221 8.25932 85.0171 6.24432C85.0121 4.22932 86.3081 2.70512 88.3491 2.70002C90.0261 2.69582 91.0951 3.70712 91.5011 5.13612C91.6191 5.55182 91.6731 6.01972 91.6741 6.53972V6.70872L86.7861 6.72092C86.8801 7.91662 87.6101 8.40882 88.4551 8.40672C89.1961 8.40492 89.6111 8.02682 89.8051 7.64942ZM88.3531 3.97402C87.4561 3.97622 86.8591 4.64072 86.7831 5.52492L89.9031 5.51712C89.8751 4.63322 89.2881 3.97162 88.3531 3.97402ZM92.9831 9.59142L92.9601 0.49152L94.6891 0.487221L94.7121 9.58712L92.9831 9.59142ZM101.228 9.57092L99.4341 9.57542L99.4111 0.47542L105.937 0.45912L105.941 1.88912L101.209 1.90092L101.214 4.05892L105.361 4.04862L105.365 5.49162L101.218 5.50192L101.228 9.57092ZM108.444 3.65092L108.47 3.65082C108.69 3.13032 109.261 2.64792 110.275 2.64532L110.392 2.64512L110.396 4.24402C110.266 4.23142 110.149 4.21872 110.032 4.21902C108.992 4.22152 108.512 4.82072 108.515 6.01672L108.524 9.55272L106.795 9.55702L106.778 2.86212L108.442 2.85792L108.444 3.65092ZM114.266 9.72042C112.147 9.72572 110.895 8.22082 110.89 6.19282C110.885 4.16482 112.207 2.65352 114.248 2.64842C116.289 2.64342 117.619 4.14802 117.624 6.17602C117.629 8.20402 116.359 9.71522 114.266 9.72042ZM114.252 3.98742C113.29 3.98982 112.655 4.81042 112.658 6.21442C112.662 7.63142 113.288 8.37092 114.263 8.36842C115.238 8.36602 115.86 7.62342 115.856 6.20642C115.853 4.80252 115.214 3.98502 114.252 3.98742ZM127.408 9.50572L127.399 5.90472C127.398 5.50172 127.371 5.22882 127.305 4.99492C127.148 4.39732 126.783 4.06022 126.133 4.06182C125.457 4.06352 124.886 4.55892 124.889 5.71592L124.899 9.51192L123.17 9.51622L123.161 5.91522C123.16 5.51222 123.133 5.23932 123.067 5.00552C122.91 4.40792 122.545 4.07082 121.895 4.07242C121.219 4.07412 120.648 4.56952 120.651 5.72652L120.661 9.52252L118.932 9.52682L118.915 2.83182L120.579 2.82772L120.581 3.56872L120.594 3.56862C120.905 3.07392 121.54 2.61732 122.489 2.61492C123.347 2.61282 124.037 2.96212 124.455 3.62402C124.844 3.11602 125.583 2.60722 126.662 2.60452C127.806 2.60172 128.64 3.09362 128.981 4.28872C129.072 4.60052 129.125 5.02942 129.127 5.77042L129.137 9.50142L127.408 9.50572ZM135.581 9.48532L133.787 9.48982L133.765 0.38982L140.291 0.37352L140.294 1.80352L135.562 1.81532L135.568 3.97332L139.715 3.96302L139.718 5.40602L135.571 5.41632L135.581 9.48532ZM145.55 7.51052L147.344 7.50602C146.879 8.78122 145.802 9.62882 144.203 9.63282C142.058 9.63822 140.767 8.12042 140.762 6.10542C140.757 4.09042 142.053 2.56622 144.094 2.56112C145.771 2.55692 146.84 3.56822 147.246 4.99722C147.364 5.41292 147.418 5.88082 147.419 6.40082V6.56982L142.531 6.58202C142.625 7.77782 143.354 8.26992 144.199 8.26782C144.94 8.26602 145.356 7.88802 145.55 7.51052ZM144.097 3.83512C143.2 3.83732 142.604 4.50182 142.528 5.38602L145.648 5.37822C145.62 4.49432 145.033 3.83272 144.097 3.83512ZM150.377 3.54642H150.403C150.622 3.02582 151.193 2.54342 152.207 2.54092L152.324 2.54062L152.328 4.13962C152.198 4.12692 152.081 4.11422 151.964 4.11452C150.924 4.11712 150.445 4.71632 150.448 5.91232L150.456 9.44832L148.727 9.45262L148.711 2.75762L150.375 2.75342L150.377 3.54642ZM152.892 3.94322L152.889 2.74722L153.734 2.74512L153.729 0.67812L155.457 0.67382L155.463 2.74082L156.659 2.73782L156.662 3.93382L155.466 3.93682L155.474 7.31672C155.476 8.08372 155.671 8.16132 156.334 8.15962L156.698 8.15872L156.701 9.43272L155.882 9.43472C155.18 9.43652 154.907 9.42422 154.686 9.37272C154.166 9.25702 153.879 8.95872 153.787 8.32192C153.76 8.15302 153.747 7.93202 153.746 7.64602L153.737 3.94112L152.892 3.94322ZM157.938 1.82462L157.934 0.32962L159.663 0.325319L159.667 1.82032L157.938 1.82462ZM157.957 9.42962L157.94 2.73462L159.669 2.73032L159.686 9.42532L157.957 9.42962ZM161.397 9.42102L161.375 0.32102L163.104 0.316721L163.126 9.41672L161.397 9.42102ZM164.819 1.80742L164.815 0.31242L166.544 0.308121L166.548 1.80312L164.819 1.80742ZM164.838 9.41242L164.821 2.71742L166.55 2.71312L166.567 9.40812L164.838 9.41242ZM167.836 9.40492L167.833 8.06602L171.346 4.05322L168.005 4.06152L168.002 2.70952L173.5 2.69582L173.504 4.03482L169.978 8.03462L173.683 8.02542L173.686 9.39042L167.836 9.40492ZM179.217 7.42662L181.011 7.42212C180.547 8.69732 179.47 9.54502 177.871 9.54892C175.726 9.55432 174.435 8.03652 174.43 6.02152C174.425 4.00652 175.721 2.48232 177.762 2.47722C179.439 2.47302 180.508 3.48442 180.914 4.91332C181.032 5.32912 181.085 5.79692 181.087 6.31692V6.48592L176.199 6.49812C176.293 7.69392 177.022 8.18612 177.867 8.18402C178.608 8.18212 179.023 7.80412 179.217 7.42662ZM177.765 3.75122C176.868 3.75342 176.272 4.41792 176.196 5.30212L179.316 5.29432C179.288 4.41042 178.701 3.74892 177.765 3.75122ZM188.661 9.35312L186.971 9.35732L186.969 8.57732H186.956C186.62 9.13712 185.919 9.52892 185.022 9.53112C183.332 9.53532 181.989 8.21272 181.984 5.97672C181.978 3.76672 183.366 2.46322 184.991 2.45922C186.031 2.45662 186.604 2.88422 186.917 3.20842L186.91 0.25742L188.639 0.25312L188.661 9.35312ZM185.423 3.79712C184.461 3.79952 183.8 4.58122 183.804 6.02422C183.808 7.45412 184.459 8.18052 185.434 8.17812C186.331 8.17592 187.006 7.44622 187.002 6.01622C186.998 4.58622 186.359 3.79482 185.423 3.79712ZM199.527 3.81402L199.53 5.25702L195.175 5.26782L195.182 7.89382L200.2 7.88132L200.204 9.32432L193.392 9.34132L193.369 0.24132L200.103 0.22452L200.106 1.65452L195.166 1.66682L195.172 3.82482L199.527 3.81402ZM205.83 8.02332H205.817C205.532 8.42702 204.87 8.83172 203.921 8.83402C202.322 8.83802 200.993 7.67132 200.988 5.61732C200.983 3.60232 202.384 2.41582 203.879 2.41212C204.919 2.40952 205.505 2.85012 205.818 3.14832H205.831L205.83 2.61532L207.507 2.61112L207.522 8.81212C207.524 9.39712 207.434 9.78732 207.278 10.1257C206.787 11.1669 205.683 11.6767 204.266 11.6802C202.446 11.6847 201.339 10.6735 201.258 9.56872L203.013 9.56432C203.118 10.058 203.613 10.3818 204.367 10.3799C205.082 10.3782 205.549 10.104 205.743 9.44052C205.794 9.25842 205.82 9.02432 205.819 8.68632V8.60832C205.818 8.43932 205.818 8.23132 205.83 8.02332ZM205.889 5.60512C205.886 4.42212 205.157 3.74792 204.299 3.75012C203.428 3.75232 202.701 4.45612 202.704 5.62612C202.707 6.78312 203.424 7.49632 204.308 7.49412C205.166 7.49192 205.892 6.80112 205.889 5.60512ZM213.676 8.00372L213.663 8.00382C213.378 8.40752 212.716 8.81212 211.767 8.81452C210.168 8.81852 208.839 7.65182 208.834 5.59782C208.829 3.58282 210.23 2.39632 211.725 2.39262C212.765 2.39002 213.351 2.83052 213.664 3.12872H213.677L213.675 2.59572L215.352 2.59152L215.368 8.79252C215.369 9.37752 215.279 9.76772 215.124 10.1061C214.633 11.1474 213.529 11.6571 212.112 11.6606C210.292 11.6652 209.185 10.6539 209.104 9.54912L210.859 9.54482C210.964 10.0385 211.459 10.3623 212.213 10.3604C212.928 10.3586 213.395 10.0844 213.588 9.42102C213.64 9.23882 213.665 9.00482 213.665 8.66682L213.664 8.58882C213.664 8.41982 213.663 8.21182 213.676 8.00372ZM213.735 5.58562C213.732 4.40262 213.002 3.72842 212.144 3.73052C211.273 3.73272 210.547 4.43652 210.55 5.60652C210.553 6.76352 211.27 7.47672 212.154 7.47452C213.012 7.47242 213.738 6.78162 213.735 5.58562ZM216.579 7.08652L218.23 7.08242C218.245 7.88832 218.961 8.22462 219.715 8.22272C220.261 8.22132 220.976 7.99852 220.974 7.34852C220.973 6.86752 220.452 6.72582 219.464 6.46832L218.878 6.31382C217.812 6.03042 216.784 5.65602 216.781 4.39502C216.777 2.96502 218.18 2.38952 219.61 2.38592C221.105 2.38222 222.354 2.92512 222.501 4.57572L220.889 4.57982C220.835 3.83892 220.315 3.59322 219.561 3.59512C218.95 3.59662 218.456 3.79282 218.457 4.23482C218.458 4.70282 218.966 4.83152 219.694 5.01172L220.41 5.19192C221.528 5.47522 222.712 5.91422 222.716 7.20122C222.719 8.72222 221.408 9.44052 219.705 9.44472C218.171 9.44852 216.662 8.86732 216.579 7.08652ZM233.174 1.57212L230.418 1.57902L230.437 9.24902L228.617 9.25352L228.598 1.58352L225.842 1.59042L225.838 0.160419L233.17 0.14212L233.174 1.57212ZM235.798 9.41762C233.679 9.42292 232.427 7.91802 232.422 5.89002C232.417 3.86202 233.739 2.35072 235.78 2.34562C237.821 2.34062 239.151 3.84522 239.156 5.87322C239.161 7.90122 237.891 9.41242 235.798 9.41762ZM235.784 3.68462C234.822 3.68702 234.187 4.50762 234.19 5.91162C234.194 7.32862 234.819 8.06812 235.794 8.06562C236.769 8.06322 237.392 7.32062 237.388 5.90362C237.385 4.49972 236.746 3.68222 235.784 3.68462ZM243.474 9.21652L243.452 0.11652L247.378 0.10672C247.82 0.10562 248.132 0.130919 248.431 0.182119C249.575 0.387319 250.305 1.07442 250.308 2.27042C250.311 3.41442 249.675 3.98802 249.078 4.26252V4.28852C249.846 4.53362 250.745 5.23342 250.748 6.54642C250.751 7.82042 250.012 8.66722 248.96 9.00782C248.557 9.13882 248.18 9.20482 247.478 9.20652L243.474 9.21652ZM245.249 1.50302L245.255 3.75202L247.127 3.74742C247.478 3.74652 247.699 3.70702 247.881 3.64152C248.4 3.45822 248.542 3.04182 248.541 2.56082C248.54 2.07992 248.344 1.74232 247.797 1.58772C247.602 1.53622 247.316 1.49792 246.965 1.49882L245.249 1.50302ZM245.258 5.06502L245.265 7.79502L247.241 7.79012C247.709 7.78892 247.956 7.74932 248.177 7.67082C248.8 7.44822 248.981 6.94082 248.979 6.36882C248.978 5.83582 248.756 5.36832 248.157 5.17482C247.923 5.09742 247.663 5.05902 247.234 5.06012L245.258 5.06502ZM252.08 9.19512L252.057 0.0951195L253.786 0.0908203L253.809 9.19072L252.08 9.19512ZM256.99 4.51582L255.404 4.49382C255.492 2.95952 256.699 2.29352 258.324 2.28952C259.468 2.28662 260.639 2.66072 260.993 3.76482C261.097 4.08962 261.15 4.49242 261.152 5.12942L261.16 8.24942C261.161 8.69142 261.2 8.92532 261.318 9.13302V9.17202L259.706 9.17612L259.666 8.60422H259.653C259.341 8.90402 258.81 9.36032 257.64 9.36322C256.236 9.36672 255.09 8.56362 255.086 7.26362C255.082 5.49562 257.07 5.21762 258.5 5.00602L258.786 4.96632C259.266 4.90012 259.435 4.73072 259.434 4.36672C259.433 3.87272 259.016 3.52282 258.262 3.52462C257.872 3.52562 257.547 3.61742 257.327 3.80002C257.132 3.96942 257.016 4.20372 256.99 4.51582ZM258 8.07532C258.598 8.07382 259.235 7.83822 259.441 7.23972C259.48 7.12262 259.506 7.00552 259.505 6.68052L259.503 5.83552C259.347 5.90092 258.996 6.00582 258.528 6.12402L258.113 6.22902C257.606 6.36032 257.255 6.47822 257.061 6.67362C256.931 6.80402 256.854 6.98622 256.854 7.19422C256.856 7.76622 257.298 8.07702 258 8.07532ZM262.295 6.97262L263.946 6.96852C263.961 7.77442 264.677 8.11072 265.431 8.10882C265.977 8.10742 266.691 7.88462 266.69 7.23462C266.688 6.75362 266.168 6.61192 265.179 6.35442L264.594 6.19992C263.527 5.91652 262.499 5.54212 262.496 4.28112C262.493 2.85112 263.895 2.27562 265.325 2.27202C266.82 2.26832 268.07 2.81122 268.217 4.46182L266.605 4.46582C266.551 3.72502 266.03 3.47932 265.276 3.48122C264.665 3.48272 264.172 3.67892 264.173 4.12092C264.174 4.58892 264.681 4.71762 265.41 4.89782L266.125 5.07802C267.244 5.36132 268.428 5.80032 268.431 7.08732C268.435 8.60832 267.124 9.32662 265.421 9.33082C263.887 9.33462 262.377 8.75342 262.295 6.97262ZM269.117 3.65362L269.114 2.45762L269.959 2.45552L269.954 0.388519L271.683 0.38422L271.688 2.45122L272.884 2.44822L272.887 3.64422L271.691 3.64722L271.699 7.02722C271.701 7.79422 271.896 7.87172 272.559 7.87002L272.923 7.86912L272.927 9.14312L272.108 9.14522C271.406 9.14692 271.133 9.13462 270.911 9.08312C270.391 8.96742 270.104 8.66912 270.012 8.03242C269.985 7.86342 269.972 7.64252 269.971 7.35652L269.962 3.65152L269.117 3.65362ZM277.032 9.31492C274.913 9.32022 273.661 7.81532 273.656 5.78732C273.651 3.75932 274.973 2.24802 277.014 2.24292C279.055 2.23782 280.385 3.74252 280.39 5.77052C280.395 7.79852 279.125 9.30972 277.032 9.31492ZM277.018 3.58192C276.056 3.58432 275.421 4.40492 275.424 5.80892C275.428 7.22592 276.054 7.96532 277.029 7.96292C278.004 7.96052 278.626 7.21792 278.622 5.80092C278.619 4.39692 277.98 3.57952 277.018 3.58192ZM285.977 4.66462C285.871 4.13182 285.415 3.56102 284.622 3.56302C283.673 3.56532 283.051 4.33392 283.054 5.78992C283.058 7.29792 283.723 7.94622 284.685 7.94382C285.517 7.94172 285.892 7.39482 286.047 6.84842L287.685 6.84432C287.429 8.30102 286.339 9.29172 284.636 9.29592C282.478 9.30132 281.292 7.82232 281.286 5.76832C281.281 3.74032 282.552 2.22912 284.632 2.22392C286.27 2.21982 287.429 3.19202 287.615 4.66052L285.977 4.66462ZM288.024 2.41052L289.805 2.40602L290.945 6.09522L291.247 7.19952L291.273 7.19942L291.569 6.09372L292.73 2.39882L294.472 2.39442L291.773 9.86322C291.309 11.1513 290.737 11.3347 289.463 11.3379L288.553 11.3402L288.55 10.0272L289.005 10.0261C290.006 10.0236 290.33 9.71082 290.329 9.19082C290.328 8.83982 290.093 8.37232 289.975 8.02162L288.024 2.41052ZM294.757 6.89172L296.408 6.88762C296.423 7.69362 297.139 8.02982 297.893 8.02792C298.439 8.02652 299.153 7.80382 299.151 7.15382C299.15 6.67282 298.63 6.53112 297.641 6.27352L297.056 6.11902C295.989 5.83562 294.961 5.46122 294.958 4.20022C294.955 2.77022 296.357 2.19472 297.787 2.19122C299.282 2.18742 300.531 2.73032 300.679 4.38102L299.067 4.38502C299.013 3.64412 298.492 3.39842 297.738 3.40032C297.127 3.40182 296.634 3.59802 296.635 4.04002C296.636 4.50802 297.143 4.63682 297.872 4.81692L298.587 4.99722C299.706 5.28042 300.89 5.71942 300.893 7.00642C300.897 8.52742 299.586 9.24572 297.883 9.24992C296.349 9.25382 294.839 8.67252 294.757 6.89172ZM301.579 3.57272L301.576 2.37672L302.421 2.37462L302.416 0.307621L304.145 0.30332L304.15 2.37032L305.346 2.36732L305.349 3.56332L304.153 3.56632L304.161 6.94632C304.163 7.71332 304.358 7.79082 305.021 7.78912L305.385 7.78822L305.388 9.06222L304.569 9.06432C303.867 9.06602 303.594 9.05372 303.373 9.00232C302.853 8.88662 302.566 8.58832 302.474 7.95152C302.447 7.78262 302.434 7.56162 302.433 7.27562L302.424 3.57062L301.579 3.57272ZM306.144 6.86332L307.795 6.85922C307.81 7.66522 308.526 8.00142 309.28 7.99952C309.826 7.99822 310.541 7.77542 310.539 7.12542C310.538 6.64442 310.018 6.50272 309.029 6.24522L308.444 6.09062C307.377 5.80732 306.349 5.43282 306.346 4.17182C306.342 2.74182 307.745 2.16632 309.175 2.16282C310.67 2.15912 311.919 2.70192 312.066 4.35262L310.454 4.35662C310.4 3.61572 309.88 3.37002 309.126 3.37192C308.515 3.37342 308.021 3.56972 308.022 4.01172C308.024 4.47972 308.531 4.60842 309.259 4.78862L309.975 4.96882C311.093 5.25202 312.278 5.69112 312.281 6.97812C312.285 8.49912 310.973 9.21732 309.27 9.22162C307.736 9.22542 306.227 8.64412 306.144 6.86332Z" fill="white"/>
<path d="M104.612 208.423L103.588 208.426C103.585 207.146 104.367 206.4 105.543 206.397C106.687 206.394 107.417 207.064 107.419 208.12C107.422 209.008 106.951 209.561 106.28 210.051L105.905 210.324C105.466 210.645 105.002 210.942 104.907 211.214L107.515 211.208L107.517 212.096L103.533 212.106C103.61 210.874 104.433 210.24 105.367 209.541L105.519 209.421C106.046 209.02 106.365 208.691 106.363 208.147C106.362 207.619 106.025 207.308 105.513 207.309C104.865 207.311 104.611 207.823 104.612 208.423ZM110.156 212.089L110.142 206.489L112.302 206.484C112.95 206.482 113.27 206.562 113.622 206.721C114.447 207.103 114.993 207.941 114.997 209.245C114.999 210.373 114.602 211.302 113.779 211.768C113.419 211.969 113.02 212.082 112.372 212.084L110.156 212.089ZM111.248 207.367L111.257 211.199L112.273 211.196C112.625 211.195 112.825 211.147 113.033 211.05C113.513 210.825 113.871 210.304 113.869 209.368C113.866 208.376 113.585 207.673 112.776 207.443C112.584 207.387 112.304 207.364 112.056 207.365L111.248 207.367ZM116.832 208.441H116.848C116.984 208.12 117.335 207.823 117.959 207.822H118.031L118.033 208.806C117.953 208.798 117.881 208.79 117.809 208.79C117.169 208.792 116.874 209.161 116.876 209.897L116.881 212.073L115.817 212.075L115.807 207.955L116.831 207.953L116.832 208.441ZM120.375 212.176C119.071 212.179 118.301 211.253 118.298 210.005C118.294 208.757 119.108 207.827 120.364 207.824C121.62 207.821 122.438 208.747 122.442 209.995C122.445 211.243 121.663 212.173 120.375 212.176ZM120.366 208.648C119.774 208.649 119.383 209.154 119.386 210.018C119.388 210.89 119.773 211.345 120.373 211.344C120.973 211.342 121.356 210.885 121.354 210.013C121.351 209.149 120.958 208.646 120.366 208.648ZM123.21 213.433L123.196 207.937L124.236 207.934L124.237 208.302H124.245C124.428 208.102 124.804 207.805 125.444 207.803C126.444 207.801 127.302 208.599 127.305 209.959C127.308 211.335 126.478 212.153 125.446 212.155C124.838 212.157 124.446 211.886 124.269 211.614L124.274 213.43L123.21 213.433ZM125.182 208.628C124.606 208.629 124.215 209.118 124.217 209.998C124.219 210.878 124.636 211.325 125.188 211.324C125.788 211.322 126.187 210.873 126.185 209.993C126.183 209.105 125.774 208.626 125.182 208.628ZM132.221 212.138C130.589 212.142 129.626 210.977 129.622 209.241C129.618 207.545 130.639 206.334 132.207 206.33C133.783 206.327 134.81 207.532 134.814 209.228C134.818 210.964 133.853 212.134 132.221 212.138ZM132.209 207.21C131.233 207.213 130.739 208.142 130.742 209.238C130.745 210.374 131.235 211.261 132.219 211.258C133.211 211.256 133.697 210.367 133.694 209.231C133.691 208.135 133.193 207.208 132.209 207.21ZM137.431 211.253C137.871 211.252 138.223 210.947 138.221 210.235L138.215 207.899L139.279 207.897L139.289 212.017L138.265 212.019L138.264 211.563H138.256C138.065 211.868 137.665 212.125 137.065 212.126C136.417 212.128 135.873 211.825 135.663 211.09C135.606 210.898 135.574 210.634 135.573 210.178L135.567 207.906L136.631 207.903L136.637 210.175C136.637 210.375 136.654 210.543 136.686 210.663C136.799 211.103 137.087 211.254 137.431 211.253ZM139.991 208.631L139.99 207.895L140.51 207.894L140.506 206.622L141.57 206.619L141.574 207.891L142.31 207.889L142.311 208.625L141.575 208.627L141.581 210.707C141.582 211.179 141.702 211.227 142.11 211.226L142.334 211.225L142.336 212.009L141.832 212.01C141.4 212.012 141.232 212.004 141.096 211.972C140.776 211.901 140.599 211.718 140.542 211.326C140.526 211.222 140.518 211.086 140.517 210.91L140.511 208.63L139.991 208.631Z" fill="white"/>
<path d="M29.8906 36.4969L30.8826 36.4944C30.9878 36.9982 31.3887 37.3332 31.9087 37.3319C32.5087 37.3304 32.9395 36.8653 32.9378 36.1933C32.9363 35.5693 32.5191 35.1063 31.9111 35.1079C31.5431 35.1088 31.2635 35.2695 31.0722 35.5259L30.0322 35.5285L30.5046 32.5034L33.6886 32.4954L33.6908 33.3594L31.2748 33.3654L31.062 34.638L31.078 34.6539C31.2696 34.4775 31.6291 34.3006 32.1411 34.2993C33.2291 34.2966 33.9191 35.1029 33.9218 36.1589C33.9246 37.2868 33.1428 38.1928 31.8948 38.1959C30.7108 38.1989 29.941 37.4488 29.8906 36.4969ZM40.3085 34.6869L40.3108 35.5749L37.6308 35.5816L37.6348 37.1976L40.7228 37.1899L40.725 38.0779L36.533 38.0884L36.5191 32.4884L40.663 32.478L40.6652 33.358L37.6252 33.3656L37.6286 34.6936L40.3085 34.6869ZM44.1476 37.2774H44.1396C43.9642 37.5258 43.5568 37.7749 42.9728 37.7763C41.9888 37.7788 41.171 37.0608 41.1679 35.7968C41.1648 34.5568 42.027 33.8267 42.947 33.8244C43.587 33.8228 43.9476 34.0939 44.1401 34.2774H44.1481L44.1473 33.9494L45.1793 33.9468L45.1888 37.7628C45.1897 38.1228 45.1343 38.3629 45.0388 38.5712C44.7364 39.2119 44.0572 39.5256 43.1852 39.5278C42.0652 39.5306 41.3836 38.9083 41.3339 38.2284L42.4139 38.2257C42.4787 38.5295 42.7832 38.7288 43.2472 38.7276C43.6872 38.7265 43.9748 38.5578 44.0937 38.1495C44.1255 38.0374 44.1411 37.8934 44.1406 37.6854L44.1405 37.6374C44.1402 37.5334 44.1399 37.4054 44.1476 37.2774ZM44.1839 35.7893C44.1821 35.0613 43.733 34.6464 43.205 34.6477C42.669 34.6491 42.2221 35.0822 42.2239 35.8022C42.2257 36.5142 42.6668 36.9531 43.2108 36.9517C43.7388 36.9504 44.1857 36.5253 44.1839 35.7893ZM48.9357 37.2654L48.9277 37.2655C48.7523 37.5139 48.3449 37.7629 47.7609 37.7644C46.7769 37.7668 45.9591 37.0489 45.956 35.7849C45.9529 34.5449 46.8151 33.8147 47.7351 33.8124C48.3751 33.8108 48.7358 34.0819 48.9282 34.2655L48.9362 34.2654L48.9354 33.9374L49.9674 33.9349L49.9769 37.7509C49.9778 38.1109 49.9224 38.351 49.8269 38.5592C49.5245 39.2 48.8453 39.5137 47.9733 39.5159C46.8533 39.5186 46.1717 38.8963 46.122 38.2165L47.202 38.2138C47.2668 38.5176 47.5713 38.7169 48.0353 38.7157C48.4753 38.7146 48.7629 38.5459 48.8819 38.1376C48.9136 38.0255 48.9292 37.8815 48.9287 37.6735L48.9286 37.6255C48.9283 37.5215 48.928 37.3935 48.9357 37.2654ZM48.972 35.7774C48.9702 35.0494 48.5211 34.6345 47.9931 34.6358C47.4571 34.6371 47.0102 35.0702 47.012 35.7902C47.0138 36.5022 47.4549 36.9411 47.9989 36.9398C48.5269 36.9385 48.9738 36.5134 48.972 35.7774ZM50.6824 36.7011L51.6984 36.6986C51.7076 37.1945 52.1482 37.4014 52.6122 37.4003C52.9482 37.3995 53.3878 37.2624 53.3868 36.8624C53.3861 36.5664 53.0659 36.4792 52.4575 36.3207L52.0972 36.2256C51.4408 36.0512 50.8082 35.8208 50.8063 35.0448C50.8041 34.1648 51.6672 33.8106 52.5472 33.8084C53.4672 33.8061 54.236 34.1402 54.3266 35.156L53.3346 35.1585C53.3014 34.7026 52.9811 34.5514 52.5171 34.5525C52.1411 34.5535 51.8374 34.6742 51.838 34.9462C51.8388 35.2342 52.151 35.3134 52.5992 35.4243L53.0395 35.5352C53.7279 35.7095 54.4566 35.9797 54.4586 36.7717C54.4609 37.7077 53.654 38.1497 52.606 38.1523C51.662 38.1547 50.7331 37.797 50.6824 36.7011ZM58.1088 38.0346L57.0048 38.0373L56.9909 32.4374L61.0069 32.4274L61.009 33.3074L58.0971 33.3146L58.1004 34.6426L60.6524 34.6362L60.6546 35.5242L58.1026 35.5306L58.1088 38.0346ZM64.2032 36.8194L65.3072 36.8167C65.0211 37.6014 64.3584 38.123 63.3744 38.1255C62.0544 38.1288 61.2601 37.1947 61.257 35.9547C61.2539 34.7147 62.0516 33.7768 63.3076 33.7736C64.3396 33.7711 64.9971 34.3934 65.2473 35.2728C65.32 35.5286 65.3527 35.8165 65.3535 36.1365L65.3537 36.2405L62.3458 36.248C62.4036 36.9839 62.8523 37.2868 63.3723 37.2855C63.8283 37.2843 64.0838 37.0517 64.2032 36.8194ZM63.3095 34.5576C62.7575 34.559 62.3906 34.9679 62.3439 35.512L64.2639 35.5073C64.2466 34.9633 63.8855 34.5562 63.3095 34.5576ZM67.1337 34.3801H67.1497C67.2849 34.0597 67.6362 33.7628 68.2602 33.7613L68.3322 33.7611L68.3347 34.7451C68.2546 34.7373 68.1826 34.7295 68.1106 34.7297C67.4706 34.7313 67.1755 35.1 67.1774 35.836L67.1828 38.012L66.1188 38.0146L66.1085 33.8947L67.1325 33.8921L67.1337 34.3801ZM68.6414 34.6243L68.6395 33.8883L69.1595 33.887L69.1563 32.6151L70.2203 32.6124L70.2235 33.8844L70.9595 33.8826L70.9613 34.6186L70.2253 34.6204L70.2305 36.7004C70.2317 37.1724 70.3518 37.2201 70.7598 37.2191L70.9838 37.2185L70.9858 38.0025L70.4818 38.0038C70.0498 38.0048 69.8818 37.9973 69.7457 37.9656C69.4255 37.8944 69.249 37.7108 69.1921 37.319C69.1758 37.215 69.1675 37.079 69.167 36.903L69.1613 34.623L68.6414 34.6243ZM71.7068 33.3207L71.7045 32.4007L72.7685 32.3981L72.7708 33.3181L71.7068 33.3207ZM71.7185 38.0007L71.7082 33.8807L72.7722 33.878L72.7825 37.998L71.7185 38.0007ZM73.7956 37.9955L73.7817 32.3955L74.8457 32.3929L74.8596 37.9929L73.7956 37.9955ZM75.8612 33.3104L75.8589 32.3904L76.9229 32.3877L76.9252 33.3077L75.8612 33.3104ZM75.8728 37.9903L75.8626 33.8703L76.9266 33.8677L76.9368 37.9877L75.8728 37.9903ZM77.678 37.9858L77.676 37.1618L79.8378 34.6924L77.7818 34.6976L77.7797 33.8656L81.1637 33.8571L81.1658 34.6811L78.9959 37.1426L81.2759 37.1369L81.278 37.9769L77.678 37.9858ZM84.6422 36.7685L85.7462 36.7657C85.4602 37.5504 84.7972 38.0721 83.8131 38.0746C82.4931 38.0778 81.6988 37.1438 81.6957 35.9038C81.6926 34.6638 82.4903 33.7258 83.7463 33.7227C84.7782 33.7201 85.4362 34.3425 85.6862 35.2219C85.7582 35.4777 85.7912 35.7656 85.7922 36.0856V36.1896L82.7844 36.1971C82.8423 36.933 83.291 37.2359 83.811 37.2346C84.2672 37.2334 84.5222 37.0008 84.6422 36.7685ZM83.7482 34.5067C83.1962 34.5081 82.8293 34.917 82.7826 35.4611L84.7022 35.4563C84.6852 34.9124 84.3242 34.5053 83.7482 34.5067Z" fill="#ECC069"/>
<path d="M132.961 36.4301C133.002 37.134 133.372 37.5651 134.052 37.5634C134.756 37.5616 135.098 37.1288 135.097 36.6168C135.096 36.0168 134.599 35.746 133.879 35.7478L133.647 35.7484L133.645 34.9564L133.829 34.9559C134.485 34.9543 134.916 34.6892 134.915 34.1452C134.914 33.7852 134.665 33.4259 134.041 33.4274C133.369 33.4291 133.09 33.9338 133.092 34.3818L132.116 34.3842C132.161 33.3281 132.895 32.6063 134.087 32.6033C135.239 32.6004 135.937 33.1827 135.939 34.0227C135.94 34.7267 135.581 35.0476 135.198 35.2485V35.2565C135.694 35.4233 136.151 35.8702 136.153 36.6302C136.156 37.7262 135.286 38.4083 134.062 38.4114C132.758 38.4146 132.004 37.6725 131.969 36.4326L132.961 36.4301ZM142.143 38.2872L141.087 38.2899L140.127 35.1322C139.998 34.7086 139.893 34.2528 139.828 33.949H139.812C139.821 34.261 139.854 34.7249 139.856 35.3649L139.863 38.2929L138.799 38.2956L138.785 32.6956L140.409 32.6915L141.337 35.7932C141.49 36.2969 141.555 36.6407 141.62 36.9285H141.636C141.699 36.6403 141.778 36.2881 141.913 35.7918L142.761 32.6857L144.409 32.6816L144.423 38.2816L143.359 38.2842L143.352 35.3402C143.35 34.7722 143.389 34.2521 143.396 33.9401H143.38C143.309 34.2443 143.206 34.7166 143.079 35.1409L142.143 38.2872ZM146.358 35.4047L145.382 35.3912C145.436 34.447 146.179 34.0372 147.179 34.0347C147.883 34.0329 148.603 34.2631 148.821 34.9426C148.885 35.1424 148.918 35.3903 148.919 35.7823L148.924 37.7023C148.924 37.9743 148.949 38.1183 149.021 38.2461V38.2701L148.029 38.2726L148.004 37.9206L147.996 37.9207C147.805 38.1051 147.477 38.3859 146.757 38.3877C145.893 38.3899 145.188 37.8956 145.186 37.0957C145.183 36.0077 146.407 35.8366 147.287 35.7064L147.463 35.682C147.759 35.6412 147.862 35.537 147.862 35.313C147.861 35.009 147.604 34.7936 147.14 34.7948C146.9 34.7954 146.701 34.8519 146.565 34.9642C146.445 35.0685 146.373 35.2127 146.358 35.4047ZM146.979 37.5952C147.347 37.5943 147.739 37.4493 147.866 37.081C147.89 37.0089 147.906 36.9369 147.905 36.7369L147.904 36.2169C147.808 36.2571 147.592 36.3217 147.304 36.3944L147.049 36.459C146.737 36.5398 146.521 36.6123 146.401 36.7326C146.321 36.8128 146.274 36.9249 146.274 37.0529C146.275 37.4049 146.547 37.5963 146.979 37.5952ZM149.89 38.2679L149.876 32.668L150.94 32.6653L150.947 35.6813L152.423 34.1416L153.719 34.1384L152.131 35.6783L153.85 38.2581L152.594 38.2612L151.429 36.3841L150.95 36.8413L150.954 38.2653L149.89 38.2679ZM156.777 37.0508L157.881 37.048C157.595 37.8327 156.932 38.3544 155.948 38.3568C154.628 38.3601 153.834 37.4261 153.831 36.1861C153.828 34.9461 154.625 34.0081 155.881 34.005C156.913 34.0024 157.571 34.6248 157.821 35.5042C157.894 35.76 157.926 36.0479 157.927 36.3679V36.4719L154.919 36.4794C154.977 37.2153 155.426 37.5181 155.946 37.5168C156.402 37.5157 156.657 37.2831 156.777 37.0508ZM155.883 34.789C155.331 34.7904 154.964 35.1993 154.918 35.7434L156.838 35.7386C156.82 35.1947 156.459 34.7876 155.883 34.789ZM160.438 33.5616L160.435 32.6416L161.499 32.639L161.502 33.559L160.438 33.5616ZM160.449 38.2416L160.439 34.1216L161.503 34.119L161.513 38.239L160.449 38.2416ZM162.214 34.8532L162.212 34.1172L162.732 34.1159L162.729 32.8439L163.793 32.8413L163.796 34.1133L164.532 34.1114L164.534 34.8474L163.798 34.8493L163.803 36.9293C163.804 37.4013 163.925 37.449 164.333 37.4479L164.557 37.4474L164.558 38.2314L164.054 38.2326C163.622 38.2337 163.454 38.2261 163.318 38.1945C162.998 38.1233 162.822 37.9397 162.765 37.5479C162.749 37.4439 162.74 37.3079 162.74 37.1319L162.734 34.8519L162.214 34.8532ZM170.914 33.4955L169.218 33.4998L169.229 38.2197L168.109 38.2225L168.098 33.5026L166.402 33.5068L166.4 32.6268L170.912 32.6155L170.914 33.4955ZM172.488 38.3236C171.184 38.3269 170.414 37.4008 170.411 36.1528C170.408 34.9048 171.222 33.9748 172.478 33.9716C173.734 33.9685 174.552 34.8945 174.555 36.1425C174.558 37.3905 173.776 38.3204 172.488 38.3236ZM172.48 34.7956C171.888 34.7971 171.497 35.3021 171.499 36.1661C171.501 37.0381 171.886 37.4931 172.486 37.4916C173.086 37.4901 173.469 37.0332 173.467 36.1612C173.465 35.2972 173.072 34.7942 172.48 34.7956ZM180.768 36.423L181.84 36.4203C181.579 37.557 180.693 38.2952 179.445 38.2983C177.805 38.3024 176.858 37.0647 176.854 35.4247C176.849 33.7688 177.798 32.4944 179.47 32.4902C180.678 32.4872 181.624 33.2129 181.811 34.4124L180.763 34.415C180.674 33.8472 180.168 33.3765 179.472 33.3782C178.488 33.3807 177.971 34.214 177.974 35.422C177.977 36.622 178.514 37.4126 179.466 37.4102C180.138 37.4086 180.585 37.0075 180.768 36.423ZM182.544 38.1866L182.53 32.5866L183.594 32.5839L183.608 38.1839L182.544 38.1866ZM187.306 36.9747L188.41 36.972C188.124 37.7567 187.462 38.2783 186.478 38.2808C185.158 38.2841 184.363 37.35 184.36 36.11C184.357 34.87 185.155 33.9321 186.411 33.9289C187.443 33.9264 188.1 34.5487 188.351 35.4281C188.423 35.6839 188.456 35.9718 188.457 36.2918V36.3958L185.449 36.4033C185.507 37.1392 185.956 37.4421 186.476 37.4408C186.932 37.4396 187.187 37.207 187.306 36.9747ZM186.413 34.7129C185.861 34.7143 185.494 35.1232 185.447 35.6673L187.367 35.6626C187.35 35.1186 186.989 34.7115 186.413 34.7129ZM190.127 35.2957L189.151 35.2821C189.204 34.338 189.947 33.9281 190.947 33.9256C191.651 33.9239 192.372 34.1541 192.59 34.8335C192.654 35.0334 192.687 35.2813 192.688 35.6733L192.693 37.5933C192.693 37.8653 192.718 38.0092 192.79 38.137V38.161L191.798 38.1635L191.773 37.8116H191.765C191.574 37.9961 191.246 38.2769 190.526 38.2787C189.662 38.2808 188.957 37.7866 188.955 36.9866C188.952 35.8986 190.176 35.7276 191.056 35.5974L191.232 35.5729C191.527 35.5322 191.631 35.4279 191.631 35.2039C191.63 34.8999 191.373 34.6846 190.909 34.6857C190.669 34.6863 190.469 34.7428 190.334 34.8552C190.214 34.9595 190.142 35.1036 190.127 35.2957ZM190.748 37.4861C191.116 37.4852 191.508 37.3402 191.635 36.9719C191.659 36.8999 191.675 36.8278 191.674 36.6278L191.673 36.1078C191.577 36.1481 191.361 36.2126 191.073 36.2853L190.818 36.35C190.506 36.4307 190.29 36.5033 190.17 36.6236C190.09 36.7038 190.043 36.8159 190.043 36.9439C190.044 37.2959 190.316 37.4872 190.748 37.4861ZM193.122 34.0402L194.218 34.0375L194.887 36.2998L195.073 36.9554L195.089 36.9553L195.271 36.2989L195.946 34.0332L197.018 34.0305L195.588 38.1541L194.508 38.1568L193.122 34.0402ZM198.367 35.2751L197.391 35.2616C197.445 34.3174 198.188 33.9076 199.188 33.9051C199.892 33.9033 200.612 34.1335 200.83 34.813C200.895 35.0128 200.927 35.2608 200.928 35.6528L200.933 37.5728C200.934 37.8448 200.958 37.9887 201.03 38.1165V38.1405L200.038 38.143L200.013 37.791L200.005 37.7911C199.814 37.9755 199.487 38.2564 198.767 38.2582C197.903 38.2603 197.197 37.7661 197.195 36.9661C197.193 35.8781 198.416 35.707 199.296 35.5768L199.472 35.5524C199.768 35.5117 199.871 35.4074 199.871 35.1834C199.87 34.8794 199.614 34.664 199.15 34.6652C198.91 34.6658 198.71 34.7223 198.574 34.8346C198.454 34.9389 198.383 35.0831 198.367 35.2751ZM198.989 37.4656C199.357 37.4647 199.748 37.3197 199.875 36.9514C199.899 36.8793 199.915 36.8073 199.914 36.6073L199.913 36.0873C199.817 36.1275 199.601 36.1921 199.314 36.2648L199.058 36.3294C198.746 36.4102 198.53 36.4827 198.41 36.603C198.331 36.6832 198.283 36.7954 198.283 36.9234C198.284 37.2754 198.557 37.4667 198.989 37.4656ZM204.633 37.3395L204.625 37.3396C204.45 37.588 204.042 37.837 203.458 37.8385C202.474 37.8409 201.656 37.123 201.653 35.859C201.65 34.619 202.512 33.8888 203.432 33.8865C204.072 33.8849 204.433 34.156 204.625 34.3395H204.633V34.0115L205.665 34.009L205.674 37.8249C205.675 38.1849 205.62 38.4251 205.524 38.6333C205.222 39.2741 204.542 39.5878 203.67 39.5899C202.55 39.5927 201.869 38.9704 201.819 38.2906L202.899 38.2879C202.964 38.5917 203.269 38.7909 203.732 38.7898C204.172 38.7887 204.46 38.62 204.579 38.2117C204.611 38.0996 204.626 37.9556 204.626 37.7476V37.6996C204.626 37.5956 204.625 37.4676 204.633 37.3395ZM204.669 35.8514C204.667 35.1234 204.218 34.7086 203.69 34.7099C203.154 34.7112 202.707 35.1443 202.709 35.8643C202.711 36.5763 203.152 37.0152 203.696 37.0139C204.224 37.0126 204.671 36.5874 204.669 35.8514ZM209.372 36.9197L210.476 36.917C210.19 37.7017 209.527 38.2233 208.543 38.2258C207.223 38.2291 206.429 37.2951 206.426 36.0551C206.423 34.8151 207.22 33.8771 208.476 33.874C209.508 33.8714 210.166 34.4937 210.416 35.3731C210.489 35.6289 210.521 35.9169 210.522 36.2369L210.523 36.3409L207.515 36.3484C207.572 37.0842 208.021 37.3871 208.541 37.3858C208.997 37.3847 209.253 37.152 209.372 36.9197ZM208.478 34.6579C207.926 34.6593 207.559 35.0682 207.513 35.6124L209.433 35.6076C209.415 35.0636 209.054 34.6565 208.478 34.6579Z" fill="#ECC069"/>
<path d="M247.923 34.7982L246.899 34.8008C246.896 33.5208 247.678 32.7748 248.854 32.7719C249.998 32.769 250.728 33.4392 250.73 34.4952C250.732 35.3832 250.262 35.9364 249.591 36.4261L249.216 36.699C248.777 37.0201 248.313 37.3173 248.218 37.5895L250.826 37.583L250.828 38.471L246.844 38.4809C246.921 37.2487 247.744 36.6147 248.678 35.9163L248.829 35.796C249.356 35.3946 249.676 35.0659 249.674 34.5219C249.673 33.9939 249.336 33.6827 248.824 33.684C248.176 33.6856 247.922 34.1982 247.923 34.7982ZM256.811 38.4561L255.755 38.4587L254.795 35.3011C254.666 34.8774 254.561 34.4217 254.496 34.1178L254.48 34.1179C254.489 34.4299 254.522 34.8938 254.523 35.5338L254.531 38.4618L253.467 38.4644L253.453 32.8644L255.077 32.8604L256.004 35.9621C256.158 36.4657 256.222 36.8095 256.287 37.0974L256.303 37.0973C256.366 36.8092 256.446 36.457 256.58 35.9607L257.429 32.8545L259.077 32.8504L259.091 38.4504L258.027 38.4531L258.019 35.5091C258.018 34.9411 258.057 34.421 258.064 34.109H258.048C257.977 34.4132 257.874 34.8854 257.747 35.3097L256.811 38.4561ZM261.025 35.5736L260.049 35.56C260.103 34.6159 260.846 34.206 261.846 34.2035C262.55 34.2018 263.271 34.432 263.488 35.1114C263.553 35.3113 263.585 35.5592 263.586 35.9512L263.591 37.8712C263.592 38.1432 263.616 38.2871 263.689 38.415V38.439L262.697 38.4414L262.672 38.0895H262.664C262.472 38.274 262.145 38.5548 261.425 38.5566C260.561 38.5587 259.856 38.0645 259.854 37.2645C259.851 36.1765 261.074 36.0055 261.954 35.8753L262.13 35.8508C262.426 35.8101 262.53 35.7058 262.529 35.4818C262.528 35.1778 262.272 34.9625 261.808 34.9636C261.568 34.9642 261.368 35.0207 261.232 35.1331C261.113 35.2374 261.041 35.3815 261.025 35.5736ZM261.647 37.764C262.015 37.7631 262.407 37.6181 262.534 37.2498C262.557 37.1778 262.573 37.1057 262.573 36.9057L262.571 36.3857C262.476 36.426 262.26 36.4905 261.972 36.5632L261.716 36.6279C261.404 36.7086 261.188 36.7812 261.069 36.9015C260.989 36.9817 260.941 37.0938 260.942 37.2218C260.942 37.5738 261.215 37.7651 261.647 37.764ZM264.557 38.4368L264.543 32.8368L265.607 32.8342L265.615 35.8501L267.091 34.3105L268.387 34.3072L266.799 35.8472L268.517 38.4269L267.261 38.43L266.096 36.5529L265.618 37.0101L265.621 38.4341L264.557 38.4368ZM271.444 37.2196L272.548 37.2169C272.262 38.0016 271.6 38.5232 270.616 38.5257C269.296 38.529 268.501 37.595 268.498 36.355C268.495 35.115 269.293 34.177 270.549 34.1738C271.581 34.1713 272.238 34.7936 272.488 35.673C272.561 35.9288 272.594 36.2168 272.595 36.5368V36.6408L269.587 36.6482C269.645 37.3841 270.093 37.687 270.613 37.6857C271.069 37.6846 271.325 37.4519 271.444 37.2196ZM270.551 34.9578C269.999 34.9592 269.632 35.3681 269.585 35.9123L271.505 35.9075C271.488 35.3635 271.127 34.9564 270.551 34.9578ZM276.279 32.8076L276.293 38.4075L275.173 38.4103L275.159 32.8104L276.279 32.8076ZM277.014 35.0217L277.013 34.2857L277.533 34.2844L277.529 33.0124L278.593 33.0098L278.597 34.2818L279.333 34.28L279.334 35.016L278.598 35.0178L278.604 37.0978C278.605 37.5698 278.725 37.6175 279.133 37.6165L279.357 37.6159L279.359 38.3999L278.855 38.4012C278.423 38.4022 278.255 38.3947 278.119 38.363C277.798 38.2918 277.622 38.1082 277.565 37.7164C277.549 37.6124 277.54 37.4764 277.54 37.3004L277.534 35.0204L277.014 35.0217ZM285.714 33.6641L284.018 33.6683L284.03 38.3883L282.91 38.3911L282.898 33.6711L281.202 33.6753L281.2 32.7953L285.712 32.7841L285.714 33.6641ZM287.289 38.4922C285.985 38.4954 285.214 37.5693 285.211 36.3213C285.208 35.0733 286.022 34.1433 287.278 34.1402C288.534 34.137 289.352 35.063 289.355 36.311C289.358 37.559 288.577 38.4889 287.289 38.4922ZM287.28 34.9642C286.688 34.9656 286.297 35.4706 286.299 36.3346C286.301 37.2066 286.687 37.6616 287.287 37.6602C287.887 37.6587 288.269 37.2017 288.267 36.3297C288.265 35.4657 287.872 34.9627 287.28 34.9642ZM291.933 38.3686L291.919 32.7686L294.335 32.7626C294.607 32.7619 294.799 32.7774 294.983 32.809C295.687 32.9352 296.136 33.3581 296.138 34.0941C296.14 34.7981 295.749 35.1511 295.381 35.32V35.336C295.854 35.4868 296.407 35.9174 296.409 36.7254C296.411 37.5094 295.956 38.0306 295.308 38.2402C295.061 38.3208 294.829 38.3614 294.397 38.3624L291.933 38.3686ZM293.025 33.6218L293.028 35.0058L294.18 35.003C294.396 35.0024 294.532 34.9781 294.644 34.9378C294.964 34.825 295.051 34.5688 295.051 34.2728C295.05 33.9768 294.929 33.7691 294.593 33.6739C294.473 33.6422 294.297 33.6187 294.081 33.6192L293.025 33.6218ZM293.03 35.8138L293.035 37.4938L294.251 37.4908C294.539 37.4901 294.69 37.4657 294.826 37.4174C295.21 37.2804 295.321 36.9681 295.32 36.6161C295.32 36.2881 295.183 36.0005 294.815 35.8814C294.67 35.8338 294.51 35.8101 294.246 35.8108L293.03 35.8138ZM297.188 38.3555L297.174 32.7555L298.238 32.7529L298.252 38.3528L297.188 38.3555ZM300.17 35.476L299.194 35.4625C299.248 34.5183 299.991 34.1085 300.991 34.106C301.695 34.1042 302.415 34.3344 302.633 35.0139C302.698 35.2137 302.73 35.4617 302.731 35.8537L302.736 37.7737C302.737 38.0457 302.761 38.1896 302.833 38.3174V38.3414L301.841 38.3439L301.817 37.992H301.809C301.617 38.1765 301.29 38.4573 300.57 38.4591C299.706 38.4612 299.001 37.967 298.999 37.167C298.996 36.079 300.219 35.9079 301.099 35.7777L301.275 35.7533C301.571 35.7126 301.675 35.6083 301.674 35.3843C301.673 35.0803 301.417 34.8649 300.953 34.8661C300.713 34.8667 300.513 34.9232 300.377 35.0355C300.257 35.1398 300.186 35.284 300.17 35.476ZM300.792 37.6665C301.16 37.6656 301.551 37.5206 301.678 37.1523C301.702 37.0802 301.718 37.0082 301.718 36.8082L301.716 36.2882C301.62 36.3284 301.405 36.393 301.117 36.4657L300.861 36.5303C300.549 36.6111 300.333 36.6836 300.214 36.8039C300.134 36.8841 300.086 36.9963 300.086 37.1243C300.087 37.4763 300.36 37.6676 300.792 37.6665ZM303.395 36.988L304.411 36.9855C304.42 37.4815 304.86 37.6884 305.324 37.6872C305.66 37.6864 306.1 37.5493 306.099 37.1493C306.098 36.8533 305.778 36.7661 305.17 36.6076L304.809 36.5125C304.153 36.3381 303.52 36.1077 303.519 35.3317C303.516 34.4517 304.379 34.0976 305.259 34.0954C306.179 34.0931 306.948 34.4272 307.039 35.4429L306.047 35.4454C306.014 34.9895 305.693 34.8383 305.229 34.8394C304.853 34.8404 304.55 34.9611 304.55 35.2331C304.551 35.5211 304.863 35.6004 305.311 35.7112L305.752 35.8221C306.44 35.9964 307.169 36.2666 307.171 37.0586C307.173 37.9946 306.366 38.4366 305.318 38.4392C304.374 38.4416 303.445 38.0839 303.395 36.988ZM307.553 34.9457L307.551 34.2097L308.071 34.2084L308.068 32.9364L309.132 32.9337L309.135 34.2057L309.871 34.2039L309.873 34.9399L309.137 34.9417L309.142 37.0217C309.143 37.4937 309.263 37.5414 309.671 37.5404L309.895 37.5398L309.897 38.3238L309.393 38.3251C308.961 38.3262 308.793 38.3186 308.657 38.2869C308.337 38.2157 308.16 38.0321 308.103 37.6403C308.087 37.5363 308.079 37.4003 308.078 37.2243L308.073 34.9444L307.553 34.9457Z" fill="#ECC069"/>
<path d="M215.326 206.388L215.34 211.988L214.268 211.991L214.258 208.119L212.826 208.123L212.824 207.419C213.752 207.392 214.303 207.047 214.39 206.391L215.326 206.388ZM218.25 211.981L218.236 206.381L220.396 206.376C221.044 206.374 221.364 206.453 221.717 206.612C222.542 206.994 223.088 207.833 223.091 209.137C223.094 210.265 222.696 211.194 221.873 211.66C221.514 211.861 221.114 211.974 220.466 211.976L218.25 211.981ZM219.342 207.258L219.352 211.09L220.368 211.088C220.72 211.087 220.92 211.038 221.128 210.942C221.607 210.717 221.966 210.196 221.963 209.26C221.961 208.268 221.679 207.565 220.871 207.335C220.679 207.279 220.398 207.256 220.15 207.256L219.342 207.258ZM224.927 208.332H224.943C225.078 208.012 225.429 207.715 226.053 207.714L226.125 207.713L226.128 208.697C226.048 208.69 225.976 208.682 225.904 208.682C225.264 208.684 224.969 209.052 224.971 209.788L224.976 211.964L223.912 211.967L223.902 207.847L224.926 207.844L224.927 208.332ZM228.47 212.068C227.166 212.071 226.395 211.145 226.392 209.897C226.389 208.649 227.203 207.719 228.459 207.716C229.715 207.712 230.533 208.638 230.536 209.886C230.539 211.134 229.758 212.064 228.47 212.068ZM228.461 208.54C227.869 208.541 227.478 209.046 227.48 209.91C227.482 210.782 227.867 211.237 228.467 211.236C229.067 211.234 229.45 210.777 229.448 209.905C229.446 209.041 229.053 208.538 228.461 208.54ZM231.304 213.325L231.29 207.829L232.33 207.826L232.331 208.194H232.339C232.523 207.993 232.898 207.697 233.538 207.695C234.538 207.692 235.396 208.49 235.4 209.85C235.403 211.226 234.573 212.044 233.541 212.047C232.933 212.048 232.54 211.777 232.364 211.506L232.368 213.322L231.304 213.325ZM233.276 208.52C232.7 208.521 232.309 209.01 232.312 209.89C232.314 210.77 232.731 211.217 233.283 211.216C233.883 211.214 234.282 210.765 234.28 209.885C234.277 208.997 233.868 208.518 233.276 208.52ZM235.867 210.585L236.883 210.583C236.893 211.079 237.333 211.286 237.797 211.284C238.133 211.284 238.573 211.146 238.572 210.746C238.571 210.45 238.251 210.363 237.643 210.205L237.282 210.11C236.626 209.935 235.993 209.705 235.991 208.929C235.989 208.049 236.852 207.695 237.732 207.693C238.652 207.69 239.421 208.024 239.512 209.04L238.52 209.043C238.486 208.587 238.166 208.435 237.702 208.437C237.326 208.438 237.022 208.558 237.023 208.83C237.024 209.118 237.336 209.198 237.784 209.308L238.225 209.419C238.913 209.594 239.642 209.864 239.644 210.656C239.646 211.592 238.839 212.034 237.791 212.036C236.847 212.039 235.918 211.681 235.867 210.585ZM244.518 212.02C242.886 212.024 241.923 210.858 241.919 209.122C241.915 207.426 242.936 206.216 244.504 206.212C246.08 206.208 247.107 207.413 247.111 209.109C247.115 210.845 246.15 212.016 244.518 212.02ZM244.506 207.092C243.53 207.094 243.036 208.023 243.039 209.119C243.042 210.255 243.532 211.142 244.516 211.14C245.508 211.137 245.994 210.248 245.991 209.112C245.988 208.016 245.49 207.089 244.506 207.092ZM249.728 211.135C250.168 211.134 250.519 210.829 250.518 210.117L250.512 207.781L251.576 207.778L251.586 211.898L250.562 211.901L250.561 211.445H250.553C250.362 211.749 249.962 212.006 249.362 212.008C248.714 212.009 248.169 211.707 247.96 210.971C247.903 210.779 247.87 210.515 247.869 210.059L247.864 207.787L248.928 207.785L248.933 210.057C248.934 210.257 248.95 210.425 248.983 210.544C249.096 210.984 249.384 211.135 249.728 211.135ZM252.288 208.512L252.286 207.776L252.806 207.775L252.803 206.503L253.867 206.5L253.87 207.772L254.606 207.77L254.608 208.506L253.872 208.508L253.877 210.588C253.879 211.06 253.999 211.108 254.407 211.107L254.631 211.106L254.633 211.89L254.129 211.892C253.697 211.893 253.529 211.885 253.393 211.854C253.072 211.782 252.896 211.599 252.839 211.207C252.823 211.103 252.814 210.967 252.814 210.791L252.808 208.511L252.288 208.512Z" fill="white"/>
<path d="M35.2773 140.5C45.7708 140.5 54.2773 131.993 54.2773 121.5C54.2773 111.007 45.7708 102.5 35.2773 102.5C24.7839 102.5 16.2773 111.007 16.2773 121.5C16.2773 131.993 24.7839 140.5 35.2773 140.5Z" stroke="white"/>
<path d="M79.2773 116.5C89.7708 116.5 98.2773 107.993 98.2773 97.5C98.2773 87.0066 89.7708 78.5 79.2773 78.5C68.7839 78.5 60.2773 87.0066 60.2773 97.5C60.2773 107.993 68.7839 116.5 79.2773 116.5Z" stroke="white"/>
<path d="M79.2773 165.5C89.7708 165.5 98.2773 156.993 98.2773 146.5C98.2773 136.007 89.7708 127.5 79.2773 127.5C68.7839 127.5 60.2773 136.007 60.2773 146.5C60.2773 156.993 68.7839 165.5 79.2773 165.5Z" stroke="white"/>
<path d="M188.277 120.5C198.771 120.5 207.277 111.993 207.277 101.5C207.277 91.0066 198.771 82.5 188.277 82.5C177.784 82.5 169.277 91.0066 169.277 101.5C169.277 111.993 177.784 120.5 188.277 120.5Z" stroke="white"/>
<path d="M150.873 145C161.366 145 169.873 136.493 169.873 126C169.873 115.507 161.366 107 150.873 107C140.38 107 131.873 115.507 131.873 126C131.873 136.493 140.38 145 150.873 145Z" stroke="white"/>
<path d="M188.277 165C198.771 165 207.277 156.493 207.277 146C207.277 135.507 198.771 127 188.277 127C177.784 127 169.277 135.507 169.277 146C169.277 156.493 177.784 165 188.277 165Z" stroke="white"/>
<path d="M253.277 130.5C263.771 130.5 272.277 121.993 272.277 111.5C272.277 101.007 263.771 92.5 253.277 92.5C242.784 92.5 234.277 101.007 234.277 111.5C234.277 121.993 242.784 130.5 253.277 130.5Z" stroke="white"/>
<path d="M292.277 150.5C302.771 150.5 311.277 141.993 311.277 131.5C311.277 121.007 302.771 112.5 292.277 112.5C281.784 112.5 273.277 121.007 273.277 131.5C273.277 141.993 281.784 150.5 292.277 150.5Z" stroke="white"/>
<path d="M35.2773 184.5C45.7708 184.5 54.2773 175.993 54.2773 165.5C54.2773 155.007 45.7708 146.5 35.2773 146.5C24.7839 146.5 16.2773 155.007 16.2773 165.5C16.2773 175.993 24.7839 184.5 35.2773 184.5Z" stroke="white"/>
<path d="M122.623 199.507L125.279 194.381L119.512 194.644L122.623 199.507ZM96.0684 164.285C104.179 165.781 119.956 174.012 121.92 195.056L122.916 194.963C120.899 173.351 104.667 164.854 96.2504 163.302L96.0684 164.285Z" fill="white"/>
<path d="M233.778 199.507L236.434 194.381L230.667 194.644L233.778 199.507ZM207.223 164.285C215.334 165.781 231.111 174.012 233.075 195.056L234.071 194.963C232.053 173.351 215.821 164.854 207.405 163.302L207.223 164.285Z" fill="white"/>
<path d="M34.5 95.5C44.9934 95.5 53.5 86.9934 53.5 76.5C53.5 66.0066 44.9934 57.5 34.5 57.5C24.0066 57.5 15.5 66.0066 15.5 76.5C15.5 86.9934 24.0066 95.5 34.5 95.5Z" stroke="white"/>
<path d="M194 101.4C190.633 101.4 187.9 104.253 187.9 107.75C187.9 111.247 190.632 114.1 194 114.1C197.368 114.1 200.1 111.247 200.1 107.75C200.1 104.253 197.368 101.4 194 101.4ZM194 113.606C190.907 113.606 188.383 110.983 188.383 107.75C188.383 104.517 190.907 101.894 194 101.894C197.093 101.894 199.617 104.517 199.617 107.75C199.617 110.983 197.093 113.606 194 113.606Z" fill="#ECC069" stroke="#ECC069" stroke-width="0.2"/>
<path d="M182 101.4C178.633 101.4 175.9 104.253 175.9 107.75C175.9 111.247 178.632 114.1 182 114.1C185.368 114.1 188.1 111.247 188.1 107.75C188.1 104.253 185.368 101.4 182 101.4ZM182 113.606C178.907 113.606 176.383 110.983 176.383 107.75C176.383 104.517 178.907 101.894 182 101.894C185.093 101.894 187.617 104.517 187.617 107.75C187.617 110.983 185.093 113.606 182 113.606Z" fill="#ECC069" stroke="#ECC069" stroke-width="0.2"/>
<path d="M194 101.6C197.367 101.6 200.1 98.7469 200.1 95.2499C200.1 91.7529 197.368 88.8999 194 88.8999C190.632 88.8999 187.9 91.7529 187.9 95.2499C187.9 98.7469 190.632 101.6 194 101.6ZM194 89.3939C197.093 89.3939 199.617 92.0169 199.617 95.2499C199.617 98.4829 197.093 101.106 194 101.106C190.907 101.106 188.383 98.4829 188.383 95.2499C188.383 92.0169 190.907 89.3939 194 89.3939Z" fill="#ECC069" stroke="#ECC069" stroke-width="0.2"/>
<path d="M188.1 95.2499C188.1 91.7529 185.368 88.8999 182 88.8999C178.632 88.8999 175.9 91.7529 175.9 95.2499C175.9 98.7469 178.632 101.6 182 101.6C185.368 101.6 188.1 98.7469 188.1 95.2499ZM182 101.106C178.907 101.106 176.383 98.4829 176.383 95.2499C176.383 92.0169 178.907 89.3939 182 89.3939C185.093 89.3939 187.617 92.0169 187.617 95.2499C187.617 98.4829 185.093 101.106 182 101.106Z" fill="#ECC069" stroke="#ECC069" stroke-width="0.2"/>
<path d="M194 145.4C190.633 145.4 187.9 148.253 187.9 151.75C187.9 155.247 190.632 158.1 194 158.1C197.368 158.1 200.1 155.247 200.1 151.75C200.1 148.253 197.368 145.4 194 145.4ZM194 157.606C190.907 157.606 188.383 154.983 188.383 151.75C188.383 148.517 190.907 145.894 194 145.894C197.093 145.894 199.617 148.517 199.617 151.75C199.617 154.983 197.093 157.606 194 157.606Z" fill="#ECC069" stroke="#ECC069" stroke-width="0.2"/>
<path d="M182 145.4C178.633 145.4 175.9 148.253 175.9 151.75C175.9 155.247 178.632 158.1 182 158.1C185.368 158.1 188.1 155.247 188.1 151.75C188.1 148.253 185.368 145.4 182 145.4ZM182 157.606C178.907 157.606 176.383 154.983 176.383 151.75C176.383 148.517 178.907 145.894 182 145.894C185.093 145.894 187.617 148.517 187.617 151.75C187.617 154.983 185.093 157.606 182 157.606Z" fill="#ECC069" stroke="#ECC069" stroke-width="0.2"/>
<path d="M194 145.6C197.367 145.6 200.1 142.747 200.1 139.25C200.1 135.753 197.368 132.9 194 132.9C190.632 132.9 187.9 135.753 187.9 139.25C187.9 142.747 190.632 145.6 194 145.6ZM194 133.394C197.093 133.394 199.617 136.017 199.617 139.25C199.617 142.483 197.093 145.106 194 145.106C190.907 145.106 188.383 142.483 188.383 139.25C188.383 136.017 190.907 133.394 194 133.394Z" fill="#ECC069" stroke="#ECC069" stroke-width="0.2"/>
<path d="M188.1 139.25C188.1 135.753 185.368 132.9 182 132.9C178.632 132.9 175.9 135.753 175.9 139.25C175.9 142.747 178.632 145.6 182 145.6C185.368 145.6 188.1 142.747 188.1 139.25ZM182 145.106C178.907 145.106 176.383 142.483 176.383 139.25C176.383 136.017 178.907 133.394 182 133.394C185.093 133.394 187.617 136.017 187.617 139.25C187.617 142.483 185.093 145.106 182 145.106Z" fill="#ECC069" stroke="#ECC069" stroke-width="0.2"/>
<path d="M157 125.4C153.633 125.4 150.9 128.253 150.9 131.75C150.9 135.247 153.632 138.1 157 138.1C160.368 138.1 163.1 135.247 163.1 131.75C163.1 128.253 160.368 125.4 157 125.4ZM157 137.606C153.907 137.606 151.383 134.983 151.383 131.75C151.383 128.517 153.907 125.894 157 125.894C160.093 125.894 162.617 128.517 162.617 131.75C162.617 134.983 160.093 137.606 157 137.606Z" fill="#ECC069" stroke="#ECC069" stroke-width="0.2"/>
<path d="M145 125.4C141.633 125.4 138.9 128.253 138.9 131.75C138.9 135.247 141.632 138.1 145 138.1C148.368 138.1 151.1 135.247 151.1 131.75C151.1 128.253 148.368 125.4 145 125.4ZM145 137.606C141.907 137.606 139.383 134.983 139.383 131.75C139.383 128.517 141.907 125.894 145 125.894C148.093 125.894 150.617 128.517 150.617 131.75C150.617 134.983 148.093 137.606 145 137.606Z" fill="#ECC069" stroke="#ECC069" stroke-width="0.2"/>
<path d="M157 125.6C160.367 125.6 163.1 122.747 163.1 119.25C163.1 115.753 160.368 112.9 157 112.9C153.632 112.9 150.9 115.753 150.9 119.25C150.9 122.747 153.632 125.6 157 125.6ZM157 113.394C160.093 113.394 162.617 116.017 162.617 119.25C162.617 122.483 160.093 125.106 157 125.106C153.907 125.106 151.383 122.483 151.383 119.25C151.383 116.017 153.907 113.394 157 113.394Z" fill="#ECC069" stroke="#ECC069" stroke-width="0.2"/>
<path d="M151.1 119.25C151.1 115.753 148.368 112.9 145 112.9C141.632 112.9 138.9 115.753 138.9 119.25C138.9 122.747 141.632 125.6 145 125.6C148.368 125.6 151.1 122.747 151.1 119.25ZM145 125.106C141.907 125.106 139.383 122.483 139.383 119.25C139.383 116.017 141.907 113.394 145 113.394C148.093 113.394 150.617 116.017 150.617 119.25C150.617 122.483 148.093 125.106 145 125.106Z" fill="#ECC069" stroke="#ECC069" stroke-width="0.2"/>
<path d="M2.25594 251.4V252.456L3.26394 252.128L3.47994 252.792L2.47194 253.128L3.09594 253.976L2.52794 254.384L1.90394 253.536L1.28794 254.384L0.719936 253.976L1.33594 253.12L0.335938 252.792L0.551937 252.128L1.55194 252.456V251.4H2.25594ZM4.03644 255.272H5.10844C5.18044 255.976 5.70044 256.224 6.35644 256.224C7.01244 256.224 7.48444 255.984 7.48444 255.48C7.48444 254.976 6.90044 254.832 6.27644 254.672L5.77244 254.544C4.78044 254.288 4.16444 253.912 4.16444 252.944C4.16444 251.872 5.13244 251.296 6.28444 251.296C7.41244 251.296 8.37244 251.776 8.43644 253.008H7.38844C7.31644 252.416 6.90844 252.168 6.26844 252.168C5.64444 252.168 5.26044 252.44 5.26044 252.832C5.26044 253.24 5.50844 253.4 6.38844 253.616L7.00444 253.768C7.47644 253.888 8.60444 254.152 8.60444 255.344C8.60444 256.392 7.77244 257.104 6.32444 257.104C4.99644 257.104 4.11644 256.552 4.03644 255.272ZM11.1702 257.112C9.86624 257.112 9.09824 256.184 9.09824 254.936C9.09824 253.688 9.91424 252.76 11.1702 252.76C12.4262 252.76 13.2422 253.688 13.2422 254.936C13.2422 256.184 12.4582 257.112 11.1702 257.112ZM11.1702 253.584C10.5782 253.584 10.1862 254.088 10.1862 254.952C10.1862 255.824 10.5702 256.28 11.1702 256.28C11.7702 256.28 12.1542 255.824 12.1542 254.952C12.1542 254.088 11.7622 253.584 11.1702 253.584ZM15.8097 256.232C16.2497 256.232 16.6017 255.928 16.6017 255.216V252.88H17.6657V257H16.6417V256.544H16.6337C16.4417 256.848 16.0417 257.104 15.4417 257.104C14.7937 257.104 14.2497 256.8 14.0417 256.064C13.9857 255.872 13.9537 255.608 13.9537 255.152V252.88H15.0177V255.152C15.0177 255.352 15.0337 255.52 15.0657 255.64C15.1777 256.08 15.4657 256.232 15.8097 256.232ZM19.7044 253.368H19.7204C19.8564 253.048 20.2084 252.752 20.8324 252.752H20.9044V253.736C20.8244 253.728 20.7524 253.72 20.6804 253.72C20.0404 253.72 19.7444 254.088 19.7444 254.824V257H18.6804V252.88H19.7044V253.368ZM24.0616 254.264C23.9976 253.936 23.7176 253.584 23.2296 253.584C22.6456 253.584 22.2616 254.056 22.2616 254.952C22.2616 255.88 22.6696 256.28 23.2616 256.28C23.7736 256.28 24.0056 255.944 24.1016 255.608H25.1096C24.9496 256.504 24.2776 257.112 23.2296 257.112C21.9016 257.112 21.1736 256.2 21.1736 254.936C21.1736 253.688 21.9576 252.76 23.2376 252.76C24.2456 252.76 24.9576 253.36 25.0696 254.264H24.0616ZM28.4915 255.8H29.5955C29.3075 256.584 28.6435 257.104 27.6595 257.104C26.3395 257.104 25.5475 256.168 25.5475 254.928C25.5475 253.688 26.3475 252.752 27.6035 252.752C28.6355 252.752 29.2915 253.376 29.5395 254.256C29.6115 254.512 29.6435 254.8 29.6435 255.12V255.224H26.6355C26.6915 255.96 27.1395 256.264 27.6595 256.264C28.1155 256.264 28.3715 256.032 28.4915 255.8ZM27.6035 253.536C27.0515 253.536 26.6835 253.944 26.6355 254.488H28.5555C28.5395 253.944 28.1795 253.536 27.6035 253.536ZM31.5401 252.88V254.04H30.3401V252.88H31.5401ZM31.5401 255.84V257H30.3401V255.84H31.5401ZM33.982 255.272H35.054C35.126 255.976 35.646 256.224 36.302 256.224C36.958 256.224 37.43 255.984 37.43 255.48C37.43 254.976 36.846 254.832 36.222 254.672L35.718 254.544C34.726 254.288 34.11 253.912 34.11 252.944C34.11 251.872 35.078 251.296 36.23 251.296C37.358 251.296 38.318 251.776 38.382 253.008H37.334C37.262 252.416 36.854 252.168 36.214 252.168C35.59 252.168 35.206 252.44 35.206 252.832C35.206 253.24 35.454 253.4 36.334 253.616L36.95 253.768C37.422 253.888 38.55 254.152 38.55 255.344C38.55 256.392 37.718 257.104 36.27 257.104C34.942 257.104 34.062 256.552 33.982 255.272ZM44.5158 257V254.784C44.5158 254.536 44.4998 254.368 44.4598 254.224C44.3638 253.856 44.1398 253.648 43.7398 253.648C43.3238 253.648 42.9718 253.952 42.9718 254.664V257H41.9078V254.784C41.9078 254.536 41.8918 254.368 41.8518 254.224C41.7558 253.856 41.5318 253.648 41.1318 253.648C40.7158 253.648 40.3638 253.952 40.3638 254.664V257H39.2998V252.88H40.3238V253.336H40.3318C40.5238 253.032 40.9158 252.752 41.4998 252.752C42.0278 252.752 42.4518 252.968 42.7078 253.376C42.9478 253.064 43.4038 252.752 44.0678 252.752C44.7718 252.752 45.2838 253.056 45.4918 253.792C45.5478 253.984 45.5798 254.248 45.5798 254.704V257H44.5158ZM46.5488 252.32V251.4H47.6128V252.32H46.5488ZM46.5488 257V252.88H47.6128V257H46.5488ZM48.322 253.616V252.88H48.842V251.608H49.906V252.88H50.642V253.616H49.906V255.696C49.906 256.168 50.026 256.216 50.434 256.216H50.658V257H50.154C49.722 257 49.554 256.992 49.418 256.96C49.098 256.888 48.922 256.704 48.866 256.312C48.85 256.208 48.842 256.072 48.842 255.896V253.616H48.322ZM53.2627 253.624C52.9267 253.624 52.6787 253.8 52.5507 254.08C52.4867 254.224 52.4547 254.392 52.4547 254.752V257H51.3907V251.4H52.4547V253.288H52.4627C52.6547 253.024 53.0227 252.752 53.6307 252.752C54.2787 252.752 54.8387 253.056 55.0467 253.792C55.1027 253.984 55.1347 254.248 55.1347 254.704V257H54.0707V254.784C54.0707 254.384 54.0467 254.224 53.9747 254.056C53.8467 253.776 53.5987 253.624 53.2627 253.624ZM60.5456 255.8H61.6496C61.3616 256.584 60.6976 257.104 59.7136 257.104C58.3936 257.104 57.6016 256.168 57.6016 254.928C57.6016 253.688 58.4016 252.752 59.6576 252.752C60.6896 252.752 61.3456 253.376 61.5936 254.256C61.6656 254.512 61.6976 254.8 61.6976 255.12V255.224H58.6896C58.7456 255.96 59.1936 256.264 59.7136 256.264C60.1696 256.264 60.4256 256.032 60.5456 255.8ZM59.6576 253.536C59.1056 253.536 58.7376 253.944 58.6896 254.488H60.6096C60.5936 253.944 60.2336 253.536 59.6576 253.536ZM62.0761 253.616V252.88H62.5961V251.608H63.6601V252.88H64.3961V253.616H63.6601V255.696C63.6601 256.168 63.7801 256.216 64.1881 256.216H64.4121V257H63.9081C63.4761 257 63.3081 256.992 63.1721 256.96C62.8521 256.888 62.6761 256.704 62.6201 256.312C62.6041 256.208 62.5961 256.072 62.5961 255.896V253.616H62.0761ZM67.8136 254.128L66.8376 254.112C66.8936 253.168 67.6376 252.76 68.6376 252.76C69.3416 252.76 70.0616 252.992 70.2776 253.672C70.3416 253.872 70.3736 254.12 70.3736 254.512V256.432C70.3736 256.704 70.3976 256.848 70.4696 256.976V257H69.4776L69.4536 256.648H69.4456C69.2536 256.832 68.9256 257.112 68.2056 257.112C67.3416 257.112 66.6376 256.616 66.6376 255.816C66.6376 254.728 67.8616 254.56 68.7416 254.432L68.9176 254.408C69.2136 254.368 69.3176 254.264 69.3176 254.04C69.3176 253.736 69.0616 253.52 68.5976 253.52C68.3576 253.52 68.1576 253.576 68.0216 253.688C67.9016 253.792 67.8296 253.936 67.8136 254.128ZM68.4296 256.32C68.7976 256.32 69.1896 256.176 69.3176 255.808C69.3416 255.736 69.3576 255.664 69.3576 255.464V254.944C69.2616 254.984 69.0456 255.048 68.7576 255.12L68.5016 255.184C68.1896 255.264 67.9736 255.336 67.8536 255.456C67.7736 255.536 67.7256 255.648 67.7256 255.776C67.7256 256.128 67.9976 256.32 68.4296 256.32ZM71.3382 257V251.4H72.4022V257H71.3382ZM74.7083 252.88H75.8043L76.4683 255.144L76.6523 255.8H76.6683L76.8523 255.144L77.5323 252.88H78.6043L77.1643 257H76.0843L74.7083 252.88ZM79.1323 252.32V251.4H80.1963V252.32H79.1323ZM79.1323 257V252.88H80.1963V257H79.1323ZM82.1215 254.128L81.1455 254.112C81.2015 253.168 81.9455 252.76 82.9455 252.76C83.6495 252.76 84.3699 252.992 84.5859 253.672C84.6499 253.872 84.6819 254.12 84.6819 254.512V256.432C84.6819 256.704 84.7059 256.848 84.7779 256.976V257H83.7855L83.7615 256.648H83.7535C83.5615 256.832 83.2335 257.112 82.5135 257.112C81.6495 257.112 80.9455 256.616 80.9455 255.816C80.9455 254.728 82.1695 254.56 83.0495 254.432L83.2255 254.408C83.5215 254.368 83.6255 254.264 83.6255 254.04C83.6255 253.736 83.3695 253.52 82.9055 253.52C82.6655 253.52 82.4655 253.576 82.3295 253.688C82.2095 253.792 82.1375 253.936 82.1215 254.128ZM82.7375 256.32C83.1055 256.32 83.4975 256.176 83.6255 255.808C83.6495 255.736 83.6655 255.664 83.6655 255.464V254.944C83.5695 254.984 83.3535 255.048 83.0655 255.12L82.8095 255.184C82.4975 255.264 82.2815 255.336 82.1615 255.456C82.0815 255.536 82.0335 255.648 82.0335 255.776C82.0335 256.128 82.3055 256.32 82.7375 256.32ZM88.5629 257H87.4589V251.4H91.4749V252.28H88.5629V253.608H91.1149V254.496H88.5629V257ZM94.6599 255.8H95.7639C95.4759 256.584 94.8119 257.104 93.8279 257.104C92.5079 257.104 91.7159 256.168 91.7159 254.928C91.7159 253.688 92.5159 252.752 93.7719 252.752C94.8039 252.752 95.4599 253.376 95.7079 254.256C95.7799 254.512 95.8119 254.8 95.8119 255.12V255.224H92.8039C92.8599 255.96 93.3079 256.264 93.8279 256.264C94.2839 256.264 94.5399 256.032 94.6599 255.8ZM93.7719 253.536C93.2199 253.536 92.8519 253.944 92.8039 254.488H94.7239C94.7079 253.944 94.3479 253.536 93.7719 253.536ZM97.5969 253.368H97.6129C97.7489 253.048 98.1009 252.752 98.7249 252.752H98.7969V253.736C98.7169 253.728 98.6449 253.72 98.5729 253.72C97.9329 253.72 97.6369 254.088 97.6369 254.824V257H96.5729V252.88H97.5969V253.368ZM99.1039 253.616V252.88H99.6239V251.608H100.688V252.88H101.424V253.616H100.688V255.696C100.688 256.168 100.808 256.216 101.216 256.216H101.44V257H100.936C100.504 257 100.336 256.992 100.2 256.96C99.8799 256.888 99.7039 256.704 99.6479 256.312C99.6319 256.208 99.6239 256.072 99.6239 255.896V253.616H99.1039ZM102.173 252.32V251.4H103.237V252.32H102.173ZM102.173 257V252.88H103.237V257H102.173ZM104.25 257V251.4H105.314V257H104.25ZM106.327 252.32V251.4H107.391V252.32H106.327ZM106.327 257V252.88H107.391V257H106.327ZM108.1 253.616V252.88H108.62V251.608H109.684V252.88H110.42V253.616H109.684V255.696C109.684 256.168 109.804 256.216 110.212 256.216H110.436V257H109.932C109.5 257 109.332 256.992 109.196 256.96C108.876 256.888 108.7 256.704 108.644 256.312C108.628 256.208 108.62 256.072 108.62 255.896V253.616H108.1ZM110.705 252.88H111.801L112.497 255.152L112.681 255.832H112.697L112.881 255.152L113.601 252.88H114.673L113.001 257.472C112.713 258.264 112.361 258.376 111.577 258.376H111.017V257.568H111.297C111.913 257.568 112.113 257.376 112.113 257.056C112.113 256.84 111.969 256.552 111.897 256.336L110.705 252.88ZM117.984 251.4V257H116.864V251.4H117.984ZM121.441 257.104C119.809 257.104 118.849 255.936 118.849 254.2C118.849 252.504 119.873 251.296 121.441 251.296C123.017 251.296 124.041 252.504 124.041 254.2C124.041 255.016 123.825 255.704 123.433 256.208L123.993 256.752L123.433 257.304L122.849 256.736C122.457 256.976 121.985 257.104 121.441 257.104ZM121.665 255.568L122.225 255.008L122.673 255.456C122.841 255.112 122.921 254.672 122.921 254.2C122.921 253.104 122.425 252.176 121.441 252.176C120.465 252.176 119.969 253.104 119.969 254.2C119.969 255.336 120.457 256.224 121.441 256.224C121.713 256.224 121.953 256.168 122.145 256.048L121.665 255.568Z" fill="white"/>
</svg>
