<svg width="350" height="295" viewBox="0 0 350 295" fill="none" xmlns="http://www.w3.org/2000/svg">
<g clip-path="url(#clip0_1128_14673)">
<path d="M21.1015 31.0023L22.8435 30.998C22.9633 32.1417 23.8093 32.5426 24.8753 32.5399C25.9413 32.5372 26.7074 32.1453 26.7053 31.3263C26.7033 30.5073 25.7537 30.2757 24.7391 30.0182L23.9195 29.8123C22.3065 29.4003 21.304 28.7918 21.3001 27.2188C21.2957 25.4768 22.8664 24.5369 24.7384 24.5322C26.5714 24.5276 28.1333 25.3038 28.2423 27.3055L26.5393 27.3097C26.4199 26.348 25.7559 25.9467 24.7159 25.9493C23.7019 25.9518 23.079 26.3954 23.0806 27.0324C23.0823 27.6954 23.4859 27.9543 24.9168 28.3018L25.9184 28.5463C26.6859 28.7394 28.5199 29.1638 28.5248 31.1008C28.529 32.8038 27.1799 33.9642 24.8269 33.97C22.6689 33.9754 21.2367 33.082 21.1015 31.0023ZM31.2852 29.1179L29.6991 29.0959C29.7863 27.5616 30.9936 26.8956 32.6186 26.8916C33.7626 26.8887 34.9336 27.2628 35.2873 28.3669C35.3921 28.6917 35.4451 29.0946 35.4467 29.7316L35.4545 32.8515C35.4556 33.2935 35.4952 33.5274 35.6127 33.7351L35.6128 33.7741L34.0008 33.7782L33.9604 33.2063L33.9474 33.2063C33.6361 33.5061 33.1042 33.9624 31.9343 33.9653C30.5303 33.9688 29.3843 33.1657 29.381 31.8657C29.3766 30.0977 31.3649 29.8197 32.7944 29.6082L33.0803 29.5684C33.5611 29.5022 33.7297 29.3328 33.7288 28.9688C33.7276 28.4748 33.3107 28.1249 32.5567 28.1267C32.1667 28.1277 31.8419 28.2195 31.6214 28.4021C31.4268 28.5716 31.3104 28.8059 31.2852 29.1179ZM32.295 32.6774C32.893 32.6759 33.5295 32.4403 33.736 31.8418C33.7747 31.7247 33.8004 31.6077 33.7996 31.2827L33.7975 30.4377C33.6416 30.5031 33.2909 30.6079 32.8232 30.7261L32.4074 30.8311C31.9008 30.9624 31.5501 31.0803 31.3555 31.2757C31.2259 31.4061 31.1483 31.5883 31.1488 31.7963C31.1503 32.3683 31.593 32.6792 32.295 32.6774ZM45.5652 33.7494L45.5562 30.1484C45.5552 29.7454 45.5285 29.4724 45.4629 29.2386C45.3054 28.641 44.9406 28.3039 44.2906 28.3055C43.6146 28.3072 43.0438 28.8026 43.0467 29.9596L43.0562 33.7556L41.3272 33.7599L41.3182 30.1589C41.3172 29.7559 41.2905 29.483 41.2249 29.2492C41.0675 28.6515 40.7026 28.3145 40.0526 28.3161C39.3766 28.3178 38.8058 28.8132 38.8087 29.9702L38.8182 33.7662L37.0892 33.7705L37.0725 27.0755L38.7365 27.0713L38.7384 27.8123L38.7514 27.8123C39.0621 27.3175 39.698 26.8609 40.647 26.8586C41.505 26.8564 42.1949 27.2057 42.6125 27.8677C43.0012 27.3597 43.741 26.8509 44.82 26.8482C45.964 26.8453 46.7972 27.3373 47.1382 28.5324C47.23 28.8442 47.283 29.2731 47.2849 30.0141L47.2942 33.745L45.5652 33.7494ZM48.9395 35.977L48.9172 27.046L50.6072 27.0418L50.6087 27.6398L50.6217 27.6397C50.9199 27.314 51.5297 26.8315 52.5697 26.8289C54.1947 26.8248 55.5889 28.1214 55.5944 30.3314C55.6 32.5673 54.2513 33.8967 52.5743 33.9009C51.5863 33.9034 50.9482 33.4629 50.6611 33.0217L50.6685 35.9726L48.9395 35.977ZM52.144 28.1689C51.208 28.1713 50.573 28.9659 50.5766 30.3959C50.5801 31.8259 51.2579 32.5522 52.1549 32.5499C53.1299 32.5475 53.7781 31.8179 53.7745 30.3879C53.771 28.9449 53.106 28.1665 52.144 28.1689ZM56.9192 33.7211L56.8965 24.6211L58.6255 24.6168L58.6482 33.7168L56.9192 33.7211ZM64.7228 31.7516L66.5168 31.7471C66.0519 33.0223 64.975 33.87 63.376 33.874C61.231 33.8793 59.9403 32.3615 59.9352 30.3465C59.9302 28.3315 61.2264 26.8073 63.2674 26.8022C64.9444 26.798 66.0129 27.8094 66.4195 29.2384C66.5375 29.6541 66.5907 30.122 66.592 30.642L66.5924 30.811L61.7044 30.8231C61.7984 32.0189 62.5276 32.5111 63.3726 32.509C64.1136 32.5071 64.5287 32.1291 64.7228 31.7516ZM63.2706 28.0762C62.3736 28.0785 61.7773 28.7429 61.7015 29.6271L64.8214 29.6194C64.7932 28.7354 64.2066 28.0739 63.2706 28.0762ZM72.7055 33.6817L70.9115 33.6862L70.8889 24.5862L77.4148 24.57L77.4184 26L72.6864 26.0118L72.6918 28.1697L76.8388 28.1594L76.8424 29.6024L72.6954 29.6127L72.7055 33.6817ZM81.271 32.4124C81.986 32.4106 82.5568 31.9152 82.5539 30.7582L82.5444 26.9622L84.2734 26.9579L84.2901 33.6529L82.6261 33.657L82.6243 32.916L82.6113 32.916C82.3005 33.4108 81.6515 33.8284 80.6766 33.8309C79.6236 33.8335 78.7383 33.3417 78.3973 32.1465C78.3056 31.8348 78.2525 31.4059 78.2507 30.6649L78.2415 26.9729L79.9705 26.9686L79.9797 30.6606C79.9805 30.9856 80.0071 31.2585 80.0596 31.4534C80.2434 32.1679 80.712 32.4138 81.271 32.4124ZM89.0324 28.155C88.4864 28.1564 88.0841 28.4434 87.8773 28.8989C87.7738 29.1332 87.7225 29.4063 87.724 29.9913L87.7331 33.6443L86.0041 33.6486L85.9874 26.9536L87.6514 26.9495L87.6532 27.6905L87.6662 27.6904C87.977 27.1957 88.6519 26.739 89.6269 26.7366C90.6799 26.7339 91.5911 27.2257 91.9321 28.4208C92.0239 28.7326 92.0769 29.1615 92.0788 29.9025L92.0881 33.6334L90.3591 33.6377L90.3501 30.0368C90.3485 29.3868 90.3088 29.1269 90.1912 28.8542C89.982 28.3997 89.5784 28.1537 89.0324 28.155ZM96.7511 28.1358C96.2051 28.1372 95.8028 28.4242 95.596 28.8797C95.4926 29.1139 95.4412 29.3871 95.4427 29.9721L95.4518 33.6251L93.7228 33.6294L93.7061 26.9344L95.3701 26.9302L95.372 27.6712L95.385 27.6712C95.6957 27.1764 96.3706 26.7197 97.3456 26.7173C98.3986 26.7147 99.3098 27.2064 99.6508 28.4016C99.7426 28.7134 99.7956 29.1422 99.7975 29.8832L99.8068 33.6142L98.0778 33.6185L98.0688 30.0175C98.0672 29.3675 98.0276 29.1076 97.9099 28.8349C97.7007 28.3804 97.2971 28.1344 96.7511 28.1358ZM105.805 31.6493L107.599 31.6448C107.134 32.92 106.057 33.7676 104.458 33.7716C102.313 33.777 101.022 32.2592 101.017 30.2442C101.012 28.2292 102.308 26.705 104.349 26.6999C106.026 26.6957 107.095 27.707 107.501 29.136C107.619 29.5517 107.673 30.0196 107.674 30.5396L107.674 30.7086L102.786 30.7208C102.88 31.9165 103.61 32.4087 104.455 32.4066C105.196 32.4048 105.611 32.0267 105.805 31.6493ZM104.353 27.9739C103.456 27.9761 102.859 28.6406 102.783 29.5248L105.903 29.517C105.875 28.6331 105.288 27.9715 104.353 27.9739ZM108.983 33.5913L108.96 24.4914L110.689 24.4871L110.712 33.587L108.983 33.5913ZM117.228 33.5708L115.434 33.5753L115.411 24.4753L121.937 24.459L121.941 25.889L117.209 25.9008L117.214 28.0588L121.361 28.0485L121.365 29.4915L117.218 29.5018L117.228 33.5708ZM124.444 27.6508L124.47 27.6507C124.69 27.1302 125.261 26.6478 126.275 26.6452L126.392 26.645L126.396 28.2439C126.266 28.2313 126.149 28.2186 126.032 28.2189C124.992 28.2214 124.512 28.8206 124.515 30.0166L124.524 33.5526L122.795 33.5569L122.778 26.862L124.442 26.8578L124.444 27.6508ZM130.266 33.7203C128.147 33.7256 126.895 32.2207 126.89 30.1927C126.885 28.1647 128.207 26.6534 130.248 26.6483C132.289 26.6433 133.619 28.1479 133.624 30.1759C133.629 32.2039 132.359 33.7151 130.266 33.7203ZM130.252 27.9873C129.29 27.9897 128.655 28.8103 128.658 30.2143C128.662 31.6313 129.288 32.3708 130.263 32.3683C131.238 32.3659 131.86 31.6233 131.856 30.2063C131.853 28.8024 131.214 27.9849 130.252 27.9873ZM143.408 33.5056L143.399 29.9046C143.398 29.5016 143.371 29.2287 143.305 28.9948C143.148 28.3972 142.783 28.0601 142.133 28.0617C141.457 28.0634 140.886 28.5588 140.889 29.7158L140.899 33.5118L139.17 33.5161L139.161 29.9151C139.16 29.5121 139.133 29.2392 139.067 29.0054C138.91 28.4078 138.545 28.0707 137.895 28.0723C137.219 28.074 136.648 28.5694 136.651 29.7264L136.661 33.5224L134.932 33.5267L134.915 26.8317L136.579 26.8276L136.581 27.5686L136.594 27.5685C136.905 27.0738 137.54 26.6172 138.489 26.6148C139.347 26.6127 140.037 26.962 140.455 27.6239C140.844 27.1159 141.583 26.6071 142.662 26.6044C143.806 26.6016 144.64 27.0935 144.981 28.2886C145.072 28.6004 145.125 29.0293 145.127 29.7703L145.137 33.5013L143.408 33.5056ZM151.581 33.4852L149.787 33.4897L149.765 24.3897L156.291 24.3734L156.294 25.8034L151.562 25.8152L151.568 27.9732L155.715 27.9629L155.718 29.4059L151.571 29.4162L151.581 33.4852ZM161.55 31.5104L163.344 31.5059C162.879 32.7811 161.802 33.6287 160.203 33.6327C158.058 33.6381 156.767 32.1203 156.762 30.1053C156.757 28.0903 158.053 26.5661 160.094 26.561C161.771 26.5568 162.84 27.5681 163.246 28.9971C163.364 29.4128 163.418 29.8807 163.419 30.4007L163.419 30.5697L158.531 30.5819C158.625 31.7777 159.354 32.2698 160.199 32.2677C160.94 32.2659 161.356 31.8879 161.55 31.5104ZM160.097 27.835C159.2 27.8372 158.604 28.5017 158.528 29.3859L161.648 29.3781C161.62 28.4942 161.033 27.8326 160.097 27.835ZM166.377 27.5463L166.403 27.5463C166.622 27.0257 167.193 26.5433 168.207 26.5408L168.324 26.5405L168.328 28.1395C168.198 28.1268 168.081 28.1141 167.964 28.1144C166.924 28.117 166.445 28.7162 166.448 29.9122L166.456 33.4482L164.727 33.4525L164.711 26.7575L166.375 26.7533L166.377 27.5463ZM168.892 27.9431L168.889 26.7471L169.734 26.745L169.729 24.678L171.457 24.6737L171.463 26.7407L172.659 26.7377L172.662 27.9337L171.466 27.9367L171.474 31.3166C171.476 32.0836 171.671 32.1612 172.334 32.1595L172.698 32.1586L172.701 33.4326L171.882 33.4346C171.18 33.4364 170.907 33.4241 170.686 33.3726C170.166 33.2569 169.879 32.9586 169.787 32.3218C169.76 32.1529 169.747 31.9319 169.746 31.6459L169.737 27.941L168.892 27.9431ZM173.938 25.8245L173.934 24.3295L175.663 24.3252L175.667 25.8202L173.938 25.8245ZM173.957 33.4295L173.94 26.7345L175.669 26.7302L175.686 33.4252L173.957 33.4295ZM177.397 33.4209L177.375 24.3209L179.104 24.3166L179.126 33.4166L177.397 33.4209ZM180.819 25.8073L180.815 24.3123L182.544 24.308L182.548 25.803L180.819 25.8073ZM180.838 33.4123L180.821 26.7173L182.55 26.713L182.567 33.408L180.838 33.4123ZM183.836 33.4048L183.833 32.0659L187.346 28.0531L184.005 28.0614L184.002 26.7094L189.5 26.6957L189.504 28.0347L185.978 32.0345L189.683 32.0253L189.686 33.3903L183.836 33.4048ZM195.217 31.4265L197.011 31.422C196.547 32.6972 195.47 33.5449 193.871 33.5488C191.726 33.5542 190.435 32.0364 190.43 30.0214C190.425 28.0064 191.721 26.4822 193.762 26.4771C195.439 26.4729 196.508 27.4843 196.914 28.9132C197.032 29.329 197.085 29.7968 197.087 30.3168L197.087 30.4858L192.199 30.498C192.293 31.6938 193.022 32.186 193.867 32.1839C194.608 32.182 195.023 31.804 195.217 31.4265ZM193.765 27.7511C192.868 27.7533 192.272 28.4178 192.196 29.302L195.316 29.2942C195.288 28.4103 194.701 27.7488 193.765 27.7511ZM204.661 33.353L202.971 33.3572L202.969 32.5772L202.956 32.5772C202.62 33.137 201.919 33.5288 201.022 33.531C199.332 33.5352 197.989 32.2126 197.984 29.9766C197.978 27.7666 199.366 26.4631 200.991 26.4591C202.031 26.4565 202.604 26.8841 202.917 27.2083L202.91 24.2573L204.639 24.253L204.661 33.353ZM201.423 27.797C200.461 27.7994 199.8 28.5811 199.804 30.0241C199.808 31.454 200.459 32.1804 201.434 32.178C202.331 32.1758 203.006 31.4461 203.002 30.0161C202.998 28.5861 202.359 27.7947 201.423 27.797ZM215.527 27.8139L215.53 29.2569L211.175 29.2677L211.182 31.8937L216.2 31.8812L216.204 33.3242L209.392 33.3412L209.369 24.2412L216.103 24.2244L216.106 25.6544L211.166 25.6667L211.172 27.8247L215.527 27.8139ZM221.83 32.0232L221.817 32.0232C221.532 32.4269 220.87 32.8316 219.921 32.8339C218.322 32.8379 216.993 31.6712 216.988 29.6172C216.983 27.6022 218.384 26.4157 219.879 26.412C220.919 26.4094 221.505 26.85 221.818 27.1482L221.831 27.1482L221.83 26.6152L223.507 26.611L223.522 32.812C223.524 33.397 223.434 33.7872 223.278 34.1256C222.787 35.1668 221.683 35.6766 220.266 35.6801C218.446 35.6846 217.339 34.6734 217.258 33.5686L219.013 33.5642C219.118 34.0579 219.613 34.3817 220.367 34.3798C221.082 34.3781 221.549 34.1039 221.743 33.4404C221.794 33.2583 221.82 33.0242 221.819 32.6862L221.819 32.6082C221.818 32.4392 221.818 32.2312 221.83 32.0232ZM221.889 29.605C221.886 28.422 221.157 27.7478 220.299 27.75C219.428 27.7522 218.701 28.456 218.704 29.626C218.707 30.783 219.424 31.4962 220.308 31.494C221.166 31.4918 221.892 30.801 221.889 29.605ZM229.676 32.0036L229.663 32.0037C229.378 32.4074 228.716 32.812 227.767 32.8144C226.168 32.8184 224.839 31.6517 224.834 29.5977C224.829 27.5827 226.23 26.3962 227.725 26.3925C228.765 26.3899 229.351 26.8304 229.664 27.1286L229.677 27.1286L229.675 26.5956L231.352 26.5914L231.368 32.7924C231.369 33.3774 231.279 33.7676 231.124 34.106C230.633 35.1473 229.529 35.657 228.112 35.6605C226.292 35.6651 225.185 34.6538 225.104 33.549L226.859 33.5447C226.964 34.0384 227.459 34.3622 228.213 34.3603C228.928 34.3585 229.395 34.0843 229.588 33.4209C229.64 33.2387 229.665 33.0047 229.665 32.6667L229.664 32.5887C229.664 32.4197 229.663 32.2117 229.676 32.0036ZM229.735 29.5855C229.732 28.4025 229.002 27.7283 228.144 27.7304C227.273 27.7326 226.547 28.4364 226.55 29.6064C226.553 30.7634 227.27 31.4766 228.154 31.4744C229.012 31.4723 229.738 30.7815 229.735 29.5855ZM232.579 31.0864L234.23 31.0823C234.245 31.8882 234.961 32.2245 235.715 32.2226C236.261 32.2212 236.976 31.9984 236.974 31.3484C236.973 30.8674 236.452 30.7257 235.464 30.4682L234.878 30.3137C233.812 30.0303 232.784 29.6559 232.781 28.3949C232.777 26.9649 234.18 26.3894 235.61 26.3858C237.105 26.3821 238.354 26.925 238.501 28.5756L236.889 28.5797C236.835 27.8388 236.315 27.5931 235.561 27.595C234.95 27.5965 234.456 27.7927 234.457 28.2347C234.458 28.7027 234.966 28.8314 235.694 29.0116L236.41 29.1918C237.528 29.4751 238.712 29.9141 238.716 31.2011C238.719 32.7221 237.408 33.4404 235.705 33.4446C234.171 33.4484 232.662 32.8672 232.579 31.0864ZM249.174 25.572L246.418 25.5789L246.437 33.2489L244.617 33.2534L244.598 25.5834L241.842 25.5903L241.838 24.1603L249.17 24.142L249.174 25.572ZM251.798 33.4175C249.679 33.4228 248.427 31.9179 248.422 29.8899C248.417 27.8619 249.739 26.3506 251.78 26.3455C253.821 26.3405 255.151 27.8451 255.156 29.8731C255.161 31.9011 253.891 33.4123 251.798 33.4175ZM251.784 27.6845C250.822 27.6869 250.187 28.5075 250.19 29.9115C250.194 31.3285 250.819 32.068 251.794 32.0655C252.769 32.0631 253.392 31.3205 253.388 29.9035C253.385 28.4996 252.746 27.6821 251.784 27.6845ZM259.474 33.2164L259.452 24.1164L263.378 24.1066C263.82 24.1055 264.132 24.1308 264.431 24.182C265.575 24.3872 266.305 25.0743 266.308 26.2703C266.311 27.4143 265.675 27.9879 265.078 28.2624L265.078 28.2884C265.846 28.5335 266.745 29.2333 266.748 30.5463C266.751 31.8203 266.012 32.6671 264.96 33.0077C264.557 33.1387 264.18 33.2047 263.478 33.2064L259.474 33.2164ZM261.249 25.5029L261.255 27.7519L263.127 27.7473C263.478 27.7464 263.699 27.7069 263.881 27.6414C264.4 27.4581 264.542 27.0417 264.541 26.5607C264.54 26.0798 264.344 25.7422 263.797 25.5876C263.602 25.5361 263.316 25.4978 262.965 25.4987L261.249 25.5029ZM261.258 29.0649L261.265 31.7949L263.241 31.79C263.709 31.7888 263.956 31.7492 264.177 31.6707C264.8 31.4481 264.981 30.9407 264.979 30.3687C264.978 29.8357 264.756 29.3682 264.157 29.1747C263.923 29.0973 263.663 29.0589 263.234 29.06L261.258 29.0649ZM268.08 33.195L268.057 24.095L269.786 24.0907L269.809 33.1906L268.08 33.195ZM272.99 28.5157L271.404 28.4937C271.492 26.9594 272.699 26.2934 274.324 26.2894C275.468 26.2865 276.639 26.6606 276.993 27.7647C277.097 28.0895 277.15 28.4923 277.152 29.1293L277.16 32.2493C277.161 32.6913 277.2 32.9252 277.318 33.1329L277.318 33.1719L275.706 33.176L275.666 32.6041L275.653 32.6041C275.341 32.9039 274.81 33.3602 273.64 33.3631C272.236 33.3666 271.09 32.5635 271.086 31.2635C271.082 29.4955 273.07 29.2175 274.5 29.0059L274.786 28.9662C275.266 28.9 275.435 28.7306 275.434 28.3666C275.433 27.8726 275.016 27.5227 274.262 27.5245C273.872 27.5255 273.547 27.6173 273.327 27.7999C273.132 27.9693 273.016 28.2036 272.99 28.5157ZM274 32.0752C274.598 32.0737 275.235 31.8381 275.441 31.2396C275.48 31.1225 275.506 31.0054 275.505 30.6804L275.503 29.8354C275.347 29.9008 274.996 30.0057 274.528 30.1239L274.113 30.2289C273.606 30.3602 273.255 30.4781 273.061 30.6735C272.931 30.8039 272.854 30.9861 272.854 31.1941C272.856 31.7661 273.298 32.0769 274 32.0752ZM278.295 30.9725L279.946 30.9684C279.961 31.7743 280.677 32.1106 281.431 32.1087C281.977 32.1073 282.691 31.8845 282.69 31.2345C282.688 30.7535 282.168 30.6118 281.179 30.3543L280.594 30.1998C279.527 29.9164 278.499 29.542 278.496 28.281C278.493 26.851 279.895 26.2755 281.325 26.2719C282.82 26.2682 284.07 26.8111 284.217 28.4617L282.605 28.4657C282.551 27.7249 282.03 27.4792 281.276 27.4811C280.665 27.4826 280.172 27.6788 280.173 28.1208C280.174 28.5888 280.681 28.7175 281.41 28.8977L282.125 29.0779C283.244 29.3612 284.428 29.8002 284.431 31.0872C284.435 32.6082 283.124 33.3265 281.421 33.3307C279.887 33.3345 278.377 32.7533 278.295 30.9725ZM285.117 27.6535L285.114 26.4575L285.959 26.4554L285.954 24.3884L287.683 24.3841L287.688 26.4511L288.884 26.4481L288.887 27.6441L287.691 27.6471L287.699 31.0271C287.701 31.7941 287.896 31.8716 288.559 31.8699L288.923 31.869L288.927 33.143L288.108 33.1451C287.406 33.1468 287.133 33.1345 286.911 33.083C286.391 32.9673 286.104 32.669 286.012 32.0323C285.985 31.8633 285.972 31.6424 285.971 31.3564L285.962 27.6514L285.117 27.6535ZM293.032 33.3148C290.913 33.3201 289.661 31.8152 289.656 29.7872C289.651 27.7592 290.973 26.2479 293.014 26.2428C295.055 26.2377 296.385 27.7424 296.39 29.7704C296.395 31.7984 295.125 33.3096 293.032 33.3148ZM293.018 27.5818C292.056 27.5842 291.421 28.4048 291.424 29.8088C291.428 31.2258 292.054 31.9652 293.029 31.9628C294.004 31.9604 294.626 31.2178 294.622 29.8008C294.619 28.3968 293.98 27.5794 293.018 27.5818ZM301.977 28.6645C301.871 28.1317 301.415 27.5609 300.622 27.5629C299.673 27.5652 299.051 28.3338 299.054 29.7898C299.058 31.2978 299.723 31.9461 300.685 31.9437C301.517 31.9416 301.892 31.3947 302.047 30.8483L303.685 30.8442C303.429 32.3009 302.339 33.2916 300.636 33.2958C298.478 33.3012 297.292 31.8222 297.286 29.7682C297.281 27.7402 298.552 26.229 300.632 26.2238C302.27 26.2197 303.429 27.1919 303.615 28.6604L301.977 28.6645ZM304.024 26.4104L305.805 26.4059L306.945 30.0951L307.247 31.1994L307.273 31.1993L307.569 30.0936L308.73 26.3987L310.472 26.3943L307.773 33.8631C307.309 35.1512 306.737 35.3346 305.463 35.3378L304.553 35.3401L304.55 34.0271L305.005 34.026C306.006 34.0235 306.33 33.7107 306.329 33.1907C306.328 32.8397 306.093 32.3722 305.975 32.0215L304.024 26.4104ZM310.757 30.8916L312.408 30.8875C312.423 31.6935 313.139 32.0297 313.893 32.0278C314.439 32.0264 315.153 31.8037 315.151 31.1537C315.15 30.6727 314.63 30.531 313.641 30.2734L313.056 30.1189C311.989 29.8355 310.961 29.4611 310.958 28.2001C310.955 26.7701 312.357 26.1946 313.787 26.1911C315.282 26.1873 316.531 26.7302 316.679 28.3809L315.067 28.3849C315.013 27.644 314.492 27.3983 313.738 27.4002C313.127 27.4017 312.634 27.5979 312.635 28.0399C312.636 28.5079 313.143 28.6367 313.872 28.8168L314.587 28.9971C315.706 29.2803 316.89 29.7193 316.893 31.0063C316.897 32.5273 315.586 33.2456 313.883 33.2498C312.349 33.2537 310.839 32.6724 310.757 30.8916ZM317.579 27.5726L317.576 26.3766L318.421 26.3745L318.416 24.3075L320.145 24.3032L320.15 26.3702L321.346 26.3672L321.349 27.5632L320.153 27.5662L320.161 30.9462C320.163 31.7132 320.358 31.7907 321.021 31.789L321.385 31.7881L321.388 33.0621L320.569 33.0642C319.867 33.0659 319.594 33.0536 319.373 33.0022C318.853 32.8865 318.566 32.5882 318.474 31.9514C318.447 31.7825 318.434 31.5615 318.433 31.2755L318.424 27.5705L317.579 27.5726ZM322.144 30.8632L323.795 30.8591C323.81 31.6651 324.526 32.0013 325.28 31.9994C325.826 31.9981 326.541 31.7753 326.539 31.1253C326.538 30.6443 326.018 30.5026 325.029 30.2451L324.444 30.0905C323.377 29.8072 322.349 29.4327 322.346 28.1717C322.342 26.7417 323.745 26.1662 325.175 26.1627C326.67 26.159 327.919 26.7018 328.066 28.3525L326.454 28.3565C326.4 27.6156 325.88 27.3699 325.126 27.3718C324.515 27.3733 324.021 27.5696 324.022 28.0116C324.024 28.4796 324.531 28.6083 325.259 28.7885L325.975 28.9687C327.093 29.2519 328.278 29.691 328.281 30.978C328.285 32.499 326.973 33.2172 325.27 33.2215C323.736 33.2253 322.227 32.644 322.144 30.8632Z" fill="white"/>
<path d="M120.612 232.423L119.588 232.426C119.585 231.146 120.367 230.4 121.543 230.397C122.687 230.394 123.417 231.064 123.419 232.12C123.422 233.008 122.951 233.561 122.28 234.051L121.905 234.324C121.466 234.645 121.002 234.942 120.907 235.214L123.515 235.208L123.517 236.096L119.533 236.106C119.61 234.874 120.433 234.24 121.367 233.541L121.519 233.421C122.046 233.02 122.365 232.691 122.363 232.147C122.362 231.619 122.025 231.308 121.513 231.309C120.865 231.311 120.611 231.823 120.612 232.423ZM126.156 236.089L126.142 230.489L128.302 230.484C128.95 230.482 129.27 230.562 129.622 230.721C130.447 231.103 130.993 231.941 130.997 233.245C130.999 234.373 130.602 235.302 129.779 235.768C129.419 235.969 129.02 236.082 128.372 236.084L126.156 236.089ZM127.248 231.367L127.257 235.199L128.273 235.196C128.625 235.195 128.825 235.147 129.033 235.05C129.513 234.825 129.871 234.304 129.869 233.368C129.866 232.376 129.585 231.673 128.776 231.443C128.584 231.387 128.304 231.364 128.056 231.365L127.248 231.367ZM132.832 232.441L132.848 232.441C132.984 232.12 133.335 231.823 133.959 231.822L134.031 231.822L134.033 232.806C133.953 232.798 133.881 232.79 133.809 232.79C133.169 232.792 132.874 233.161 132.876 233.897L132.881 236.073L131.817 236.075L131.807 231.955L132.831 231.953L132.832 232.441ZM136.375 236.176C135.071 236.179 134.301 235.253 134.298 234.005C134.294 232.757 135.108 231.827 136.364 231.824C137.62 231.821 138.438 232.747 138.442 233.995C138.445 235.243 137.663 236.173 136.375 236.176ZM136.366 232.648C135.774 232.649 135.383 233.154 135.386 234.018C135.388 234.89 135.773 235.345 136.373 235.344C136.973 235.342 137.356 234.885 137.354 234.013C137.351 233.149 136.958 232.646 136.366 232.648ZM139.21 237.433L139.196 231.937L140.236 231.934L140.237 232.302L140.245 232.302C140.428 232.102 140.804 231.805 141.444 231.803C142.444 231.801 143.302 232.599 143.305 233.959C143.308 235.335 142.478 236.153 141.446 236.155C140.838 236.157 140.446 235.886 140.269 235.614L140.274 237.43L139.21 237.433ZM141.182 232.628C140.606 232.629 140.215 233.118 140.217 233.998C140.219 234.878 140.636 235.325 141.188 235.324C141.788 235.322 142.187 234.873 142.185 233.993C142.183 233.105 141.774 232.626 141.182 232.628ZM148.221 236.138C146.589 236.142 145.626 234.977 145.622 233.241C145.618 231.545 146.639 230.334 148.207 230.33C149.783 230.327 150.81 231.532 150.814 233.228C150.818 234.964 149.853 236.134 148.221 236.138ZM148.209 231.21C147.233 231.213 146.739 232.142 146.742 233.238C146.745 234.374 147.235 235.261 148.219 235.258C149.211 235.256 149.697 234.367 149.694 233.231C149.691 232.135 149.193 231.208 148.209 231.21ZM153.431 235.253C153.871 235.252 154.223 234.947 154.221 234.235L154.215 231.899L155.279 231.897L155.289 236.017L154.265 236.019L154.264 235.563L154.256 235.563C154.065 235.868 153.665 236.125 153.065 236.126C152.417 236.128 151.873 235.825 151.663 235.09C151.606 234.898 151.574 234.634 151.573 234.178L151.567 231.906L152.631 231.903L152.637 234.175C152.637 234.375 152.654 234.543 152.686 234.663C152.799 235.103 153.087 235.254 153.431 235.253ZM155.991 232.631L155.99 231.895L156.51 231.894L156.506 230.622L157.57 230.619L157.574 231.891L158.31 231.889L158.311 232.625L157.575 232.627L157.581 234.707C157.582 235.179 157.702 235.227 158.11 235.226L158.334 235.225L158.336 236.009L157.832 236.01C157.4 236.012 157.232 236.004 157.096 235.972C156.776 235.901 156.599 235.718 156.542 235.326C156.526 235.222 156.518 235.086 156.517 234.91L156.511 232.63L155.991 232.631Z" fill="white"/>
<path d="M45.8914 60.497L46.8834 60.4945C46.9886 60.9983 47.3895 61.3333 47.9095 61.332C48.5095 61.3305 48.9403 60.8654 48.9386 60.1934C48.9371 59.5694 48.5199 59.1064 47.9119 59.108C47.5439 59.1089 47.2643 59.2696 47.073 59.526L46.033 59.5286L46.5054 56.5035L49.6894 56.4955L49.6916 57.3595L47.2756 57.3655L47.0628 58.6381L47.0788 58.654C47.2704 58.4776 47.6299 58.3007 48.1419 58.2994C49.2299 58.2967 49.9199 59.103 49.9226 60.159C49.9254 61.2869 49.1436 62.1929 47.8956 62.196C46.7116 62.199 45.9418 61.4489 45.8914 60.497ZM56.3093 58.687L56.3116 59.575L53.6316 59.5817L53.6356 61.1977L56.7236 61.19L56.7258 62.078L52.5338 62.0885L52.5199 56.4885L56.6638 56.4781L56.666 57.3581L53.626 57.3657L53.6294 58.6937L56.3093 58.687ZM60.1484 61.2775L60.1404 61.2775C59.965 61.5259 59.5576 61.775 58.9736 61.7764C57.9896 61.7789 57.1718 61.0609 57.1687 59.7969C57.1656 58.5569 58.0278 57.8268 58.9478 57.8245C59.5878 57.8229 59.9484 58.094 60.1409 58.2775L60.1489 58.2775L60.1481 57.9495L61.1801 57.9469L61.1896 61.7629C61.1905 62.1229 61.1351 62.363 61.0396 62.5713C60.7372 63.212 60.058 63.5257 59.186 63.5279C58.066 63.5307 57.3844 62.9084 57.3347 62.2285L58.4147 62.2258C58.4795 62.5296 58.784 62.7289 59.248 62.7277C59.688 62.7266 59.9756 62.5579 60.0945 62.1496C60.1263 62.0375 60.1419 61.8935 60.1414 61.6855L60.1413 61.6375C60.141 61.5335 60.1407 61.4055 60.1484 61.2775ZM60.1847 59.7894C60.1829 59.0614 59.7338 58.6465 59.2058 58.6478C58.6698 58.6492 58.2229 59.0823 58.2247 59.8023C58.2265 60.5143 58.6676 60.9532 59.2116 60.9518C59.7396 60.9505 60.1865 60.5254 60.1847 59.7894ZM64.9365 61.2655L64.9285 61.2656C64.7531 61.514 64.3457 61.763 63.7617 61.7645C62.7777 61.7669 61.9599 61.049 61.9568 59.785C61.9537 58.545 62.8159 57.8148 63.7359 57.8125C64.3759 57.8109 64.7366 58.082 64.929 58.2656L64.937 58.2655L64.9362 57.9375L65.9682 57.935L65.9777 61.751C65.9786 62.111 65.9232 62.3511 65.8277 62.5593C65.5253 63.2001 64.8461 63.5138 63.9741 63.516C62.8541 63.5187 62.1725 62.8964 62.1228 62.2166L63.2028 62.2139C63.2676 62.5177 63.5721 62.717 64.0361 62.7158C64.4761 62.7147 64.7637 62.546 64.8827 62.1377C64.9144 62.0256 64.93 61.8816 64.9295 61.6736L64.9294 61.6256C64.9291 61.5216 64.9288 61.3936 64.9365 61.2655ZM64.9728 59.7775C64.971 59.0495 64.5219 58.6346 63.9939 58.6359C63.4579 58.6372 63.011 59.0703 63.0128 59.7903C63.0146 60.5023 63.4557 60.9412 63.9997 60.9399C64.5277 60.9386 64.9746 60.5135 64.9728 59.7775ZM66.6832 60.7012L67.6992 60.6987C67.7084 61.1946 68.149 61.4015 68.613 61.4004C68.949 61.3996 69.3886 61.2625 69.3876 60.8625C69.3869 60.5665 69.0667 60.4793 68.4583 60.3208L68.098 60.2257C67.4416 60.0513 66.809 59.8209 66.8071 59.0449C66.8049 58.1649 67.668 57.8107 68.548 57.8085C69.468 57.8062 70.2368 58.1403 70.3274 59.1561L69.3354 59.1586C69.3022 58.7027 68.9819 58.5515 68.5179 58.5526C68.1419 58.5536 67.8382 58.6743 67.8388 58.9463C67.8396 59.2343 68.1518 59.3135 68.6 59.4244L69.0403 59.5353C69.7287 59.7096 70.4574 59.9798 70.4594 60.7718C70.4617 61.7078 69.6548 62.1498 68.6068 62.1524C67.6628 62.1548 66.7339 61.7971 66.6832 60.7012ZM74.1096 62.0347L73.0056 62.0374L72.9917 56.4375L77.0077 56.4275L77.0098 57.3075L74.0979 57.3147L74.1012 58.6427L76.6532 58.6363L76.6554 59.5243L74.1034 59.5307L74.1096 62.0347ZM80.204 60.8195L81.308 60.8168C81.0219 61.6015 80.3592 62.1231 79.3752 62.1256C78.0552 62.1289 77.2609 61.1948 77.2578 59.9548C77.2547 58.7148 78.0524 57.7769 79.3084 57.7737C80.3404 57.7712 80.9979 58.3935 81.2481 59.2729C81.3208 59.5287 81.3535 59.8166 81.3543 60.1366L81.3545 60.2406L78.3466 60.2481C78.4044 60.984 78.8531 61.2869 79.3731 61.2856C79.8291 61.2844 80.0846 61.0518 80.204 60.8195ZM79.3103 58.5577C78.7583 58.5591 78.3914 58.968 78.3447 59.5121L80.2647 59.5074C80.2474 58.9634 79.8863 58.5563 79.3103 58.5577ZM83.1345 58.3802L83.1505 58.3802C83.2857 58.0598 83.637 57.7629 84.261 57.7614L84.333 57.7612L84.3355 58.7452C84.2554 58.7374 84.1834 58.7296 84.1114 58.7298C83.4714 58.7314 83.1763 59.1001 83.1782 59.8361L83.1836 62.0121L82.1196 62.0147L82.1093 57.8948L83.1333 57.8922L83.1345 58.3802ZM84.6422 58.6244L84.6403 57.8884L85.1603 57.8871L85.1571 56.6152L86.2211 56.6125L86.2243 57.8845L86.9603 57.8827L86.9621 58.6187L86.2261 58.6205L86.2313 60.7005C86.2325 61.1725 86.3526 61.2202 86.7606 61.2192L86.9846 61.2186L86.9866 62.0026L86.4826 62.0039C86.0506 62.0049 85.8826 61.9974 85.7465 61.9657C85.4263 61.8945 85.2498 61.7109 85.1929 61.3191C85.1766 61.2151 85.1683 61.0791 85.1678 60.9031L85.1621 58.6231L84.6422 58.6244ZM87.7076 57.3208L87.7053 56.4008L88.7693 56.3982L88.7716 57.3182L87.7076 57.3208ZM87.7193 62.0008L87.709 57.8808L88.773 57.8781L88.7833 61.9981L87.7193 62.0008ZM89.7964 61.9956L89.7825 56.3956L90.8465 56.393L90.8604 61.993L89.7964 61.9956ZM91.862 57.3105L91.8597 56.3905L92.9237 56.3878L92.926 57.3078L91.862 57.3105ZM91.8736 61.9904L91.8634 57.8704L92.9274 57.8678L92.9376 61.9878L91.8736 61.9904ZM93.6788 61.9859L93.6768 61.1619L95.8386 58.6925L93.7826 58.6977L93.7805 57.8657L97.1645 57.8572L97.1666 58.6812L94.9967 61.1427L97.2767 61.137L97.2788 61.977L93.6788 61.9859ZM100.643 60.7686L101.747 60.7658C101.461 61.5505 100.798 62.0722 99.8139 62.0747C98.4939 62.0779 97.6996 61.1439 97.6965 59.9039C97.6934 58.6639 98.4911 57.7259 99.7471 57.7228C100.779 57.7202 101.437 58.3426 101.687 59.222C101.759 59.4778 101.792 59.7657 101.793 60.0857L101.793 60.1897L98.7852 60.1972C98.8431 60.9331 99.2918 61.236 99.8118 61.2347C100.268 61.2335 100.523 61.0009 100.643 60.7686ZM99.749 58.5068C99.197 58.5082 98.8301 58.9171 98.7834 59.4612L100.703 59.4564C100.686 58.9125 100.325 58.5054 99.749 58.5068Z" fill="#ECC069"/>
<path d="M148.961 60.4298C149.002 61.1337 149.372 61.5648 150.052 61.5631C150.756 61.5613 151.098 61.1285 151.097 60.6165C151.096 60.0165 150.599 59.7457 149.879 59.7475L149.647 59.7481L149.645 58.9561L149.829 58.9556C150.485 58.954 150.916 58.6889 150.915 58.1449C150.914 57.7849 150.665 57.4256 150.041 57.4271C149.369 57.4288 149.09 57.9335 149.092 58.3815L148.116 58.3839C148.161 57.3278 148.895 56.606 150.087 56.603C151.239 56.6001 151.937 57.1824 151.939 58.0224C151.94 58.7264 151.581 59.0473 151.198 59.2482L151.198 59.2562C151.694 59.423 152.151 59.8699 152.153 60.6299C152.156 61.7259 151.286 62.408 150.062 62.4111C148.758 62.4143 148.004 61.6722 147.969 60.4323L148.961 60.4298ZM158.143 62.2869L157.087 62.2896L156.127 59.1319C155.998 58.7083 155.893 58.2525 155.828 57.9487L155.812 57.9487C155.821 58.2607 155.854 58.7246 155.856 59.3646L155.863 62.2926L154.799 62.2953L154.785 56.6953L156.409 56.6912L157.337 59.7929C157.49 60.2966 157.555 60.6404 157.62 60.9282L157.636 60.9282C157.699 60.64 157.778 60.2878 157.913 59.7915L158.761 56.6854L160.409 56.6813L160.423 62.2813L159.359 62.2839L159.352 59.3399C159.35 58.7719 159.389 58.2518 159.396 57.9398L159.38 57.9398C159.309 58.244 159.206 58.7163 159.079 59.1406L158.143 62.2869ZM162.358 59.4044L161.382 59.3909C161.436 58.4467 162.179 58.0369 163.179 58.0344C163.883 58.0326 164.603 58.2628 164.821 58.9423C164.885 59.1421 164.918 59.39 164.919 59.782L164.924 61.702C164.924 61.974 164.949 62.118 165.021 62.2458L165.021 62.2698L164.029 62.2723L164.004 61.9203L163.996 61.9204C163.805 62.1048 163.477 62.3856 162.757 62.3874C161.893 62.3896 161.188 61.8953 161.186 61.0954C161.183 60.0074 162.407 59.8363 163.287 59.7061L163.463 59.6817C163.759 59.6409 163.862 59.5367 163.862 59.3127C163.861 59.0087 163.604 58.7933 163.14 58.7945C162.9 58.7951 162.701 58.8516 162.565 58.9639C162.445 59.0682 162.373 59.2124 162.358 59.4044ZM162.979 61.5949C163.347 61.594 163.739 61.449 163.866 61.0807C163.89 61.0086 163.906 60.9366 163.905 60.7366L163.904 60.2166C163.808 60.2568 163.592 60.3214 163.304 60.3941L163.049 60.4587C162.737 60.5395 162.521 60.612 162.401 60.7323C162.321 60.8125 162.274 60.9246 162.274 61.0526C162.275 61.4046 162.547 61.596 162.979 61.5949ZM165.89 62.2676L165.876 56.6677L166.94 56.665L166.947 59.681L168.423 58.1413L169.719 58.1381L168.131 59.678L169.85 62.2578L168.594 62.2609L167.429 60.3838L166.95 60.841L166.954 62.265L165.89 62.2676ZM172.777 61.0505L173.881 61.0477C173.595 61.8324 172.932 62.3541 171.948 62.3565C170.628 62.3598 169.834 61.4258 169.831 60.1858C169.828 58.9458 170.625 58.0078 171.881 58.0047C172.913 58.0021 173.571 58.6245 173.821 59.5039C173.894 59.7597 173.926 60.0476 173.927 60.3676L173.927 60.4716L170.919 60.4791C170.977 61.215 171.426 61.5178 171.946 61.5165C172.402 61.5154 172.657 61.2828 172.777 61.0505ZM171.883 58.7887C171.331 58.7901 170.964 59.199 170.918 59.7431L172.838 59.7383C172.82 59.1944 172.459 58.7873 171.883 58.7887ZM176.438 57.5613L176.435 56.6413L177.499 56.6387L177.502 57.5587L176.438 57.5613ZM176.449 62.2413L176.439 58.1213L177.503 58.1187L177.513 62.2387L176.449 62.2413ZM178.214 58.8529L178.212 58.1169L178.732 58.1156L178.729 56.8436L179.793 56.841L179.796 58.113L180.532 58.1111L180.534 58.8471L179.798 58.849L179.803 60.929C179.804 61.401 179.925 61.4487 180.333 61.4476L180.557 61.4471L180.558 62.2311L180.054 62.2323C179.622 62.2334 179.454 62.2258 179.318 62.1942C178.998 62.123 178.822 61.9394 178.765 61.5476C178.749 61.4436 178.74 61.3076 178.74 61.1316L178.734 58.8516L178.214 58.8529ZM186.914 57.4952L185.218 57.4995L185.229 62.2194L184.109 62.2222L184.098 57.5023L182.402 57.5065L182.4 56.6265L186.912 56.6152L186.914 57.4952ZM188.488 62.3233C187.184 62.3266 186.414 61.4005 186.411 60.1525C186.408 58.9045 187.222 57.9745 188.478 57.9713C189.734 57.9682 190.552 58.8942 190.555 60.1422C190.558 61.3902 189.776 62.3201 188.488 62.3233ZM188.48 58.7953C187.888 58.7968 187.497 59.3018 187.499 60.1658C187.501 61.0378 187.886 61.4928 188.486 61.4913C189.086 61.4898 189.469 61.0329 189.467 60.1609C189.465 59.2969 189.072 58.7939 188.48 58.7953ZM196.768 60.4227L197.84 60.42C197.579 61.5567 196.693 62.2949 195.445 62.298C193.805 62.3021 192.858 61.0644 192.854 59.4244C192.849 57.7685 193.798 56.4941 195.47 56.4899C196.678 56.4869 197.624 57.2126 197.811 58.4121L196.763 58.4147C196.674 57.8469 196.168 57.3762 195.472 57.3779C194.488 57.3804 193.971 58.2137 193.974 59.4217C193.977 60.6217 194.514 61.4123 195.466 61.4099C196.138 61.4083 196.585 61.0072 196.768 60.4227ZM198.544 62.1863L198.53 56.5863L199.594 56.5836L199.608 62.1836L198.544 62.1863ZM203.306 60.9744L204.41 60.9717C204.124 61.7564 203.462 62.278 202.478 62.2805C201.158 62.2838 200.363 61.3497 200.36 60.1097C200.357 58.8697 201.155 57.9318 202.411 57.9286C203.443 57.9261 204.1 58.5484 204.351 59.4278C204.423 59.6836 204.456 59.9715 204.457 60.2915L204.457 60.3955L201.449 60.403C201.507 61.1389 201.956 61.4418 202.476 61.4405C202.932 61.4393 203.187 61.2067 203.306 60.9744ZM202.413 58.7126C201.861 58.714 201.494 59.1229 201.447 59.667L203.367 59.6623C203.35 59.1183 202.989 58.7112 202.413 58.7126ZM206.127 59.2954L205.151 59.2818C205.204 58.3377 205.947 57.9278 206.947 57.9253C207.651 57.9236 208.372 58.1538 208.59 58.8332C208.654 59.0331 208.687 59.281 208.688 59.673L208.693 61.593C208.693 61.865 208.718 62.0089 208.79 62.1367L208.79 62.1607L207.798 62.1632L207.773 61.8113L207.765 61.8113C207.574 61.9958 207.246 62.2766 206.526 62.2784C205.662 62.2805 204.957 61.7863 204.955 60.9863C204.952 59.8983 206.176 59.7273 207.056 59.5971L207.232 59.5726C207.527 59.5319 207.631 59.4276 207.631 59.2036C207.63 58.8996 207.373 58.6843 206.909 58.6854C206.669 58.686 206.469 58.7425 206.334 58.8549C206.214 58.9592 206.142 59.1033 206.127 59.2954ZM206.748 61.4858C207.116 61.4849 207.508 61.3399 207.635 60.9716C207.659 60.8996 207.675 60.8275 207.674 60.6275L207.673 60.1075C207.577 60.1478 207.361 60.2123 207.073 60.285L206.818 60.3497C206.506 60.4304 206.29 60.503 206.17 60.6233C206.09 60.7035 206.043 60.8156 206.043 60.9436C206.044 61.2956 206.316 61.4869 206.748 61.4858ZM209.122 58.0399L210.218 58.0372L210.887 60.2995L211.073 60.9551L211.089 60.955L211.271 60.2986L211.946 58.0329L213.018 58.0302L211.588 62.1538L210.508 62.1565L209.122 58.0399ZM214.367 59.2748L213.391 59.2613C213.445 58.3171 214.188 57.9073 215.188 57.9048C215.892 57.903 216.612 58.1332 216.83 58.8127C216.895 59.0125 216.927 59.2605 216.928 59.6525L216.933 61.5725C216.934 61.8445 216.958 61.9884 217.03 62.1162L217.03 62.1402L216.038 62.1427L216.013 61.7907L216.005 61.7908C215.814 61.9752 215.487 62.2561 214.767 62.2579C213.903 62.26 213.197 61.7658 213.195 60.9658C213.193 59.8778 214.416 59.7067 215.296 59.5765L215.472 59.5521C215.768 59.5114 215.871 59.4071 215.871 59.1831C215.87 58.8791 215.614 58.6637 215.15 58.6649C214.91 58.6655 214.71 58.722 214.574 58.8343C214.454 58.9386 214.383 59.0828 214.367 59.2748ZM214.989 61.4653C215.357 61.4644 215.748 61.3194 215.875 60.9511C215.899 60.879 215.915 60.807 215.914 60.607L215.913 60.087C215.817 60.1272 215.601 60.1918 215.314 60.2645L215.058 60.3291C214.746 60.4099 214.53 60.4824 214.41 60.6027C214.331 60.6829 214.283 60.7951 214.283 60.9231C214.284 61.2751 214.557 61.4664 214.989 61.4653ZM220.633 61.3392L220.625 61.3393C220.45 61.5877 220.042 61.8367 219.458 61.8382C218.474 61.8406 217.656 61.1227 217.653 59.8587C217.65 58.6187 218.512 57.8885 219.432 57.8862C220.072 57.8846 220.433 58.1557 220.625 58.3392L220.633 58.3392L220.633 58.0112L221.665 58.0087L221.674 61.8246C221.675 62.1846 221.62 62.4248 221.524 62.633C221.222 63.2738 220.542 63.5875 219.67 63.5896C218.55 63.5924 217.869 62.9701 217.819 62.2903L218.899 62.2876C218.964 62.5914 219.269 62.7906 219.732 62.7895C220.172 62.7884 220.46 62.6197 220.579 62.2114C220.611 62.0993 220.626 61.9553 220.626 61.7473L220.626 61.6993C220.626 61.5953 220.625 61.4673 220.633 61.3392ZM220.669 59.8511C220.667 59.1231 220.218 58.7083 219.69 58.7096C219.154 58.7109 218.707 59.144 218.709 59.864C218.711 60.576 219.152 61.0149 219.696 61.0136C220.224 61.0123 220.671 60.5871 220.669 59.8511ZM225.372 60.9194L226.476 60.9167C226.19 61.7014 225.527 62.223 224.543 62.2255C223.223 62.2288 222.429 61.2948 222.426 60.0548C222.423 58.8148 223.22 57.8768 224.476 57.8737C225.508 57.8711 226.166 58.4934 226.416 59.3728C226.489 59.6286 226.521 59.9166 226.522 60.2366L226.523 60.3406L223.515 60.3481C223.572 61.0839 224.021 61.3868 224.541 61.3855C224.997 61.3844 225.253 61.1517 225.372 60.9194ZM224.478 58.6576C223.926 58.659 223.559 59.0679 223.513 59.6121L225.433 59.6073C225.415 59.0633 225.054 58.6562 224.478 58.6576Z" fill="#ECC069"/>
<path d="M263.923 58.798L262.899 58.8006C262.896 57.5206 263.678 56.7746 264.854 56.7717C265.998 56.7688 266.728 57.439 266.73 58.495C266.732 59.383 266.262 59.9362 265.591 60.4259L265.216 60.6988C264.777 61.0199 264.313 61.3171 264.218 61.5893L266.826 61.5828L266.828 62.4708L262.844 62.4807C262.921 61.2485 263.744 60.6145 264.678 59.9161L264.829 59.7958C265.356 59.3944 265.676 59.0657 265.674 58.5217C265.673 57.9937 265.336 57.6825 264.824 57.6838C264.176 57.6854 263.922 58.198 263.923 58.798ZM272.811 62.4559L271.755 62.4585L270.795 59.3009C270.666 58.8772 270.561 58.4215 270.496 58.1176L270.48 58.1177C270.489 58.4297 270.522 58.8936 270.523 59.5336L270.531 62.4616L269.467 62.4642L269.453 56.8642L271.077 56.8602L272.004 59.9619C272.158 60.4655 272.222 60.8093 272.287 61.0972L272.303 61.0971C272.366 60.809 272.446 60.4568 272.58 59.9605L273.429 56.8543L275.077 56.8502L275.091 62.4502L274.027 62.4529L274.019 59.5089C274.018 58.9409 274.057 58.4208 274.064 58.1088L274.048 58.1088C273.977 58.413 273.874 58.8852 273.747 59.3095L272.811 62.4559ZM277.025 59.5734L276.049 59.5598C276.103 58.6157 276.846 58.2058 277.846 58.2033C278.55 58.2016 279.271 58.4318 279.488 59.1112C279.553 59.3111 279.585 59.559 279.586 59.951L279.591 61.871C279.592 62.143 279.616 62.2869 279.689 62.4148L279.689 62.4388L278.697 62.4412L278.672 62.0893L278.664 62.0893C278.472 62.2738 278.145 62.5546 277.425 62.5564C276.561 62.5585 275.856 62.0643 275.854 61.2643C275.851 60.1763 277.074 60.0053 277.954 59.8751L278.13 59.8506C278.426 59.8099 278.53 59.7056 278.529 59.4816C278.528 59.1776 278.272 58.9623 277.808 58.9634C277.568 58.964 277.368 59.0205 277.232 59.1329C277.113 59.2372 277.041 59.3813 277.025 59.5734ZM277.647 61.7638C278.015 61.7629 278.407 61.6179 278.534 61.2496C278.557 61.1776 278.573 61.1055 278.573 60.9055L278.571 60.3855C278.476 60.4258 278.26 60.4903 277.972 60.563L277.716 60.6277C277.404 60.7084 277.188 60.781 277.069 60.9013C276.989 60.9815 276.941 61.0936 276.942 61.2216C276.942 61.5736 277.215 61.7649 277.647 61.7638ZM280.557 62.4366L280.543 56.8366L281.607 56.834L281.615 59.8499L283.091 58.3103L284.387 58.307L282.799 59.847L284.517 62.4267L283.261 62.4298L282.096 60.5527L281.618 61.0099L281.621 62.4339L280.557 62.4366ZM287.444 61.2194L288.548 61.2167C288.262 62.0014 287.6 62.523 286.616 62.5255C285.296 62.5288 284.501 61.5948 284.498 60.3548C284.495 59.1148 285.293 58.1768 286.549 58.1736C287.581 58.1711 288.238 58.7934 288.488 59.6728C288.561 59.9286 288.594 60.2166 288.595 60.5366L288.595 60.6406L285.587 60.648C285.645 61.3839 286.093 61.6868 286.613 61.6855C287.069 61.6844 287.325 61.4517 287.444 61.2194ZM286.551 58.9576C285.999 58.959 285.632 59.3679 285.585 59.9121L287.505 59.9073C287.488 59.3633 287.127 58.9562 286.551 58.9576ZM292.279 56.8074L292.293 62.4073L291.173 62.4101L291.159 56.8102L292.279 56.8074ZM293.014 59.0215L293.013 58.2855L293.533 58.2842L293.529 57.0122L294.593 57.0096L294.597 58.2816L295.333 58.2798L295.334 59.0158L294.598 59.0176L294.604 61.0976C294.605 61.5696 294.725 61.6173 295.133 61.6163L295.357 61.6157L295.359 62.3997L294.855 62.401C294.423 62.402 294.255 62.3945 294.119 62.3628C293.798 62.2916 293.622 62.108 293.565 61.7162C293.549 61.6122 293.54 61.4762 293.54 61.3002L293.534 59.0202L293.014 59.0215ZM301.714 57.6639L300.018 57.6681L300.03 62.3881L298.91 62.3909L298.898 57.6709L297.202 57.6751L297.2 56.7951L301.712 56.7839L301.714 57.6639ZM303.289 62.492C301.985 62.4952 301.214 61.5691 301.211 60.3211C301.208 59.0731 302.022 58.1431 303.278 58.14C304.534 58.1368 305.352 59.0628 305.355 60.3108C305.358 61.5588 304.577 62.4887 303.289 62.492ZM303.28 58.964C302.688 58.9654 302.297 59.4704 302.299 60.3344C302.301 61.2064 302.687 61.6614 303.287 61.66C303.887 61.6585 304.269 61.2015 304.267 60.3295C304.265 59.4655 303.872 58.9625 303.28 58.964ZM307.933 62.3684L307.919 56.7684L310.335 56.7624C310.607 56.7617 310.799 56.7772 310.983 56.8088C311.687 56.935 312.136 57.3579 312.138 58.0939C312.14 58.7979 311.749 59.1509 311.381 59.3198L311.381 59.3358C311.854 59.4866 312.407 59.9172 312.409 60.7252C312.411 61.5092 311.956 62.0304 311.308 62.24C311.061 62.3206 310.829 62.3612 310.397 62.3622L307.933 62.3684ZM309.025 57.6216L309.028 59.0056L310.18 59.0028C310.396 59.0022 310.532 58.9779 310.644 58.9376C310.964 58.8248 311.051 58.5686 311.051 58.2726C311.05 57.9766 310.929 57.7689 310.593 57.6737C310.473 57.642 310.297 57.6185 310.081 57.619L309.025 57.6216ZM309.03 59.8136L309.035 61.4936L310.251 61.4906C310.539 61.4899 310.69 61.4655 310.826 61.4172C311.21 61.2802 311.321 60.9679 311.32 60.6159C311.32 60.2879 311.183 60.0003 310.815 59.8812C310.67 59.8336 310.51 59.8099 310.246 59.8106L309.03 59.8136ZM313.188 62.3553L313.174 56.7553L314.238 56.7527L314.252 62.3526L313.188 62.3553ZM316.17 59.4758L315.194 59.4623C315.248 58.5181 315.991 58.1083 316.991 58.1058C317.695 58.104 318.415 58.3342 318.633 59.0137C318.698 59.2135 318.73 59.4615 318.731 59.8535L318.736 61.7735C318.737 62.0455 318.761 62.1894 318.833 62.3172L318.833 62.3412L317.841 62.3437L317.817 61.9918L317.809 61.9918C317.617 62.1763 317.29 62.4571 316.57 62.4589C315.706 62.461 315.001 61.9668 314.999 61.1668C314.996 60.0788 316.219 59.9077 317.099 59.7775L317.275 59.7531C317.571 59.7124 317.675 59.6081 317.674 59.3841C317.673 59.0801 317.417 58.8647 316.953 58.8659C316.713 58.8665 316.513 58.923 316.377 59.0353C316.257 59.1396 316.186 59.2838 316.17 59.4758ZM316.792 61.6663C317.16 61.6654 317.551 61.5204 317.678 61.1521C317.702 61.08 317.718 61.008 317.718 60.808L317.716 60.288C317.62 60.3282 317.405 60.3928 317.117 60.4655L316.861 60.5301C316.549 60.6109 316.333 60.6834 316.214 60.8037C316.134 60.8839 316.086 60.9961 316.086 61.1241C316.087 61.4761 316.36 61.6674 316.792 61.6663ZM319.395 60.9878L320.411 60.9853C320.42 61.4813 320.86 61.6882 321.324 61.687C321.66 61.6862 322.1 61.5491 322.099 61.1491C322.098 60.8531 321.778 60.7659 321.17 60.6074L320.809 60.5123C320.153 60.3379 319.52 60.1075 319.519 59.3315C319.516 58.4515 320.379 58.0974 321.259 58.0952C322.179 58.0929 322.948 58.427 323.039 59.4427L322.047 59.4452C322.014 58.9893 321.693 58.8381 321.229 58.8392C320.853 58.8402 320.55 58.9609 320.55 59.2329C320.551 59.5209 320.863 59.6002 321.311 59.711L321.752 59.8219C322.44 59.9962 323.169 60.2664 323.171 61.0584C323.173 61.9944 322.366 62.4364 321.318 62.439C320.374 62.4414 319.445 62.0837 319.395 60.9878ZM323.553 58.9455L323.551 58.2095L324.071 58.2082L324.068 56.9362L325.132 56.9335L325.135 58.2055L325.871 58.2037L325.873 58.9397L325.137 58.9415L325.142 61.0215C325.143 61.4935 325.263 61.5412 325.671 61.5402L325.895 61.5396L325.897 62.3236L325.393 62.3249C324.961 62.326 324.793 62.3184 324.657 62.2867C324.337 62.2155 324.16 62.0319 324.103 61.6401C324.087 61.5361 324.079 61.4001 324.078 61.2241L324.073 58.9442L323.553 58.9455Z" fill="#ECC069"/>
<path d="M231.326 230.388L231.34 235.988L230.268 235.991L230.258 232.119L228.826 232.123L228.824 231.419C229.752 231.392 230.303 231.047 230.39 230.391L231.326 230.388ZM234.25 235.981L234.236 230.381L236.396 230.376C237.044 230.374 237.364 230.453 237.717 230.612C238.542 230.994 239.088 231.833 239.091 233.137C239.094 234.265 238.696 235.194 237.873 235.66C237.514 235.861 237.114 235.974 236.466 235.976L234.25 235.981ZM235.342 231.258L235.352 235.09L236.368 235.088C236.72 235.087 236.92 235.038 237.128 234.942C237.607 234.717 237.966 234.196 237.963 233.26C237.961 232.268 237.679 231.565 236.871 231.335C236.679 231.279 236.398 231.256 236.15 231.256L235.342 231.258ZM240.927 232.332L240.943 232.332C241.078 232.012 241.429 231.715 242.053 231.714L242.125 231.713L242.128 232.697C242.048 232.69 241.976 232.682 241.904 232.682C241.264 232.684 240.969 233.052 240.971 233.788L240.976 235.964L239.912 235.967L239.902 231.847L240.926 231.844L240.927 232.332ZM244.47 236.068C243.166 236.071 242.395 235.145 242.392 233.897C242.389 232.649 243.203 231.719 244.459 231.716C245.715 231.712 246.533 232.638 246.536 233.886C246.539 235.134 245.758 236.064 244.47 236.068ZM244.461 232.54C243.869 232.541 243.478 233.046 243.48 233.91C243.482 234.782 243.867 235.237 244.467 235.236C245.067 235.234 245.45 234.777 245.448 233.905C245.446 233.041 245.053 232.538 244.461 232.54ZM247.304 237.325L247.29 231.829L248.33 231.826L248.331 232.194L248.339 232.194C248.523 231.993 248.898 231.697 249.538 231.695C250.538 231.692 251.396 232.49 251.4 233.85C251.403 235.226 250.573 236.044 249.541 236.047C248.933 236.048 248.54 235.777 248.364 235.506L248.368 237.322L247.304 237.325ZM249.276 232.52C248.7 232.521 248.309 233.01 248.312 233.89C248.314 234.77 248.731 235.217 249.283 235.216C249.883 235.214 250.282 234.765 250.28 233.885C250.277 232.997 249.868 232.518 249.276 232.52ZM251.867 234.585L252.883 234.583C252.893 235.079 253.333 235.286 253.797 235.284C254.133 235.284 254.573 235.146 254.572 234.746C254.571 234.45 254.251 234.363 253.643 234.205L253.282 234.11C252.626 233.935 251.993 233.705 251.991 232.929C251.989 232.049 252.852 231.695 253.732 231.693C254.652 231.69 255.421 232.024 255.512 233.04L254.52 233.043C254.486 232.587 254.166 232.435 253.702 232.437C253.326 232.438 253.022 232.558 253.023 232.83C253.024 233.118 253.336 233.198 253.784 233.308L254.225 233.419C254.913 233.594 255.642 233.864 255.644 234.656C255.646 235.592 254.839 236.034 253.791 236.036C252.847 236.039 251.918 235.681 251.867 234.585ZM260.518 236.02C258.886 236.024 257.923 234.858 257.919 233.122C257.915 231.426 258.936 230.216 260.504 230.212C262.08 230.208 263.107 231.413 263.111 233.109C263.115 234.845 262.15 236.016 260.518 236.02ZM260.506 231.092C259.53 231.094 259.036 232.023 259.039 233.119C259.042 234.255 259.532 235.142 260.516 235.14C261.508 235.137 261.994 234.248 261.991 233.112C261.988 232.016 261.49 231.089 260.506 231.092ZM265.728 235.135C266.168 235.134 266.519 234.829 266.518 234.117L266.512 231.781L267.576 231.778L267.586 235.898L266.562 235.901L266.561 235.445L266.553 235.445C266.362 235.749 265.962 236.006 265.362 236.008C264.714 236.009 264.169 235.707 263.96 234.971C263.903 234.779 263.87 234.515 263.869 234.059L263.864 231.787L264.928 231.785L264.933 234.057C264.934 234.257 264.95 234.425 264.983 234.544C265.096 234.984 265.384 235.135 265.728 235.135ZM268.288 232.512L268.286 231.776L268.806 231.775L268.803 230.503L269.867 230.5L269.87 231.772L270.606 231.77L270.608 232.506L269.872 232.508L269.877 234.588C269.879 235.06 269.999 235.108 270.407 235.107L270.631 235.106L270.633 235.89L270.129 235.892C269.697 235.893 269.529 235.885 269.393 235.854C269.072 235.782 268.896 235.599 268.839 235.207C268.823 235.103 268.814 234.967 268.814 234.791L268.808 232.511L268.288 232.512Z" fill="white"/>
<circle cx="51.277" cy="145.5" r="19" stroke="white"/>
<circle cx="95.277" cy="121.5" r="19" stroke="white"/>
<circle cx="95.277" cy="170.5" r="19" stroke="white"/>
<circle cx="204.277" cy="125.5" r="19" stroke="white"/>
<circle cx="166.873" cy="150" r="19" stroke="white"/>
<circle cx="204.277" cy="170" r="19" stroke="white"/>
<circle cx="269.277" cy="135.5" r="19" stroke="white"/>
<circle cx="308.277" cy="155.5" r="19" stroke="white"/>
<circle cx="51.277" cy="189.5" r="19" stroke="white"/>
<path d="M138.624 223.507L141.28 218.381L135.513 218.644L138.624 223.507ZM112.069 188.285C120.18 189.781 135.957 198.012 137.921 219.056L138.917 218.963C136.9 197.351 120.668 188.854 112.251 187.302L112.069 188.285Z" fill="white"/>
<path d="M249.777 223.507L252.433 218.381L246.666 218.644L249.777 223.507ZM223.222 188.285C231.333 189.781 247.11 198.012 249.074 219.056L250.07 218.963C248.052 197.351 231.82 188.854 223.404 187.302L223.222 188.285Z" fill="white"/>
<circle cx="50.5" cy="100.5" r="19" stroke="white"/>
<path d="M210 125.4C206.633 125.4 203.9 128.253 203.9 131.75C203.9 135.247 206.632 138.1 210 138.1C213.368 138.1 216.1 135.247 216.1 131.75C216.1 128.253 213.368 125.4 210 125.4ZM210 137.606C206.907 137.606 204.383 134.983 204.383 131.75C204.383 128.517 206.907 125.894 210 125.894C213.093 125.894 215.617 128.517 215.617 131.75C215.617 134.983 213.093 137.606 210 137.606Z" fill="#ECC069" stroke="#ECC069" stroke-width="0.2"/>
<path d="M198 125.4C194.633 125.4 191.9 128.253 191.9 131.75C191.9 135.247 194.632 138.1 198 138.1C201.368 138.1 204.1 135.247 204.1 131.75C204.1 128.253 201.368 125.4 198 125.4ZM198 137.606C194.907 137.606 192.383 134.983 192.383 131.75C192.383 128.517 194.907 125.894 198 125.894C201.093 125.894 203.617 128.517 203.617 131.75C203.617 134.983 201.093 137.606 198 137.606Z" fill="#ECC069" stroke="#ECC069" stroke-width="0.2"/>
<path d="M210 125.6C213.367 125.6 216.1 122.747 216.1 119.25C216.1 115.753 213.368 112.9 210 112.9C206.632 112.9 203.9 115.753 203.9 119.25C203.9 122.747 206.632 125.6 210 125.6ZM210 113.394C213.093 113.394 215.617 116.017 215.617 119.25C215.617 122.483 213.093 125.106 210 125.106C206.907 125.106 204.383 122.483 204.383 119.25C204.383 116.017 206.907 113.394 210 113.394Z" fill="#ECC069" stroke="#ECC069" stroke-width="0.2"/>
<path d="M204.1 119.25C204.1 115.753 201.368 112.9 198 112.9C194.632 112.9 191.9 115.753 191.9 119.25C191.9 122.747 194.632 125.6 198 125.6C201.368 125.6 204.1 122.747 204.1 119.25ZM198 125.106C194.907 125.106 192.383 122.483 192.383 119.25C192.383 116.017 194.907 113.394 198 113.394C201.093 113.394 203.617 116.017 203.617 119.25C203.617 122.483 201.093 125.106 198 125.106Z" fill="#ECC069" stroke="#ECC069" stroke-width="0.2"/>
<path d="M210 169.4C206.633 169.4 203.9 172.253 203.9 175.75C203.9 179.247 206.632 182.1 210 182.1C213.368 182.1 216.1 179.247 216.1 175.75C216.1 172.253 213.368 169.4 210 169.4ZM210 181.606C206.907 181.606 204.383 178.983 204.383 175.75C204.383 172.517 206.907 169.894 210 169.894C213.093 169.894 215.617 172.517 215.617 175.75C215.617 178.983 213.093 181.606 210 181.606Z" fill="#ECC069" stroke="#ECC069" stroke-width="0.2"/>
<path d="M198 169.4C194.633 169.4 191.9 172.253 191.9 175.75C191.9 179.247 194.632 182.1 198 182.1C201.368 182.1 204.1 179.247 204.1 175.75C204.1 172.253 201.368 169.4 198 169.4ZM198 181.606C194.907 181.606 192.383 178.983 192.383 175.75C192.383 172.517 194.907 169.894 198 169.894C201.093 169.894 203.617 172.517 203.617 175.75C203.617 178.983 201.093 181.606 198 181.606Z" fill="#ECC069" stroke="#ECC069" stroke-width="0.2"/>
<path d="M210 169.6C213.367 169.6 216.1 166.747 216.1 163.25C216.1 159.753 213.368 156.9 210 156.9C206.632 156.9 203.9 159.753 203.9 163.25C203.9 166.747 206.632 169.6 210 169.6ZM210 157.394C213.093 157.394 215.617 160.017 215.617 163.25C215.617 166.483 213.093 169.106 210 169.106C206.907 169.106 204.383 166.483 204.383 163.25C204.383 160.017 206.907 157.394 210 157.394Z" fill="#ECC069" stroke="#ECC069" stroke-width="0.2"/>
<path d="M204.1 163.25C204.1 159.753 201.368 156.9 198 156.9C194.632 156.9 191.9 159.753 191.9 163.25C191.9 166.747 194.632 169.6 198 169.6C201.368 169.6 204.1 166.747 204.1 163.25ZM198 169.106C194.907 169.106 192.383 166.483 192.383 163.25C192.383 160.017 194.907 157.394 198 157.394C201.093 157.394 203.617 160.017 203.617 163.25C203.617 166.483 201.093 169.106 198 169.106Z" fill="#ECC069" stroke="#ECC069" stroke-width="0.2"/>
<path d="M173 149.4C169.633 149.4 166.9 152.253 166.9 155.75C166.9 159.247 169.632 162.1 173 162.1C176.368 162.1 179.1 159.247 179.1 155.75C179.1 152.253 176.368 149.4 173 149.4ZM173 161.606C169.907 161.606 167.383 158.983 167.383 155.75C167.383 152.517 169.907 149.894 173 149.894C176.093 149.894 178.617 152.517 178.617 155.75C178.617 158.983 176.093 161.606 173 161.606Z" fill="#ECC069" stroke="#ECC069" stroke-width="0.2"/>
<path d="M161 149.4C157.633 149.4 154.9 152.253 154.9 155.75C154.9 159.247 157.632 162.1 161 162.1C164.368 162.1 167.1 159.247 167.1 155.75C167.1 152.253 164.368 149.4 161 149.4ZM161 161.606C157.907 161.606 155.383 158.983 155.383 155.75C155.383 152.517 157.907 149.894 161 149.894C164.093 149.894 166.617 152.517 166.617 155.75C166.617 158.983 164.093 161.606 161 161.606Z" fill="#ECC069" stroke="#ECC069" stroke-width="0.2"/>
<path d="M173 149.6C176.367 149.6 179.1 146.747 179.1 143.25C179.1 139.753 176.368 136.9 173 136.9C169.632 136.9 166.9 139.753 166.9 143.25C166.9 146.747 169.632 149.6 173 149.6ZM173 137.394C176.093 137.394 178.617 140.017 178.617 143.25C178.617 146.483 176.093 149.106 173 149.106C169.907 149.106 167.383 146.483 167.383 143.25C167.383 140.017 169.907 137.394 173 137.394Z" fill="#ECC069" stroke="#ECC069" stroke-width="0.2"/>
<path d="M167.1 143.25C167.1 139.753 164.368 136.9 161 136.9C157.632 136.9 154.9 139.753 154.9 143.25C154.9 146.747 157.632 149.6 161 149.6C164.368 149.6 167.1 146.747 167.1 143.25ZM161 149.106C157.907 149.106 155.383 146.483 155.383 143.25C155.383 140.017 157.907 137.394 161 137.394C164.093 137.394 166.617 140.017 166.617 143.25C166.617 146.483 164.093 149.106 161 149.106Z" fill="#ECC069" stroke="#ECC069" stroke-width="0.2"/>
<path d="M18.256 275.4V276.456L19.264 276.128L19.48 276.792L18.472 277.128L19.096 277.976L18.528 278.384L17.904 277.536L17.288 278.384L16.72 277.976L17.336 277.12L16.336 276.792L16.552 276.128L17.552 276.456V275.4H18.256ZM20.0365 279.272H21.1085C21.1805 279.976 21.7005 280.224 22.3565 280.224C23.0125 280.224 23.4845 279.984 23.4845 279.48C23.4845 278.976 22.9005 278.832 22.2765 278.672L21.7725 278.544C20.7805 278.288 20.1645 277.912 20.1645 276.944C20.1645 275.872 21.1325 275.296 22.2845 275.296C23.4125 275.296 24.3725 275.776 24.4365 277.008H23.3885C23.3165 276.416 22.9085 276.168 22.2685 276.168C21.6445 276.168 21.2605 276.44 21.2605 276.832C21.2605 277.24 21.5085 277.4 22.3885 277.616L23.0045 277.768C23.4765 277.888 24.6045 278.152 24.6045 279.344C24.6045 280.392 23.7725 281.104 22.3245 281.104C20.9965 281.104 20.1165 280.552 20.0365 279.272ZM27.1703 281.112C25.8663 281.112 25.0983 280.184 25.0983 278.936C25.0983 277.688 25.9143 276.76 27.1703 276.76C28.4263 276.76 29.2423 277.688 29.2423 278.936C29.2423 280.184 28.4583 281.112 27.1703 281.112ZM27.1703 277.584C26.5783 277.584 26.1863 278.088 26.1863 278.952C26.1863 279.824 26.5703 280.28 27.1703 280.28C27.7703 280.28 28.1543 279.824 28.1543 278.952C28.1543 278.088 27.7623 277.584 27.1703 277.584ZM31.8098 280.232C32.2498 280.232 32.6018 279.928 32.6018 279.216V276.88H33.6658V281H32.6418V280.544H32.6338C32.4418 280.848 32.0418 281.104 31.4418 281.104C30.7938 281.104 30.2498 280.8 30.0418 280.064C29.9858 279.872 29.9538 279.608 29.9538 279.152V276.88H31.0178V279.152C31.0178 279.352 31.0338 279.52 31.0658 279.64C31.1778 280.08 31.4658 280.232 31.8098 280.232ZM35.7045 277.368H35.7205C35.8565 277.048 36.2085 276.752 36.8325 276.752H36.9045V277.736C36.8245 277.728 36.7525 277.72 36.6805 277.72C36.0405 277.72 35.7445 278.088 35.7445 278.824V281H34.6805V276.88H35.7045V277.368ZM40.0617 278.264C39.9977 277.936 39.7177 277.584 39.2297 277.584C38.6457 277.584 38.2617 278.056 38.2617 278.952C38.2617 279.88 38.6697 280.28 39.2617 280.28C39.7737 280.28 40.0057 279.944 40.1017 279.608H41.1097C40.9497 280.504 40.2777 281.112 39.2297 281.112C37.9017 281.112 37.1737 280.2 37.1737 278.936C37.1737 277.688 37.9577 276.76 39.2377 276.76C40.2457 276.76 40.9577 277.36 41.0697 278.264H40.0617ZM44.4916 279.8H45.5956C45.3076 280.584 44.6436 281.104 43.6596 281.104C42.3396 281.104 41.5476 280.168 41.5476 278.928C41.5476 277.688 42.3476 276.752 43.6036 276.752C44.6356 276.752 45.2916 277.376 45.5396 278.256C45.6116 278.512 45.6436 278.8 45.6436 279.12V279.224H42.6356C42.6916 279.96 43.1396 280.264 43.6596 280.264C44.1156 280.264 44.3716 280.032 44.4916 279.8ZM43.6036 277.536C43.0516 277.536 42.6836 277.944 42.6356 278.488H44.5556C44.5396 277.944 44.1796 277.536 43.6036 277.536ZM47.5402 276.88V278.04H46.3402V276.88H47.5402ZM47.5402 279.84V281H46.3402V279.84H47.5402ZM49.9821 279.272H51.0541C51.1261 279.976 51.6461 280.224 52.3021 280.224C52.9581 280.224 53.4301 279.984 53.4301 279.48C53.4301 278.976 52.8461 278.832 52.2221 278.672L51.7181 278.544C50.7261 278.288 50.1101 277.912 50.1101 276.944C50.1101 275.872 51.0781 275.296 52.2301 275.296C53.3581 275.296 54.3181 275.776 54.3821 277.008H53.3341C53.2621 276.416 52.8541 276.168 52.2141 276.168C51.5901 276.168 51.2061 276.44 51.2061 276.832C51.2061 277.24 51.4541 277.4 52.3341 277.616L52.9501 277.768C53.4221 277.888 54.5501 278.152 54.5501 279.344C54.5501 280.392 53.7181 281.104 52.2701 281.104C50.9421 281.104 50.0621 280.552 49.9821 279.272ZM60.5159 281V278.784C60.5159 278.536 60.4999 278.368 60.4599 278.224C60.3639 277.856 60.1399 277.648 59.7399 277.648C59.3239 277.648 58.9719 277.952 58.9719 278.664V281H57.9079V278.784C57.9079 278.536 57.8919 278.368 57.8519 278.224C57.7559 277.856 57.5319 277.648 57.1319 277.648C56.7159 277.648 56.3639 277.952 56.3639 278.664V281H55.2999V276.88H56.3239V277.336H56.3319C56.5239 277.032 56.9159 276.752 57.4999 276.752C58.0279 276.752 58.4519 276.968 58.7079 277.376C58.9479 277.064 59.4039 276.752 60.0679 276.752C60.7719 276.752 61.2839 277.056 61.4919 277.792C61.5479 277.984 61.5799 278.248 61.5799 278.704V281H60.5159ZM62.5489 276.32V275.4H63.6129V276.32H62.5489ZM62.5489 281V276.88H63.6129V281H62.5489ZM64.3221 277.616V276.88H64.8421V275.608H65.9061V276.88H66.6421V277.616H65.9061V279.696C65.9061 280.168 66.0261 280.216 66.4341 280.216H66.6581V281H66.1541C65.7221 281 65.5541 280.992 65.4181 280.96C65.0981 280.888 64.9221 280.704 64.8661 280.312C64.8501 280.208 64.8421 280.072 64.8421 279.896V277.616H64.3221ZM69.2628 277.624C68.9268 277.624 68.6788 277.8 68.5508 278.08C68.4868 278.224 68.4548 278.392 68.4548 278.752V281H67.3908V275.4H68.4548V277.288H68.4628C68.6548 277.024 69.0228 276.752 69.6308 276.752C70.2788 276.752 70.8388 277.056 71.0468 277.792C71.1028 277.984 71.1348 278.248 71.1348 278.704V281H70.0708V278.784C70.0708 278.384 70.0468 278.224 69.9748 278.056C69.8468 277.776 69.5988 277.624 69.2628 277.624ZM76.5457 279.8H77.6497C77.3617 280.584 76.6977 281.104 75.7137 281.104C74.3937 281.104 73.6017 280.168 73.6017 278.928C73.6017 277.688 74.4017 276.752 75.6577 276.752C76.6897 276.752 77.3457 277.376 77.5937 278.256C77.6657 278.512 77.6977 278.8 77.6977 279.12V279.224H74.6897C74.7457 279.96 75.1937 280.264 75.7137 280.264C76.1697 280.264 76.4257 280.032 76.5457 279.8ZM75.6577 277.536C75.1057 277.536 74.7377 277.944 74.6897 278.488H76.6097C76.5937 277.944 76.2337 277.536 75.6577 277.536ZM78.0762 277.616V276.88H78.5962V275.608H79.6602V276.88H80.3962V277.616H79.6602V279.696C79.6602 280.168 79.7802 280.216 80.1882 280.216H80.4122V281H79.9082C79.4762 281 79.3082 280.992 79.1722 280.96C78.8522 280.888 78.6762 280.704 78.6202 280.312C78.6042 280.208 78.5962 280.072 78.5962 279.896V277.616H78.0762ZM83.8137 278.128L82.8377 278.112C82.8937 277.168 83.6377 276.76 84.6377 276.76C85.3417 276.76 86.0617 276.992 86.2777 277.672C86.3417 277.872 86.3737 278.12 86.3737 278.512V280.432C86.3737 280.704 86.3977 280.848 86.4697 280.976V281H85.4777L85.4537 280.648H85.4457C85.2537 280.832 84.9257 281.112 84.2057 281.112C83.3417 281.112 82.6377 280.616 82.6377 279.816C82.6377 278.728 83.8617 278.56 84.7417 278.432L84.9177 278.408C85.2137 278.368 85.3177 278.264 85.3177 278.04C85.3177 277.736 85.0617 277.52 84.5977 277.52C84.3577 277.52 84.1577 277.576 84.0217 277.688C83.9017 277.792 83.8297 277.936 83.8137 278.128ZM84.4297 280.32C84.7977 280.32 85.1897 280.176 85.3177 279.808C85.3417 279.736 85.3577 279.664 85.3577 279.464V278.944C85.2617 278.984 85.0457 279.048 84.7577 279.12L84.5017 279.184C84.1897 279.264 83.9737 279.336 83.8537 279.456C83.7737 279.536 83.7257 279.648 83.7257 279.776C83.7257 280.128 83.9977 280.32 84.4297 280.32ZM87.3383 281V275.4H88.4023V281H87.3383ZM90.7084 276.88H91.8044L92.4684 279.144L92.6524 279.8H92.6684L92.8524 279.144L93.5324 276.88H94.6044L93.1644 281H92.0844L90.7084 276.88ZM95.1324 276.32V275.4H96.1964V276.32H95.1324ZM95.1324 281V276.88H96.1964V281H95.1324ZM98.1216 278.128L97.1456 278.112C97.2016 277.168 97.9456 276.76 98.9456 276.76C99.6496 276.76 100.37 276.992 100.586 277.672C100.65 277.872 100.682 278.12 100.682 278.512V280.432C100.682 280.704 100.706 280.848 100.778 280.976V281H99.7856L99.7616 280.648H99.7536C99.5616 280.832 99.2336 281.112 98.5136 281.112C97.6496 281.112 96.9456 280.616 96.9456 279.816C96.9456 278.728 98.1696 278.56 99.0496 278.432L99.2256 278.408C99.5216 278.368 99.6256 278.264 99.6256 278.04C99.6256 277.736 99.3696 277.52 98.9056 277.52C98.6656 277.52 98.4656 277.576 98.3296 277.688C98.2096 277.792 98.1376 277.936 98.1216 278.128ZM98.7376 280.32C99.1056 280.32 99.4976 280.176 99.6256 279.808C99.6496 279.736 99.6656 279.664 99.6656 279.464V278.944C99.5696 278.984 99.3536 279.048 99.0656 279.12L98.8096 279.184C98.4976 279.264 98.2816 279.336 98.1616 279.456C98.0816 279.536 98.0336 279.648 98.0336 279.776C98.0336 280.128 98.3056 280.32 98.7376 280.32ZM104.563 281H103.459V275.4H107.475V276.28H104.563V277.608H107.115V278.496H104.563V281ZM110.66 279.8H111.764C111.476 280.584 110.812 281.104 109.828 281.104C108.508 281.104 107.716 280.168 107.716 278.928C107.716 277.688 108.516 276.752 109.772 276.752C110.804 276.752 111.46 277.376 111.708 278.256C111.78 278.512 111.812 278.8 111.812 279.12V279.224H108.804C108.86 279.96 109.308 280.264 109.828 280.264C110.284 280.264 110.54 280.032 110.66 279.8ZM109.772 277.536C109.22 277.536 108.852 277.944 108.804 278.488H110.724C110.708 277.944 110.348 277.536 109.772 277.536ZM113.597 277.368H113.613C113.749 277.048 114.101 276.752 114.725 276.752H114.797V277.736C114.717 277.728 114.645 277.72 114.573 277.72C113.933 277.72 113.637 278.088 113.637 278.824V281H112.573V276.88H113.597V277.368ZM115.104 277.616V276.88H115.624V275.608H116.688V276.88H117.424V277.616H116.688V279.696C116.688 280.168 116.808 280.216 117.216 280.216H117.44V281H116.936C116.504 281 116.336 280.992 116.2 280.96C115.88 280.888 115.704 280.704 115.648 280.312C115.632 280.208 115.624 280.072 115.624 279.896V277.616H115.104ZM118.173 276.32V275.4H119.237V276.32H118.173ZM118.173 281V276.88H119.237V281H118.173ZM120.25 281V275.4H121.314V281H120.25ZM122.327 276.32V275.4H123.391V276.32H122.327ZM122.327 281V276.88H123.391V281H122.327ZM124.1 277.616V276.88H124.62V275.608H125.684V276.88H126.42V277.616H125.684V279.696C125.684 280.168 125.804 280.216 126.212 280.216H126.436V281H125.932C125.5 281 125.332 280.992 125.196 280.96C124.876 280.888 124.7 280.704 124.644 280.312C124.628 280.208 124.62 280.072 124.62 279.896V277.616H124.1ZM126.705 276.88H127.801L128.497 279.152L128.681 279.832H128.697L128.881 279.152L129.601 276.88H130.673L129.001 281.472C128.713 282.264 128.361 282.376 127.577 282.376H127.017V281.568H127.297C127.913 281.568 128.113 281.376 128.113 281.056C128.113 280.84 127.969 280.552 127.897 280.336L126.705 276.88ZM133.984 275.4V281H132.864V275.4H133.984ZM137.441 281.104C135.809 281.104 134.849 279.936 134.849 278.2C134.849 276.504 135.873 275.296 137.441 275.296C139.017 275.296 140.041 276.504 140.041 278.2C140.041 279.016 139.825 279.704 139.433 280.208L139.993 280.752L139.433 281.304L138.849 280.736C138.457 280.976 137.985 281.104 137.441 281.104ZM137.665 279.568L138.225 279.008L138.673 279.456C138.841 279.112 138.921 278.672 138.921 278.2C138.921 277.104 138.425 276.176 137.441 276.176C136.465 276.176 135.969 277.104 135.969 278.2C135.969 279.336 136.457 280.224 137.441 280.224C137.713 280.224 137.953 280.168 138.145 280.048L137.665 279.568Z" fill="white"/>
</g>
<defs>
<clipPath id="clip0_1128_14673">
<rect width="350" height="295" fill="white"/>
</clipPath>
</defs>
</svg>
