<svg width="350" height="348" viewBox="0 0 350 348" fill="none" xmlns="http://www.w3.org/2000/svg">
<g clip-path="url(#clip0_1128_14602)">
<path d="M45.8443 252.194C44.9683 252.194 44.2303 251.6 44.2303 249.998C44.2303 248.426 44.9803 247.838 45.8443 247.838C46.7203 247.838 47.4583 248.426 47.4583 249.998C47.4583 251.6 46.7203 252.194 45.8443 252.194ZM45.8443 248.492C45.2203 248.492 45.0403 249.212 45.0403 249.998C45.0403 250.808 45.2203 251.546 45.8443 251.546C46.4683 251.546 46.6363 250.814 46.6363 249.998C46.6363 249.212 46.4683 248.492 45.8443 248.492Z" fill="white"/>
<path d="M42.4568 134.753V133.847H40.5248V133.043L42.3908 130.553H43.2068V133.211H43.8128V133.847H43.2068V134.753H42.4568ZM42.4568 133.211V132.197C42.4568 131.855 42.4628 131.633 42.4688 131.441H42.4568C42.3608 131.609 42.2288 131.807 42.0308 132.077L41.5508 132.725L41.1668 133.217V133.223L41.6888 133.211H42.4568ZM45.8443 134.831C44.9683 134.831 44.2303 134.237 44.2303 132.635C44.2303 131.063 44.9803 130.475 45.8443 130.475C46.7203 130.475 47.4583 131.063 47.4583 132.635C47.4583 134.237 46.7203 134.831 45.8443 134.831ZM45.8443 131.129C45.2203 131.129 45.0403 131.849 45.0403 132.635C45.0403 133.445 45.2203 134.183 45.8443 134.183C46.4683 134.183 46.6363 133.451 46.6363 132.635C46.6363 131.849 46.4683 131.129 45.8443 131.129Z" fill="white"/>
<path d="M41.5592 192.21H40.7912C40.7912 191.25 41.3792 190.692 42.2612 190.692C43.1192 190.692 43.6652 191.196 43.6652 191.988C43.6652 192.654 43.3112 193.068 42.8072 193.434L42.5252 193.638C42.1952 193.878 41.8472 194.1 41.7752 194.304H43.7312V194.97H40.7432C40.8032 194.046 41.4212 193.572 42.1232 193.05L42.2372 192.96C42.6332 192.66 42.8732 192.414 42.8732 192.006C42.8732 191.61 42.6212 191.376 42.2372 191.376C41.7512 191.376 41.5592 191.76 41.5592 192.21ZM45.8443 195.048C44.9683 195.048 44.2303 194.454 44.2303 192.852C44.2303 191.28 44.9803 190.692 45.8443 190.692C46.7203 190.692 47.4583 191.28 47.4583 192.852C47.4583 194.454 46.7203 195.048 45.8443 195.048ZM45.8443 191.346C45.2203 191.346 45.0403 192.066 45.0403 192.852C45.0403 193.662 45.2203 194.4 45.8443 194.4C46.4683 194.4 46.6363 193.668 46.6363 192.852C46.6363 192.066 46.4683 191.346 45.8443 191.346Z" fill="white"/>
<path d="M43.6458 71.9427L42.9018 71.9607C42.8418 71.7927 42.6498 71.5347 42.2418 71.5347C41.7198 71.5347 41.3898 72.0207 41.3718 72.7227L41.3778 72.7287C41.4678 72.5847 41.8098 72.2847 42.3438 72.2847C43.2078 72.2847 43.7298 72.9387 43.7298 73.6887C43.7298 74.5287 43.1418 75.2247 42.1938 75.2247C41.6778 75.2247 41.2878 75.0207 41.0178 74.6727C40.7298 74.3007 40.6158 73.7607 40.6158 73.1547C40.6158 71.8407 41.0898 70.8747 42.2238 70.8747C43.0638 70.8747 43.5498 71.3607 43.6458 71.9427ZM41.4138 73.7547C41.4138 74.2527 41.7558 74.5827 42.1998 74.5827C42.6498 74.5827 42.9918 74.2527 42.9918 73.7547C42.9918 73.2567 42.6498 72.9207 42.1998 72.9207C41.7558 72.9207 41.4138 73.2567 41.4138 73.7547ZM45.8443 75.2247C44.9683 75.2247 44.2303 74.6307 44.2303 73.0287C44.2303 71.4567 44.9803 70.8687 45.8443 70.8687C46.7203 70.8687 47.4583 71.4567 47.4583 73.0287C47.4583 74.6307 46.7203 75.2247 45.8443 75.2247ZM45.8443 71.5227C45.2203 71.5227 45.0403 72.2427 45.0403 73.0287C45.0403 73.8387 45.2203 74.5767 45.8443 74.5767C46.4683 74.5767 46.6363 73.8447 46.6363 73.0287C46.6363 72.2427 46.4683 71.5227 45.8443 71.5227Z" fill="white"/>
<path d="M20.9561 213.811L15.3561 213.811L15.3561 211.483C15.3561 211.115 15.3881 210.899 15.4521 210.691C15.7081 209.851 16.4041 209.515 17.1241 209.515C17.8681 209.515 18.5961 209.875 18.8201 210.795C18.8601 210.971 18.8841 211.179 18.8841 211.467L18.8841 212.707L20.9561 212.707L20.9561 213.811ZM16.2361 212.707L18.0041 212.707L18.0041 211.779C18.0041 211.539 17.9881 211.347 17.9481 211.179C17.8521 210.811 17.6281 210.563 17.1161 210.563C16.5641 210.563 16.3241 210.883 16.2601 211.315C16.2361 211.443 16.2361 211.619 16.2361 211.811L16.2361 212.707ZM19.7561 206.243L19.7561 205.139C20.5401 205.427 21.0601 206.091 21.0601 207.075C21.0601 208.395 20.1241 209.187 18.8841 209.187C17.6441 209.187 16.7081 208.387 16.7081 207.131C16.7081 206.099 17.3321 205.443 18.2121 205.195C18.4681 205.123 18.7561 205.091 19.0761 205.091L19.1801 205.091L19.1801 208.099C19.9161 208.043 20.2201 207.595 20.2201 207.075C20.2201 206.619 19.9881 206.363 19.7561 206.243ZM17.4921 207.131C17.4921 207.683 17.9001 208.051 18.4441 208.099L18.4441 206.179C17.9001 206.195 17.4921 206.555 17.4921 207.131ZM17.3241 203.306L17.3241 203.29C17.0041 203.154 16.7081 202.802 16.7081 202.178L16.7081 202.106L17.6921 202.106C17.6841 202.186 17.6761 202.258 17.6761 202.33C17.6761 202.97 18.0441 203.266 18.7801 203.266L20.9561 203.266L20.9561 204.33L16.8361 204.33L16.8361 203.306L17.3241 203.306ZM18.2201 198.949C17.8921 199.013 17.5401 199.293 17.5401 199.781C17.5401 200.365 18.0121 200.749 18.9081 200.749C19.8361 200.749 20.2361 200.341 20.2361 199.749C20.2361 199.237 19.9001 199.005 19.5641 198.909L19.5641 197.901C20.4601 198.061 21.0681 198.733 21.0681 199.781C21.0681 201.109 20.1561 201.837 18.8921 201.837C17.6441 201.837 16.7161 201.053 16.7161 199.773C16.7161 198.765 17.3161 198.053 18.2201 197.941L18.2201 198.949ZM19.7561 194.519L19.7561 193.415C20.5401 193.703 21.0601 194.367 21.0601 195.351C21.0601 196.671 20.1241 197.463 18.8841 197.463C17.6441 197.463 16.7081 196.663 16.7081 195.407C16.7081 194.375 17.3321 193.719 18.2121 193.471C18.4681 193.399 18.7561 193.367 19.0761 193.367L19.1801 193.367L19.1801 196.375C19.9161 196.319 20.2201 195.871 20.2201 195.351C20.2201 194.895 19.9881 194.639 19.7561 194.519ZM17.4921 195.407C17.4921 195.959 17.9001 196.327 18.4441 196.375L18.4441 194.455C17.9001 194.471 17.4921 194.831 17.4921 195.407ZM17.5801 190.734C17.5801 191.07 17.7561 191.318 18.0361 191.446C18.1801 191.51 18.3481 191.542 18.7081 191.542L20.9561 191.542L20.9561 192.606L16.8361 192.606L16.8361 191.582L17.2921 191.582L17.2921 191.574C16.9881 191.382 16.7081 190.966 16.7081 190.366C16.7081 189.718 17.0121 189.158 17.7481 188.95C17.9401 188.894 18.2041 188.862 18.6601 188.862L20.9561 188.862L20.9561 189.926L18.7401 189.926C18.3401 189.926 18.1801 189.95 18.0121 190.022C17.7321 190.15 17.5801 190.398 17.5801 190.734ZM17.5721 188.263L16.8361 188.263L16.8361 187.743L15.5641 187.743L15.5641 186.679L16.8361 186.679L16.8361 185.943L17.5721 185.943L17.5721 186.679L19.6521 186.679C20.1241 186.679 20.1721 186.559 20.1721 186.151L20.1721 185.927L20.9561 185.927L20.9561 186.431C20.9561 186.863 20.9481 187.031 20.9161 187.167C20.8441 187.487 20.6601 187.663 20.2681 187.719C20.1641 187.735 20.0281 187.743 19.8521 187.743L17.5721 187.743L17.5721 188.263ZM18.0841 184.282L18.0681 185.258C17.1241 185.202 16.7161 184.458 16.7161 183.458C16.7161 182.754 16.9481 182.034 17.6281 181.818C17.8281 181.754 18.0761 181.722 18.4681 181.722L20.3881 181.722C20.6601 181.722 20.8041 181.698 20.9321 181.626L20.9561 181.626L20.9561 182.618L20.6041 182.642L20.6041 182.65C20.7881 182.842 21.0681 183.17 21.0681 183.89C21.0681 184.754 20.5721 185.458 19.7721 185.458C18.6841 185.458 18.5161 184.234 18.3881 183.354L18.3641 183.178C18.3241 182.882 18.2201 182.778 17.9961 182.778C17.6921 182.778 17.4761 183.034 17.4761 183.498C17.4761 183.738 17.5321 183.938 17.6441 184.074C17.7481 184.194 17.8921 184.266 18.0841 184.282ZM20.2761 183.666C20.2761 183.298 20.1321 182.906 19.7641 182.778C19.6921 182.754 19.6201 182.738 19.4201 182.738L18.9001 182.738C18.9401 182.834 19.0041 183.05 19.0761 183.338L19.1401 183.594C19.2201 183.906 19.2921 184.122 19.4121 184.242C19.4921 184.322 19.6041 184.37 19.7321 184.37C20.0841 184.37 20.2761 184.098 20.2761 183.666ZM20.1641 178.022L20.1641 178.03C20.4121 178.206 20.6601 178.614 20.6601 179.198C20.6601 180.182 19.9401 180.998 18.6761 180.998C17.4361 180.998 16.7081 180.134 16.7081 179.214C16.7081 178.574 16.9801 178.214 17.1641 178.022L17.1641 178.014L16.8361 178.014L16.8361 176.982L20.6521 176.982C21.0121 176.982 21.2521 177.038 21.4601 177.134C22.1001 177.438 22.4121 178.118 22.4121 178.99C22.4121 180.11 21.7881 180.79 21.1081 180.838L21.1081 179.758C21.4121 179.694 21.6121 179.39 21.6121 178.926C21.6121 178.486 21.4441 178.198 21.0361 178.078C20.9241 178.046 20.7801 178.03 20.5721 178.03L20.5241 178.03C20.4201 178.03 20.2921 178.03 20.1641 178.022ZM18.6761 177.982C17.9481 177.982 17.5321 178.43 17.5321 178.958C17.5321 179.494 17.9641 179.942 18.6841 179.942C19.3961 179.942 19.8361 179.502 19.8361 178.958C19.8361 178.43 19.4121 177.982 18.6761 177.982ZM19.7561 173.281L19.7561 172.177C20.5401 172.465 21.0601 173.129 21.0601 174.113C21.0601 175.433 20.1241 176.225 18.8841 176.225C17.6441 176.225 16.7081 175.425 16.7081 174.169C16.7081 173.137 17.3321 172.481 18.2121 172.233C18.4681 172.161 18.7561 172.129 19.0761 172.129L19.1801 172.129L19.1801 175.137C19.9161 175.081 20.2201 174.633 20.2201 174.113C20.2201 173.657 19.9881 173.401 19.7561 173.281ZM17.4921 174.169C17.4921 174.721 17.9001 175.089 18.4441 175.137L18.4441 173.217C17.9001 173.233 17.4921 173.593 17.4921 174.169ZM21.0681 167.796C21.0681 169.1 20.1401 169.868 18.8921 169.868C17.6441 169.868 16.7161 169.052 16.7161 167.796C16.7161 166.54 17.6441 165.724 18.8921 165.724C20.1401 165.724 21.0681 166.508 21.0681 167.796ZM17.5401 167.796C17.5401 168.388 18.0441 168.78 18.9081 168.78C19.7801 168.78 20.2361 168.396 20.2361 167.796C20.2361 167.196 19.7801 166.812 18.9081 166.812C18.0441 166.812 17.5401 167.204 17.5401 167.796ZM20.9561 161.108L20.9561 162.148L20.4761 162.148L20.4761 162.156C20.8201 162.364 21.0601 162.796 21.0601 163.348C21.0601 164.388 20.2441 165.212 18.8681 165.212C17.5081 165.212 16.7081 164.356 16.7081 163.356C16.7081 162.716 16.9721 162.364 17.1721 162.172L15.3561 162.172L15.3561 161.108L20.9561 161.108ZM17.5321 163.092C17.5321 163.684 18.0121 164.092 18.9001 164.092C19.7801 164.092 20.2281 163.692 20.2281 163.092C20.2281 162.54 19.7801 162.124 18.9001 162.124C18.0201 162.124 17.5321 162.516 17.5321 163.092ZM20.9561 156.234L20.9561 157.274L20.4761 157.274L20.4761 157.282C20.8201 157.49 21.0601 157.922 21.0601 158.474C21.0601 159.514 20.2441 160.338 18.8681 160.338C17.5081 160.338 16.7081 159.482 16.7081 158.482C16.7081 157.842 16.9721 157.49 17.1721 157.298L15.3561 157.298L15.3561 156.234L20.9561 156.234ZM17.5321 158.218C17.5321 158.81 18.0121 159.218 18.9001 159.218C19.7801 159.218 20.2281 158.818 20.2281 158.218C20.2281 157.666 19.7801 157.25 18.9001 157.25C18.0201 157.25 17.5321 157.642 17.5321 158.218ZM19.6041 155.52L19.6041 154.504C20.1001 154.496 20.3081 154.056 20.3081 153.592C20.3081 153.256 20.1721 152.816 19.7721 152.816C19.4761 152.816 19.3881 153.136 19.2281 153.744L19.1321 154.104C18.9561 154.76 18.7241 155.392 17.9481 155.392C17.0681 155.392 16.7161 154.528 16.7161 153.648C16.7161 152.728 17.0521 151.96 18.0681 151.872L18.0681 152.864C17.6121 152.896 17.4601 153.216 17.4601 153.68C17.4601 154.056 17.5801 154.36 17.8521 154.36C18.1401 154.36 18.2201 154.048 18.3321 153.6L18.4441 153.16C18.6201 152.472 18.8921 151.744 19.6841 151.744C20.6201 151.744 21.0601 152.552 21.0601 153.6C21.0601 154.544 20.7001 155.472 19.6041 155.52ZM21.0681 147.441C21.0681 148.745 20.1401 149.513 18.8921 149.513C17.644 149.513 16.716 148.697 16.716 147.441C16.716 146.185 17.644 145.369 18.892 145.369C20.14 145.369 21.0681 146.153 21.0681 147.441ZM17.5401 147.441C17.5401 148.033 18.044 148.425 18.9081 148.425C19.7801 148.425 20.2361 148.041 20.2361 147.441C20.2361 146.841 19.7801 146.457 18.908 146.457C18.044 146.457 17.54 146.849 17.5401 147.441ZM16.836 145L16.836 144.448L16.66 144.448C15.988 144.448 15.604 144.232 15.444 143.752C15.388 143.576 15.356 143.424 15.356 142.864L15.356 142.592L16.14 142.592L16.14 142.776C16.14 143.064 16.188 143.224 16.34 143.312C16.428 143.36 16.564 143.384 16.74 143.384L16.836 143.384L16.836 142.608L17.572 142.608L17.572 143.384L20.956 143.384L20.9561 144.448L17.572 144.448L17.572 145L16.836 145ZM19.604 140.564L19.604 139.548C20.1 139.54 20.308 139.1 20.308 138.636C20.308 138.3 20.172 137.86 19.772 137.86C19.476 137.86 19.388 138.18 19.228 138.788L19.132 139.148C18.956 139.804 18.724 140.436 17.948 140.436C17.068 140.436 16.716 139.572 16.716 138.692C16.716 137.772 17.052 137.004 18.068 136.916L18.068 137.908C17.612 137.94 17.46 138.26 17.46 138.724C17.46 139.1 17.58 139.404 17.852 139.404C18.14 139.404 18.22 139.092 18.332 138.644L18.444 138.204C18.62 137.516 18.892 136.788 19.684 136.788C20.62 136.788 21.06 137.596 21.06 138.644C21.06 139.588 20.7 140.516 19.604 140.564ZM20.188 134.25C20.188 133.81 19.884 133.458 19.172 133.458L16.836 133.458L16.836 132.394L20.956 132.394L20.956 133.418L20.5 133.418L20.5 133.426C20.804 133.618 21.06 134.018 21.06 134.618C21.06 135.266 20.756 135.81 20.02 136.018C19.828 136.074 19.564 136.106 19.108 136.106L16.836 136.106L16.836 135.042L19.108 135.042C19.308 135.042 19.476 135.026 19.596 134.994C20.036 134.882 20.188 134.594 20.188 134.25ZM18.22 128.739C17.892 128.803 17.54 129.083 17.54 129.571C17.54 130.155 18.012 130.539 18.908 130.539C19.836 130.539 20.236 130.131 20.236 129.539C20.236 129.027 19.9 128.795 19.564 128.699L19.564 127.691C20.46 127.851 21.068 128.523 21.068 129.571C21.068 130.899 20.156 131.627 18.892 131.627C17.644 131.627 16.716 130.843 16.716 129.563C16.716 128.555 17.316 127.843 18.22 127.731L18.22 128.739ZM18.22 124.357C17.892 124.421 17.54 124.701 17.54 125.189C17.54 125.773 18.012 126.157 18.908 126.157C19.836 126.157 20.236 125.749 20.236 125.157C20.236 124.645 19.9 124.413 19.564 124.317L19.564 123.309C20.46 123.469 21.068 124.141 21.068 125.189C21.068 126.517 20.156 127.245 18.892 127.245C17.644 127.245 16.716 126.461 16.716 125.181C16.716 124.173 17.316 123.461 18.22 123.349L18.22 124.357ZM19.756 119.927L19.756 118.823C20.54 119.111 21.06 119.775 21.06 120.759C21.06 122.079 20.124 122.871 18.884 122.871C17.644 122.871 16.708 122.071 16.708 120.815C16.708 119.783 17.332 119.127 18.212 118.879C18.468 118.807 18.756 118.775 19.076 118.775L19.18 118.775L19.18 121.783C19.916 121.727 20.22 121.279 20.22 120.759C20.22 120.303 19.988 120.047 19.756 119.927ZM17.492 120.815C17.492 121.367 17.9 121.735 18.444 121.783L18.444 119.863C17.9 119.879 17.492 120.239 17.492 120.815ZM19.604 118.319L19.604 117.303C20.1 117.295 20.308 116.855 20.308 116.391C20.308 116.055 20.172 115.615 19.772 115.615C19.476 115.615 19.388 115.935 19.228 116.543L19.132 116.903C18.956 117.559 18.724 118.191 17.948 118.191C17.068 118.191 16.716 117.327 16.716 116.447C16.716 115.527 17.052 114.759 18.068 114.671L18.068 115.663C17.612 115.695 17.46 116.015 17.46 116.479C17.46 116.855 17.58 117.159 17.852 117.159C18.14 117.159 18.22 116.847 18.332 116.399L18.444 115.959C18.62 115.271 18.892 114.543 19.684 114.543C20.62 114.543 21.06 115.351 21.06 116.399C21.06 117.343 20.7 118.271 19.604 118.319ZM19.604 114.117L19.604 113.101C20.1 113.093 20.308 112.653 20.308 112.189C20.308 111.853 20.172 111.413 19.772 111.413C19.476 111.413 19.388 111.733 19.228 112.341L19.132 112.701C18.956 113.357 18.724 113.989 17.948 113.989C17.068 113.989 16.716 113.125 16.716 112.245C16.716 111.325 17.052 110.557 18.068 110.469L18.068 111.461C17.612 111.493 17.46 111.813 17.46 112.277C17.46 112.653 17.58 112.957 17.852 112.957C18.14 112.957 18.22 112.645 18.332 112.197L18.444 111.757C18.62 111.069 18.892 110.341 19.684 110.341C20.62 110.341 21.06 111.149 21.06 112.197C21.06 113.141 20.7 114.069 19.604 114.117Z" fill="white"/>
<path d="M62.864 30.127H64.606C64.177 31.973 62.734 33.169 60.706 33.169C58.041 33.169 56.507 31.154 56.507 28.489C56.507 25.798 58.054 23.731 60.771 23.731C62.734 23.731 64.268 24.914 64.567 26.864H62.864C62.721 25.941 61.902 25.174 60.771 25.174C59.172 25.174 58.327 26.526 58.327 28.489C58.327 30.439 59.198 31.726 60.745 31.726C61.837 31.726 62.565 31.076 62.864 30.127ZM68.7462 31.752C69.4612 31.752 70.0332 31.258 70.0332 30.101V26.305H71.7622V33H70.0982V32.259H70.0852C69.7732 32.753 69.1232 33.169 68.1482 33.169C67.0952 33.169 66.2112 32.675 65.8732 31.479C65.7822 31.167 65.7302 30.738 65.7302 29.997V26.305H67.4592V29.997C67.4592 30.322 67.4852 30.595 67.5372 30.79C67.7192 31.505 68.1872 31.752 68.7462 31.752ZM81.9522 33V29.399C81.9522 28.996 81.9262 28.723 81.8612 28.489C81.7052 27.891 81.3412 27.553 80.6912 27.553C80.0152 27.553 79.4432 28.047 79.4432 29.204V33H77.7142V29.399C77.7142 28.996 77.6882 28.723 77.6232 28.489C77.4672 27.891 77.1032 27.553 76.4532 27.553C75.7772 27.553 75.2052 28.047 75.2052 29.204V33H73.4762V26.305H75.1402V27.046H75.1532C75.4652 26.552 76.1022 26.097 77.0512 26.097C77.9092 26.097 78.5982 26.448 79.0142 27.111C79.4042 26.604 80.1452 26.097 81.2242 26.097C82.3682 26.097 83.2002 26.591 83.5382 27.787C83.6292 28.099 83.6812 28.528 83.6812 29.269V33L81.9522 33ZM88.2589 31.752C88.9739 31.752 89.5459 31.258 89.5459 30.101V26.305H91.2749V33H89.6109V32.259H89.5979C89.2859 32.753 88.6359 33.169 87.6609 33.169C86.6079 33.169 85.7239 32.675 85.3859 31.479C85.2949 31.167 85.2429 30.738 85.2429 29.997V26.305H86.9719V29.997C86.9719 30.322 86.9979 30.595 87.0499 30.79C87.2319 31.505 87.6999 31.752 88.2589 31.752ZM92.9889 33V23.9H94.7179V33H92.9889ZM97.9113 28.333L96.3253 28.307C96.4163 26.773 97.6253 26.11 99.2503 26.11C100.394 26.11 101.564 26.487 101.915 27.592C102.019 27.917 102.071 28.32 102.071 28.957V32.077C102.071 32.519 102.11 32.753 102.227 32.961V33H100.615L100.576 32.428H100.563C100.251 32.727 99.7183 33.182 98.5483 33.182C97.1443 33.182 96.0003 32.376 96.0003 31.076C96.0003 29.308 97.9893 29.035 99.4193 28.827L99.7053 28.788C100.186 28.723 100.355 28.554 100.355 28.19C100.355 27.696 99.9393 27.345 99.1853 27.345C98.7953 27.345 98.4703 27.436 98.2493 27.618C98.0543 27.787 97.9373 28.021 97.9113 28.333ZM98.9123 31.895C99.5103 31.895 100.147 31.661 100.355 31.063C100.394 30.946 100.42 30.829 100.42 30.504V29.659C100.264 29.724 99.9133 29.828 99.4453 29.945L99.0293 30.049C98.5223 30.179 98.1713 30.296 97.9763 30.491C97.8463 30.621 97.7683 30.803 97.7683 31.011C97.7683 31.583 98.2103 31.895 98.9123 31.895ZM103.121 27.501V26.305H103.966V24.238H105.695V26.305H106.891V27.501H105.695V30.881C105.695 31.648 105.89 31.726 106.553 31.726H106.917V33H106.098C105.396 33 105.123 32.987 104.902 32.935C104.382 32.818 104.096 32.519 104.005 31.882C103.979 31.713 103.966 31.492 103.966 31.206V27.501H103.121ZM108.172 25.395V23.9H109.901V25.395H108.172ZM108.172 33V26.305H109.901V33H108.172ZM110.859 26.305L112.64 26.305L113.719 29.984L114.018 31.05H114.044L114.343 29.984L115.448 26.305H117.19L114.85 33H113.095L110.859 26.305ZM122.341 31.05H124.135C123.667 32.324 122.588 33.169 120.989 33.169C118.844 33.169 117.557 31.648 117.557 29.633C117.557 27.618 118.857 26.097 120.898 26.097C122.575 26.097 123.641 27.111 124.044 28.541C124.161 28.957 124.213 29.425 124.213 29.945V30.114H119.325C119.416 31.31 120.144 31.804 120.989 31.804C121.73 31.804 122.146 31.427 122.341 31.05ZM120.898 27.371C120.001 27.371 119.403 28.034 119.325 28.918H122.445C122.419 28.034 121.834 27.371 120.898 27.371ZM132.308 33.169C129.656 33.169 128.096 31.271 128.096 28.45C128.096 25.694 129.76 23.731 132.308 23.731C134.869 23.731 136.533 25.694 136.533 28.45C136.533 31.271 134.96 33.169 132.308 33.169ZM132.308 25.161C130.722 25.161 129.916 26.669 129.916 28.45C129.916 30.296 130.709 31.739 132.308 31.739C133.92 31.739 134.713 30.296 134.713 28.45C134.713 26.669 133.907 25.161 132.308 25.161ZM144.171 33H142.481V32.22H142.468C142.13 32.779 141.428 33.169 140.531 33.169C138.841 33.169 137.502 31.843 137.502 29.607C137.502 27.397 138.893 26.097 140.518 26.097C141.558 26.097 142.13 26.526 142.442 26.851V23.9H144.171V33ZM140.947 27.436C139.985 27.436 139.322 28.216 139.322 29.659C139.322 31.089 139.972 31.817 140.947 31.817C141.844 31.817 142.52 31.089 142.52 29.659C142.52 28.229 141.883 27.436 140.947 27.436ZM152.156 33H150.466V32.22H150.453C150.115 32.779 149.413 33.169 148.516 33.169C146.826 33.169 145.487 31.843 145.487 29.607C145.487 27.397 146.878 26.097 148.503 26.097C149.543 26.097 150.115 26.526 150.427 26.851V23.9H152.156V33ZM148.932 27.436C147.97 27.436 147.307 28.216 147.307 29.659C147.307 31.089 147.957 31.817 148.932 31.817C149.829 31.817 150.505 31.089 150.505 29.659C150.505 28.229 149.868 27.436 148.932 27.436ZM153.382 30.803H155.033C155.046 31.609 155.761 31.947 156.515 31.947C157.061 31.947 157.776 31.726 157.776 31.076C157.776 30.595 157.256 30.452 156.268 30.192L155.683 30.036C154.617 29.75 153.59 29.373 153.59 28.112C153.59 26.682 154.994 26.11 156.424 26.11C157.919 26.11 159.167 26.656 159.31 28.307L157.698 28.307C157.646 27.566 157.126 27.319 156.372 27.319C155.761 27.319 155.267 27.514 155.267 27.956C155.267 28.424 155.774 28.554 156.502 28.736L157.217 28.918C158.335 29.204 159.518 29.646 159.518 30.933C159.518 32.454 158.205 33.169 156.502 33.169C154.968 33.169 153.46 32.584 153.382 30.803ZM166.64 33.182C164.521 33.182 163.273 31.674 163.273 29.646C163.273 27.618 164.599 26.11 166.64 26.11C168.681 26.11 170.007 27.618 170.007 29.646C170.007 31.674 168.733 33.182 166.64 33.182ZM166.64 27.449C165.678 27.449 165.041 28.268 165.041 29.672C165.041 31.089 165.665 31.83 166.64 31.83C167.615 31.83 168.239 31.089 168.239 29.672C168.239 28.268 167.602 27.449 166.64 27.449ZM170.673 26.305H171.57V26.019C171.57 24.927 171.921 24.303 172.701 24.043C172.987 23.952 173.234 23.9 174.144 23.9H174.586V25.174H174.287C173.819 25.174 173.559 25.252 173.416 25.499C173.338 25.642 173.299 25.863 173.299 26.149V26.305H174.56V27.501H173.299V33L171.57 33V27.501H170.673V26.305ZM180.415 23.9V33H178.595V23.9H180.415ZM181.47 23.9H183.394L185.084 29.464C185.266 30.049 185.383 30.53 185.474 30.92H185.5C185.578 30.569 185.721 30.023 185.903 29.425L187.58 23.9H189.465L186.345 33H184.512L181.47 23.9ZM192.272 33H190.478V23.9H197.004V25.33H192.272V27.488H196.419V28.931H192.272V33ZM200.407 30.192H202.149C202.266 31.336 203.111 31.739 204.177 31.739C205.243 31.739 206.01 31.349 206.01 30.53C206.01 29.711 205.061 29.477 204.047 29.217L203.228 29.009C201.616 28.593 200.615 27.982 200.615 26.409C200.615 24.667 202.188 23.731 204.06 23.731C205.893 23.731 207.453 24.511 207.557 26.513H205.854C205.737 25.551 205.074 25.148 204.034 25.148C203.02 25.148 202.396 25.59 202.396 26.227C202.396 26.89 202.799 27.15 204.229 27.501L205.23 27.748C205.997 27.943 207.83 28.372 207.83 30.309C207.83 32.012 206.478 33.169 204.125 33.169C201.967 33.169 200.537 32.272 200.407 30.192ZM212.051 31.752C212.766 31.752 213.338 31.258 213.338 30.101V26.305H215.067V33H213.403V32.259H213.39C213.078 32.753 212.428 33.169 211.453 33.169C210.4 33.169 209.516 32.675 209.178 31.479C209.087 31.167 209.035 30.738 209.035 29.997V26.305H210.764V29.997C210.764 30.322 210.79 30.595 210.842 30.79C211.024 31.505 211.492 31.752 212.051 31.752ZM221.071 28.554C220.967 28.021 220.512 27.449 219.719 27.449C218.77 27.449 218.146 28.216 218.146 29.672C218.146 31.18 218.809 31.83 219.771 31.83C220.603 31.83 220.98 31.284 221.136 30.738H222.774C222.514 32.194 221.422 33.182 219.719 33.182C217.561 33.182 216.378 31.7 216.378 29.646C216.378 27.618 217.652 26.11 219.732 26.11C221.37 26.11 222.527 27.085 222.709 28.554H221.071ZM228.256 28.554C228.152 28.021 227.697 27.449 226.904 27.449C225.955 27.449 225.331 28.216 225.331 29.672C225.331 31.18 225.994 31.83 226.956 31.83C227.788 31.83 228.165 31.284 228.321 30.738H229.959C229.699 32.194 228.607 33.182 226.904 33.182C224.746 33.182 223.563 31.7 223.563 29.646C223.563 27.618 224.837 26.11 226.917 26.11C228.555 26.11 229.712 27.085 229.894 28.554H228.256ZM235.52 31.05H237.314C236.846 32.324 235.767 33.169 234.168 33.169C232.023 33.169 230.736 31.648 230.736 29.633C230.736 27.618 232.036 26.097 234.077 26.097C235.754 26.097 236.82 27.111 237.223 28.541C237.34 28.957 237.392 29.425 237.392 29.945V30.114H232.504C232.595 31.31 233.323 31.804 234.168 31.804C234.909 31.804 235.325 31.427 235.52 31.05ZM234.077 27.371C233.18 27.371 232.582 28.034 232.504 28.918H235.624C235.598 28.034 235.013 27.371 234.077 27.371ZM238.199 30.803H239.85C239.863 31.609 240.578 31.947 241.332 31.947C241.878 31.947 242.593 31.726 242.593 31.076C242.593 30.595 242.073 30.452 241.085 30.192L240.5 30.036C239.434 29.75 238.407 29.373 238.407 28.112C238.407 26.682 239.811 26.11 241.241 26.11C242.736 26.11 243.984 26.656 244.127 28.307H242.515C242.463 27.566 241.943 27.319 241.189 27.319C240.578 27.319 240.084 27.514 240.084 27.956C240.084 28.424 240.591 28.554 241.319 28.736L242.034 28.918C243.152 29.204 244.335 29.646 244.335 30.933C244.335 32.454 243.022 33.169 241.319 33.169C239.785 33.169 238.277 32.584 238.199 30.803ZM245.093 30.803L246.744 30.803C246.757 31.609 247.472 31.947 248.226 31.947C248.772 31.947 249.487 31.726 249.487 31.076C249.487 30.595 248.967 30.452 247.979 30.192L247.394 30.036C246.328 29.75 245.301 29.373 245.301 28.112C245.301 26.682 246.705 26.11 248.135 26.11C249.63 26.11 250.878 26.656 251.021 28.307H249.409C249.357 27.566 248.837 27.319 248.083 27.319C247.472 27.319 246.978 27.514 246.978 27.956C246.978 28.424 247.485 28.554 248.213 28.736L248.928 28.918C250.046 29.204 251.229 29.646 251.229 30.933C251.229 32.454 249.916 33.169 248.213 33.169C246.679 33.169 245.171 32.584 245.093 30.803ZM259.014 31.739C260.054 31.739 260.509 31.271 260.691 30.634C260.769 30.348 260.795 30.023 260.795 29.62V23.9H262.615V29.62C262.615 30.283 262.563 30.738 262.433 31.154C261.978 32.584 260.717 33.169 259.014 33.169C257.311 33.169 256.05 32.584 255.595 31.154C255.465 30.738 255.413 30.283 255.413 29.62V23.9H257.233V29.62C257.233 30.023 257.259 30.348 257.337 30.634C257.519 31.271 257.974 31.739 259.014 31.739ZM267.291 27.514C266.745 27.514 266.342 27.8 266.134 28.255C266.03 28.489 265.978 28.762 265.978 29.347V33H264.249V26.305L265.913 26.305V27.046H265.926C266.238 26.552 266.914 26.097 267.889 26.097C268.942 26.097 269.852 26.591 270.19 27.787C270.281 28.099 270.333 28.528 270.333 29.269V33H268.604V29.399C268.604 28.749 268.565 28.489 268.448 28.216C268.24 27.761 267.837 27.514 267.291 27.514ZM278.233 33H276.543V32.22H276.53C276.192 32.779 275.49 33.169 274.593 33.169C272.903 33.169 271.564 31.843 271.564 29.607C271.564 27.397 272.955 26.097 274.58 26.097C275.62 26.097 276.192 26.526 276.504 26.851V23.9H278.233V33ZM275.009 27.436C274.047 27.436 273.384 28.216 273.384 29.659C273.384 31.089 274.034 31.817 275.009 31.817C275.906 31.817 276.582 31.089 276.582 29.659C276.582 28.229 275.945 27.436 275.009 27.436ZM284.321 31.05H286.115C285.647 32.324 284.568 33.169 282.969 33.169C280.824 33.169 279.537 31.648 279.537 29.633C279.537 27.618 280.837 26.097 282.878 26.097C284.555 26.097 285.621 27.111 286.024 28.541C286.141 28.957 286.193 29.425 286.193 29.945V30.114H281.305C281.396 31.31 282.124 31.804 282.969 31.804C283.71 31.804 284.126 31.427 284.321 31.05ZM282.878 27.371C281.981 27.371 281.383 28.034 281.305 28.918H284.425C284.399 28.034 283.814 27.371 282.878 27.371ZM289.158 27.098H289.184C289.405 26.578 289.977 26.097 290.991 26.097H291.108V27.696C290.978 27.683 290.861 27.67 290.744 27.67C289.704 27.67 289.223 28.268 289.223 29.464V33H287.494V26.305H289.158V27.098ZM298.421 33V31.037H294.235V29.295L298.278 23.9H300.046V29.659H301.359V31.037H300.046V33H298.421ZM298.421 29.659V27.462C298.421 26.721 298.434 26.24 298.447 25.824H298.421C298.213 26.188 297.927 26.617 297.498 27.202L296.458 28.606L295.626 29.672V29.685L296.757 29.659H298.421ZM305.825 33.169C303.927 33.169 302.328 31.882 302.328 28.411C302.328 25.005 303.953 23.731 305.825 23.731C307.723 23.731 309.322 25.005 309.322 28.411C309.322 31.882 307.723 33.169 305.825 33.169ZM305.825 25.148C304.473 25.148 304.083 26.708 304.083 28.411C304.083 30.166 304.473 31.765 305.825 31.765C307.177 31.765 307.541 30.179 307.541 28.411C307.541 26.708 307.177 25.148 305.825 25.148Z" fill="white"/>
<path d="M58.6415 79.2165V59.2165H57.4372V79.2165H58.6415Z" fill="white" mask="url(#path-7-inside-1_1128_14602)"/>
<path d="M94.7714 79.2165V59.2165H93.5671V79.2165H94.7714Z" fill="white" mask="url(#path-9-inside-2_1128_14602)"/>
<path d="M130.901 79.2165V59.2165H129.697V79.2165H130.901Z" fill="white" mask="url(#path-11-inside-3_1128_14602)"/>
<path d="M167.031 79.2165V59.2165H165.827V79.2165H167.031Z" fill="white" mask="url(#path-13-inside-4_1128_14602)"/>
<path d="M203.161 79.2165V59.2165H201.957V79.2165H203.161Z" fill="white" mask="url(#path-15-inside-5_1128_14602)"/>
<path d="M239.291 79.2165V59.2165H238.087V79.2165H239.291Z" fill="white" mask="url(#path-17-inside-6_1128_14602)"/>
<path d="M310.347 59.2165V79.2165H311.551V59.2165H310.347ZM275.421 79.2165V59.2165H274.217V79.2165H275.421Z" fill="white" mask="url(#path-19-inside-7_1128_14602)"/>
<path d="M58.0394 72.2165V71.6143H57.4372V72.2165H58.0394ZM58.0394 72.8187H94.1693V71.6143H58.0394V72.8187ZM58.6415 132.433V72.2165H57.4372V132.433H58.6415Z" fill="white" mask="url(#path-21-inside-8_1128_14602)"/>
<path d="M94.1693 72.2165V71.6143H93.5671V72.2165H94.1693ZM94.1693 72.8187H130.299V71.6143H94.1693V72.8187ZM94.7714 132.433V72.2165H93.5671V132.433H94.7714Z" fill="white" mask="url(#path-23-inside-9_1128_14602)"/>
<path d="M130.299 72.2165V71.6143H129.697V72.2165H130.299ZM130.299 72.8187H166.429V71.6143H130.299V72.8187ZM130.901 132.433V72.2165H129.697V132.433H130.901Z" fill="white" mask="url(#path-25-inside-10_1128_14602)"/>
<path d="M166.429 72.2165V71.6143H165.827V72.2165H166.429ZM166.429 72.8187H202.559V71.6143H166.429V72.8187ZM167.031 132.433V72.2165H165.827V132.433H167.031Z" fill="white" mask="url(#path-27-inside-11_1128_14602)"/>
<path d="M202.559 72.2165V71.6143H201.957V72.2165H202.559ZM202.559 72.8187H238.689V71.6143H202.559V72.8187ZM203.161 132.433V72.2165H201.957V132.433H203.161Z" fill="white" mask="url(#path-29-inside-12_1128_14602)"/>
<path d="M238.689 72.2165V71.6143H238.087V72.2165H238.689ZM238.689 72.8187H274.819V71.6143H238.689V72.8187ZM239.291 132.433V72.2165H238.087V132.433H239.291Z" fill="white" mask="url(#path-31-inside-13_1128_14602)"/>
<path d="M274.819 72.2165V71.6143H274.217V72.2165H274.819ZM310.949 72.2165H311.551V71.6143H310.949V72.2165ZM274.819 72.8187H310.949V71.6143H274.819V72.8187ZM310.347 72.2165V132.433H311.551V72.2165H310.347ZM275.421 132.433V72.2165H274.217V132.433H275.421Z" fill="white" mask="url(#path-33-inside-14_1128_14602)"/>
<path d="M58.0394 132.433V131.831H57.4372V132.433H58.0394ZM58.0394 133.035H94.1693V131.831H58.0394V133.035ZM58.6415 192.649V132.433H57.4372V192.649H58.6415Z" fill="white" mask="url(#path-35-inside-15_1128_14602)"/>
<path d="M94.1693 132.433V131.831H93.5671V132.433H94.1693ZM94.1693 133.035H130.299V131.831H94.1693V133.035ZM94.7714 192.649V132.433H93.5671V192.649H94.7714Z" fill="white" mask="url(#path-37-inside-16_1128_14602)"/>
<path d="M130.299 132.433V131.831H129.697V132.433H130.299ZM130.299 133.035H166.429V131.831H130.299V133.035ZM130.901 192.649V132.433H129.697V192.649H130.901Z" fill="white" mask="url(#path-39-inside-17_1128_14602)"/>
<path d="M166.429 132.433V131.831H165.827V132.433H166.429ZM166.429 133.035H202.559V131.831H166.429V133.035ZM167.031 192.649V132.433H165.827V192.649H167.031Z" fill="white" mask="url(#path-41-inside-18_1128_14602)"/>
<path d="M202.559 132.433V131.831H201.957V132.433H202.559ZM202.559 133.035H238.689V131.831H202.559V133.035ZM203.161 192.649V132.433H201.957V192.649H203.161Z" fill="white" mask="url(#path-43-inside-19_1128_14602)"/>
<path d="M238.689 132.433V131.831H238.087V132.433H238.689ZM238.689 133.035H274.819V131.831H238.689V133.035ZM239.291 192.649V132.433H238.087V192.649H239.291Z" fill="white" mask="url(#path-45-inside-20_1128_14602)"/>
<path d="M274.819 132.433V131.831H274.217V132.433H274.819ZM310.949 132.433H311.551V131.831H310.949V132.433ZM274.819 133.035H310.949V131.831H274.819V133.035ZM310.347 132.433V192.649H311.551V132.433H310.347ZM275.421 192.649V132.433H274.217V192.649H275.421Z" fill="white" mask="url(#path-47-inside-21_1128_14602)"/>
<path d="M58.0394 192.65V192.047H57.4372V192.65H58.0394ZM58.0394 252.866H57.4372V253.468H58.0394V252.866ZM58.0394 193.252H94.1693V192.047H58.0394V193.252ZM94.1693 252.264H58.0394V253.468H94.1693V252.264ZM58.6415 252.866V192.65H57.4372V252.866H58.6415Z" fill="white" mask="url(#path-49-inside-22_1128_14602)"/>
<path d="M94.1693 192.65V192.047H93.5671V192.65H94.1693ZM94.1693 252.866H93.5671V253.468H94.1693V252.866ZM94.1693 193.252H130.299V192.047H94.1693V193.252ZM130.299 252.264H94.1693V253.468H130.299V252.264ZM94.7714 252.866V192.65H93.5671V252.866H94.7714Z" fill="white" mask="url(#path-51-inside-23_1128_14602)"/>
<path d="M130.299 192.65V192.047H129.697V192.65H130.299ZM130.299 252.866H129.697V253.468H130.299V252.866ZM130.299 193.252H166.429V192.047H130.299V193.252ZM166.429 252.264H130.299V253.468H166.429V252.264ZM130.901 252.866V192.65H129.697V252.866H130.901Z" fill="white" mask="url(#path-53-inside-24_1128_14602)"/>
<path d="M166.429 192.65V192.047H165.827V192.65H166.429ZM166.429 252.866H165.827V253.468H166.429V252.866ZM166.429 193.252H202.559V192.047H166.429V193.252ZM202.559 252.264H166.429V253.468H202.559V252.264ZM167.031 252.866V192.65H165.827V252.866H167.031Z" fill="white" mask="url(#path-55-inside-25_1128_14602)"/>
<path d="M202.559 192.65V192.047H201.957V192.65H202.559ZM202.559 252.866H201.957V253.468H202.559V252.866ZM202.559 193.252H238.689V192.047H202.559V193.252ZM238.689 252.264H202.559V253.468H238.689V252.264ZM203.161 252.866V192.65H201.957V252.866H203.161Z" fill="white" mask="url(#path-57-inside-26_1128_14602)"/>
<path d="M238.689 192.65V192.047H238.087V192.65H238.689ZM238.689 252.866H238.087V253.468H238.689V252.866ZM238.689 193.252H274.819V192.047H238.689V193.252ZM274.819 252.264H238.689V253.468H274.819V252.264ZM239.291 252.866V192.65H238.087V252.866H239.291Z" fill="white" mask="url(#path-59-inside-27_1128_14602)"/>
<path d="M274.819 192.65V192.047H274.217V192.65H274.819ZM310.949 192.65H311.551V192.047H310.949V192.65ZM310.949 252.866V253.468H311.551V252.866H310.949ZM274.819 252.866H274.217V253.468H274.819V252.866ZM274.819 193.252H310.949V192.047H274.819V193.252ZM310.347 192.65V252.866H311.551V192.65H310.347ZM310.949 252.264H274.819V253.468H310.949V252.264ZM275.421 252.866V192.65H274.217V252.866H275.421Z" fill="white" mask="url(#path-61-inside-28_1128_14602)"/>
<path d="M92.8503 258.311V262.511H92.0463V259.607H90.9723V259.079C91.6683 259.061 92.0823 258.803 92.1483 258.311H92.8503Z" fill="white"/>
<path d="M235.706 261.305H236.45C236.528 261.683 236.828 261.935 237.218 261.935C237.668 261.935 237.992 261.587 237.992 261.083C237.992 260.615 237.68 260.267 237.224 260.267C236.948 260.267 236.738 260.387 236.594 260.579H235.814L236.174 258.311H238.562V258.959H236.75L236.588 259.913L236.6 259.925C236.744 259.793 237.014 259.661 237.398 259.661C238.214 259.661 238.73 260.267 238.73 261.059C238.73 261.905 238.142 262.583 237.206 262.583C236.318 262.583 235.742 262.019 235.706 261.305Z" fill="white"/>
<path d="M163.383 261.101C163.413 261.629 163.689 261.953 164.199 261.953C164.727 261.953 164.985 261.629 164.985 261.245C164.985 260.795 164.613 260.591 164.073 260.591H163.899V259.997H164.037C164.529 259.997 164.853 259.799 164.853 259.391C164.853 259.121 164.667 258.851 164.199 258.851C163.695 258.851 163.485 259.229 163.485 259.565H162.753C162.789 258.773 163.341 258.233 164.235 258.233C165.099 258.233 165.621 258.671 165.621 259.301C165.621 259.829 165.351 260.069 165.063 260.219V260.225C165.435 260.351 165.777 260.687 165.777 261.257C165.777 262.079 165.123 262.589 164.205 262.589C163.227 262.589 162.663 262.031 162.639 261.101H163.383Z" fill="white"/>
<path d="M310.838 258.311V259.049C309.986 259.811 309.368 261.335 309.368 262.511H308.528C308.594 261.269 309.188 259.883 310.04 259.001L310.034 258.989H307.928V258.311H310.838Z" fill="white"/>
<path d="M127.534 259.751H126.766C126.766 258.791 127.354 258.233 128.236 258.233C129.094 258.233 129.64 258.737 129.64 259.529C129.64 260.195 129.286 260.609 128.782 260.975L128.5 261.179C128.17 261.419 127.822 261.641 127.75 261.845H129.706V262.511H126.718C126.778 261.587 127.396 261.113 128.098 260.591L128.212 260.501C128.608 260.201 128.848 259.955 128.848 259.547C128.848 259.151 128.596 258.917 128.212 258.917C127.726 258.917 127.534 259.301 127.534 259.751Z" fill="white"/>
<path d="M274.865 259.307L274.121 259.325C274.061 259.157 273.869 258.899 273.461 258.899C272.939 258.899 272.609 259.385 272.591 260.087L272.597 260.093C272.687 259.949 273.029 259.649 273.563 259.649C274.427 259.649 274.949 260.303 274.949 261.053C274.949 261.893 274.361 262.589 273.413 262.589C272.897 262.589 272.507 262.385 272.237 262.037C271.949 261.665 271.835 261.125 271.835 260.519C271.835 259.205 272.309 258.239 273.443 258.239C274.283 258.239 274.769 258.725 274.865 259.307ZM272.633 261.119C272.633 261.617 272.975 261.947 273.419 261.947C273.869 261.947 274.211 261.617 274.211 261.119C274.211 260.621 273.869 260.285 273.419 260.285C272.975 260.285 272.633 260.621 272.633 261.119Z" fill="white"/>
<path d="M200.656 262.511V261.605H198.724V260.801L200.59 258.311H201.406V260.969H202.012V261.605H201.406V262.511H200.656ZM200.656 260.969V259.955C200.656 259.613 200.662 259.391 200.668 259.199H200.656C200.56 259.367 200.428 259.565 200.23 259.835L199.75 260.483L199.366 260.975V260.981L199.888 260.969H200.656Z" fill="white"/>
<path d="M94.586 165.041C95.9667 165.041 97.086 163.922 97.086 162.541C97.086 161.161 95.9667 160.041 94.586 160.041C93.2053 160.041 92.086 161.161 92.086 162.541C92.086 163.922 93.2053 165.041 94.586 165.041Z" fill="#ECC069"/>
<path d="M96.586 201.544C96.586 202.648 95.6905 203.544 94.586 203.544C93.4814 203.544 92.586 202.648 92.586 201.544C92.586 200.439 93.4814 199.544 94.586 199.544C95.6905 199.544 96.586 200.439 96.586 201.544Z" fill="#C36737" stroke="#C36737"/>
<path d="M94.586 233.777C95.9667 233.777 97.086 232.658 97.086 231.277C97.086 229.897 95.9667 228.777 94.586 228.777C93.2053 228.777 92.086 229.897 92.086 231.277C92.086 232.658 93.2053 233.777 94.586 233.777Z" fill="white"/>
<path d="M130.734 222.758C132.114 222.758 133.234 221.638 133.234 220.258C133.234 218.877 132.114 217.758 130.734 217.758C129.353 217.758 128.234 218.877 128.234 220.258C128.234 221.638 129.353 222.758 130.734 222.758Z" fill="white"/>
<path d="M166.5 213.133C167.881 213.133 169 212.013 169 210.633C169 209.252 167.881 208.133 166.5 208.133C165.119 208.133 164 209.252 164 210.633C164 212.013 165.119 213.133 166.5 213.133Z" fill="white"/>
<path d="M202.881 209.044C204.262 209.044 205.381 207.924 205.381 206.544C205.381 205.163 204.262 204.044 202.881 204.044C201.501 204.044 200.381 205.163 200.381 206.544C200.381 207.924 201.501 209.044 202.881 209.044Z" fill="white"/>
<path d="M238.875 202C240.256 202 241.375 200.881 241.375 199.5C241.375 198.119 240.256 197 238.875 197C237.494 197 236.375 198.119 236.375 199.5C236.375 200.881 237.494 202 238.875 202Z" fill="white"/>
<path d="M274.819 199.044C276.2 199.044 277.319 197.924 277.319 196.544C277.319 195.163 276.2 194.044 274.819 194.044C273.438 194.044 272.319 195.163 272.319 196.544C272.319 197.924 273.438 199.044 274.819 199.044Z" fill="white"/>
<path d="M310.949 197.829C312.329 197.829 313.449 196.71 313.449 195.329C313.449 193.949 312.329 192.829 310.949 192.829C309.568 192.829 308.449 193.949 308.449 195.329C308.449 196.71 309.568 197.829 310.949 197.829Z" fill="white"/>
<path d="M132.734 192.829C132.734 193.934 131.838 194.829 130.734 194.829C129.629 194.829 128.734 193.934 128.734 192.829C128.734 191.725 129.629 190.829 130.734 190.829C131.838 190.829 132.734 191.725 132.734 192.829Z" fill="#C36737" stroke="#C36737"/>
<path d="M168.734 181.486C168.734 182.591 167.838 183.486 166.734 183.486C165.629 183.486 164.734 182.591 164.734 181.486C164.734 180.382 165.629 179.486 166.734 179.486C167.838 179.486 168.734 180.382 168.734 181.486Z" fill="#C36737" stroke="#C36737"/>
<path d="M204.559 172.885C204.559 173.989 203.664 174.885 202.559 174.885C201.454 174.885 200.559 173.989 200.559 172.885C200.559 171.78 201.454 170.885 202.559 170.885C203.664 170.885 204.559 171.78 204.559 172.885Z" fill="#C36737" stroke="#C36737"/>
<path d="M240.689 162.541C240.689 163.646 239.793 164.541 238.689 164.541C237.584 164.541 236.689 163.646 236.689 162.541C236.689 161.437 237.584 160.541 238.689 160.541C239.793 160.541 240.689 161.437 240.689 162.541Z" fill="#C36737" stroke="#C36737"/>
<path d="M276.819 150C276.819 151.105 275.923 152 274.819 152C273.714 152 272.819 151.105 272.819 150C272.819 148.895 273.714 148 274.819 148C275.923 148 276.819 148.895 276.819 150Z" fill="#C36737" stroke="#C36737"/>
<path d="M312.949 139.413C312.949 140.518 312.053 141.413 310.949 141.413C309.844 141.413 308.949 140.518 308.949 139.413C308.949 138.309 309.844 137.413 310.949 137.413C312.053 137.413 312.949 138.309 312.949 139.413Z" fill="#C36737" stroke="#C36737"/>
<path d="M130.734 129.753C132.114 129.753 133.234 128.634 133.234 127.253C133.234 125.872 132.114 124.753 130.734 124.753C129.353 124.753 128.234 125.872 128.234 127.253C128.234 128.634 129.353 129.753 130.734 129.753Z" fill="#ECC069"/>
<path d="M166.5 80.1467C167.881 80.1467 169 79.0274 169 77.6467C169 76.266 167.881 75.1467 166.5 75.1467C165.119 75.1467 164 76.266 164 77.6467C164 79.0274 165.119 80.1467 166.5 80.1467Z" fill="#ECC069"/>
<path d="M202.881 68.2165C204.262 68.2165 205.381 67.0972 205.381 65.7165C205.381 64.3358 204.262 63.2165 202.881 63.2165C201.501 63.2165 200.381 64.3358 200.381 65.7165C200.381 67.0972 201.501 68.2165 202.881 68.2165Z" fill="#ECC069"/>
<path d="M238.689 63.2165C240.07 63.2165 241.189 62.0972 241.189 60.7165C241.189 59.3358 240.07 58.2165 238.689 58.2165C237.308 58.2165 236.189 59.3358 236.189 60.7165C236.189 62.0972 237.308 63.2165 238.689 63.2165Z" fill="#ECC069"/>
<path d="M274.819 61.7165C276.2 61.7165 277.319 60.5972 277.319 59.2165C277.319 57.8358 276.2 56.7165 274.819 56.7165C273.438 56.7165 272.319 57.8358 272.319 59.2165C272.319 60.5972 273.438 61.7165 274.819 61.7165Z" fill="#ECC069"/>
<path d="M310.949 59.7165C312.33 59.7165 313.449 58.5972 313.449 57.2165C313.449 55.8358 312.33 54.7165 310.949 54.7165C309.568 54.7165 308.449 55.8358 308.449 57.2165C308.449 58.5972 309.568 59.7165 310.949 59.7165Z" fill="#ECC069"/>
<path d="M95.5 163L131 127.5L166.5 78L203 66L239 60.5L275 59L311.348 56.9863" stroke="#ECC069"/>
<path d="M94.5 202L131.5 192.5L166.809 181.485L203 173.5L238.5 163L274.941 150.09L311.5 139.5" stroke="#C36737"/>
<path d="M94.5 231.5L131 220.5L166.5 211L203 207L240 199.5L275 196.5L311 195" stroke="white"/>
<path d="M166.278 269.915V275.515H165.158V269.915H166.278ZM166.887 269.915H168.071L169.111 273.339C169.223 273.699 169.295 273.995 169.351 274.235H169.367C169.415 274.019 169.503 273.683 169.615 273.315L170.647 269.915H171.807L169.887 275.515H168.759L166.887 269.915ZM173.494 275.515H172.39V269.915H176.406V270.795H173.494V272.123H176.046V273.011H173.494V275.515ZM182.38 273.747H183.452C183.188 274.883 182.3 275.619 181.052 275.619C179.412 275.619 178.468 274.379 178.468 272.739C178.468 271.083 179.42 269.811 181.092 269.811C182.3 269.811 183.244 270.539 183.428 271.739H182.38C182.292 271.171 181.788 270.699 181.092 270.699C180.108 270.699 179.588 271.531 179.588 272.739C179.588 273.939 180.124 274.731 181.076 274.731C181.748 274.731 182.196 274.331 182.38 273.747ZM183.688 271.395H184.784L185.48 273.667L185.664 274.347H185.68L185.864 273.667L186.584 271.395H187.656L185.984 275.987C185.696 276.779 185.344 276.891 184.56 276.891H184V276.083H184.28C184.896 276.083 185.096 275.891 185.096 275.571C185.096 275.355 184.952 275.067 184.88 274.851L183.688 271.395ZM190.713 272.779C190.649 272.451 190.369 272.099 189.881 272.099C189.297 272.099 188.913 272.571 188.913 273.467C188.913 274.395 189.321 274.795 189.913 274.795C190.425 274.795 190.657 274.459 190.753 274.123H191.761C191.601 275.019 190.929 275.627 189.881 275.627C188.553 275.627 187.825 274.715 187.825 273.451C187.825 272.203 188.609 271.275 189.889 271.275C190.897 271.275 191.609 271.875 191.721 272.779H190.713ZM192.455 275.515V269.915H193.519V275.515H192.455ZM197.22 274.315H198.324C198.036 275.099 197.372 275.619 196.388 275.619C195.068 275.619 194.276 274.683 194.276 273.443C194.276 272.203 195.076 271.267 196.332 271.267C197.364 271.267 198.02 271.891 198.268 272.771C198.34 273.027 198.372 273.315 198.372 273.635V273.739H195.364C195.42 274.475 195.868 274.779 196.388 274.779C196.844 274.779 197.1 274.547 197.22 274.315ZM196.332 272.051C195.78 272.051 195.412 272.459 195.364 273.003H197.284C197.268 272.459 196.908 272.051 196.332 272.051ZM198.829 274.163H199.845C199.853 274.659 200.293 274.867 200.757 274.867C201.093 274.867 201.533 274.731 201.533 274.331C201.533 274.035 201.213 273.947 200.605 273.787L200.245 273.691C199.589 273.515 198.957 273.283 198.957 272.507C198.957 271.627 199.821 271.275 200.701 271.275C201.621 271.275 202.389 271.611 202.477 272.627H201.485C201.453 272.171 201.133 272.019 200.669 272.019C200.293 272.019 199.989 272.139 199.989 272.411C199.989 272.699 200.301 272.779 200.749 272.891L201.189 273.003C201.877 273.179 202.605 273.451 202.605 274.243C202.605 275.179 201.797 275.619 200.749 275.619C199.805 275.619 198.877 275.259 198.829 274.163Z" fill="white"/>
<circle cx="101.21" cy="290.515" r="5" fill="#ECC069"/>
<path d="M111.226 293.515L113.242 287.915H114.362L116.33 293.515H115.194L114.77 292.235H112.754L112.322 293.515H111.226ZM113.466 290.059L113.058 291.355H114.482L114.058 290.051L113.77 289.059H113.754L113.466 290.059ZM119.489 292.723H119.481C119.305 292.971 118.897 293.219 118.313 293.219C117.329 293.219 116.513 292.499 116.513 291.235C116.513 289.995 117.377 289.267 118.297 289.267C118.937 289.267 119.297 289.539 119.489 289.723H119.497V289.395H120.529V293.211C120.529 293.571 120.473 293.811 120.377 294.019C120.073 294.659 119.393 294.971 118.521 294.971C117.401 294.971 116.721 294.347 116.673 293.667H117.753C117.817 293.971 118.121 294.171 118.585 294.171C119.025 294.171 119.313 294.003 119.433 293.595C119.465 293.483 119.481 293.339 119.481 293.131V293.083C119.481 292.979 119.481 292.851 119.489 292.723ZM119.529 291.235C119.529 290.507 119.081 290.091 118.553 290.091C118.017 290.091 117.569 290.523 117.569 291.243C117.569 291.955 118.009 292.395 118.553 292.395C119.081 292.395 119.529 291.971 119.529 291.235ZM124.229 292.315H125.333C125.045 293.099 124.381 293.619 123.397 293.619C122.077 293.619 121.285 292.683 121.285 291.443C121.285 290.203 122.085 289.267 123.341 289.267C124.373 289.267 125.029 289.891 125.277 290.771C125.349 291.027 125.381 291.315 125.381 291.635V291.739H122.373C122.429 292.475 122.877 292.779 123.397 292.779C123.853 292.779 124.109 292.547 124.229 292.315ZM123.341 290.051C122.789 290.051 122.421 290.459 122.373 291.003H124.293C124.277 290.459 123.917 290.051 123.341 290.051ZM131.635 293.083L128.179 291.123V290.387L131.635 288.379V289.355L129.771 290.371L129.155 290.707V290.731L129.771 291.075L131.635 292.107V293.083ZM137.137 293.515V292.307H134.561V291.235L137.049 287.915H138.137V291.459H138.945V292.307H138.137V293.515H137.137ZM137.137 291.459V290.107C137.137 289.651 137.145 289.355 137.153 289.099H137.137C137.009 289.323 136.833 289.587 136.569 289.947L135.929 290.811L135.417 291.467V291.475L136.113 291.459H137.137ZM141.653 293.619C140.485 293.619 139.501 292.827 139.501 290.691C139.501 288.595 140.501 287.811 141.653 287.811C142.821 287.811 143.805 288.595 143.805 290.691C143.805 292.827 142.821 293.619 141.653 293.619ZM141.653 288.683C140.821 288.683 140.581 289.643 140.581 290.691C140.581 291.771 140.821 292.755 141.653 292.755C142.485 292.755 142.709 291.779 142.709 290.691C142.709 289.643 142.485 288.683 141.653 288.683Z" fill="white"/>
<circle cx="159.21" cy="290.515" r="5" fill="#C36737"/>
<path d="M169.226 293.515L171.242 287.915H172.362L174.33 293.515H173.194L172.77 292.235H170.754L170.322 293.515H169.226ZM171.466 290.059L171.058 291.355H172.482L172.058 290.051L171.77 289.059H171.754L171.466 290.059ZM177.489 292.723H177.481C177.305 292.971 176.897 293.219 176.313 293.219C175.329 293.219 174.513 292.499 174.513 291.235C174.513 289.995 175.377 289.267 176.297 289.267C176.937 289.267 177.297 289.539 177.489 289.723H177.497V289.395H178.529V293.211C178.529 293.571 178.473 293.811 178.377 294.019C178.073 294.659 177.393 294.971 176.521 294.971C175.401 294.971 174.721 294.347 174.673 293.667H175.753C175.817 293.971 176.121 294.171 176.585 294.171C177.025 294.171 177.313 294.003 177.433 293.595C177.465 293.483 177.481 293.339 177.481 293.131V293.083C177.481 292.979 177.481 292.851 177.489 292.723ZM177.529 291.235C177.529 290.507 177.081 290.091 176.553 290.091C176.017 290.091 175.569 290.523 175.569 291.243C175.569 291.955 176.009 292.395 176.553 292.395C177.081 292.395 177.529 291.971 177.529 291.235ZM182.229 292.315H183.333C183.045 293.099 182.381 293.619 181.397 293.619C180.077 293.619 179.285 292.683 179.285 291.443C179.285 290.203 180.085 289.267 181.341 289.267C182.373 289.267 183.029 289.891 183.277 290.771C183.349 291.027 183.381 291.315 183.381 291.635V291.739H180.373C180.429 292.475 180.877 292.779 181.397 292.779C181.853 292.779 182.109 292.547 182.229 292.315ZM181.341 290.051C180.789 290.051 180.421 290.459 180.373 291.003H182.293C182.277 290.459 181.917 290.051 181.341 290.051ZM188.139 293.515V292.307H185.563V291.235L188.051 287.915H189.139V291.459H189.947V292.307H189.139V293.515H188.139ZM188.139 291.459V290.107C188.139 289.651 188.147 289.355 188.155 289.099H188.139C188.011 289.323 187.835 289.587 187.571 289.947L186.931 290.811L186.419 291.467V291.475L187.115 291.459H188.139ZM192.655 293.619C191.487 293.619 190.503 292.827 190.503 290.691C190.503 288.595 191.503 287.811 192.655 287.811C193.823 287.811 194.807 288.595 194.807 290.691C194.807 292.827 193.823 293.619 192.655 293.619ZM192.655 288.683C191.823 288.683 191.583 289.643 191.583 290.691C191.583 291.771 191.823 292.755 192.655 292.755C193.487 292.755 193.711 291.779 193.711 290.691C193.711 289.643 193.487 288.683 192.655 288.683ZM197.339 291.683V290.771H201.339V291.683H197.339ZM206.275 293.515V292.307H203.699V291.235L206.187 287.915H207.275V291.459H208.083V292.307H207.275V293.515H206.275ZM206.275 291.459V290.107C206.275 289.651 206.283 289.355 206.291 289.099H206.275C206.147 289.323 205.971 289.587 205.707 289.947L205.067 290.811L204.555 291.467V291.475L205.251 291.459H206.275ZM209.639 289.835H208.615C208.615 288.555 209.399 287.811 210.575 287.811C211.719 287.811 212.447 288.483 212.447 289.539C212.447 290.427 211.975 290.979 211.303 291.467L210.927 291.739C210.487 292.059 210.023 292.355 209.927 292.627H212.535V293.515H208.551C208.631 292.283 209.455 291.651 210.391 290.955L210.543 290.835C211.071 290.435 211.391 290.107 211.391 289.563C211.391 289.035 211.055 288.723 210.543 288.723C209.895 288.723 209.639 289.235 209.639 289.835Z" fill="white"/>
<circle cx="228.21" cy="290.515" r="5" fill="white"/>
<path d="M238.226 293.515L240.242 287.915H241.362L243.33 293.515H242.194L241.77 292.235H239.754L239.322 293.515H238.226ZM240.466 290.059L240.058 291.355H241.482L241.058 290.051L240.77 289.059H240.754L240.466 290.059ZM246.489 292.723H246.481C246.305 292.971 245.897 293.219 245.313 293.219C244.329 293.219 243.513 292.499 243.513 291.235C243.513 289.995 244.377 289.267 245.297 289.267C245.937 289.267 246.297 289.539 246.489 289.723H246.497V289.395H247.529V293.211C247.529 293.571 247.473 293.811 247.377 294.019C247.073 294.659 246.393 294.971 245.521 294.971C244.401 294.971 243.721 294.347 243.673 293.667H244.753C244.817 293.971 245.121 294.171 245.585 294.171C246.025 294.171 246.313 294.003 246.433 293.595C246.465 293.483 246.481 293.339 246.481 293.131V293.083C246.481 292.979 246.481 292.851 246.489 292.723ZM246.529 291.235C246.529 290.507 246.081 290.091 245.553 290.091C245.017 290.091 244.569 290.523 244.569 291.243C244.569 291.955 245.009 292.395 245.553 292.395C246.081 292.395 246.529 291.971 246.529 291.235ZM251.229 292.315H252.333C252.045 293.099 251.381 293.619 250.397 293.619C249.077 293.619 248.285 292.683 248.285 291.443C248.285 290.203 249.085 289.267 250.341 289.267C251.373 289.267 252.029 289.891 252.277 290.771C252.349 291.027 252.381 291.315 252.381 291.635V291.739H249.373C249.429 292.475 249.877 292.779 250.397 292.779C250.853 292.779 251.109 292.547 251.229 292.315ZM250.341 290.051C249.789 290.051 249.421 290.459 249.373 291.003H251.293C251.277 290.459 250.917 290.051 250.341 290.051ZM255.387 293.083V292.107L257.251 291.075L257.867 290.731V290.707L257.251 290.371L255.387 289.355V288.379L258.843 290.387V291.123L255.387 293.083ZM264.137 293.515V292.307H261.561V291.235L264.049 287.915H265.137V291.459H265.945V292.307H265.137V293.515H264.137ZM264.137 291.459V290.107C264.137 289.651 264.145 289.355 264.153 289.099H264.137C264.009 289.323 263.833 289.587 263.569 289.947L262.929 290.811L262.417 291.467V291.475L263.113 291.459H264.137ZM267.501 289.835H266.477C266.477 288.555 267.261 287.811 268.437 287.811C269.581 287.811 270.309 288.483 270.309 289.539C270.309 290.427 269.837 290.979 269.165 291.467L268.789 291.739C268.349 292.059 267.885 292.355 267.789 292.627H270.397V293.515H266.413C266.493 292.283 267.317 291.651 268.253 290.955L268.405 290.835C268.933 290.435 269.253 290.107 269.253 289.563C269.253 289.035 268.917 288.723 268.405 288.723C267.757 288.723 267.501 289.235 267.501 289.835Z" fill="white"/>
<path d="M17.256 330.4V331.456L18.264 331.128L18.48 331.792L17.472 332.128L18.096 332.976L17.528 333.384L16.904 332.536L16.288 333.384L15.72 332.976L16.336 332.12L15.336 331.792L15.552 331.128L16.552 331.456V330.4H17.256ZM19.0365 334.272H20.1085C20.1805 334.976 20.7005 335.224 21.3565 335.224C22.0125 335.224 22.4845 334.984 22.4845 334.48C22.4845 333.976 21.9005 333.832 21.2765 333.672L20.7725 333.544C19.7805 333.288 19.1645 332.912 19.1645 331.944C19.1645 330.872 20.1325 330.296 21.2845 330.296C22.4125 330.296 23.3725 330.776 23.4365 332.008H22.3885C22.3165 331.416 21.9085 331.168 21.2685 331.168C20.6445 331.168 20.2605 331.44 20.2605 331.832C20.2605 332.24 20.5085 332.4 21.3885 332.616L22.0045 332.768C22.4765 332.888 23.6045 333.152 23.6045 334.344C23.6045 335.392 22.7725 336.104 21.3245 336.104C19.9965 336.104 19.1165 335.552 19.0365 334.272ZM26.1703 336.112C24.8663 336.112 24.0983 335.184 24.0983 333.936C24.0983 332.688 24.9143 331.76 26.1703 331.76C27.4263 331.76 28.2423 332.688 28.2423 333.936C28.2423 335.184 27.4583 336.112 26.1703 336.112ZM26.1703 332.584C25.5783 332.584 25.1863 333.088 25.1863 333.952C25.1863 334.824 25.5703 335.28 26.1703 335.28C26.7703 335.28 27.1543 334.824 27.1543 333.952C27.1543 333.088 26.7623 332.584 26.1703 332.584ZM30.8098 335.232C31.2498 335.232 31.6018 334.928 31.6018 334.216V331.88H32.6658V336H31.6418V335.544H31.6338C31.4418 335.848 31.0418 336.104 30.4418 336.104C29.7938 336.104 29.2498 335.8 29.0418 335.064C28.9858 334.872 28.9538 334.608 28.9538 334.152V331.88H30.0178V334.152C30.0178 334.352 30.0338 334.52 30.0658 334.64C30.1778 335.08 30.4658 335.232 30.8098 335.232ZM34.7045 332.368H34.7205C34.8565 332.048 35.2085 331.752 35.8325 331.752H35.9045V332.736C35.8245 332.728 35.7525 332.72 35.6805 332.72C35.0405 332.72 34.7445 333.088 34.7445 333.824V336H33.6805V331.88H34.7045V332.368ZM39.0617 333.264C38.9977 332.936 38.7177 332.584 38.2297 332.584C37.6457 332.584 37.2617 333.056 37.2617 333.952C37.2617 334.88 37.6697 335.28 38.2617 335.28C38.7737 335.28 39.0057 334.944 39.1017 334.608H40.1097C39.9497 335.504 39.2777 336.112 38.2297 336.112C36.9017 336.112 36.1737 335.2 36.1737 333.936C36.1737 332.688 36.9577 331.76 38.2377 331.76C39.2457 331.76 39.9577 332.36 40.0697 333.264H39.0617ZM43.4916 334.8H44.5956C44.3076 335.584 43.6436 336.104 42.6596 336.104C41.3396 336.104 40.5476 335.168 40.5476 333.928C40.5476 332.688 41.3476 331.752 42.6036 331.752C43.6356 331.752 44.2916 332.376 44.5396 333.256C44.6116 333.512 44.6436 333.8 44.6436 334.12V334.224H41.6356C41.6916 334.96 42.1396 335.264 42.6596 335.264C43.1156 335.264 43.3716 335.032 43.4916 334.8ZM42.6036 332.536C42.0516 332.536 41.6836 332.944 41.6356 333.488H43.5556C43.5396 332.944 43.1796 332.536 42.6036 332.536ZM46.5402 331.88V333.04H45.3402V331.88H46.5402ZM46.5402 334.84V336H45.3402V334.84H46.5402ZM50.4061 336H49.3021V330.4H53.3181V331.28H50.4061V332.608H52.9581V333.496H50.4061V336ZM56.5035 334.8H57.6075C57.3195 335.584 56.6555 336.104 55.6715 336.104C54.3515 336.104 53.5595 335.168 53.5595 333.928C53.5595 332.688 54.3595 331.752 55.6155 331.752C56.6475 331.752 57.3035 332.376 57.5515 333.256C57.6235 333.512 57.6555 333.8 57.6555 334.12V334.224H54.6475C54.7035 334.96 55.1515 335.264 55.6715 335.264C56.1275 335.264 56.3835 335.032 56.5035 334.8ZM55.6155 332.536C55.0635 332.536 54.6955 332.944 54.6475 333.488H56.5675C56.5515 332.944 56.1915 332.536 55.6155 332.536ZM59.4401 332.368H59.4561C59.5921 332.048 59.9441 331.752 60.5681 331.752H60.6401V332.736C60.5601 332.728 60.4881 332.72 60.4161 332.72C59.7761 332.72 59.4801 333.088 59.4801 333.824V336H58.4161V331.88H59.4401V332.368ZM60.9471 332.616V331.88H61.4671V330.608H62.5311V331.88H63.2671V332.616H62.5311V334.696C62.5311 335.168 62.6511 335.216 63.0591 335.216H63.2831V336H62.7791C62.3471 336 62.1791 335.992 62.0431 335.96C61.7231 335.888 61.5471 335.704 61.4911 335.312C61.4751 335.208 61.4671 335.072 61.4671 334.896V332.616H60.9471ZM64.0158 331.32V330.4H65.0798V331.32H64.0158ZM64.0158 336V331.88H65.0798V336H64.0158ZM66.093 336V330.4H67.157V336H66.093ZM68.1702 331.32V330.4H69.2342V331.32H68.1702ZM68.1702 336V331.88H69.2342V336H68.1702ZM69.9434 332.616V331.88H70.4634V330.608H71.5274V331.88H72.2634V332.616H71.5274V334.696C71.5274 335.168 71.6474 335.216 72.0554 335.216H72.2794V336H71.7754C71.3434 336 71.1754 335.992 71.0394 335.96C70.7194 335.888 70.5434 335.704 70.4874 335.312C70.4714 335.208 70.4634 335.072 70.4634 334.896V332.616H69.9434ZM72.5481 331.88H73.6441L74.3401 334.152L74.5241 334.832H74.5401L74.7241 334.152L75.4441 331.88H76.5161L74.8441 336.472C74.5561 337.264 74.2041 337.376 73.4201 337.376H72.8601V336.568H73.1401C73.7561 336.568 73.9561 336.376 73.9561 336.056C73.9561 335.84 73.8121 335.552 73.7401 335.336L72.5481 331.88ZM79.8268 330.4V336H78.7068V330.4H79.8268ZM83.2839 336.104C81.6519 336.104 80.6919 334.936 80.6919 333.2C80.6919 331.504 81.7159 330.296 83.2839 330.296C84.8599 330.296 85.8839 331.504 85.8839 333.2C85.8839 334.016 85.6679 334.704 85.2759 335.208L85.8359 335.752L85.2759 336.304L84.6919 335.736C84.2999 335.976 83.8279 336.104 83.2839 336.104ZM83.5079 334.568L84.0679 334.008L84.5159 334.456C84.6839 334.112 84.7639 333.672 84.7639 333.2C84.7639 332.104 84.2679 331.176 83.2839 331.176C82.3079 331.176 81.8119 332.104 81.8119 333.2C81.8119 334.336 82.2999 335.224 83.2839 335.224C83.5559 335.224 83.7959 335.168 83.9879 335.048L83.5079 334.568Z" fill="white"/>
</g>
<defs>
<clipPath id="clip0_1128_14602">
<rect width="350" height="348" fill="white"/>
</clipPath>
</defs>
</svg>
